<?xml version="1.0" encoding="utf-8"?>
<!-- Generator: Adobe Illustrator 16.0.3, SVG Export Plug-In . SVG Version: 6.00 Build 0)  -->
<!DOCTYPE svg PUBLIC "-//W3C//DTD SVG 1.1//EN" "http://www.w3.org/Graphics/SVG/1.1/DTD/svg11.dtd">
<svg version="1.1" id="Layer_1" xmlns="http://www.w3.org/2000/svg" xmlns:xlink="http://www.w3.org/1999/xlink" x="0px" y="0px"
	 width="40px" height="40px" viewBox="0.372 4.483 40 40" enable-background="new 0.372 4.483 40 40" xml:space="preserve">
<g>
	<path fill="#FFFFFF" d="M29.413,22.187c-0.072,2.089-0.715,3.948-1.998,5.583c-1.073,1.366-1.751,2.909-2.081,4.611
		c-0.085,0.434-0.357,0.698-0.758,0.747c-0.328,0.044-0.693-0.154-0.815-0.5c-0.064-0.186-0.073-0.421-0.034-0.618
		c0.378-1.951,1.168-3.718,2.401-5.282c3.418-4.341,0.945-10.786-4.497-11.742c-4.002-0.703-7.881,2.082-8.478,6.083
		c-0.313,2.107,0.208,3.994,1.488,5.682c1.178,1.562,1.961,3.302,2.368,5.216c0.074,0.353,0.071,0.687-0.225,0.947
		c-0.498,0.441-1.187,0.179-1.38-0.487c-0.255-0.875-0.495-1.77-0.865-2.599c-0.332-0.75-0.79-1.454-1.269-2.12
		c-1.885-2.618-2.427-5.47-1.337-8.504c1.131-3.148,3.421-5.092,6.703-5.796c1.855-0.397,3.687-0.203,5.404,0.61
		c2.596,1.226,4.33,3.212,5.027,6.025C29.243,20.745,29.306,21.473,29.413,22.187z"/>
	<path fill="#FFFFFF" d="M20.431,36.658c1.301,0,2.605-0.002,3.908,0c0.666,0,1.123,0.425,1.127,1.039
		c0.006,0.634-0.437,1.076-1.117,1.078c-2.654,0.003-5.309,0.003-7.962,0c-0.653-0.001-1.106-0.449-1.106-1.066
		c0.004-0.607,0.471-1.049,1.124-1.051C17.749,36.656,19.091,36.658,20.431,36.658z"/>
	<path fill="#FFFFFF" d="M20.36,35.928c-1.311,0-2.625,0-3.935,0c-0.673-0.002-1.144-0.437-1.142-1.059
		c0.002-0.609,0.46-1.055,1.119-1.055c2.541,0,5.084,0.003,7.627,0.015c0.265,0,0.542,0.019,0.791,0.101
		c0.49,0.159,0.732,0.633,0.636,1.155c-0.086,0.466-0.516,0.84-1.01,0.841C23.083,35.929,21.723,35.926,20.36,35.928z"/>
	<path fill="#FFFFFF" d="M20.342,41.618c-1.32,0-2.643,0-3.964,0c-0.62,0-1.089-0.445-1.097-1.043
		c-0.002-0.601,0.449-1.063,1.074-1.068c0.795-0.01,1.595-0.002,2.39-0.002c1.878,0,3.754-0.004,5.629,0
		c0.455,0,0.806,0.194,0.996,0.611c0.183,0.399,0.133,0.788-0.147,1.133c-0.221,0.269-0.513,0.377-0.854,0.375
		c-1.343-0.006-2.684-0.004-4.026-0.004C20.342,41.618,20.342,41.618,20.342,41.618z"/>
	<path fill="#FFFFFF" d="M21.668,7.343c0,0.604,0.058,1.214-0.017,1.809c-0.082,0.68-0.71,1.128-1.349,1.08
		c-0.685-0.053-1.22-0.555-1.241-1.252c-0.031-1.087-0.032-2.176,0.001-3.262c0.022-0.744,0.632-1.256,1.372-1.234
		c0.706,0.021,1.247,0.585,1.265,1.318C21.7,5.823,21.7,5.842,21.7,5.863c0,0.493,0,0.987,0,1.48
		C21.688,7.343,21.68,7.343,21.668,7.343z"/>
	<path fill="#FFFFFF" d="M34.965,13.547c-0.014,0.406-0.237,0.798-0.665,1.049c-0.885,0.521-1.774,1.033-2.669,1.541
		c-0.673,0.383-1.454,0.176-1.835-0.473c-0.361-0.614-0.166-1.391,0.482-1.783c0.907-0.546,1.821-1.077,2.746-1.587
		C33.905,11.812,34.959,12.453,34.965,13.547z"/>
	<path fill="#FFFFFF" d="M15.624,10.564c-0.037,0.578-0.416,1.084-0.963,1.248c-0.548,0.165-1.171-0.031-1.463-0.516
		c-0.574-0.958-1.134-1.925-1.672-2.905c-0.315-0.575-0.064-1.324,0.517-1.684c0.54-0.331,1.376-0.203,1.708,0.334
		c0.604,0.975,1.16,1.976,1.722,2.979C15.563,10.178,15.575,10.381,15.624,10.564z"/>
	<path fill="#FFFFFF" d="M9.777,16.369c-0.224-0.079-0.465-0.129-0.67-0.247c-0.912-0.51-1.815-1.036-2.719-1.566
		c-0.564-0.331-0.761-1.132-0.437-1.731c0.34-0.624,1.134-0.888,1.744-0.55c0.933,0.516,1.855,1.053,2.773,1.598
		c0.551,0.327,0.784,0.938,0.615,1.508C10.91,15.958,10.397,16.336,9.777,16.369z"/>
	<path fill="#FFFFFF" d="M29.389,7.863c-0.066,0.209-0.099,0.438-0.203,0.624c-0.518,0.922-1.041,1.841-1.592,2.745
		c-0.467,0.773-1.647,0.814-2.181,0.088c-0.324-0.438-0.354-0.925-0.091-1.396c0.524-0.94,1.063-1.873,1.617-2.798
		c0.295-0.496,0.926-0.712,1.479-0.551C28.967,6.732,29.349,7.26,29.389,7.863z"/>
	<path fill="#FFFFFF" d="M34.147,19.805c0.544,0,1.089-0.018,1.631,0.006c0.671,0.029,1.182,0.538,1.231,1.184
		c0.05,0.674-0.375,1.257-1.027,1.403c-0.088,0.019-0.18,0.025-0.271,0.025c-1.048,0.004-2.095,0.01-3.144,0.001
		c-0.741-0.004-1.3-0.571-1.304-1.301c-0.006-0.751,0.541-1.306,1.311-1.317c0.525-0.008,1.049-0.001,1.57-0.001
		C34.147,19.805,34.147,19.805,34.147,19.805z"/>
	<path fill="#FFFFFF" d="M6.609,22.428c-0.515,0-1.031,0.004-1.544-0.001c-0.752-0.011-1.334-0.59-1.335-1.321
		c-0.002-0.71,0.578-1.292,1.319-1.299c1.059-0.009,2.118-0.016,3.179,0c0.607,0.01,1.091,0.417,1.232,0.982
		c0.139,0.558-0.098,1.159-0.619,1.449c-0.187,0.104-0.415,0.167-0.629,0.175c-0.533,0.025-1.069,0.009-1.604,0.009
		C6.609,22.424,6.609,22.426,6.609,22.428z"/>
	<path fill="#FFFFFF" d="M20.246,42.364c0.836,0,1.673-0.004,2.51,0c0.544,0.006,0.676,0.207,0.464,0.699
		c-0.164,0.377-0.332,0.756-0.494,1.134c-0.085,0.2-0.222,0.286-0.443,0.286c-1.352-0.006-2.703-0.006-4.053-0.002
		c-0.224,0.002-0.36-0.086-0.446-0.286c-0.174-0.407-0.356-0.812-0.527-1.22c-0.151-0.364-0.013-0.595,0.388-0.602
		c0.868-0.012,1.733-0.003,2.602-0.003C20.246,42.366,20.246,42.366,20.246,42.364z"/>
</g>
</svg>
