<?xml version="1.0" encoding="utf-8"?>
<!-- Generator: Adobe Illustrator 16.0.3, SVG Export Plug-In . SVG Version: 6.00 Build 0)  -->
<!DOCTYPE svg PUBLIC "-//W3C//DTD SVG 1.1//EN" "http://www.w3.org/Graphics/SVG/1.1/DTD/svg11.dtd">
<svg version="1.1" id="Layer_1" xmlns="http://www.w3.org/2000/svg" xmlns:xlink="http://www.w3.org/1999/xlink" x="0px" y="0px"
	 width="40.009px" height="42.838px" viewBox="0 0 40.009 42.838" enable-background="new 0 0 40.009 42.838" xml:space="preserve">
<g>
	<path fill-rule="evenodd" clip-rule="evenodd" fill="#FFFFFF" d="M29.602,6.826c-0.34,0.863-0.421,1.676-0.756,2.41
		c-1.07,2.349-2.163,4.689-2.907,7.169c-1.187,3.953-1.602,7.921-0.163,11.911c0.482,1.337,1.12,2.597,1.971,3.739
		c0.117,0.158,0.312,0.318,0.189,0.531c-0.125,0.223-0.362,0.109-0.554,0.087c-5.841-0.714-10.042-4.944-10.776-10.964
		c-0.769-6.293,1.276-11.542,6.079-15.685c2.209-1.908,4.468-3.758,6.71-5.629c0.573-0.479,1.11-0.542,1.639-0.084
		c3.109,2.695,5.979,5.598,7.68,9.432c1.537,3.466,1.601,7.046,0.746,10.691c-0.864,3.68-2.532,6.942-4.997,9.801
		c-0.457,0.531-0.972,1-1.534,1.412c-1.076,0.791-1.968,0.682-2.699-0.43c-2.079-3.157-2.975-6.609-2.455-10.385
		c0.286-2.083,1-4.048,1.692-6.019c0.627-1.782,1.225-3.579,1.029-5.514C30.409,8.451,30.182,7.644,29.602,6.826z"/>
	<path fill-rule="evenodd" clip-rule="evenodd" fill="#FFFFFF" d="M23.785,36.92c-2.811,0.043-5.623,0.149-8.408-0.379
		c-3.785-0.718-7.228-2.123-9.973-4.939c-2.261-2.317-3.329-5.173-3.77-8.318c-0.318-2.292-0.068-4.58-0.022-6.869
		c0.025-1.193-0.013-2.38-0.23-3.559c-0.199-1.078-0.577-2.072-1.176-2.987c-0.36-0.551-0.257-0.791,0.386-0.944
		c0.515-0.12,1.038-0.12,1.532,0.053C4.19,9.694,6.375,9.914,8.482,10.46c2.206,0.575,4.286,1.397,5.738,3.279
		c0.836,1.085,1.187,2.307,0.783,3.671c-0.058,0.193-0.11,0.439-0.336,0.463c-0.289,0.035-0.343-0.245-0.411-0.451
		c-0.307-0.909-0.465-1.87-1.091-2.657c-1.143-1.441-2.697-2.194-4.408-2.693c-1.318-0.386-2.685-0.526-4.031-0.771
		c-0.402-0.072-0.707-0.017-0.485,0.504c0.847,2.003,0.979,4.135,1.14,6.266c0.169,2.238,0.271,4.488,0.915,6.664
		c1.532,5.188,5.51,9.529,11.558,10.156c2.29,0.236,4.58,0.199,6.874,0.196c2.294,0,4.591,0.023,6.851,0.475
		c1.604,0.321,3.104,0.887,4.307,2.071c1.007,0.988,1.379,2.192,1.236,3.563c-0.111,1.057-0.969,1.721-2.023,1.635
		c-0.864-0.072-1.175-0.479-1.037-1.326c0.063-0.396,0.124-0.801,0.131-1.204c0.03-1.57-0.759-2.583-2.282-2.988
		c-0.894-0.237-1.799-0.392-2.728-0.392C27.382,36.922,25.583,36.92,23.785,36.92z"/>
</g>
</svg>
