<?xml version="1.0" encoding="utf-8"?>
<!-- Generator: Adobe Illustrator 16.0.3, SVG Export Plug-In . SVG Version: 6.00 Build 0)  -->
<!DOCTYPE svg PUBLIC "-//W3C//DTD SVG 1.1//EN" "http://www.w3.org/Graphics/SVG/1.1/DTD/svg11.dtd">
<svg version="1.1" id="Layer_1" xmlns="http://www.w3.org/2000/svg" xmlns:xlink="http://www.w3.org/1999/xlink" x="0px" y="0px"
	 width="40.744px" height="48.966px" viewBox="0 0 40.744 48.966" enable-background="new 0 0 40.744 48.966" xml:space="preserve">
<g>
	<path fill-rule="evenodd" clip-rule="evenodd" fill="#FFFFFF" d="M31.441,21.671c-0.091,2.558-0.876,4.834-2.448,6.836
		c-1.315,1.671-2.143,3.562-2.547,5.644c-0.104,0.532-0.438,0.855-0.928,0.916c-0.403,0.052-0.849-0.189-0.997-0.612
		c-0.081-0.229-0.091-0.515-0.043-0.758c0.462-2.388,1.429-4.549,2.94-6.466c4.184-5.313,1.157-13.203-5.507-14.374
		c-4.897-0.86-9.646,2.549-10.376,7.446c-0.384,2.579,0.255,4.889,1.822,6.957c1.443,1.91,2.401,4.042,2.898,6.383
		c0.091,0.432,0.087,0.841-0.274,1.16c-0.609,0.541-1.453,0.219-1.69-0.596c-0.313-1.072-0.605-2.166-1.058-3.182
		c-0.406-0.916-0.967-1.778-1.554-2.595c-2.307-3.204-2.971-6.695-1.637-10.41c1.385-3.853,4.188-6.233,8.206-7.095
		c2.271-0.486,4.512-0.248,6.615,0.748c3.177,1.5,5.3,3.931,6.153,7.376C31.231,19.907,31.307,20.798,31.441,21.671z"/>
	<path fill-rule="evenodd" clip-rule="evenodd" fill="#FFFFFF" d="M20.445,39.388c1.593,0,3.187-0.002,4.782,0
		c0.816,0,1.376,0.518,1.381,1.27c0.006,0.779-0.536,1.319-1.368,1.322c-3.25,0.003-6.498,0.003-9.747,0
		c-0.798-0.002-1.354-0.552-1.353-1.307c0.005-0.744,0.576-1.283,1.375-1.285C17.161,39.386,18.804,39.388,20.445,39.388z"/>
	<path fill-rule="evenodd" clip-rule="evenodd" fill="#FFFFFF" d="M20.357,38.494c-1.605,0-3.213,0-4.816,0
		c-0.824-0.001-1.4-0.535-1.398-1.297c0.002-0.746,0.563-1.291,1.369-1.291c3.11,0,6.223,0.004,9.337,0.02
		c0.323,0.001,0.663,0.021,0.968,0.121c0.6,0.195,0.896,0.776,0.778,1.414c-0.105,0.572-0.632,1.029-1.236,1.031
		C23.691,38.497,22.024,38.493,20.357,38.494z"/>
	<path fill-rule="evenodd" clip-rule="evenodd" fill="#FFFFFF" d="M20.336,45.46c-1.617,0-3.236,0-4.853,0
		c-0.76,0-1.334-0.545-1.343-1.277c-0.004-0.736,0.55-1.301,1.314-1.31c0.974-0.011,1.952-0.001,2.926-0.001
		c2.299,0,4.595-0.004,6.891,0c0.556,0,0.986,0.238,1.218,0.748c0.224,0.49,0.164,0.966-0.18,1.388
		c-0.269,0.329-0.626,0.459-1.047,0.458c-1.643-0.006-3.283-0.004-4.927-0.004C20.336,45.46,20.336,45.46,20.336,45.46z"/>
	<path fill-rule="evenodd" clip-rule="evenodd" fill="#FFFFFF" d="M21.958,3.501c0,0.74,0.07,1.487-0.019,2.215
		c-0.102,0.832-0.869,1.381-1.652,1.322c-0.838-0.065-1.494-0.679-1.519-1.533c-0.038-1.331-0.04-2.664,0.001-3.994
		c0.027-0.91,0.774-1.538,1.679-1.51c0.864,0.026,1.526,0.716,1.548,1.613c0.002,0.025,0.002,0.049,0.002,0.075
		c0,0.603,0,1.208,0,1.812C21.984,3.501,21.971,3.501,21.958,3.501z"/>
	<path fill-rule="evenodd" clip-rule="evenodd" fill="#FFFFFF" d="M38.236,11.096c-0.017,0.498-0.289,0.977-0.814,1.285
		c-1.083,0.638-2.173,1.264-3.268,1.885c-0.824,0.47-1.78,0.217-2.245-0.579c-0.443-0.751-0.204-1.703,0.59-2.182
		c1.109-0.668,2.228-1.318,3.361-1.943C36.937,8.971,38.23,9.756,38.236,11.096z"/>
	<path fill-rule="evenodd" clip-rule="evenodd" fill="#FFFFFF" d="M14.56,7.445c-0.045,0.708-0.509,1.327-1.179,1.527
		c-0.671,0.202-1.434-0.038-1.791-0.631c-0.703-1.173-1.389-2.357-2.047-3.557C9.157,4.08,9.465,3.163,10.176,2.723
		c0.66-0.405,1.684-0.249,2.091,0.409c0.738,1.193,1.42,2.419,2.108,3.646C14.484,6.972,14.5,7.22,14.56,7.445z"/>
	<path fill-rule="evenodd" clip-rule="evenodd" fill="#FFFFFF" d="M7.403,14.55c-0.275-0.097-0.571-0.159-0.821-0.302
		c-1.117-0.625-2.223-1.269-3.328-1.917c-0.691-0.406-0.932-1.387-0.535-2.12c0.416-0.763,1.387-1.087,2.134-0.673
		c1.142,0.632,2.271,1.288,3.394,1.956c0.675,0.401,0.96,1.148,0.754,1.846C8.789,14.048,8.161,14.51,7.403,14.55z"/>
	<path fill-rule="evenodd" clip-rule="evenodd" fill="#FFFFFF" d="M31.409,4.138c-0.081,0.255-0.12,0.536-0.248,0.764
		c-0.634,1.129-1.275,2.253-1.948,3.36c-0.573,0.947-2.018,0.997-2.671,0.108c-0.396-0.537-0.433-1.132-0.112-1.709
		c0.644-1.151,1.304-2.293,1.98-3.426c0.362-0.607,1.134-0.872,1.813-0.675C30.892,2.753,31.361,3.4,31.409,4.138z"/>
	<path fill-rule="evenodd" clip-rule="evenodd" fill="#FFFFFF" d="M37.235,18.757c0.666,0,1.334-0.022,1.997,0.007
		c0.822,0.035,1.447,0.659,1.507,1.449c0.062,0.825-0.458,1.539-1.257,1.717c-0.108,0.023-0.221,0.031-0.332,0.031
		c-1.283,0.005-2.563,0.012-3.848,0.002c-0.907-0.006-1.592-0.7-1.596-1.593c-0.007-0.92,0.664-1.599,1.604-1.612
		c0.644-0.01,1.284-0.002,1.924-0.002C37.235,18.757,37.235,18.757,37.235,18.757z"/>
	<path fill-rule="evenodd" clip-rule="evenodd" fill="#FFFFFF" d="M3.524,21.968c-0.63,0-1.262,0.005-1.89-0.001
		C0.713,21.953,0.001,21.244,0,20.35c-0.003-0.87,0.707-1.581,1.615-1.59c1.296-0.012,2.593-0.02,3.892,0
		c0.743,0.012,1.335,0.51,1.507,1.202c0.171,0.683-0.12,1.418-0.757,1.774c-0.228,0.128-0.508,0.204-0.769,0.214
		c-0.654,0.03-1.31,0.01-1.964,0.01C3.524,21.962,3.524,21.965,3.524,21.968z"/>
	<path fill-rule="evenodd" clip-rule="evenodd" fill="#FFFFFF" d="M20.217,46.374c1.024,0,2.048-0.004,3.073,0
		c0.665,0.005,0.826,0.252,0.567,0.854c-0.199,0.462-0.406,0.925-0.604,1.388c-0.104,0.246-0.272,0.352-0.543,0.352
		c-1.654-0.009-3.308-0.009-4.961-0.002c-0.273,0.002-0.441-0.107-0.546-0.352c-0.213-0.499-0.435-0.994-0.645-1.492
		c-0.185-0.447-0.016-0.73,0.475-0.737c1.062-0.014,2.122-0.003,3.184-0.003C20.217,46.376,20.217,46.375,20.217,46.374z"/>
</g>
</svg>
