<?xml version="1.0" encoding="utf-8"?>
<!-- Generator: Adobe Illustrator 16.0.3, SVG Export Plug-In . SVG Version: 6.00 Build 0)  -->
<!DOCTYPE svg PUBLIC "-//W3C//DTD SVG 1.1//EN" "http://www.w3.org/Graphics/SVG/1.1/DTD/svg11.dtd">
<svg version="1.1" id="Layer_1" xmlns="http://www.w3.org/2000/svg" xmlns:xlink="http://www.w3.org/1999/xlink" x="0px" y="0px"
	 width="44.953px" height="44.953px" viewBox="0 0 44.953 44.953" enable-background="new 0 0 44.953 44.953" xml:space="preserve">
<path fill="#414042" d="M21.802,0h1.351c5.519,0,10.746,2.344,15.683,7.035c3.47,4.21,5.378,8.022,5.727,11.433
	c0.264,1.612,0.392,2.636,0.392,3.072v1.852c0,2.99-1.017,6.455-3.05,10.387C38.942,38.63,34.724,42,29.251,43.887
	c-2.772,0.712-4.944,1.066-6.51,1.066h-0.525c-5.735,0-11.059-2.31-15.964-6.928C2.085,33.41,0,28.044,0,21.932v-0.26
	c0-0.205,0.045-0.379,0.132-0.523c0-0.102-0.045-0.152-0.132-0.152c0.567-4.328,1.722-7.826,3.464-10.499
	c2.76-4.488,7.013-7.682,12.764-9.584C18.375,0.305,20.234,0,21.802,0z M18.754,14.352l0.13,4.117c0,0.13-0.13,0.268-0.394,0.414
	h-2.263v4.64h2.263c0.132,0,0.264,0.138,0.394,0.414v11.434l0.065,0.807h4.725v-12.37c0.03-0.188,0.118-0.284,0.262-0.284h3.857
	c0.172,0,0.397-1.46,0.675-4.378v-0.261h-4.532c-0.173,0-0.262-0.085-0.262-0.26v-3.204c0-1.363,0.799-2.117,2.397-2.263h2.656
	V9.168c0-0.26-0.929-0.392-2.786-0.392h-0.678c-3.064,0-5.06,1.148-5.986,3.441C19.103,12.697,18.929,13.411,18.754,14.352z"/>
</svg>
