<?xml version="1.0" encoding="utf-8"?>
<!-- Generator: Adobe Illustrator 16.0.3, SVG Export Plug-In . SVG Version: 6.00 Build 0)  -->
<!DOCTYPE svg PUBLIC "-//W3C//DTD SVG 1.1//EN" "http://www.w3.org/Graphics/SVG/1.1/DTD/svg11.dtd">
<svg version="1.1" id="Layer_1" xmlns="http://www.w3.org/2000/svg" xmlns:xlink="http://www.w3.org/1999/xlink" x="0px" y="0px"
	 width="15.803px" height="17.482px" viewBox="0 0 15.803 17.482" enable-background="new 0 0 15.803 17.482" xml:space="preserve">
<g>
	<path fill-rule="evenodd" clip-rule="evenodd" fill="#FFFFFF" d="M-26.33,3.648c0,3.395,0,6.791,0,10.186
		c-0.16,0.264-0.395,0.346-0.703,0.346c-4.797-0.006-9.6-0.006-14.397,0c-0.309,0-0.542-0.082-0.702-0.346c0-3.395,0-6.791,0-10.186
		c0.16-0.266,0.394-0.348,0.702-0.346c4.798,0.006,9.601,0.006,14.397,0C-26.724,3.301-26.49,3.383-26.33,3.648z M-40.378,13.17
		c4.106,0,8.201,0,12.23,0c-1.482-1.486-2.98-2.986-4.492-4.496c-0.361,0.266-0.756,0.559-1.151,0.848
		c-0.349,0.254-0.531,0.254-0.881,0c-0.403-0.297-0.806-0.592-1.185-0.871C-37.374,10.164-38.869,11.66-40.378,13.17z
		 M-40.136,4.297c2.019,1.48,3.958,2.902,5.905,4.332c1.946-1.43,3.89-2.854,5.905-4.332C-32.298,4.297-36.163,4.297-40.136,4.297z
		 M-41.133,4.779c0,2.59,0,5.109,0,7.596c1.446-1.451,2.904-2.908,4.378-4.385C-38.172,6.951-39.628,5.883-41.133,4.779z
		 M-27.33,4.779c-1.504,1.104-2.959,2.172-4.381,3.215c1.473,1.475,2.934,2.936,4.381,4.385C-27.33,9.893-27.33,7.369-27.33,4.779z"
		/>
</g>
<g>
	<path fill-rule="evenodd" clip-rule="evenodd" fill="#FFFFFF" d="M12.469-11.072c-0.412,0.019-0.813-0.055-1.207-0.16
		c-0.533-0.144-1.043-0.352-1.529-0.611c-0.318-0.168-0.629-0.352-0.938-0.538c-0.236-0.146-0.471-0.301-0.698-0.464
		c-0.541-0.387-1.065-0.793-1.562-1.234c-0.354-0.318-0.712-0.634-1.053-0.963c-0.422-0.411-0.836-0.832-1.238-1.262
		c-0.348-0.375-0.68-0.765-1.01-1.154c-0.21-0.251-0.416-0.507-0.604-0.774c-0.296-0.418-0.587-0.841-0.858-1.273
		c-0.268-0.425-0.495-0.872-0.689-1.338c-0.181-0.428-0.322-0.862-0.411-1.318c-0.062-0.302-0.081-0.609-0.063-0.918
		c0.021-0.37,0.119-0.722,0.319-1.039c0.123-0.191,0.282-0.352,0.462-0.49c0.307-0.238,0.617-0.473,0.934-0.7
		c0.163-0.116,0.327-0.241,0.525-0.303c0.158-0.053,0.321-0.06,0.484-0.048c0.24,0.019,0.465,0.101,0.655,0.253
		c0.129,0.105,0.247,0.229,0.366,0.349c0.178,0.177,0.354,0.356,0.531,0.535c0.291,0.292,0.59,0.581,0.875,0.88
		c0.154,0.162,0.239,0.368,0.281,0.59c0.047,0.253,0.043,0.504-0.073,0.738c-0.071,0.144-0.165,0.274-0.249,0.411
		c-0.148,0.243-0.303,0.48-0.412,0.743c-0.043,0.104-0.013,0.195,0.024,0.286c0.203,0.487,0.485,0.935,0.813,1.346
		c0.249,0.317,0.511,0.626,0.775,0.932c0.173,0.198,0.358,0.385,0.546,0.568c0.248,0.244,0.496,0.487,0.754,0.722
		c0.263,0.231,0.533,0.456,0.811,0.674c0.197,0.155,0.407,0.299,0.616,0.435c0.256,0.168,0.523,0.307,0.809,0.419
		c0.125,0.047,0.232,0.03,0.336-0.029c0.285-0.162,0.57-0.329,0.848-0.509c0.43-0.274,0.865-0.274,1.314-0.058
		c0.215,0.105,0.363,0.287,0.527,0.449c0.457,0.452,0.912,0.906,1.365,1.362c0.258,0.261,0.361,0.583,0.354,0.948
		c-0.006,0.275-0.123,0.507-0.281,0.725c-0.203,0.274-0.391,0.559-0.6,0.831c-0.178,0.231-0.367,0.459-0.611,0.631
		c-0.182,0.126-0.381,0.222-0.598,0.272c-0.207,0.05-0.422,0.071-0.635,0.107C12.471-11.059,12.471-11.065,12.469-11.072z
		 M10.568-14.828c-0.057-0.005-0.117,0-0.172-0.02c-0.193-0.066-0.389-0.127-0.576-0.21c-0.4-0.185-0.772-0.418-1.124-0.681
		c-0.296-0.221-0.588-0.452-0.865-0.698c-0.367-0.327-0.729-0.664-1.078-1.011c-0.281-0.279-0.541-0.575-0.803-0.872
		c-0.184-0.208-0.358-0.423-0.527-0.645c-0.142-0.185-0.271-0.383-0.404-0.574c-0.218-0.315-0.395-0.654-0.537-1.01
		c-0.063-0.155-0.123-0.313-0.121-0.485c0.004-0.213,0.071-0.408,0.156-0.6c0.152-0.347,0.357-0.662,0.568-0.971
		c0.11-0.162,0.049-0.382-0.056-0.487c-0.241-0.236-0.479-0.476-0.721-0.714c-0.285-0.284-0.571-0.571-0.857-0.855
		c-0.108-0.107-0.284-0.124-0.407-0.036c-0.285,0.203-0.574,0.399-0.852,0.609c-0.156,0.119-0.309,0.251-0.441,0.396
		c-0.182,0.201-0.223,0.461-0.235,0.725c-0.021,0.456,0.081,0.889,0.226,1.316c0.144,0.415,0.319,0.814,0.538,1.196
		c0.175,0.304,0.347,0.612,0.538,0.903c0.225,0.337,0.458,0.667,0.707,0.984c0.323,0.411,0.654,0.817,1.002,1.209
		c0.369,0.416,0.758,0.815,1.146,1.214c0.238,0.246,0.48,0.485,0.734,0.715c0.396,0.358,0.794,0.719,1.209,1.056
		s0.846,0.654,1.281,0.968c0.418,0.299,0.864,0.557,1.321,0.788c0.389,0.191,0.785,0.361,1.201,0.476
		c0.418,0.115,0.838,0.203,1.275,0.134c0.182-0.028,0.363-0.066,0.502-0.191c0.152-0.143,0.299-0.296,0.424-0.461
		c0.203-0.265,0.385-0.545,0.586-0.814c0.129-0.172,0.076-0.339-0.008-0.435c-0.088-0.105-0.193-0.198-0.291-0.297
		c-0.43-0.43-0.861-0.859-1.293-1.292c-0.129-0.132-0.311-0.148-0.471-0.056c-0.311,0.189-0.623,0.378-0.943,0.553
		C11.006-14.897,10.795-14.826,10.568-14.828z"/>
	<path fill-rule="evenodd" clip-rule="evenodd" fill="#FFFFFF" d="M15.201-19.365c-0.004,0.363-0.025,0.724-0.127,1.077
		c-0.047,0.165-0.162,0.268-0.33,0.306c-0.174,0.041-0.326-0.002-0.445-0.141c-0.121-0.139-0.129-0.289-0.092-0.466
		c0.045-0.203,0.07-0.416,0.082-0.626c0.02-0.39-0.029-0.776-0.115-1.156c-0.096-0.419-0.246-0.817-0.449-1.195
		c-0.256-0.478-0.58-0.907-0.959-1.302c-0.35-0.37-0.74-0.695-1.168-0.97c-0.326-0.211-0.67-0.385-1.033-0.526
		c-0.443-0.172-0.896-0.289-1.368-0.346c-0.384-0.048-0.768-0.053-1.15-0.015c-0.085,0.007-0.174,0.015-0.255-0.003
		c-0.22-0.04-0.345-0.229-0.349-0.439c-0.002-0.212,0.14-0.396,0.349-0.437c0.16-0.031,0.323-0.056,0.486-0.056
		c0.315-0.002,0.634,0,0.95,0.031c0.268,0.026,0.534,0.084,0.797,0.146c0.24,0.056,0.477,0.127,0.711,0.206
		c0.365,0.121,0.713,0.286,1.049,0.479c0.451,0.261,0.877,0.562,1.254,0.925c0.141,0.134,0.289,0.259,0.418,0.399
		c0.201,0.225,0.398,0.454,0.58,0.692c0.15,0.203,0.287,0.419,0.412,0.641c0.131,0.234,0.246,0.48,0.352,0.727
		c0.123,0.289,0.209,0.59,0.275,0.898C15.158-20.138,15.201-19.755,15.201-19.365z"/>
	<path fill-rule="evenodd" clip-rule="evenodd" fill="#FFFFFF" d="M8.57-23.096c0.537-0.004,1.053,0.112,1.545,0.323
		c0.553,0.236,1.031,0.588,1.445,1.027c0.303,0.325,0.557,0.684,0.738,1.087c0.141,0.317,0.238,0.65,0.277,0.999
		c0.025,0.22,0.043,0.439,0.012,0.659c-0.021,0.141-0.043,0.287-0.096,0.418c-0.066,0.165-0.262,0.251-0.447,0.231
		c-0.174-0.017-0.328-0.147-0.383-0.315c-0.031-0.095-0.018-0.184-0.002-0.279c0.051-0.248,0.039-0.497-0.01-0.745
		c-0.086-0.461-0.289-0.865-0.582-1.226c-0.283-0.349-0.619-0.643-1.012-0.865c-0.318-0.179-0.656-0.311-1.016-0.36
		c-0.215-0.031-0.439-0.029-0.66-0.026c-0.141,0-0.271-0.005-0.386-0.099c-0.123-0.1-0.177-0.231-0.167-0.387
		c0.014-0.177,0.094-0.327,0.269-0.382c0.151-0.046,0.314-0.053,0.47-0.079C8.568-23.107,8.57-23.1,8.57-23.096z"/>
</g>
<g>
	<path fill-rule="evenodd" clip-rule="evenodd" fill="#FFFFFF" d="M47.819,8.975c0,1.895,0.004,3.787,0,5.682
		c-0.002,1.732-1.076,2.816-2.805,2.821c-1.528,0.008-3.06,0.008-4.589-0.005c-1.594-0.009-2.705-1.094-2.707-2.676
		c-0.014-3.892-0.02-7.779,0.002-11.672c0.01-2.004,1.16-3.117,3.15-3.122c1.271-0.003,2.541-0.005,3.812,0
		c1.957,0.005,3.109,1.104,3.141,3.061c0.033,1.969,0.006,3.942,0.006,5.911C47.827,8.975,47.823,8.975,47.819,8.975z M38.33,8.807
		c0.004,0,0.01,0,0.016,0c0,1.998-0.039,3.998,0.014,5.995c0.033,1.323,0.826,2.033,2.145,2.05c1.428,0.015,2.855,0.01,4.282,0.003
		c1.613-0.01,2.395-0.669,2.416-2.272c0.053-3.868,0.055-7.736,0.012-11.603c-0.016-1.5-1.006-2.344-2.529-2.349
		c-1.271-0.002-2.542-0.005-3.815,0.003c-1.613,0.007-2.52,0.884-2.535,2.489C38.318,5.018,38.33,6.912,38.33,8.807z"/>
	<path fill-rule="evenodd" clip-rule="evenodd" fill="#FFFFFF" d="M39.211,3.31c2.428,0,4.805,0,7.218,0c0,3.741,0,7.44,0,11.203
		c-2.407,0-4.782,0-7.218,0C39.211,10.826,39.211,7.104,39.211,3.31z"/>
	<path fill-rule="evenodd" clip-rule="evenodd" fill="#FFFFFF" d="M43.414,16.085c-0.473,0-0.83,0-1.244,0c0-0.249,0-0.487,0-0.763
		c0.398,0,0.773,0,1.209,0C43.391,15.562,43.4,15.798,43.414,16.085z"/>
	<path fill-rule="evenodd" clip-rule="evenodd" fill="#FFFFFF" d="M43.414,2.499c-0.473,0-0.83,0-1.244,0c0-0.248,0-0.484,0-0.762
		c0.398,0,0.773,0,1.209,0C43.391,1.977,43.4,2.213,43.414,2.499z"/>
</g>
<g>
	<path fill="#FFFFFF" d="M11.004,5.691l-0.469,3.971c-0.035,0.277-0.053,0.545-0.053,0.801c0,0.381,0.137,0.57,0.41,0.57
		c0.436,0,0.857-0.301,1.256-0.9c0.402-0.598,0.602-1.324,0.602-2.176c0-1.23-0.445-2.234-1.336-3.004
		c-0.889-0.77-1.965-1.154-3.232-1.154c-1.391,0-2.56,0.479-3.507,1.432C3.729,6.184,3.256,7.361,3.256,8.76
		c0,1.307,0.445,2.439,1.336,3.402c0.887,0.965,2.135,1.445,3.744,1.445c1.248,0,2.525-0.334,3.824-1.006l0.504,1.158
		c-1.393,0.709-2.834,1.066-4.328,1.066c-1.982,0-3.559-0.598-4.725-1.795c-1.167-1.197-1.752-2.623-1.752-4.281
		c0-1.732,0.613-3.18,1.841-4.346C4.927,3.24,6.41,2.656,8.147,2.656c1.638,0,3.013,0.502,4.126,1.506
		c1.113,1.002,1.67,2.268,1.67,3.795c0,1.107-0.314,2.096-0.938,2.963c-0.625,0.863-1.389,1.297-2.287,1.297
		c-0.695,0-1.18-0.295-1.445-0.885c-0.489,0.611-1.086,0.92-1.789,0.92c-0.723,0-1.34-0.301-1.854-0.902
		c-0.516-0.602-0.771-1.396-0.771-2.377c0-1.012,0.287-1.836,0.868-2.469c0.579-0.633,1.27-0.951,2.071-0.951
		c0.771,0,1.328,0.246,1.668,0.734l0.068-0.596H11.004z M7.595,10.865c0.455,0,0.864-0.221,1.231-0.662
		c0.367-0.439,0.549-1.014,0.549-1.717c0-0.398-0.141-0.754-0.422-1.07C8.672,7.102,8.326,6.943,7.917,6.943
		c-0.442,0-0.809,0.193-1.099,0.584C6.529,7.916,6.385,8.42,6.385,9.039c0,0.527,0.111,0.965,0.338,1.309
		C6.945,10.691,7.236,10.865,7.595,10.865z"/>
</g>
</svg>
