<?xml version="1.0" encoding="utf-8"?>
<!-- Generator: Adobe Illustrator 16.0.3, SVG Export Plug-In . SVG Version: 6.00 Build 0)  -->
<!DOCTYPE svg PUBLIC "-//W3C//DTD SVG 1.1//EN" "http://www.w3.org/Graphics/SVG/1.1/DTD/svg11.dtd">
<svg version="1.1" id="Layer_1" xmlns="http://www.w3.org/2000/svg" xmlns:xlink="http://www.w3.org/1999/xlink" x="0px" y="0px"
	 width="80px" height="80px" viewBox="-13.981 -13.824 80 80" enable-background="new -13.981 -13.824 80 80" xml:space="preserve">
<g>
	<path fill="#58595B" d="M29.606,49.059c-0.89,0.223-1.77,0.549-2.672,0.645c-2.479,0.262-4.787-1.049-5.904-3.285
		c-0.178-0.356-0.378-0.438-0.737-0.438c-4.461,0.01-8.919,0.008-13.378,0.006c-1.807-0.004-3.503-0.412-4.983-1.488
		c-1.266-0.918-1.938-2.125-1.932-3.75C0.031,33.241,0.037,25.731,0,18.224c-0.011-1.955,0.829-3.376,2.334-4.491
		c1.048-0.776,2.235-1.258,3.505-1.521c0.309-0.065,0.408-0.181,0.397-0.486c-0.023-0.554-0.008-1.11-0.008-1.701
		c-0.159-0.026-0.29-0.055-0.424-0.068c-1.276-0.148-2.26-1.178-2.28-2.462C3.497,5.837,3.491,4.181,3.522,2.525
		c0.027-1.422,1.145-2.516,2.575-2.518c6.472-0.011,12.943-0.012,19.414,0.001c1.421,0.002,2.544,1.168,2.554,2.596
		c0.009,1.581,0.006,3.161,0,4.739c-0.004,1.384-0.961,2.461-2.333,2.604c-0.306,0.033-0.391,0.142-0.378,0.433
		c0.02,0.462,0.016,0.93,0,1.393c-0.009,0.26,0.066,0.369,0.342,0.429c1.583,0.344,3.026,0.979,4.224,2.104
		c1.099,1.028,1.657,2.271,1.649,3.792c-0.019,4.952-0.01,9.904-0.012,14.856c0,0.105,0.014,0.213,0.026,0.402
		c0.203-0.115,0.37-0.203,0.528-0.308c0.965-0.625,1.968-1.143,3.134-1.321c3.179-0.496,6.381,1.856,6.856,5.049
		c0.156,1.051,0.045,2.063-0.293,3.117c0.189,0.02,0.352,0.039,0.512,0.051c1.604,0.125,3.222,0.147,4.808,0.395
		c2.882,0.449,4.976,3.154,4.906,6.164c-0.063,2.877-2.331,5.461-5.177,5.793c-0.943,0.113-1.916,0.035-2.869-0.022
		c-3.184-0.193-6.361-0.416-9.543-0.635c-1.93-0.13-3.5-0.938-4.674-2.488c-0.037-0.049-0.076-0.101-0.117-0.146
		c-0.021-0.021-0.049-0.035-0.073-0.053C29.591,48.985,29.601,49.022,29.606,49.059z M23.426,10.132c-5.113,0-10.165,0-15.272,0
		c0,0.945-0.013,1.87,0.006,2.794c0.007,0.333-0.086,0.445-0.437,0.47c-1.359,0.09-2.656,0.425-3.805,1.194
		c-1.273,0.854-1.99,1.974-1.981,3.592c0.035,7.602,0.019,15.201,0.009,22.8c-0.001,0.809,0.265,1.481,0.828,2.045
		c1.146,1.149,2.595,1.521,4.154,1.529c4.317,0.018,8.637,0.006,12.955,0.004c0.161,0,0.321-0.019,0.494-0.027
		c0-0.135,0.002-0.211-0.002-0.287c-0.14-2.602,0.896-4.58,3.131-5.936c1.932-1.17,3.851-2.361,5.783-3.529
		c0.258-0.154,0.354-0.322,0.354-0.625c-0.011-5.431-0.008-10.866-0.008-16.297c-0.002-0.819-0.266-1.547-0.781-2.184
		c-0.965-1.188-2.263-1.796-3.718-2.104c-0.555-0.117-1.122-0.17-1.71-0.255C23.426,12.26,23.426,11.227,23.426,10.132z
		 M15.797,8.082c3.125,0,6.25,0.001,9.377,0c0.756,0,0.954-0.202,0.954-0.968c0.001-1.44,0.002-2.879,0-4.317
		c-0.002-0.668-0.226-0.903-0.888-0.903c-6.297-0.002-12.596-0.002-18.894,0c-0.683,0-0.916,0.247-0.917,0.932
		c-0.003,1.423-0.002,2.848,0,4.271c0.002,0.783,0.206,0.986,0.989,0.986C9.545,8.083,12.671,8.083,15.797,8.082z M40.618,41.272
		c-1.359-0.099-2.639-0.213-3.919-0.271c-0.985-0.047-1.993-0.153-2.954-0.004c-2.303,0.363-3.875,2.535-3.713,4.938
		c0.148,2.209,2.045,4.092,4.266,4.239c1.143,0.076,2.284,0.168,3.426,0.246c0.738,0.052,1.478,0.088,2.27,0.134
		C40.201,47.446,40.408,44.379,40.618,41.272z M28.845,36.733c0.783,1.285,1.545,2.533,2.313,3.787
		c0.092-0.043,0.15-0.063,0.201-0.095c1.199-0.774,2.513-1.065,3.934-0.957c1.495,0.111,2.994,0.183,4.488,0.308
		c0.425,0.035,0.599-0.117,0.721-0.496c0.6-1.873,0.027-3.904-1.467-5.115c-1.553-1.258-3.637-1.412-5.375-0.375
		c-1.221,0.729-2.428,1.482-3.639,2.226C29.642,36.247,29.26,36.477,28.845,36.733z"/>
	<path fill="#58595B" d="M15.764,35.802c-2.909,0-5.819,0-8.727,0c-0.736,0-0.806-0.069-0.806-0.788c0-4.132,0-8.262,0-12.397
		c0-0.711,0.081-0.791,0.802-0.791c5.835,0,11.669,0,17.505,0c0.725,0,0.815,0.094,0.815,0.836c0,4.101,0,8.202,0,12.3
		c0,0.756-0.085,0.84-0.861,0.84C21.583,35.802,18.674,35.802,15.764,35.802z M13.882,30.737c0,1.104,0,2.16,0,3.231
		c1.288,0,2.518,0,3.807,0c0-1.086,0-2.143,0-3.264c1.114,0,2.172,0,3.242,0c0-1.287,0-2.513,0-3.796c-1.099,0-2.154,0-3.268,0
		c0-1.116,0-2.172,0-3.262c-0.999,0-1.938,0-2.881,0c-0.909,0-0.909,0-0.908,0.896c0,0.781,0,1.564,0,2.405c-1.13,0-2.185,0-3.223,0
		c0,1.287,0,2.516,0,3.789C11.735,30.737,12.779,30.737,13.882,30.737z"/>
	<path fill="#58595B" d="M14.883,27.944c0-1.137,0-2.185,0-3.303c0.536,0,1.044-0.017,1.546,0.018
		c0.088,0.006,0.229,0.219,0.231,0.338c0.022,0.789,0.013,1.578,0.013,2.366c0,0.168,0,0.334,0,0.563
		c0.879,0,1.709,0.013,2.536-0.002c0.752-0.018,0.752-0.03,0.75,0.688c-0.001,1.109-0.001,1.106-1.113,1.109
		c-0.666,0-1.33,0.002-1.995,0.004c-0.03,0-0.059,0.016-0.152,0.041c0,1.036,0,2.095,0,3.185c-0.624,0-1.188,0-1.807,0
		c0-1.063,0-2.119,0-3.218c-1.1,0-2.146,0-3.229,0c0-0.604,0-1.166,0-1.789C12.702,27.944,13.757,27.944,14.883,27.944z"/>
</g>
</svg>
