<?xml version="1.0" encoding="utf-8"?>
<!-- Generator: Adobe Illustrator 16.0.3, SVG Export Plug-In . SVG Version: 6.00 Build 0)  -->
<!DOCTYPE svg PUBLIC "-//W3C//DTD SVG 1.1//EN" "http://www.w3.org/Graphics/SVG/1.1/DTD/svg11.dtd">
<svg version="1.1" id="Layer_1" xmlns="http://www.w3.org/2000/svg" xmlns:xlink="http://www.w3.org/1999/xlink" x="0px" y="0px"
	 width="44.955px" height="44.953px" viewBox="0 0 44.955 44.953" enable-background="new 0 0 44.955 44.953" xml:space="preserve">
<path fill="#414042" d="M18.754,14.352l0.13,4.117c0,0.13-0.13,0.268-0.394,0.414h-2.263v4.641h2.263
	c0.132,0,0.264,0.138,0.394,0.414v11.434l0.065,0.807h4.725V23.809c0.03-0.188,0.118-0.285,0.262-0.285h3.857
	c0.172,0,0.396-1.459,0.675-4.377v-0.261h-4.532c-0.172,0-0.262-0.085-0.262-0.26v-3.204c0-1.363,0.799-2.117,2.396-2.263h2.656
	v-3.99c0-0.26-0.929-0.392-2.785-0.392h-0.678c-3.064,0-5.061,1.148-5.987,3.441C19.103,12.697,18.929,13.411,18.754,14.352z"/>
</svg>
