<?xml version="1.0" encoding="utf-8"?>
<!-- Generator: Adobe Illustrator 16.0.3, SVG Export Plug-In . SVG Version: 6.00 Build 0)  -->
<!DOCTYPE svg PUBLIC "-//W3C//DTD SVG 1.1//EN" "http://www.w3.org/Graphics/SVG/1.1/DTD/svg11.dtd">
<svg version="1.1" id="Layer_1" xmlns="http://www.w3.org/2000/svg" xmlns:xlink="http://www.w3.org/1999/xlink" x="0px" y="0px"
	 width="44.604px" height="44.759px" viewBox="0 0 44.604 44.759" enable-background="new 0 0 44.604 44.759" xml:space="preserve">
<path fill="#414042" d="M13.372,14.287v0.807c0.247,1.322,1.083,1.983,2.504,1.983c1.162,0,1.962-0.661,2.396-1.983v-0.13
	c0-1.367-0.844-2.166-2.527-2.397C14.715,12.567,13.926,13.139,13.372,14.287z M13.636,19.056v12.326
	c0.028,0.179,0.113,0.265,0.26,0.265h3.7c0.177,0,0.264-0.086,0.264-0.265V19.318l-0.264-0.521h-3.7
	C13.721,18.825,13.636,18.914,13.636,19.056z M24.763,20.125h-0.284v-1.328h-4.224v12.585c0.028,0.179,0.115,0.265,0.262,0.265
	h3.703c0.174,0,0.259-0.086,0.259-0.265v-6.749c0.221-1.857,0.975-2.788,2.267-2.788c1.496,0,2.245,0.931,2.245,2.788v6.749
	c0.027,0.179,0.114,0.265,0.26,0.265h3.985v-8.342c0-1.495-0.71-2.868-2.136-4.119c-1.072-0.434-1.732-0.651-1.979-0.651h-1.331
	C26.759,18.578,25.75,19.109,24.763,20.125z"/>
</svg>
