<?xml version="1.0" encoding="utf-8"?>
<!-- Generator: Adobe Illustrator 16.0.3, SVG Export Plug-In . SVG Version: 6.00 Build 0)  -->
<!DOCTYPE svg PUBLIC "-//W3C//DTD SVG 1.1//EN" "http://www.w3.org/Graphics/SVG/1.1/DTD/svg11.dtd">
<svg version="1.1" id="Layer_1" xmlns="http://www.w3.org/2000/svg" xmlns:xlink="http://www.w3.org/1999/xlink" x="0px" y="0px"
	 width="80px" height="80px" viewBox="-3.952 -13.601 80 80" enable-background="new -3.952 -13.601 80 80" xml:space="preserve">
<g>
	<path fill="#58595B" d="M37.625,17.095c-0.549-0.802-1.101-1.549-1.586-2.334c-0.856-1.375-1.711-2.751-2.493-4.168
		c-0.451-0.823-0.802-1.709-1.122-2.594c-0.533-1.478-0.251-2.893,0.562-4.183c1.14-1.824,2.833-2.689,4.976-2.617
		c2.511,0.084,4.741,2.175,5.097,4.67c0.162,1.154-0.163,2.189-0.599,3.214c-0.76,1.778-1.755,3.428-2.803,5.046
		c-0.588,0.906-1.209,1.789-1.819,2.683C37.782,16.894,37.72,16.969,37.625,17.095z M37.633,4.226
		c-1.485-0.003-2.711,1.213-2.689,2.701c0.021,1.436,1.08,2.667,2.686,2.678c1.572,0.011,2.686-1.201,2.702-2.687
		C40.346,5.422,39.129,4.226,37.633,4.226z"/>
	<g>
		<path fill="#58595B" d="M72.076,30.146c-0.019-0.082-0.046-0.164-0.09-0.274l-4.831-13.269c-0.715-1.962-1.426-3.925-2.143-5.887
			c-0.391-1.062-0.782-2.122-1.173-3.182c-0.398-1.071-0.797-2.145-1.19-3.218c-0.449-1.23-0.886-2.466-1.315-3.702
			C61.192,0.206,60.917,0,60.511,0l-0.096,0.003c-0.86,0.06-1.72,0.112-2.578,0.166L53.21,0.471
			c-1.187,0.078-2.376,0.16-3.563,0.234c-1.577,0.102-3.156,0.202-4.734,0.276c-0.668,0.031-1.361,0.141-1.932,0.724l-1.209,0.902
			l-0.238,0.281l1.085,1.591l0.776-0.57c0.359-0.268,0.726-0.534,1.09-0.797c0.073-0.051,0.132-0.072,0.146-0.073
			c1.355-0.095,2.716-0.181,4.144-0.273l6.354-0.401c1.563-0.099,3.121-0.198,4.704-0.309l7.212,19.821l-4.226-0.502l-0.208,2.098
			l4.913,0.578l0.063-0.68l2.088,5.739c-0.823,0.056-1.646,0.105-2.471,0.156l-1.146,0.066c-0.605,0.037-1.214,0.072-1.822,0.111
			L57.4,29.892c-0.81,0.051-1.621,0.096-2.43,0.161c-0.354,0.029-0.695,0.146-0.935,0.32c-2.023,1.467-4.035,2.944-6.043,4.426
			l-6.462,4.761L31.69,12.528l1.723-1.282c0.377-0.273,0.29-0.582,0.205-0.742c-0.111-0.206-0.215-0.414-0.322-0.629l-0.179-0.361
			l-0.24-0.336l-0.351,0.228c-0.037,0.027-0.074,0.051-0.104,0.073l-0.582,0.428c-0.436,0.319-0.873,0.641-1.314,0.957
			c-0.079,0.058-0.154,0.088-0.19,0.09c-2.009,0.142-4.018,0.273-6.088,0.41l-0.099,0.006c-1.368,0.089-2.734,0.179-4.103,0.265
			l-2.027,0.122c-1.186,0.071-2.365,0.144-3.587,0.223c-0.281,0.019-0.628,0.042-0.896,0.234c-1.629,1.177-3.247,2.37-4.866,3.562
			l-3.364,2.477c-1.646,1.213-3.296,2.426-4.945,3.635c-0.234,0.174-0.479,0.484-0.293,0.984l10.711,29.416
			c0.048,0.127,0.187,0.512,0.572,0.512c0.186,0,0.342-0.096,0.471-0.188l13.128-9.65c0.06-0.043,0.103-0.059,0.114-0.061
			c0.146-0.021,0.293-0.025,0.438-0.031l12.833-0.816c0.938-0.061,1.879-0.119,2.813-0.197c0.336-0.024,0.665-0.139,0.905-0.313
			c0.981-0.709,1.957-1.43,2.931-2.15l3.65-2.688c1.959-1.438,3.917-2.877,5.872-4.326c0.433-0.322,0.823-0.467,1.312-0.486
			c1.114-0.041,2.227-0.119,3.339-0.197c0.496-0.034,0.993-0.069,1.489-0.102l1.639-0.104c0.702-0.041,1.405-0.084,2.107-0.131
			l4.604-0.31c0.841-0.057,1.687-0.106,2.529-0.157c0.251-0.017,0.39-0.132,0.462-0.228C72.057,30.569,72.132,30.401,72.076,30.146z
			 M32.682,19.128l-0.615,0.16c-0.343,0.09-0.688,0.182-1.033,0.264c-0.307,0.076-0.617,0.146-0.926,0.215s-0.615,0.139-0.918,0.213
			c-0.188,0.043-0.518,0.256-0.474,0.576c0.052,0.328,0.115,0.652,0.181,0.971l0.129,0.662l4.406-1.07
			c0.084,0.232,0.174,0.459,0.258,0.691l6.634,18.201c-0.062,0.008-0.127,0.012-0.188,0.016c-1.914,0.127-3.827,0.25-5.741,0.371
			l-4.887,0.312c-1.382,0.09-2.771,0.183-4.154,0.25c-0.692,0.033-1.305,0.265-1.924,0.728c-2.661,1.977-5.332,3.94-8.001,5.903
			l-2.458,1.808c-0.286,0.213-0.576,0.422-0.871,0.635l-0.087,0.064l-0.866-2.371c-0.695-1.904-1.392-3.808-2.097-5.703
			c-0.033-0.097-0.045-0.125,0.101-0.287c0.119-0.137,0.235-0.279,0.348-0.424l0.216-0.265c0.063-0.075,0.126-0.147,0.188-0.219
			c0.094-0.104,0.188-0.209,0.275-0.318c0.253-0.319,0.507-0.643,0.76-0.969l0.573-0.729l-1.473-1.386L8.22,39.688L2.159,23.066
			c2.081-1.527,4.156-3.057,6.234-4.586l3.687-2.708c0.729-0.531,1.462-1.062,2.179-1.613c0.196-0.151,0.405-0.174,0.729-0.196
			c1.678-0.114,3.354-0.221,5.035-0.326l2.048-0.125c0.861-0.055,1.726-0.105,2.584-0.162c1.145-0.072,2.284-0.151,3.424-0.227
			l2.388-0.16l1.68,4.617l-0.082-0.1L32.682,19.128z M60.514,0.388c-0.003,0-0.003,0-0.006,0l0.003-0.015L60.514,0.388z"/>
		<polygon fill="#58595B" points="61.043,20.728 56.13,20.148 55.942,22.242 60.844,22.828 		"/>
		<polygon fill="#58595B" points="40.594,20.214 40.4,18.122 35.49,18.681 35.681,20.777 		"/>
		<polygon fill="#58595B" points="54.36,19.505 49.458,18.917 49.255,21.015 54.164,21.597 		"/>
		<polygon fill="#58595B" points="42.315,18.186 42.173,20.267 47.096,20.716 47.233,18.623 		"/>
		<polygon fill="#58595B" points="16.252,29.123 17.604,30.663 21.085,26.773 19.739,25.232 		"/>
		<path fill="#58595B" d="M25.813,21.38c-0.409,0.238-0.813,0.471-1.219,0.697c-0.315,0.172-0.636,0.342-0.953,0.508
			c-0.299,0.16-0.597,0.316-0.893,0.477c-0.169,0.094-0.437,0.391-0.322,0.684c0.114,0.295,0.24,0.58,0.369,0.871l0.289,0.652
			l4.424-2.445l-0.847-1.934L25.813,21.38z"/>
		<polygon fill="#58595B" points="11.536,35.192 13.023,36.571 16.281,32.493 14.803,31.093 		"/>
	</g>
</g>
</svg>
