<?xml version="1.0" encoding="utf-8"?>
<!-- Generator: Adobe Illustrator 16.0.3, SVG Export Plug-In . SVG Version: 6.00 Build 0)  -->
<!DOCTYPE svg PUBLIC "-//W3C//DTD SVG 1.1//EN" "http://www.w3.org/Graphics/SVG/1.1/DTD/svg11.dtd">
<svg version="1.1" id="Layer_1" xmlns="http://www.w3.org/2000/svg" xmlns:xlink="http://www.w3.org/1999/xlink" x="0px" y="0px"
	 width="44.8px" height="44.8px" viewBox="0 0 44.8 44.8" enable-background="new 0 0 44.8 44.8" xml:space="preserve">
<path fill="#414042" d="M23.348,18.557v1.068c0,0.173-0.094,0.258-0.281,0.258c-2.776-0.375-5.155-1.349-7.146-2.916l-1.852-1.722
	h-0.153c0,0.146-0.173,0.503-0.521,1.066v1.59c0.117,0.9,0.734,1.918,1.852,3.05v0.129c-0.61,0-1.227-0.17-1.852-0.521v0.13
	c0,1.699,1.104,3.157,3.312,4.378l-0.264,0.129h-0.651l-0.675-0.129v0.263c1.014,1.856,2.3,2.787,3.855,2.787v0.393
	c-1.744,1.061-3.473,1.59-5.186,1.59h-0.783v0.262c2.496,1.146,4.662,1.721,6.489,1.721c3.833,0,7.1-1.547,9.801-4.637
	c1.947-2.703,2.921-5.267,2.921-7.69v-0.917c1.407-1.351,2.117-2.103,2.134-2.263v-0.13c-0.512,0.26-1.222,0.483-2.134,0.673
	l-0.132-0.282c0.827-0.48,1.443-1.142,1.852-1.985v-0.126h-0.132c-1.309,0.623-2.1,0.933-2.372,0.933h-0.395
	c-0.971-0.797-1.859-1.239-2.654-1.329h-1.07c-1.479,0-2.67,0.833-3.568,2.507C23.479,17.273,23.348,17.845,23.348,18.557z"/>
</svg>
