<?xml version="1.0" encoding="utf-8"?>
<!-- Generator: Adobe Illustrator 16.0.3, SVG Export Plug-In . SVG Version: 6.00 Build 0)  -->
<!DOCTYPE svg PUBLIC "-//W3C//DTD SVG 1.1//EN" "http://www.w3.org/Graphics/SVG/1.1/DTD/svg11.dtd">
<svg version="1.1" id="Layer_1" xmlns="http://www.w3.org/2000/svg" xmlns:xlink="http://www.w3.org/1999/xlink" x="0px" y="0px"
	 width="44.604px" height="44.758px" viewBox="0 0 44.604 44.758" enable-background="new 0 0 44.604 44.758" xml:space="preserve">
<path fill="#414042" d="M21.847,0h1.042c4.69,0,9.373,1.809,14.05,5.424c3.47,3.484,5.587,6.619,6.359,9.406
	c0.521,1.164,0.87,2.49,1.045,3.977c0.172,1.489,0.262,2.458,0.262,2.908v1.176v0.935c-0.35,3.21-1.053,5.902-2.113,8.082
	c-2.339,4.735-5.909,8.305-10.716,10.718c-3.441,1.419-6.534,2.133-9.277,2.133h-0.262c-5.547,0-10.62-2.033-15.224-6.1
	c-2.888-3.006-4.697-5.654-5.423-7.949C0.793,28.924,0.262,26.673,0,23.958v-2.788c0-4.559,1.896-9.191,5.685-13.896
	C10.65,2.425,16.037,0,21.847,0z M13.372,14.287v0.807c0.247,1.322,1.083,1.983,2.504,1.983c1.162,0,1.962-0.661,2.397-1.983v-0.13
	c0-1.367-0.844-2.166-2.528-2.397C14.715,12.567,13.926,13.139,13.372,14.287z M13.636,19.056v12.326
	c0.028,0.179,0.113,0.264,0.26,0.264h3.7c0.177,0,0.264-0.085,0.264-0.264V19.318l-0.264-0.521h-3.7
	C13.721,18.825,13.636,18.914,13.636,19.056z M24.763,20.125h-0.284v-1.328h-4.224v12.585c0.028,0.179,0.115,0.264,0.262,0.264
	h3.703c0.174,0,0.259-0.085,0.259-0.264v-6.749c0.22-1.857,0.974-2.788,2.266-2.788c1.496,0,2.245,0.931,2.245,2.788v6.749
	c0.028,0.179,0.115,0.264,0.26,0.264h3.986v-8.341c0-1.495-0.71-2.868-2.136-4.119c-1.072-0.434-1.733-0.651-1.98-0.651h-1.331
	C26.759,18.578,25.75,19.109,24.763,20.125z"/>
</svg>
