<?xml version="1.0" encoding="utf-8"?>
<!-- Generator: Adobe Illustrator 16.0.3, SVG Export Plug-In . SVG Version: 6.00 Build 0)  -->
<!DOCTYPE svg PUBLIC "-//W3C//DTD SVG 1.1//EN" "http://www.w3.org/Graphics/SVG/1.1/DTD/svg11.dtd">
<svg version="1.1" id="Layer_1" xmlns="http://www.w3.org/2000/svg" xmlns:xlink="http://www.w3.org/1999/xlink" x="0px" y="0px"
	 width="44.931px" height="44.8px" viewBox="0 0 44.931 44.8" enable-background="new 0 0 44.931 44.8" xml:space="preserve">
<path fill="#414042" d="M10.496,19.406v6.925c0,3.773,1.201,6.297,3.596,7.559c1.073,0.607,4.528,0.833,10.367,0.673
	c4.473,0,7.043-0.483,7.71-1.458c1.512-1.206,2.264-3.202,2.264-5.988v-8.909c0-3.514-1.238-5.814-3.724-6.905l-1.654-0.543
	l-1.678-0.13h-9.692c-3.454,0-5.765,1.683-6.925,5.054C10.586,16.713,10.496,17.954,10.496,19.406z M18.077,12.763h9.3
	c3.368,0,5.053,1.772,5.053,5.317v9.427c-0.448,3.283-1.821,4.923-4.115,4.923H24.46c-1.801,0-3.703,0.045-5.707,0.13
	c-3.342,0-5.291-1.059-5.857-3.18c-0.175-1.178-0.263-2.945-0.263-5.313v-2.94c0-4.429,0.354-6.642,1.066-6.642
	C14.41,13.339,15.87,12.763,18.077,12.763z M16.355,22.738c0,2.861,1.643,4.85,4.924,5.969h2.656c3.18-1.147,4.77-3.181,4.77-6.101
	v-0.282c0-1.657-0.842-3.202-2.525-4.638c-1.146-0.799-2.338-1.201-3.571-1.201h-0.13c-2.746,0-4.654,1.416-5.729,4.249
	C16.604,20.923,16.473,21.592,16.355,22.738z M22.478,18.599h0.13c1.916,0,3.2,1.026,3.854,3.07c0.088,0.118,0.133,0.43,0.133,0.937
	c-0.423,2.746-1.75,4.116-3.986,4.116c-1.772,0-3.06-0.885-3.855-2.656c-0.114-0.145-0.211-0.588-0.28-1.328
	C18.789,19.978,20.125,18.599,22.478,18.599z M27.509,16.356c0.391,0.888,0.885,1.33,1.48,1.33c0.594,0,1.081-0.442,1.456-1.33
	c-0.201-1.075-0.738-1.61-1.608-1.61C27.953,15.022,27.509,15.557,27.509,16.356z"/>
</svg>
