<?xml version="1.0" encoding="utf-8"?>
<!-- Generator: Adobe Illustrator 16.0.3, SVG Export Plug-In . SVG Version: 6.00 Build 0)  -->
<!DOCTYPE svg PUBLIC "-//W3C//DTD SVG 1.1//EN" "http://www.w3.org/Graphics/SVG/1.1/DTD/svg11.dtd">
<svg version="1.1" id="Layer_1" xmlns="http://www.w3.org/2000/svg" xmlns:xlink="http://www.w3.org/1999/xlink" x="0px" y="0px"
	 width="80px" height="80px" viewBox="-4.939 -14.791 80 80" enable-background="new -4.939 -14.791 80 80" xml:space="preserve">
<g>
	<path fill="#58595B" d="M3.728,24.722c0.222,0.684,0.445,1.363,0.669,2.048c-0.045,0.035-0.09,0.067-0.135,0.104
		c-0.136-0.158-0.272-0.316-0.449-0.516c0.084,0.887,0.166,1.76,0.246,2.637c-0.648-0.098-1.06-0.576-1.167-1.197
		c-0.076-0.436-0.243-0.869-0.452-1.26c-0.142-0.26-0.238-0.504-0.24-0.793c-0.027-2.021,0.134-4.021,0.605-5.987
		c0.256-1.07,0.547-2.137,0.914-3.172c0.588-1.666,1.383-3.237,2.32-4.739c0.929-1.485,1.991-2.863,3.213-4.11
		c0.732-0.745,1.532-1.427,2.323-2.113c1.188-1.03,2.511-1.862,3.888-2.606c1.46-0.789,2.979-1.421,4.567-1.912
		c2.504-0.773,5.067-1.124,7.675-1.104c2.755,0.022,5.446,0.503,8.051,1.424c2.26,0.8,4.365,1.897,6.307,3.295
		c0.828,0.6,1.594,1.285,2.367,1.951c1.049,0.901,1.955,1.934,2.795,3.023c0.588,0.766,1.129,1.567,1.709,2.378
		c-0.584,0.342-1.146,0.607-1.635,0.972c-0.527,0.395-0.939,0.37-1.477-0.003c-0.855-0.598-1.846-0.813-2.871-0.567
		c-1.113,0.266-2.088,0.82-2.842,1.697c-0.441,0.516-0.629,1.153-0.73,1.818c-0.014,0.101-0.072,0.231-0.154,0.28
		c-1.158,0.682-2.311,1.368-3.486,2.019c-1.204,0.668-2.426,1.307-3.649,1.94c-0.763,0.393-1.542,0.752-2.376,1.158
		c0.129-0.557,0.311-1.033,0.678-1.4c0.109-0.109,0.343-0.123,0.52-0.131c0.749-0.035,0.839-0.191,0.459-0.838
		c-0.134-0.227-0.261-0.457-0.38-0.663c0.493-0.27,0.973-0.524,1.444-0.799c0.072-0.04,0.092-0.167,0.139-0.253
		c-0.097-0.041-0.211-0.138-0.282-0.112c-0.357,0.124-0.71,0.272-1.055,0.429c-0.137,0.063-0.254,0.169-0.47,0.316
		c0.148-0.611-0.008-1.174,0.367-1.651c0.153-0.198,0.221-0.393-0.097-0.581c-0.455-0.268-0.424-0.849,0.047-1.33
		c0.273,0.208,0.564,0.381,0.514,0.821c-0.017,0.151,0.082,0.332,0.167,0.474c0.169,0.283,0.382,0.542,0.541,0.829
		c0.075,0.132,0.06,0.312,0.097,0.552c0.238-0.134,0.523-0.206,0.665-0.391c0.487-0.63,1.157-0.786,1.885-0.857
		c0.34-0.033,0.68-0.083,1.022-0.127c0.445-0.058,0.674-0.253,0.664-0.692c-0.014-0.473,0.262-0.777,0.51-1.108
		c0.057-0.075,0.182-0.112,0.279-0.142c0.246-0.071,0.248-0.213,0.09-0.353c-0.109-0.094-0.264-0.158-0.406-0.186
		c-0.738-0.142-0.889-0.38-0.688-1.111c0.086-0.297,0.168-0.593,0.242-0.893c0.016-0.06-0.008-0.127-0.094-0.253
		c-0.168,0.196-0.389,0.369-0.498,0.596c-0.182,0.373-0.309,0.777-0.426,1.177c-0.078,0.259-0.016,0.512,0.145,0.744
		c0.176,0.251,0.242,0.507,0.004,0.779c-0.098,0.113-0.156,0.267-0.211,0.409c-0.156,0.406-0.357,0.743-0.861,0.638
		c-0.179-0.289-0.364-0.597-0.561-0.897c-0.095-0.147-0.216-0.175-0.355-0.036c-0.206,0.208-0.362,0.126-0.512-0.085
		c-0.31-0.449-0.37-0.937-0.223-1.451c0.02-0.077,0.111-0.165,0.19-0.19c0.605-0.188,0.951-0.617,1.125-1.198
		c0.148-0.497,0.238-1.013,0.422-1.494c0.1-0.264,0.323-0.487,0.514-0.71c0.492-0.574,1.132-0.814,1.876-0.802
		c0.16,0.002,0.256,0.043,0.365,0.198c0.135,0.188,0.365,0.327,0.582,0.433c0.508,0.247,1.086,0.354,1.504,0.791
		c0.063,0.068,0.26,0.066,0.373,0.027c0.297-0.106,0.592-0.23,0.867-0.39c0.531-0.311,1.043-0.65,1.564-0.978
		c0.047-0.029,0.094-0.058,0.143-0.088c-0.01-0.032-0.02-0.064-0.025-0.096c-0.359-0.052-0.723-0.11-1.082-0.154
		c-0.885-0.112-0.721,0.091-0.852-0.893c-0.064-0.503-0.086-1.011-0.15-1.514c-0.012-0.114-0.092-0.258-0.188-0.319
		c-1.523-0.974-3.129-1.788-4.831-2.416c-1.613-0.593-3.274-0.969-4.963-1.237c-0.278-0.044-0.501,0-0.702,0.281
		c0.357,0.16,0.707,0.318,1.105,0.494c-0.318,0.405-0.587,0.794-0.907,1.136c-0.327,0.345-0.409,0.777-0.516,1.197
		c-0.143,0.548-0.267,1.109-0.34,1.674c-0.057,0.475-0.372,0.762-0.66,1.072c-0.214,0.232-0.385,0.412-0.114,0.738
		c0.224,0.27,0.224,0.617-0.05,0.873c-0.393,0.365-0.814,0.701-1.229,1.041c-0.075,0.061-0.179,0.101-0.273,0.111
		c-0.831,0.098-1.487,0.595-2.185,0.979c-0.28,0.152-0.489,0.469-0.678,0.749c-0.288,0.427-0.549,0.877-0.782,1.337
		c-0.134,0.269-0.313,0.259-0.459,0.105c-0.206-0.218-0.433-0.467-0.519-0.743c-0.296-0.944-0.241-1.906,0.131-2.817
		c0.13-0.315,0.464-0.546,0.705-0.814c-0.327-0.34-0.354-0.769-0.139-1.191c0.166-0.322,0.306-0.658,0.422-1
		c0.137-0.403-0.108-0.703-0.348-0.979c-0.171-0.196-0.388-0.354-0.58-0.534c-0.247-0.226-0.325-0.694-0.167-0.985
		c0.058-0.106,0.114-0.214,0.164-0.323c0.377-0.812,0.372-0.828,1.229-0.983c0.238-0.043,0.373-0.118,0.447-0.347
		c0.064-0.197,0.173-0.38,0.258-0.568c0.005-0.015-0.015-0.04-0.022-0.06c-0.546,0.241-1.109,0.443-1.626,0.733
		c-0.675,0.378-1.077,1.034-1.462,1.679c-0.194,0.329-0.459,0.373-0.784,0.338c-0.311-0.032-0.547-0.208-0.581-0.498
		c-0.024-0.205,0.097-0.434,0.181-0.643c0.04-0.104,0.169-0.176,0.206-0.281c0.087-0.266-0.017-0.412-0.295-0.38
		c-0.568,0.065-1.135,0.163-1.78,0.258c0.122,0.129,0.182,0.225,0.269,0.272c0.287,0.162,0.243,0.361,0.114,0.606
		c-0.138,0.264-0.243,0.544-0.365,0.814c-0.032-0.006-0.067-0.014-0.102-0.022c-0.127-0.275-0.269-0.546-0.38-0.828
		c-0.087-0.218-0.204-0.281-0.43-0.194c-0.38,0.148-0.772,0.264-1.152,0.41c-0.322,0.124-0.35,0.253-0.2,0.553
		c0.039,0.082,0.037,0.229-0.011,0.308c-0.407,0.681-0.797,1.372-1.256,2.014c-0.179,0.253-0.514,0.4-0.787,0.578
		c-0.169,0.109-0.357,0.187-0.573,0.296c0.1,0.159,0.149,0.282,0.233,0.375c0.277,0.298,0.599,0.293,0.9,0.017
		c0.371-0.342,0.756-0.67,1.125-1.009c0.072-0.064,0.159-0.152,0.167-0.236c0.049-0.703,0.65-1.075,0.948-1.626
		c0.266-0.49,0.608-0.447,1.024-0.29c0.175,0.066,0.355,0.109,0.584,0.178c-0.171,0.134-0.295,0.309-0.454,0.347
		c-0.539,0.134-0.684,0.608-0.941,0.991c-0.427,0.631-0.501,1.351-0.514,2.11c0.06-0.021,0.142-0.021,0.185-0.064
		c0.268-0.277,0.53-0.557,0.779-0.851c0.049-0.06,0.036-0.183,0.034-0.275c-0.013-0.32-0.037-0.64-0.047-0.959
		c-0.005-0.06,0.017-0.146,0.057-0.18c0.37-0.293,0.73-0.602,1.13-0.851c0.129-0.085,0.362-0.021,0.549,0
		c0.116,0.015,0.229,0.076,0.345,0.107c0.444,0.119,0.633,0.327,0.494,0.76c-0.18,0.558,0.024,0.897,0.437,1.21
		c0.211,0.161,0.219,0.893-0.01,1.059c-0.211,0.154-0.206,0.31-0.134,0.511c0.044,0.124,0.064,0.264,0.129,0.374
		c0.194,0.329,0.122,0.552-0.149,0.83c-0.287,0.297-0.536,0.124-0.854,0.052c0.05,0.203,0.089,0.383,0.131,0.559
		c0.098,0.392-0.029,0.708-0.372,0.931c-0.333,0.222-0.489,0.189-0.709-0.146c-0.058-0.082-0.107-0.168-0.169-0.243
		c-0.445-0.506-0.447-1.011-0.023-1.54c0.172-0.215,0.328-0.444,0.478-0.677c0.146-0.229,0.099-1.117-0.055-1.301
		c-0.146-0.175-0.688-0.152-0.782,0.049c-0.213,0.457-0.442,0.912-0.599,1.391c-0.19,0.586-0.161,0.595-0.771,0.601
		c-0.084,0-0.169,0.012-0.313,0.022c0.118,0.34,0.226,0.646,0.359,1.026c-0.385,0.078-0.758,0.156-1.229,0.252
		c0.193-0.539,0.345-0.963,0.531-1.484c-0.273,0.189-0.449,0.335-0.648,0.444c-0.36,0.201-0.732,0.381-1.1,0.57
		c-0.076,0.04-0.161,0.072-0.233,0.12c-0.779,0.514-1.104,1.832-0.643,2.725c0.196,0.377,0.471,0.712,0.692,1.078
		c0.129,0.214,0.222,0.451,0.327,0.678c0.051,0.106,0.102,0.212,0.189,0.326c0.087-0.703,0.62-1.033,1.1-1.404
		c0.37-0.287,0.377-0.516,0-0.83c0.063-0.076,0.119-0.154,0.184-0.227c0.303-0.344,0.481-0.732,0.578-1.189
		c0.135-0.629,0.293-0.675,0.825-0.327c0.237,0.157,0.454,0.349,0.692,0.512c0.186,0.127,0.211,0.235,0.063,0.427
		c-0.176,0.234-0.387,0.485-0.176,0.923c0.39-0.346,0.742-0.66,1.107-0.982c0.079,0.539,0.144,1.081,0.246,1.616
		c0.052,0.264,0.179,0.514,0.263,0.772c0.029,0.089,0.055,0.184,0.055,0.277c0.01,0.573,0.018,1.149,0.015,1.723
		c-0.002,0.209,0.085,0.315,0.291,0.31c0.23-0.006,0.296,0.17,0.283,0.328c-0.015,0.18-0.055,0.44-0.177,0.516
		c-0.536,0.338-1.045,0.213-1.46-0.287c0.132-0.298,0.263-0.589,0.388-0.882c0.035-0.077,0.039-0.163,0.039-0.292
		c-0.528,0.481-1.142,0.399-1.755,0.342c-0.077-0.008-0.158,0.034-0.337,0.077c0.416,0.396,0.771,0.74,1.134,1.081
		c0.286,0.268,0.238,0.512-0.127,0.654c-0.121,0.047-0.235,0.127-0.359,0.162c-0.378,0.102-0.755,0.24-1.14,0.27
		c-0.633,0.051-0.774,0.133-1.018,0.721c-0.058,0.141-0.214,0.293-0.355,0.34c-0.647,0.219-0.99,0.711-1.214,1.303
		c-0.188,0.508-0.556,0.865-0.941,1.213c-0.121,0.111-0.277,0.189-0.384,0.313c-0.45,0.508-0.639,0.738-0.254,1.299
		c0.152,0.215,0.204,0.514,0.249,0.782c0.027,0.15-0.053,0.32-0.09,0.496c-0.575-0.26-0.704-0.776-0.951-1.208
		c-0.144-0.252-0.337-0.49-0.549-0.689c-0.232-0.215-0.747,0.064-0.889,0.475c-0.31-0.037-0.623-0.094-0.94-0.111
		c-0.652-0.033-0.969,0.217-1.148,0.852c-0.145,0.509-0.344,1.007-0.191,1.55c0.062,0.223,0.121,0.449,0.211,0.662
		c0.16,0.373,1.102,0.61,1.422,0.362c0.072-0.055,0.112-0.162,0.145-0.254c0.156-0.463,0.494-0.644,1.043-0.633
		c-0.105,0.338-0.211,0.649-0.296,0.973c-0.063,0.224-0.092,0.455-0.149,0.744c-0.278,0.056-0.665,0.154-1.058,0.197
		c-0.266,0.026-0.551,0.02-0.805-0.056c-0.769-0.229-1.556-0.432-2.198-0.953c-0.088-0.067-0.16-0.168-0.211-0.266
		c-0.549-1.053-1.096-2.109-1.645-3.16c-0.007-0.016-0.037-0.02-0.055-0.029C3.792,24.699,3.76,24.709,3.728,24.722z"/>
	<path fill="#58595B" d="M55.408,16.308c-0.578,0.336-1.123,0.662-1.68,0.973c-1.555,0.871-3.025,1.895-4.691,2.561
		c-0.258,0.105-0.385,0.242-0.371,0.557c0.037,0.74-0.004,1.484,0.033,2.221c0.029,0.631-0.227,1.063-0.766,1.35
		c-0.193,0.107-0.383,0.221-0.578,0.324c-0.287,0.15-0.648,0.031-0.805-0.305c-0.236-0.51-0.447-1.031-0.66-1.549
		c-0.316-0.775-0.572-1.578-0.955-2.318c-0.273-0.531-0.701-0.984-1.076-1.459c-0.516-0.659-1.051-1.302-1.568-1.962
		c-0.285-0.366-0.174-0.827,0.238-1.063c0.152-0.087,0.295-0.188,0.449-0.278c0.465-0.271,0.934-0.305,1.41-0.022
		c0.73,0.43,1.461,0.864,2.195,1.284c0.076,0.043,0.229,0.053,0.283,0.006c1.461-1.178,3.146-1.991,4.742-2.943
		c0.557-0.331,1.113-0.66,1.703-1.011c-0.32-0.356-0.611-0.694-0.918-1.019c-0.65-0.686-1.316-1.359-1.967-2.047
		c-0.955-1.008-1.9-2.025-2.855-3.036c-0.875-0.93-1.762-1.85-2.633-2.783c-0.328-0.347-0.32-0.863,0.174-1.099
		c0.285-0.137,0.547-0.329,0.826-0.481c0.346-0.188,0.703-0.194,1.041,0.014c1.215,0.754,2.428,1.519,3.641,2.274
		c1.301,0.811,2.605,1.611,3.902,2.423c1.289,0.805,2.578,1.608,3.855,2.429c0.24,0.155,0.434,0.146,0.66,0.011
		c0.928-0.549,1.854-1.104,2.793-1.635c1.34-0.755,2.674-1.529,4.049-2.222c0.877-0.445,1.834-0.724,2.84-0.653
		c0.338,0.024,0.717,0.111,0.994,0.292c0.445,0.288,0.51,0.84,0.268,1.4c-0.275,0.64-0.707,1.163-1.203,1.639
		c-1.02,0.983-2.244,1.664-3.455,2.363c-1.469,0.853-2.939,1.701-4.396,2.563c-0.086,0.049-0.16,0.206-0.154,0.308
		c0.066,1.771,0.145,3.538,0.221,5.304c0.078,1.748,0.16,3.494,0.234,5.24c0.033,0.818,0.002,1.643,0.094,2.456
		c0.096,0.834-0.213,1.355-0.955,1.678c-0.143,0.059-0.271,0.146-0.402,0.227c-0.398,0.25-0.803,0.134-0.955-0.323
		c-0.25-0.74-0.467-1.488-0.697-2.233c-0.531-1.726-1.068-3.45-1.598-5.177c-0.334-1.094-0.656-2.194-0.99-3.29
		C55.627,16.977,55.523,16.663,55.408,16.308z"/>
	<path fill="#58595B" d="M43.68,24.235c-0.758,0.357-1.479,0.713-2.211,1.037c-1.801,0.796-3.602,1.601-5.418,2.354
		c-1.475,0.611-2.974,1.168-4.471,1.721c-1.589,0.586-3.181,1.178-4.791,1.701c-2.314,0.752-4.638,1.484-6.977,2.152
		c-1.693,0.486-3.416,0.873-5.131,1.275c-1.666,0.389-3.359,0.614-5.062,0.793c-1.691,0.176-3.359,0.127-5.011-0.226
		c-1.315-0.276-2.52-0.834-3.433-1.854c-0.971-1.082-1.231-2.409-1.165-3.819c0.021-0.354,0.069-0.709,0.156-1.058
		c0.137,0.363,0.253,0.736,0.413,1.091c0.49,1.081,1.32,1.769,2.445,2.157c1.9,0.658,3.822,0.656,5.781,0.351
		c1.827-0.285,3.606-0.74,5.354-1.313c1.801-0.59,3.572-1.262,5.351-1.92c1.154-0.428,2.306-0.873,3.445-1.346
		c1.547-0.641,3.081-1.303,4.612-1.978c1.199-0.527,2.394-1.064,3.572-1.635c1.408-0.678,2.8-1.389,4.188-2.105
		c0.988-0.51,1.964-1.045,2.939-1.588c0.635-0.354,1.258-0.729,1.875-1.113c0.242-0.152,0.373-0.098,0.535,0.119
		c0.572,0.744,1.176,1.463,1.736,2.211c0.168,0.223,0.252,0.51,0.359,0.773C43.076,22.74,43.365,23.465,43.68,24.235z"/>
	<path fill="#58595B" d="M19.861,47.487c-0.095-0.146-0.206-0.285-0.28-0.439c-0.127-0.262-0.226-0.536-0.346-0.803
		c-0.063-0.144-0.146-0.283-0.226-0.422c-0.169-0.304-0.345-0.601-0.507-0.906c-0.131-0.246-0.253-0.5-0.364-0.758
		c-0.084-0.199-0.211-0.414-0.198-0.617c0.024-0.517-0.142-0.955-0.356-1.412c-0.258-0.557-0.431-1.149-0.632-1.731
		c-0.137-0.396-0.259-0.797-0.375-1.197c-0.159-0.541-0.517-0.91-0.986-1.195c-0.327-0.201-0.645-0.416-0.963-0.621
		c3.113-0.828,6.201-1.647,9.369-2.49c-0.018,0.195-0.024,0.408-0.058,0.617c-0.071,0.445-0.173,0.887-0.232,1.334
		c-0.104,0.777-0.184,1.56-0.283,2.336c-0.01,0.09-0.055,0.193-0.114,0.254c-0.288,0.275-0.589,0.533-0.876,0.804
		c-0.266,0.248-0.425,0.547-0.47,0.918c-0.058,0.475-0.134,0.95-0.229,1.422c-0.02,0.103-0.139,0.192-0.23,0.267
		c-0.112,0.084-0.246,0.143-0.402,0.233c0.315,0.526,0.134,1.055,0.021,1.576c-0.105,0.483-0.252,0.959-0.389,1.434
		c-0.068,0.242-0.094,0.445,0.177,0.591c0.372,0.196,0.325,0.59,0.397,0.926c0.05,0.229,0.06,0.418,0.39,0.506
		c1.688,0.445,3.404,0.65,5.142,0.693c1.924,0.049,3.825-0.14,5.697-0.56c1.961-0.44,3.846-1.119,5.633-2.054
		c1.342-0.698,2.631-1.475,3.779-2.461c0.912-0.778,1.838-1.557,2.664-2.424c0.773-0.809,1.48-1.699,2.109-2.621
		c0.717-1.055,1.348-2.17,1.949-3.293c0.355-0.653,0.605-1.367,0.871-2.067c0.494-1.302,0.854-2.642,1.088-4.011
		c0.111-0.652,0.238-1.31,0.26-1.967c0.01-0.295-0.201-0.611-0.363-0.894c-0.121-0.215-0.32-0.388-0.494-0.588
		c0.963-0.879,1.494-1.963,1.361-3.28c-0.072-0.703,0.189-1.078,0.838-1.225c1.904,10.076-3.564,22.619-15.686,27.285
		c-13.78,5.308-26.142-2.219-30.78-10.637c0.589,0.031,1.175,0.033,1.751,0.109c0.153,0.021,0.308,0.248,0.416,0.41
		c1.267,1.885,2.809,3.52,4.557,4.957c1.528,1.258,3.192,2.311,5.002,3.119c0.76,0.338,1.531,0.647,2.299,0.971
		C19.814,47.546,19.839,47.518,19.861,47.487z"/>
	<path fill="#58595B" d="M33.925,31.456c2.776-1.156,5.52-2.3,8.292-3.457c0.072,0.063,0.182,0.168,0.297,0.269
		c0.1,0.088,0.209,0.166,0.393,0.313c0-0.273,0.029-0.441-0.006-0.596c-0.076-0.314,0.088-0.416,0.344-0.525
		c0.584-0.254,1.148-0.561,1.734-0.811c0.145-0.063,0.354-0.031,0.516,0.021c0.381,0.127,0.75,0.291,1.186,0.463
		c-0.203,0.162-0.41,0.394-0.668,0.521c-0.83,0.418-1.684,0.805-2.535,1.188c-0.178,0.082-0.379,0.121-0.264,0.384
		c0.096,0.211,0.201,0.375,0.5,0.26c0.398-0.15,0.814-0.262,1.229-0.383c0.166-0.047,0.273,0,0.287,0.205
		c0.014,0.295-0.043,0.539-0.236,0.793c-0.371,0.478-0.666,1.01-1.008,1.508c-0.262,0.382-0.57,0.729-0.816,1.117
		c-0.303,0.474-0.582,0.963-0.836,1.463c-0.152,0.306-0.234,0.64-0.113,0.992c0.246,0.724-0.068,1.301-0.482,1.863
		c-0.281,0.381-0.545,0.775-0.777,1.186c-0.113,0.201-0.094,0.482-0.215,0.679c-0.432,0.705-0.887,1.393-1.35,2.075
		c-0.461,0.687-1.209,0.927-1.941,1.154c-0.422,0.131-0.643-0.057-0.768-0.465c-0.291-0.947-0.572-1.898-0.914-2.826
		c-0.436-1.18-0.441-1.168-0.168-2.881c0.059-0.371-0.027-0.795-0.154-1.154c-0.216-0.598-0.559-1.149-0.767-1.748
		c-0.088-0.248,0.02-0.573,0.069-0.856c0.087-0.469-0.018-0.623-0.491-0.674C34.15,31.52,34.044,31.484,33.925,31.456z"/>
</g>
</svg>
