<?xml version="1.0" encoding="utf-8"?>
<!-- Generator: Adobe Illustrator 16.0.3, SVG Export Plug-In . SVG Version: 6.00 Build 0)  -->
<!DOCTYPE svg PUBLIC "-//W3C//DTD SVG 1.1//EN" "http://www.w3.org/Graphics/SVG/1.1/DTD/svg11.dtd">
<svg version="1.1" id="Layer_1" xmlns="http://www.w3.org/2000/svg" xmlns:xlink="http://www.w3.org/1999/xlink" x="0px" y="0px"
	 width="40px" height="40px" viewBox="-0.92 1.418 40 40" enable-background="new -0.92 1.418 40 40" xml:space="preserve">
<g>
	<path fill="#FFFFFF" d="M36.864,15.082c0,0.427,0.018,0.857-0.003,1.285c-0.055,1.102-0.117,2.204-0.195,3.306
		c-0.042,0.567-0.115,1.135-0.197,1.699c-0.104,0.699-0.223,1.394-0.356,2.086c-0.102,0.528-0.226,1.053-0.354,1.576
		c-0.111,0.452-0.231,0.901-0.37,1.347c-0.136,0.43-0.298,0.853-0.447,1.278c-0.078,0.221-0.148,0.443-0.235,0.66
		c-0.173,0.434-0.35,0.866-0.532,1.295c-0.141,0.326-0.281,0.656-0.443,0.973c-0.206,0.408-0.433,0.804-0.656,1.201
		c-0.157,0.282-0.311,0.567-0.487,0.833c-0.323,0.48-0.656,0.95-0.993,1.418c-0.211,0.293-0.429,0.574-0.655,0.853
		c-0.137,0.167-0.296,0.314-0.442,0.474c-0.146,0.159-0.278,0.333-0.432,0.484c-0.294,0.29-0.598,0.571-0.904,0.854
		c-0.27,0.252-0.544,0.502-0.829,0.738c-0.298,0.246-0.604,0.481-0.916,0.712c-0.315,0.231-0.639,0.457-0.966,0.671
		c-0.253,0.162-0.519,0.299-0.783,0.445c-0.304,0.166-0.603,0.337-0.914,0.49c-0.309,0.151-0.622,0.295-0.943,0.418
		c-0.592,0.219-1.185,0.44-1.785,0.623c-0.521,0.159-1.055,0.282-1.588,0.396c-0.447,0.095-0.897,0.166-1.35,0.219
		c-0.175,0.019-0.36-0.033-0.54-0.063c-0.509-0.085-1.022-0.159-1.525-0.271c-0.415-0.093-0.828-0.215-1.23-0.351
		c-0.524-0.175-1.05-0.352-1.556-0.574c-0.544-0.24-1.069-0.527-1.596-0.805c-0.395-0.209-0.79-0.419-1.165-0.663
		c-0.413-0.267-0.808-0.564-1.205-0.863c-0.35-0.263-0.697-0.528-1.032-0.812c-0.234-0.198-0.446-0.427-0.665-0.645
		c-0.204-0.201-0.408-0.4-0.603-0.606c-0.224-0.237-0.442-0.479-0.654-0.722c-0.231-0.265-0.46-0.531-0.681-0.805
		c-0.146-0.183-0.283-0.378-0.414-0.57c-0.248-0.358-0.503-0.71-0.725-1.08c-0.34-0.563-0.665-1.135-0.973-1.716
		c-0.254-0.481-0.485-0.975-0.706-1.471c-0.172-0.384-0.322-0.776-0.46-1.171c-0.202-0.57-0.39-1.147-0.568-1.725
		c-0.143-0.458-0.274-0.92-0.391-1.385c-0.134-0.538-0.246-1.082-0.363-1.625c-0.066-0.305-0.122-0.61-0.175-0.917
		c-0.098-0.563-0.194-1.121-0.278-1.681c-0.045-0.317-0.069-0.641-0.091-0.961c-0.073-1.134-0.168-2.268-0.203-3.402
		c-0.059-2.049-0.005-4.099,0.125-6.144c0.044-0.685,0.096-1.372,0.201-2.047c0.065-0.429,0.31-0.784,0.75-0.944
		c0.557-0.205,1.117-0.4,1.675-0.601c0.504-0.184,1.009-0.369,1.514-0.554c0.492-0.18,0.988-0.361,1.482-0.542
		C7.548,5.515,8.062,5.329,8.58,5.144c0.349-0.125,0.699-0.25,1.05-0.375c0.526-0.192,1.052-0.383,1.579-0.574
		c0.301-0.11,0.604-0.217,0.906-0.333c0.571-0.215,1.142-0.439,1.715-0.651c0.272-0.102,0.552-0.183,0.827-0.281
		c0.409-0.15,0.814-0.31,1.222-0.464c0.194-0.072,0.389-0.14,0.583-0.207c0.445-0.155,0.891-0.307,1.337-0.463
		c0.321-0.113,0.636-0.249,0.964-0.335c0.299-0.078,0.601-0.05,0.891,0.108c0.184,0.1,0.396,0.145,0.597,0.215
		c0.449,0.154,0.9,0.305,1.349,0.465c0.502,0.178,1.001,0.364,1.503,0.546c0.524,0.191,1.048,0.381,1.572,0.569
		c0.559,0.201,1.118,0.396,1.679,0.598c0.501,0.181,1.002,0.368,1.503,0.549c0.502,0.183,1.006,0.365,1.51,0.547
		c0.515,0.188,1.03,0.372,1.545,0.56c0.488,0.177,0.978,0.359,1.463,0.541c0.568,0.212,1.132,0.428,1.7,0.637
		c0.293,0.108,0.594,0.197,0.887,0.303c0.313,0.111,0.637,0.198,0.92,0.357c0.186,0.106,0.33,0.308,0.463,0.49
		c0.206,0.284,0.159,0.634,0.2,0.961c0.025,0.19,0.029,0.38,0.044,0.571c0.059,0.85,0.119,1.7,0.177,2.552
		c0.014,0.215,0.019,0.434,0.026,0.65c0.034,0.8,0.069,1.601,0.104,2.4C36.886,15.08,36.874,15.082,36.864,15.082z M4.024,9.451
		c-0.07,0.837-0.167,1.641-0.197,2.449c-0.048,1.244-0.072,2.489-0.065,3.734c0.006,0.916,0.066,1.834,0.127,2.75
		c0.05,0.759,0.124,1.517,0.208,2.273c0.055,0.496,0.132,0.992,0.22,1.485c0.104,0.572,0.223,1.143,0.344,1.714
		c0.082,0.391,0.164,0.78,0.272,1.163c0.15,0.525,0.326,1.048,0.492,1.569c0.079,0.24,0.159,0.479,0.243,0.717
		c0.069,0.194,0.136,0.389,0.218,0.576c0.158,0.363,0.323,0.726,0.49,1.085c0.14,0.303,0.277,0.608,0.438,0.899
		c0.208,0.379,0.434,0.75,0.661,1.117c0.256,0.414,0.512,0.834,0.796,1.229c0.28,0.391,0.587,0.763,0.898,1.13
		c0.274,0.322,0.562,0.636,0.858,0.94c0.253,0.257,0.52,0.498,0.789,0.739c0.334,0.296,0.665,0.6,1.023,0.869
		c0.313,0.239,0.656,0.444,0.992,0.651c0.467,0.29,0.931,0.583,1.414,0.844c0.371,0.201,0.76,0.374,1.154,0.529
		c0.516,0.202,1.039,0.389,1.569,0.553c0.373,0.113,0.758,0.195,1.143,0.266c0.362,0.064,0.736,0.157,1.094,0.124
		c0.507-0.043,1.005-0.186,1.505-0.301c0.358-0.084,0.72-0.166,1.064-0.293c0.588-0.219,1.166-0.469,1.742-0.719
		c0.257-0.111,0.509-0.241,0.752-0.383c0.396-0.23,0.79-0.469,1.177-0.716c0.287-0.182,0.565-0.373,0.834-0.578
		c0.282-0.213,0.551-0.45,0.82-0.68c0.235-0.202,0.479-0.396,0.697-0.614c0.282-0.281,0.551-0.575,0.813-0.874
		c0.344-0.389,0.696-0.775,1.014-1.189c0.294-0.39,0.555-0.811,0.815-1.227c0.295-0.47,0.589-0.944,0.854-1.434
		c0.233-0.433,0.425-0.891,0.631-1.339c0.078-0.17,0.145-0.345,0.213-0.519c0.214-0.552,0.436-1.1,0.634-1.656
		c0.146-0.413,0.268-0.836,0.385-1.262c0.125-0.455,0.248-0.913,0.348-1.373c0.134-0.605,0.252-1.211,0.359-1.819
		c0.08-0.456,0.147-0.915,0.191-1.374c0.094-0.936,0.203-1.87,0.235-2.809c0.078-2.204,0.122-4.408-0.096-6.608
		c-0.044-0.446-0.082-0.894-0.073-1.341c0.003-0.253-0.124-0.345-0.308-0.415c-0.545-0.2-1.094-0.39-1.639-0.589
		c-0.483-0.175-0.963-0.356-1.443-0.531c-0.54-0.195-1.081-0.386-1.621-0.583c-0.333-0.12-0.666-0.246-0.999-0.364
		c-0.415-0.146-0.833-0.287-1.247-0.431c-0.182-0.063-0.364-0.129-0.546-0.196c-0.447-0.169-0.896-0.341-1.346-0.506
		c-0.248-0.09-0.501-0.165-0.75-0.251c-0.184-0.063-0.366-0.131-0.549-0.2c-0.406-0.154-0.812-0.315-1.221-0.461
		c-0.293-0.108-0.594-0.186-0.886-0.292c-0.425-0.151-0.841-0.319-1.261-0.48c-0.305-0.116-0.608-0.23-0.915-0.34
		c-0.18-0.064-0.357-0.119-0.554-0.037c-0.271,0.114-0.55,0.213-0.827,0.315c-0.5,0.186-1,0.371-1.502,0.551
		c-0.589,0.211-1.183,0.415-1.771,0.628c-0.438,0.156-0.872,0.329-1.306,0.489c-0.376,0.137-0.756,0.265-1.132,0.401
		c-0.511,0.186-1.017,0.376-1.526,0.563c-0.49,0.177-0.981,0.354-1.469,0.53c-0.51,0.185-1.018,0.37-1.527,0.555
		C7.413,8.237,7.049,8.368,6.684,8.499C6.168,8.686,5.655,8.869,5.141,9.053C4.768,9.188,4.396,9.318,4.024,9.451z"/>
	<path fill="#FFFFFF" d="M13.94,18.268c0-1.271-0.007-2.51,0.004-3.748c0.003-0.32,0.021-0.651,0.104-0.957
		c0.129-0.476,0.323-0.924,0.645-1.319c0.403-0.487,0.865-0.876,1.445-1.139c0.487-0.221,0.993-0.324,1.525-0.32
		c1.048,0.008,2.098-0.01,3.144,0.017c0.513,0.014,0.989,0.202,1.446,0.452c0.39,0.21,0.719,0.487,1.012,0.806
		c0.172,0.186,0.306,0.411,0.438,0.63c0.386,0.638,0.46,1.346,0.45,2.076c-0.014,1.151-0.002,2.306-0.002,3.484
		c0.078,0.006,0.154,0.022,0.228,0.016c0.319-0.029,0.629,0.024,0.927,0.126c0.451,0.157,0.778,0.46,1.023,0.879
		c0.192,0.335,0.212,0.691,0.212,1.057c0.001,2.438-0.003,4.876,0,7.315c0.001,0.771-0.363,1.334-1.022,1.687
		c-0.248,0.134-0.558,0.199-0.841,0.202c-3.729,0.014-7.458,0.01-11.189,0.004c-0.712-0.001-1.284-0.308-1.658-0.913
		c-0.159-0.255-0.268-0.547-0.268-0.868c0.005-2.57-0.003-5.14,0.009-7.709c0.003-0.646,0.329-1.134,0.876-1.48
		c0.371-0.235,0.775-0.304,1.203-0.296C13.74,18.269,13.832,18.268,13.94,18.268z M21.652,18.263c0.006-0.04,0.016-0.064,0.016-0.09
		c0.001-1.191,0.004-2.383-0.002-3.576c-0.002-0.183-0.002-0.383-0.074-0.541c-0.23-0.504-0.63-0.764-1.2-0.756
		c-0.902,0.013-1.805,0.023-2.706,0.004c-0.75-0.018-1.258,0.564-1.255,1.248c0.002,1.171,0.002,2.345,0.002,3.517
		c0,0.063,0,0.125,0,0.194C18.183,18.263,19.909,18.263,21.652,18.263z M18.284,25.238c0,0.463-0.003,0.923,0,1.384
		c0.001,0.258,0.124,0.382,0.384,0.389c0.223,0.004,0.447-0.004,0.671,0.004c0.346,0.009,0.486-0.071,0.486-0.487
		c0-0.89,0-1.779,0.005-2.668c0-0.071,0.029-0.168,0.081-0.208c0.328-0.259,0.585-0.555,0.658-0.988
		c0.155-0.893-0.359-1.704-1.249-1.848c-0.795-0.129-1.381,0.229-1.687,0.878c-0.273,0.585-0.191,1.329,0.38,1.788
		c0.208,0.168,0.297,0.341,0.276,0.613C18.261,24.473,18.283,24.856,18.284,25.238z"/>
</g>
</svg>
