<?xml version="1.0" encoding="utf-8"?>
<!-- Generator: Adobe Illustrator 16.0.3, SVG Export Plug-In . SVG Version: 6.00 Build 0)  -->
<!DOCTYPE svg PUBLIC "-//W3C//DTD SVG 1.1//EN" "http://www.w3.org/Graphics/SVG/1.1/DTD/svg11.dtd">
<svg version="1.1" id="Layer_1" xmlns="http://www.w3.org/2000/svg" xmlns:xlink="http://www.w3.org/1999/xlink" x="0px" y="0px"
	 width="40px" height="40px" viewBox="0.004 1.419 40 40" enable-background="new 0.004 1.419 40 40" xml:space="preserve">
<g>
	<path fill="#FFFFFF" d="M28.965,7.793c-0.317,0.806-0.394,1.564-0.706,2.25c-0.999,2.193-2.02,4.378-2.715,6.694
		c-1.107,3.691-1.496,7.396-0.152,11.121c0.451,1.249,1.046,2.426,1.841,3.492c0.109,0.147,0.291,0.297,0.177,0.495
		c-0.117,0.209-0.338,0.102-0.519,0.081c-5.452-0.666-9.375-4.615-10.061-10.237c-0.718-5.876,1.191-10.777,5.676-14.646
		c2.063-1.781,4.172-3.508,6.266-5.256c0.534-0.447,1.035-0.506,1.53-0.078c2.903,2.516,5.583,5.227,7.17,8.807
		c1.436,3.236,1.496,6.579,0.697,9.982c-0.807,3.436-2.363,6.482-4.665,9.152c-0.427,0.496-0.908,0.934-1.433,1.318
		c-1.005,0.738-1.838,0.637-2.521-0.402c-1.941-2.948-2.778-6.17-2.292-9.696c0.267-1.945,0.934-3.78,1.58-5.62
		c0.585-1.664,1.144-3.342,0.961-5.149C29.718,9.311,29.506,8.557,28.965,7.793z"/>
	<path fill="#FFFFFF" d="M23.534,35.893c-2.625,0.04-5.25,0.14-7.851-0.354c-3.534-0.671-6.749-1.982-9.312-4.611
		C4.26,28.764,3.263,26.097,2.85,23.16c-0.296-2.14-0.063-4.276-0.021-6.414c0.024-1.114-0.012-2.222-0.214-3.323
		c-0.186-1.006-0.539-1.935-1.098-2.789c-0.336-0.515-0.24-0.739,0.36-0.882c0.481-0.112,0.969-0.112,1.431,0.05
		c1.929,0.668,3.969,0.874,5.937,1.383c2.06,0.537,4.002,1.305,5.358,3.062c0.781,1.013,1.108,2.154,0.731,3.428
		c-0.054,0.18-0.103,0.41-0.313,0.432c-0.27,0.033-0.32-0.229-0.384-0.421c-0.286-0.849-0.434-1.747-1.019-2.481
		c-1.067-1.345-2.519-2.049-4.116-2.514c-1.23-0.361-2.507-0.492-3.764-0.721c-0.375-0.067-0.66-0.015-0.453,0.471
		c0.791,1.87,0.914,3.861,1.064,5.85c0.158,2.09,0.253,4.192,0.854,6.223c1.431,4.844,5.145,8.897,10.792,9.483
		c2.138,0.22,4.276,0.185,6.418,0.182c2.143,0,4.287,0.022,6.397,0.443c1.498,0.3,2.898,0.829,4.021,1.935
		c0.94,0.923,1.288,2.047,1.153,3.327c-0.103,0.986-0.904,1.606-1.888,1.526c-0.808-0.067-1.098-0.447-0.969-1.238
		c0.06-0.37,0.116-0.748,0.122-1.124c0.028-1.466-0.708-2.412-2.131-2.79c-0.834-0.222-1.68-0.366-2.547-0.366
		C26.891,35.895,25.212,35.893,23.534,35.893z"/>
</g>
</svg>
