<?xml version="1.0" encoding="utf-8"?>
<!-- Generator: Adobe Illustrator 16.0.3, SVG Export Plug-In . SVG Version: 6.00 Build 0)  -->
<!DOCTYPE svg PUBLIC "-//W3C//DTD SVG 1.1//EN" "http://www.w3.org/Graphics/SVG/1.1/DTD/svg11.dtd">
<svg version="1.1" id="Layer_1" xmlns="http://www.w3.org/2000/svg" xmlns:xlink="http://www.w3.org/1999/xlink" x="0px" y="0px"
	 width="80px" height="80px" viewBox="-14.606 -9.149 80 80" enable-background="new -14.606 -9.149 80 80" xml:space="preserve">
<g>
	<path fill="#58595B" d="M46.914,13.246c-1.996,0.438-3.957,0.864-5.944,1.297c-0.091-0.562-0.179-1.102-0.273-1.679
		c1.169-0.256,2.326-0.511,3.484-0.764c0.004-0.021,0.006-0.041,0.009-0.063c-0.457-0.135-0.913-0.271-1.367-0.409
		c-0.813-0.245-1.623-0.484-2.431-0.742c-0.104-0.033-0.236-0.137-0.269-0.236c-0.473-1.484-1.063-2.917-1.818-4.281
		c-0.021-0.038-0.033-0.081-0.059-0.147c0.293-0.052,0.562-0.1,0.854-0.15c0.29,0.657,0.578,1.308,0.867,1.96
		c0.156,0.356,0.238,0.8,0.498,1.044c0.252,0.234,0.693,0.274,1.055,0.384c1.797,0.541,3.595,1.077,5.391,1.614
		c0.473,0.141,0.939,0.291,1.414,0.427c0.139,0.04,0.196,0.095,0.203,0.248c0.123,2.08,0.258,4.156,0.383,6.233
		c0.104,1.745,0.197,3.49,0.303,5.235c0.125,2.041,0.262,4.082,0.384,6.123c0.088,1.43,0.155,2.863,0.243,4.293
		c0.105,1.744,0.221,3.488,0.326,5.232c0.084,1.373,0.164,2.745,0.246,4.118c0.09,1.479,0.183,2.955,0.27,4.435
		c0.042,0.658,0.09,1.315,0.107,1.976c0.004,0.133-0.115,0.266-0.176,0.399c-0.23,0.492-0.646,0.67-1.15,0.813
		c-4.489,1.274-8.969,2.578-13.457,3.869c-4.346,1.252-8.693,2.496-13.04,3.746c-3.927,1.131-7.849,2.27-11.777,3.385
		c-0.378,0.106-0.795,0.082-1.195,0.096c-0.08,0.004-0.171-0.07-0.243-0.125C7.23,59.679,4.719,57.776,2.2,55.881
		c-0.686-0.518-1.381-1.022-2.062-1.547C0.06,54.274-0.007,54.133,0,54.033c0.071-0.854,0.162-1.709,0.244-2.563
		c0.087-0.912,0.175-1.824,0.263-2.738c0.124-1.33,0.249-2.66,0.373-3.99c0.127-1.35,0.248-2.699,0.374-4.051
		c0.1-1.064,0.205-2.129,0.306-3.193c0.112-1.176,0.216-2.354,0.327-3.533c0.1-1.064,0.203-2.127,0.307-3.193
		c0.104-1.111,0.212-2.223,0.317-3.334c0.108-1.131,0.213-2.264,0.32-3.393c0.123-1.33,0.245-2.663,0.372-3.993
		c0.128-1.33,0.26-2.661,0.388-3.991c0.045-0.465,0.114-0.932,0.119-1.398c0.012-0.772,0.202-1.47,0.622-2.132
		c0.19-0.306,0.392-0.442,0.739-0.499c1.918-0.322,3.83-0.671,5.745-1.009c0.636-0.111,1.273-0.216,1.931-0.325
		c-0.018-0.111-0.025-0.196-0.047-0.274c-0.269-0.996-0.152-1.951,0.308-2.865c1.426-2.83,3.543-4.978,6.388-6.381
		c1.662-0.819,3.429-1.223,5.283-1.174c0.756,0.021,1.498,0.162,2.181,0.515c0.136,0.068,0.265,0.148,0.405,0.229
		c-0.516,0.268-1.043,0.476-1.491,0.794c-0.591,0.414-1.188,0.561-1.906,0.514c-1.406-0.088-2.649,0.472-3.831,1.164
		c-1.464,0.856-2.75,1.932-3.765,3.302c-0.75,1.013-1.306,2.11-1.255,3.424c0.002,0.094,0.014,0.188,0.024,0.345
		c2.444-0.427,4.867-0.852,7.33-1.283c0.041,0.568,0.079,1.123,0.122,1.707c-4.995,0.875-9.971,1.746-14.945,2.62
		c-0.005,0.02-0.008,0.042-0.011,0.062c0.285,0.142,0.569,0.283,0.853,0.422c0.688,0.336,1.376,0.663,2.056,1.011
		c0.11,0.058,0.22,0.181,0.263,0.301c0.465,1.261,0.916,2.524,1.371,3.788c0.021,0.053,0.045,0.104,0.076,0.176
		c3.826-0.834,7.644-1.668,11.482-2.505c0.137,0.56,0.266,1.084,0.403,1.651c-3.871,0.844-7.727,1.686-11.617,2.536
		c-0.25,12.958-0.501,25.911-0.752,38.919c0.378-0.104,0.721-0.193,1.063-0.291c3.303-0.949,6.607-1.9,9.907-2.853
		c4.135-1.188,8.27-2.383,12.402-3.572c3.25-0.934,6.5-1.864,9.748-2.799c1.328-0.381,2.652-0.768,3.98-1.145
		c0.2-0.057,0.286-0.131,0.271-0.365c-0.123-1.85-0.232-3.697-0.342-5.549c-0.064-1.107-0.117-2.213-0.185-3.32
		c-0.087-1.42-0.183-2.84-0.269-4.262c-0.084-1.408-0.162-2.818-0.248-4.226c-0.086-1.459-0.178-2.918-0.267-4.379
		c-0.065-1.086-0.128-2.174-0.192-3.262c-0.088-1.448-0.174-2.898-0.262-4.348c-0.064-1.105-0.131-2.213-0.197-3.317
		C47.029,15.099,46.972,14.193,46.914,13.246z M1.838,52.642c0.11-0.011,0.192-0.017,0.274-0.023
		c1.509-0.217,3.018-0.441,4.528-0.639c0.265-0.035,0.33-0.129,0.337-0.367c0.035-0.83,0.08-1.658,0.119-2.488
		C7.2,46.978,7.3,44.831,7.405,42.683c0.126-2.574,0.256-5.151,0.385-7.727c0.066-1.355,0.125-2.71,0.192-4.066
		c0.088-1.859,0.18-3.719,0.271-5.578c0.062-1.297,0.125-2.594,0.188-3.892c0.087-1.774,0.175-3.55,0.27-5.325
		c0.01-0.18-0.048-0.269-0.213-0.345c-0.646-0.305-1.285-0.627-1.928-0.941c-0.364-0.176-0.729-0.351-1.116-0.538
		C4.248,27.081,3.043,39.847,1.838,52.642z M9.979,56.14c0.029-0.004,0.06-0.013,0.089-0.019c0-0.295-0.003-0.592,0-0.888
		c0.057-3,0.117-6,0.174-8.998c0.077-3.975,0.155-7.946,0.232-11.922c0.047-2.614,0.09-5.231,0.138-7.851
		c0.034-1.898,0.065-3.801,0.114-5.702c0.01-0.403-0.06-0.774-0.201-1.143c-0.173-0.454-0.329-0.914-0.495-1.37
		c-0.025-0.069-0.062-0.137-0.093-0.203c-0.058,0.138-0.07,0.26-0.077,0.381c-0.055,1.128-0.111,2.252-0.166,3.38
		c-0.133,2.745-0.268,5.495-0.399,8.239c-0.106,2.187-0.202,4.369-0.311,6.554c-0.125,2.547-0.255,5.097-0.382,7.642
		c-0.115,2.338-0.217,4.678-0.351,7.014c-0.04,0.718-0.035,1.402,0.392,2.021c0.012,0.014,0.013,0.035,0.022,0.053
		C9.103,54.265,9.54,55.203,9.979,56.14z M9.764,58.849c0.019-0.017,0.036-0.031,0.053-0.048c-0.875-1.872-1.748-3.745-2.626-5.62
		c-1.578,0.225-3.123,0.444-4.751,0.678C4.935,55.56,7.349,57.201,9.764,58.849z"/>
	<path fill="#58595B" d="M24.869,19.94c0.083,0.304,0.011,0.532-0.213,0.711c-0.156,0.127-0.325,0.236-0.475,0.368
		c-0.075,0.066-0.121,0.171-0.218,0.314c1.043-0.222,1.463-0.734,1.281-1.481c-0.381-1.563-0.716-3.139-1.073-4.707
		c-0.493-2.169-0.933-4.348-0.942-6.586c-0.005-1.284,0.146-2.547,0.656-3.746c0.72-1.692,2.018-2.711,3.744-3.238
		c2.313-0.71,4.473-0.387,6.436,1.049c1.208,0.883,2.171,2,2.963,3.269c1.454,2.323,2.407,4.843,2.883,7.535
		c0.156,0.89,0.215,1.798,0.28,2.701c0.075,1.075-0.306,2.011-1.021,2.799c-0.312,0.341-0.479,0.668-0.485,1.162
		c-0.019,1.039-0.72,1.838-1.644,2.004c-0.752,0.135-1.371-0.146-1.871-0.694c-0.744-0.821-0.885-2.111-0.348-3.072
		c0.395-0.712,1.208-1.123,1.971-0.956c-0.101,0.162-0.17,0.326-0.287,0.451c-0.189,0.211-0.416,0.392-0.614,0.598
		c-0.06,0.06-0.067,0.164-0.099,0.248c0.033,0.022,0.064,0.045,0.097,0.067c0.239-0.148,0.514-0.26,0.71-0.452
		c0.357-0.354,0.689-0.739,0.99-1.145c0.127-0.169,0.186-0.422,0.199-0.641c0.086-1.507-0.217-2.961-0.621-4.398
		c-0.572-2.033-1.398-3.952-2.656-5.666c-0.799-1.084-1.735-2.002-3.006-2.531c-1.723-0.721-3.953-0.146-4.977,1.298
		C26,5.946,25.777,6.802,25.687,7.694c-0.189,1.854,0.109,3.67,0.499,5.471c0.416,1.917,0.885,3.822,1.303,5.737
		c0.185,0.837,0.382,1.688,0.201,2.551c-0.067,0.329-0.229,0.64-0.351,0.96c-0.072,0.19-0.18,0.377-0.211,0.575
		c-0.18,1.07-1.063,1.854-2.086,1.775c-0.841-0.064-1.417-0.559-1.804-1.287c-0.534-1.012-0.357-2.297,0.422-3.044
		C23.993,20.115,24.39,19.951,24.869,19.94z"/>
	<path fill="#58595B" d="M26.498,10.007c0-0.683-0.031-1.311,0.01-1.937c0.05-0.771,0.191-1.531,0.603-2.212
		c0.384-0.629,0.938-1.027,1.677-1.235c-0.088,1.181-0.424,2.269-0.807,3.393c0.49-0.085,0.952-0.159,1.413-0.241
		c1.437-0.253,2.866-0.512,4.303-0.761c0.078-0.013,0.214,0.036,0.255,0.102c0.305,0.447,0.59,0.908,0.92,1.425
		C32.069,9.031,29.33,9.51,26.498,10.007z"/>
	<path fill="#58595B" d="M28.035,17.364c-0.138-0.556-0.268-1.079-0.406-1.649c3.014-0.658,6.014-1.312,9.078-1.982
		c0.082,0.566,0.164,1.113,0.25,1.687C33.974,16.069,31.026,16.714,28.035,17.364z"/>
</g>
</svg>
