<?xml version="1.0" encoding="utf-8"?>
<!-- Generator: Adobe Illustrator 16.0.3, SVG Export Plug-In . SVG Version: 6.00 Build 0)  -->
<!DOCTYPE svg PUBLIC "-//W3C//DTD SVG 1.1//EN" "http://www.w3.org/Graphics/SVG/1.1/DTD/svg11.dtd">
<svg version="1.1" id="Layer_1" xmlns="http://www.w3.org/2000/svg" xmlns:xlink="http://www.w3.org/1999/xlink" x="0px" y="0px"
	 width="38.159px" height="42.837px" viewBox="0 0 38.159 42.837" enable-background="new 0 0 38.159 42.837" xml:space="preserve">
<g>
	<path fill-rule="evenodd" clip-rule="evenodd" fill="#FFFFFF" d="M38.124,14.634c0,0.458,0.019,0.918-0.004,1.376
		c-0.058,1.18-0.124,2.36-0.209,3.54c-0.044,0.607-0.122,1.215-0.21,1.819c-0.112,0.748-0.239,1.493-0.382,2.234
		c-0.108,0.566-0.242,1.128-0.38,1.689c-0.119,0.483-0.248,0.965-0.396,1.441c-0.145,0.461-0.319,0.913-0.479,1.369
		c-0.084,0.236-0.159,0.475-0.252,0.707c-0.185,0.465-0.375,0.928-0.571,1.387c-0.149,0.35-0.3,0.703-0.474,1.042
		c-0.221,0.436-0.463,0.86-0.703,1.286c-0.168,0.302-0.332,0.607-0.522,0.893c-0.345,0.514-0.702,1.017-1.063,1.518
		c-0.225,0.313-0.459,0.614-0.702,0.913c-0.146,0.179-0.316,0.336-0.474,0.507c-0.155,0.17-0.298,0.356-0.462,0.518
		c-0.315,0.311-0.641,0.613-0.968,0.914c-0.29,0.27-0.583,0.537-0.888,0.791c-0.319,0.264-0.648,0.516-0.982,0.762
		c-0.338,0.248-0.683,0.491-1.034,0.719c-0.27,0.174-0.556,0.32-0.838,0.477c-0.326,0.178-0.646,0.361-0.979,0.525
		c-0.331,0.162-0.666,0.317-1.011,0.447c-0.633,0.235-1.268,0.472-1.911,0.668c-0.559,0.17-1.13,0.302-1.701,0.425
		c-0.478,0.101-0.961,0.177-1.445,0.233c-0.188,0.021-0.386-0.034-0.578-0.067c-0.545-0.091-1.095-0.171-1.633-0.29
		c-0.445-0.099-0.886-0.231-1.318-0.375c-0.561-0.188-1.125-0.377-1.666-0.615c-0.583-0.258-1.145-0.564-1.709-0.862
		c-0.422-0.224-0.845-0.448-1.247-0.71c-0.442-0.286-0.865-0.605-1.29-0.924c-0.375-0.281-0.746-0.566-1.105-0.87
		c-0.251-0.212-0.477-0.456-0.712-0.69c-0.218-0.215-0.437-0.429-0.646-0.65c-0.239-0.253-0.473-0.512-0.7-0.773
		c-0.248-0.283-0.493-0.568-0.729-0.861c-0.157-0.195-0.303-0.404-0.443-0.611c-0.265-0.383-0.539-0.76-0.776-1.156
		c-0.364-0.604-0.712-1.215-1.042-1.838c-0.272-0.516-0.52-1.043-0.756-1.575c-0.184-0.411-0.345-0.831-0.493-1.254
		c-0.216-0.611-0.417-1.229-0.608-1.848c-0.153-0.49-0.294-0.984-0.419-1.481c-0.144-0.577-0.264-1.16-0.389-1.741
		c-0.071-0.326-0.13-0.654-0.187-0.982C0.533,22.057,0.43,21.46,0.34,20.861c-0.048-0.34-0.074-0.686-0.098-1.03
		c-0.078-1.214-0.18-2.428-0.217-3.643c-0.063-2.194-0.006-4.389,0.133-6.579C0.205,8.875,0.261,8.14,0.373,7.417
		c0.07-0.46,0.332-0.84,0.804-1.012C1.773,6.186,2.373,5.977,2.97,5.762c0.54-0.197,1.081-0.395,1.622-0.593
		c0.527-0.193,1.058-0.387,1.587-0.581C6.729,4.389,7.28,4.19,7.834,3.991c0.373-0.134,0.748-0.267,1.124-0.402
		c0.564-0.206,1.127-0.41,1.691-0.615c0.322-0.118,0.646-0.233,0.97-0.356c0.612-0.231,1.223-0.47,1.837-0.697
		c0.292-0.109,0.592-0.196,0.886-0.301c0.438-0.161,0.872-0.332,1.309-0.497c0.208-0.077,0.417-0.15,0.625-0.221
		c0.477-0.166,0.954-0.329,1.432-0.496c0.344-0.121,0.681-0.267,1.032-0.359c0.321-0.084,0.644-0.054,0.955,0.115
		c0.196,0.107,0.423,0.156,0.638,0.231c0.482,0.165,0.966,0.327,1.445,0.498c0.538,0.191,1.072,0.39,1.609,0.585
		c0.562,0.204,1.122,0.408,1.684,0.609c0.598,0.215,1.198,0.425,1.797,0.64c0.538,0.194,1.074,0.394,1.611,0.588
		c0.537,0.196,1.077,0.391,1.616,0.586c0.552,0.201,1.104,0.398,1.655,0.6c0.523,0.19,1.046,0.385,1.567,0.579
		c0.608,0.227,1.212,0.459,1.82,0.683c0.313,0.116,0.636,0.211,0.951,0.324c0.333,0.119,0.681,0.212,0.984,0.383
		c0.199,0.113,0.354,0.33,0.496,0.524c0.22,0.304,0.171,0.679,0.214,1.03c0.027,0.203,0.032,0.407,0.047,0.611
		c0.063,0.91,0.128,1.821,0.189,2.733c0.015,0.231,0.02,0.465,0.028,0.697c0.038,0.857,0.075,1.714,0.111,2.57
		C38.148,14.632,38.135,14.634,38.124,14.634z M2.955,8.604C2.88,9.5,2.777,10.361,2.744,11.226
		c-0.051,1.332-0.077,2.666-0.069,3.999c0.006,0.981,0.071,1.964,0.136,2.945c0.054,0.813,0.133,1.625,0.223,2.434
		c0.059,0.531,0.142,1.062,0.236,1.59c0.111,0.613,0.239,1.225,0.368,1.836c0.088,0.417,0.175,0.835,0.291,1.245
		c0.161,0.564,0.35,1.123,0.527,1.681c0.084,0.257,0.17,0.513,0.26,0.768c0.074,0.208,0.146,0.416,0.233,0.617
		c0.169,0.389,0.346,0.777,0.525,1.162c0.15,0.323,0.297,0.651,0.469,0.963c0.223,0.406,0.464,0.803,0.708,1.196
		c0.275,0.444,0.548,0.893,0.853,1.317c0.3,0.418,0.629,0.817,0.962,1.21c0.294,0.345,0.602,0.681,0.919,1.007
		c0.271,0.275,0.557,0.533,0.845,0.792c0.358,0.316,0.712,0.642,1.095,0.931c0.335,0.255,0.703,0.475,1.063,0.697
		c0.5,0.311,0.997,0.624,1.514,0.904c0.397,0.215,0.814,0.4,1.236,0.566c0.552,0.217,1.112,0.416,1.68,0.592
		c0.399,0.122,0.812,0.209,1.224,0.285c0.388,0.068,0.788,0.168,1.172,0.133c0.543-0.047,1.077-0.199,1.612-0.322
		c0.384-0.09,0.771-0.178,1.141-0.314c0.629-0.234,1.248-0.503,1.865-0.77c0.275-0.119,0.544-0.258,0.805-0.41
		c0.425-0.246,0.846-0.502,1.26-0.767c0.307-0.194,0.606-0.399,0.894-0.618c0.302-0.229,0.589-0.482,0.878-0.729
		c0.252-0.217,0.513-0.424,0.747-0.658c0.302-0.3,0.59-0.615,0.871-0.935c0.368-0.417,0.746-0.831,1.085-1.274
		c0.315-0.418,0.595-0.868,0.874-1.314c0.316-0.503,0.631-1.011,0.913-1.535c0.251-0.463,0.456-0.954,0.677-1.434
		c0.083-0.182,0.154-0.369,0.227-0.555c0.229-0.591,0.467-1.178,0.678-1.774c0.157-0.443,0.288-0.896,0.413-1.351
		c0.135-0.488,0.265-0.978,0.373-1.471c0.142-0.647,0.27-1.296,0.384-1.948c0.086-0.488,0.159-0.979,0.206-1.471
		c0.099-1.002,0.216-2.003,0.251-3.008c0.085-2.36,0.132-4.721-0.102-7.077c-0.047-0.478-0.088-0.957-0.079-1.436
		c0.004-0.271-0.132-0.37-0.329-0.444c-0.583-0.214-1.171-0.418-1.755-0.631c-0.517-0.187-1.031-0.381-1.546-0.569
		c-0.578-0.209-1.157-0.413-1.735-0.624c-0.357-0.128-0.714-0.263-1.071-0.39c-0.444-0.157-0.891-0.307-1.336-0.462
		c-0.194-0.067-0.389-0.138-0.583-0.21c-0.48-0.181-0.96-0.365-1.442-0.542c-0.265-0.097-0.536-0.177-0.803-0.27
		c-0.197-0.067-0.392-0.14-0.587-0.214c-0.436-0.165-0.869-0.338-1.308-0.494c-0.313-0.115-0.636-0.199-0.948-0.313
		C21.289,3.6,20.843,3.42,20.393,3.248c-0.326-0.124-0.652-0.246-0.98-0.364c-0.193-0.069-0.382-0.128-0.593-0.04
		c-0.291,0.122-0.589,0.228-0.886,0.337c-0.536,0.199-1.07,0.397-1.609,0.59c-0.631,0.226-1.267,0.444-1.897,0.673
		c-0.469,0.167-0.933,0.352-1.398,0.524c-0.403,0.146-0.81,0.284-1.213,0.43C11.27,5.597,10.728,5.801,10.182,6
		c-0.525,0.19-1.05,0.379-1.573,0.568c-0.546,0.198-1.09,0.396-1.636,0.594c-0.389,0.142-0.778,0.282-1.17,0.422
		C5.252,7.784,4.702,7.981,4.151,8.178C3.752,8.322,3.353,8.462,2.955,8.604z"/>
	<path fill-rule="evenodd" clip-rule="evenodd" fill="#FFFFFF" d="M13.574,18.046c0-1.361-0.007-2.688,0.005-4.014
		c0.004-0.343,0.023-0.697,0.112-1.024c0.138-0.51,0.346-0.99,0.691-1.413c0.432-0.522,0.926-0.939,1.547-1.22
		c0.522-0.237,1.063-0.347,1.633-0.343c1.123,0.009,2.246-0.01,3.366,0.019c0.55,0.015,1.06,0.216,1.55,0.483
		c0.417,0.226,0.769,0.522,1.083,0.864c0.185,0.199,0.327,0.44,0.469,0.674c0.413,0.684,0.492,1.441,0.482,2.223
		c-0.014,1.233-0.003,2.469-0.003,3.732c0.084,0.006,0.166,0.024,0.245,0.017c0.341-0.031,0.673,0.026,0.991,0.135
		c0.484,0.168,0.835,0.493,1.096,0.942c0.208,0.359,0.228,0.741,0.228,1.132c0.001,2.611-0.003,5.222,0,7.833
		c0.001,0.826-0.39,1.429-1.095,1.807c-0.265,0.143-0.598,0.213-0.9,0.216c-3.994,0.014-7.987,0.011-11.983,0.005
		c-0.763-0.001-1.375-0.33-1.776-0.978c-0.17-0.273-0.287-0.586-0.287-0.93c0.005-2.752-0.004-5.505,0.009-8.256
		c0.004-0.692,0.352-1.214,0.939-1.586c0.397-0.251,0.83-0.325,1.288-0.317C13.36,18.048,13.459,18.046,13.574,18.046z
		 M21.834,18.041c0.006-0.043,0.016-0.069,0.016-0.096c0.001-1.276,0.004-2.553-0.002-3.83c-0.002-0.195-0.002-0.41-0.08-0.579
		c-0.246-0.54-0.674-0.818-1.285-0.81c-0.966,0.013-1.933,0.025-2.897,0.004c-0.804-0.019-1.347,0.604-1.345,1.337
		c0.003,1.254,0.002,2.511,0.002,3.766c0,0.067,0,0.134,0,0.208C18.118,18.041,19.966,18.041,21.834,18.041z M18.226,25.511
		c0,0.495-0.003,0.988,0,1.481c0.001,0.277,0.133,0.41,0.411,0.416c0.239,0.005,0.479-0.003,0.719,0.004
		c0.37,0.011,0.521-0.075,0.521-0.521c0-0.953-0.001-1.905,0.005-2.857c0-0.076,0.032-0.18,0.086-0.223
		c0.352-0.277,0.627-0.594,0.706-1.058c0.166-0.956-0.386-1.825-1.338-1.979c-0.852-0.138-1.479,0.246-1.806,0.941
		c-0.293,0.628-0.205,1.423,0.407,1.914c0.223,0.18,0.318,0.365,0.296,0.657C18.202,24.692,18.225,25.102,18.226,25.511z"/>
</g>
</svg>
