<?xml version="1.0" encoding="utf-8"?>
<!-- Generator: Adobe Illustrator 16.0.3, SVG Export Plug-In . SVG Version: 6.00 Build 0)  -->
<!DOCTYPE svg PUBLIC "-//W3C//DTD SVG 1.1//EN" "http://www.w3.org/Graphics/SVG/1.1/DTD/svg11.dtd">
<svg version="1.1" id="Layer_1" xmlns="http://www.w3.org/2000/svg" xmlns:xlink="http://www.w3.org/1999/xlink" x="0px" y="0px"
	 width="44.931px" height="44.8px" viewBox="0 0 44.931 44.8" enable-background="new 0 0 44.931 44.8" xml:space="preserve">
<path fill="#414042" d="M20.863,0h3.204c3.427,0,7.325,1.417,11.693,4.248c3.297,2.569,5.686,5.538,7.166,8.909
	c1.337,3.208,2.004,5.917,2.004,8.124v1.85c0,4.966-2.04,9.888-6.12,14.767C34.077,42.5,28.581,44.8,22.323,44.8
	c-7.812,0-14.191-3.636-19.144-10.91C1.059,29.97,0,26.114,0,22.324c0-6.244,2.571-11.869,7.71-16.878C12.5,1.816,16.885,0,20.863,0
	z M10.496,19.406v6.926c0,3.773,1.201,6.296,3.596,7.558c1.073,0.608,4.528,0.833,10.367,0.673c4.472,0,7.043-0.484,7.71-1.458
	c1.511-1.206,2.263-3.202,2.263-5.988v-8.909c0-3.514-1.238-5.814-3.723-6.905l-1.655-0.543l-1.677-0.13h-9.693
	c-3.454,0-5.764,1.683-6.924,5.054C10.586,16.713,10.496,17.954,10.496,19.406z M18.077,12.763h9.3c3.368,0,5.052,1.772,5.052,5.317
	v9.428c-0.448,3.283-1.821,4.922-4.115,4.922h-3.854c-1.801,0-3.703,0.045-5.707,0.13c-3.342,0-5.291-1.059-5.858-3.18
	c-0.175-1.177-0.262-2.945-0.262-5.313v-2.94c0-4.429,0.354-6.642,1.066-6.642C14.41,13.339,15.87,12.763,18.077,12.763z
	 M16.355,22.738c0,2.861,1.643,4.849,4.924,5.968h2.656c3.18-1.147,4.77-3.18,4.77-6.1v-0.282c0-1.657-0.842-3.202-2.526-4.638
	c-1.146-0.799-2.337-1.201-3.571-1.201h-0.13c-2.746,0-4.654,1.416-5.729,4.249C16.604,20.923,16.473,21.592,16.355,22.738z
	 M22.478,18.599h0.13c1.916,0,3.2,1.026,3.854,3.07c0.088,0.118,0.132,0.43,0.132,0.937c-0.422,2.746-1.75,4.116-3.986,4.116
	c-1.772,0-3.059-0.884-3.855-2.656c-0.115-0.144-0.211-0.588-0.281-1.328C18.789,19.978,20.125,18.599,22.478,18.599z
	 M27.509,16.356c0.39,0.888,0.884,1.33,1.48,1.33c0.594,0,1.081-0.442,1.456-1.33c-0.201-1.075-0.738-1.61-1.608-1.61
	C27.953,15.022,27.509,15.557,27.509,16.356z"/>
</svg>
