<?xml version="1.0" encoding="utf-8"?>
<!-- Generator: Adobe Illustrator 16.0.3, SVG Export Plug-In . SVG Version: 6.00 Build 0)  -->
<!DOCTYPE svg PUBLIC "-//W3C//DTD SVG 1.1//EN" "http://www.w3.org/Graphics/SVG/1.1/DTD/svg11.dtd">
<svg version="1.1" id="Layer_1" xmlns="http://www.w3.org/2000/svg" xmlns:xlink="http://www.w3.org/1999/xlink" x="0px" y="0px"
	 width="44.801px" height="44.8px" viewBox="0 0 44.801 44.8" enable-background="new 0 0 44.801 44.8" xml:space="preserve">
<path fill="#414042" d="M22.021,0h0.912c4.995,0,9.815,1.903,14.463,5.708c4.935,5.007,7.404,10.263,7.404,15.767v2.136
	c0,3.193-1.234,6.945-3.703,11.259c-3.048,4.354-7.203,7.361-12.459,9.017c-2.438,0.61-4.47,0.914-6.097,0.914H22.41
	c-6.083,0-11.521-2.381-16.313-7.143C2.032,33.01,0,27.932,0,22.412c0-5.897,2.302-11.29,6.903-16.183
	C11.695,2.077,16.734,0,22.021,0z M23.348,18.557v1.068c0,0.173-0.094,0.258-0.282,0.258c-2.776-0.375-5.155-1.349-7.145-2.916
	l-1.852-1.722h-0.153c0,0.146-0.173,0.503-0.521,1.066v1.59c0.117,0.9,0.734,1.918,1.852,3.05v0.129c-0.61,0-1.227-0.17-1.852-0.521
	v0.13c0,1.699,1.104,3.157,3.312,4.378l-0.264,0.129h-0.651l-0.675-0.129v0.262c1.014,1.857,2.3,2.788,3.855,2.788v0.392
	c-1.744,1.061-3.473,1.59-5.186,1.59h-0.783v0.262c2.496,1.147,4.662,1.72,6.489,1.72c3.833,0,7.1-1.546,9.801-4.636
	c1.947-2.704,2.921-5.267,2.921-7.69v-0.917c1.407-1.351,2.117-2.103,2.133-2.263v-0.13c-0.511,0.26-1.221,0.483-2.133,0.673
	l-0.132-0.282c0.827-0.48,1.443-1.142,1.852-1.985v-0.126h-0.132c-1.309,0.623-2.1,0.933-2.373,0.933h-0.394
	c-0.971-0.797-1.859-1.239-2.654-1.329h-1.07c-1.48,0-2.671,0.833-3.569,2.507C23.479,17.273,23.348,17.845,23.348,18.557z"/>
</svg>
