<?xml version="1.0" encoding="utf-8"?>
<!-- Generator: Adobe Illustrator 16.0.3, SVG Export Plug-In . SVG Version: 6.00 Build 0)  -->
<!DOCTYPE svg PUBLIC "-//W3C//DTD SVG 1.1//EN" "http://www.w3.org/Graphics/SVG/1.1/DTD/svg11.dtd">
<svg version="1.1" id="Layer_1" xmlns="http://www.w3.org/2000/svg" xmlns:xlink="http://www.w3.org/1999/xlink" x="0px" y="0px"
	 width="174.059px" height="174.059px" viewBox="0 0 174.059 174.059" enable-background="new 0 0 174.059 174.059"
	 xml:space="preserve">
<rect x="0.215" y="0.052" fill="#FFFFFF" width="174.058" height="174.06"/>
<rect x="16.509" y="130.922" fill="none" width="111.786" height="36.385"/>
<path fill="#E6E7E8" d="M-0.215,125.393c1.883,0.214,3.792,0.321,5.725,0.321c30.986,0,56.105-28.153,56.105-62.884
	c0-34.729-25.119-62.887-56.105-62.887c-1.934,0-3.842,0.108-5.725,0.324V125.393z"/>
<ellipse fill="#D1D3D4" cx="90.713" cy="46.523" rx="47.924" ry="45.768"/>
<g>
	<g>
		<path fill="#FEC047" d="M150.504,148.162c0.057,0.306,0.127,0.582,0.188,0.786c0.06,0.212,0.193,0.394,0.384,0.503
			c0.194,0.125,0.495,0.305,0.86,0.521c2.111,1.272,6.521,3.885,7.754,4.264c1.248,0.388,2.474-0.401,2.99-0.814
			c0.168-0.132,0.262-0.333,0.256-0.544l-0.004-0.47v-0.201c0.072-1.406-0.231-2.289-0.471-2.748
			c-0.144-0.271-0.258-0.396-0.258-0.396l-3.367-0.72l-0.383-0.077l-1.265-0.738l-1.147-0.665l-1.508-0.732
			c-0.066-0.029-0.337-0.162-0.337-0.162l-0.987-0.483c-0.947-0.284-1.682-0.046-2.164,0.388c-0.25,0.216-0.437,0.482-0.545,0.753
			C150.34,146.999,150.398,147.615,150.504,148.162z"/>
		<path fill="#F7F8EF" d="M153.234,147.193c0.146,0.146,4.697,2.332,4.697,2.332l-0.738-1.691l-1.147-0.672l-1.508-0.729
			C154.072,146.429,153.092,147.047,153.234,147.193z"/>
		<path fill="#E4E9E6" d="M150.504,148.162c0.057,0.306,0.127,0.582,0.188,0.786c0.06,0.212,0.193,0.394,0.384,0.503
			c0.194,0.125,0.495,0.305,0.86,0.521c-0.186-0.894-0.012-1.771,0.256-2.472c-0.596-0.462-0.965-1.201-1.146-1.635
			c-0.25,0.216-0.437,0.482-0.545,0.753C150.34,146.999,150.398,147.615,150.504,148.162z"/>
		<path fill="#D4DBDC" d="M158.289,149.376c0,0-1.324-0.434-1.617-0.834c-0.18-0.251-0.504-0.744-0.605-1.197
			c-0.067-0.304,0.17-0.771,0.396-0.985c0.371-0.354,0.951-0.853,1.334-0.853c0.594,0,1.147,0.146,1.147,0.146l0.193,2.512
			L158.289,149.376z"/>
		<path fill="#A3B0B9" d="M158.023,149.111c0,0-1.608-1.449-1.352-2.082c0.264-0.628,1.252-0.868,1.252-0.868l0.633-0.121
			l0.387,1.881L158.023,149.111z"/>
		<path fill="#F68B3B" d="M151.938,149.972c2.111,1.272,6.521,3.885,7.754,4.264c1.248,0.388,2.474-0.401,2.99-0.814
			c0.168-0.132,0.262-0.333,0.256-0.544l-0.004-0.47v-0.201c0.072-1.406-0.231-2.289-0.471-2.748
			c-0.133,1.311-2.877,1.502-3.881,1.058c-1.91-0.848-5.08-2.228-6.146-2.849c-0.088-0.051-0.168-0.104-0.244-0.164
			C151.926,148.201,151.752,149.08,151.938,149.972z"/>
		<path fill="#F7F8EF" d="M151.047,145.867c0.182,0.434,0.551,1.173,1.146,1.635c0.117-0.3,0.252-0.564,0.392-0.787
			c0.36-0.6,1.158-0.729,1.617-0.749l-0.988-0.483C152.264,145.195,151.531,145.435,151.047,145.867z"/>
		<path fill="#A3B0B9" d="M150.504,148.162c0.057,0.303,0.127,0.582,0.188,0.786c0.06,0.212,0.193,0.39,0.384,0.503
			c1.352,0.824,7.161,4.339,8.614,4.783c1.248,0.388,2.474-0.401,2.99-0.814c0.168-0.132,0.262-0.333,0.256-0.544l-0.004-0.47
			c-0.535,0.514-1.713,1.313-2.682,1.117c-1.092-0.217-4.115-1.805-4.115-1.805S151.709,149.33,150.504,148.162z"/>
		<path fill="#F7F8EF" d="M161.357,150.513c0,0,0.547,1.45,0.406,2.717c0,0,0.863-0.236,0.889-0.578
			c0.035-0.527,0.111-1.729-0.414-2.68C162.238,149.972,161.891,150.283,161.357,150.513z"/>
	</g>
	<g>
		<path fill="#FEC047" d="M136.113,154.717c0.066,0.33,0.144,0.631,0.203,0.852c0.066,0.229,0.218,0.428,0.418,0.548
			c0.211,0.13,0.537,0.327,0.937,0.563c2.285,1.381,7.063,4.205,8.399,4.619c1.351,0.417,2.673-0.438,3.234-0.883
			c0.18-0.143,0.287-0.362,0.283-0.59l-0.01-0.513v-0.217c0.084-1.521-0.254-2.479-0.515-2.979
			c-0.146-0.287-0.271-0.426-0.271-0.426l-3.648-0.773l-0.414-0.088l-1.371-0.795l-1.25-0.729l-1.627-0.792
			c-0.067-0.034-0.36-0.176-0.36-0.176l-1.07-0.524c-1.029-0.312-1.822-0.05-2.348,0.413c-0.271,0.235-0.472,0.523-0.591,0.818
			C135.941,153.455,136.002,154.125,136.113,154.717z"/>
		<path fill="#F7F8EF" d="M139.074,153.667c0.153,0.156,5.092,2.521,5.092,2.521l-0.81-1.832l-1.25-0.725l-1.627-0.796
			C139.979,152.838,138.916,153.51,139.074,153.667z"/>
		<path fill="#E4E9E6" d="M136.113,154.717c0.066,0.33,0.144,0.631,0.203,0.852c0.066,0.229,0.218,0.428,0.418,0.548
			c0.211,0.13,0.537,0.327,0.937,0.563c-0.199-0.967-0.017-1.92,0.279-2.679c-0.65-0.501-1.052-1.298-1.246-1.771
			c-0.271,0.235-0.472,0.523-0.591,0.818C135.941,153.455,136.002,154.125,136.113,154.717z"/>
		<path fill="#D4DBDC" d="M144.547,156.029c0,0-1.432-0.463-1.752-0.896c-0.197-0.271-0.541-0.808-0.652-1.297
			c-0.078-0.33,0.185-0.837,0.426-1.069c0.402-0.389,1.031-0.925,1.443-0.925c0.641,0,1.244,0.159,1.244,0.159l0.211,2.719
			L144.547,156.029z"/>
		<path fill="#A3B0B9" d="M144.262,155.744c0,0-1.748-1.572-1.467-2.251c0.287-0.684,1.363-0.946,1.363-0.946l0.678-0.132
			l0.42,2.038L144.262,155.744z"/>
		<path fill="#F68B3B" d="M137.668,156.677c2.285,1.381,7.063,4.205,8.399,4.619c1.351,0.417,2.673-0.438,3.234-0.883
			c0.18-0.143,0.287-0.362,0.283-0.59l-0.01-0.513v-0.217c0.084-1.521-0.256-2.479-0.515-2.979c-0.143,1.424-3.11,1.632-4.207,1.147
			c-2.063-0.92-5.496-2.411-6.647-3.083c-0.093-0.057-0.185-0.117-0.265-0.184C137.654,154.757,137.469,155.71,137.668,156.677z"/>
		<path fill="#F7F8EF" d="M136.701,152.226c0.194,0.477,0.596,1.271,1.243,1.771c0.13-0.317,0.271-0.608,0.421-0.854
			c0.397-0.646,1.258-0.786,1.754-0.81l-1.07-0.524C138.02,151.502,137.227,151.763,136.701,152.226z"/>
		<path fill="#A3B0B9" d="M136.113,154.717c0.066,0.328,0.144,0.631,0.203,0.852c0.066,0.229,0.218,0.428,0.418,0.548
			c1.47,0.895,7.767,4.693,9.336,5.183c1.351,0.417,2.673-0.438,3.234-0.883c0.18-0.143,0.287-0.362,0.283-0.59l-0.01-0.513
			c-0.578,0.563-1.854,1.427-2.906,1.212c-1.176-0.232-4.455-1.951-4.455-1.951S137.422,155.979,136.113,154.717z"/>
		<path fill="#F7F8EF" d="M147.871,157.264c0,0,0.594,1.566,0.438,2.941c0,0,0.937-0.262,0.965-0.625
			c0.037-0.574,0.119-1.876-0.448-2.904C148.826,156.677,148.453,157.014,147.871,157.264z"/>
	</g>
	<path fill="#2D4E58" d="M162.393,86.526c1.793,12.391-1.188,26.188-1.188,26.188c3.252,12.422,2.278,22.918,1.268,35.579
		c-0.139,2.521-6.084,2.526-6.736-0.188c-2.862-11.938-2.926-24.445-3.532-35.392c-0.773-6.344-1.438-9.146-2.289-21.229
		L162.393,86.526z"/>
	<path fill="#3A6874" d="M145.469,75.92l-0.871,2.614c-3.082,11.271-4.076,21.545-3.301,40.139
		c-0.729,10.938,0.063,23.75,1.463,35.945c0.313,2.773,5.682,3.559,6.131,1.066c2.545-12.441,3.045-22.297,1.328-35.023
		c0,0,3.701-13.221,4.557-23.008c13.39-4.966,7.642-16.704,6.377-23.326C159.115,75.471,149.252,76.494,145.469,75.92z"/>
	<path fill="#E73D34" d="M144.92,76.091c1.047,6.007,14.244,6.007,16.229-1.764c1.148-4.999,1.813-9.533,2.283-16.113
		c0.314-4.225,0.83-8.415-1.764-10.258c-2.461-1.75-8.828-4.842-12.742-0.849c-2.455,2.513-5.973,5.737-6.531,8.58
		C141.965,57.885,144.17,71.082,144.92,76.091z"/>
	<path fill="#FCBA7D" d="M155.574,35.148c-0.072,1.291-0.146,2.598-0.437,3.855c-0.291,1.265-0.813,2.496-1.695,3.448
		c-0.985,1.068-2.409,1.715-3.858,1.797c-0.457,0.024-0.916,0-1.365-0.091c-0.449-0.094-0.893-0.235-1.26-0.505
		c-0.576-0.421-0.902-1.079-1.135-1.77v-0.001c-0.06-0.154-0.104-0.308-0.146-0.46c-1.023-3.517-1.182-7.232-0.951-10.889
		c0.035-0.54,0.08-1.088,0.248-1.604c0.502-1.529,2.07-2.534,3.662-2.729c1.596-0.198,3.205,0.283,4.66,0.973
		c0.396,0.188,0.797,0.396,1.115,0.703c0.305,0.291,0.521,0.661,0.799,0.979C155.563,29.242,155.678,33.201,155.574,35.148z"/>
	<path fill="#FDCFA2" d="M146.979,44.48c0-0.019,0-0.037,0-0.058V44.48z"/>
	<path fill="#FCBA7D" d="M149.359,37.061h7.939c0,0.039,0.014,9.655-0.025,9.655c-0.106,0.461-0.471,0.907-1.119,1.26
		c-1.555,0.844-4.071,0.844-5.627,0c-0.649-0.353-1.014-0.799-1.116-1.26C149.334,46.717,149.359,37.134,149.359,37.061z"/>
	<path fill="#1D1D1B" d="M143.303,32.953c-1.428-2.854,0.09-8.307,9.338-8.306c5.865,0.01,13.623,7.129,6.596,18.558
		c-2.385,3.879-8.272,3.343-13.934,0.796c2.705-2.076,2.822-8.403,1.684-11.177C146.563,31.798,144.605,29.746,143.303,32.953z"/>
	<path fill="#FCBA7D" d="M147.77,39.945c-0.34-0.086-0.479-0.439-0.541-0.746c-0.194-0.939-0.217-1.906-0.049-2.851
		c0.049-0.283,0.119-0.574,0.313-0.809c0.19-0.231,0.534-0.392,0.854-0.313c0.361,0.091,0.549,0.436,0.654,0.75
		c0.356,1.085,0.27,2.282-0.248,3.323c-0.09,0.181-0.195,0.356-0.361,0.488C148.223,39.92,147.988,40,147.77,39.945z"/>
	<path fill="#1D1D1B" d="M145.139,28.558c-0.764,1.102-1.125,2.475-0.996,3.805c0.51-1.197,1.455-2.211,2.619-2.803
		C146.223,29.224,145.68,28.892,145.139,28.558z"/>
	<g>
		<path fill="#FCBA7D" d="M139.113,56.731l2.548,1.482l1.049-3.938l-3.035-1.6l-1.324-2.088l-4.809-0.065
			c0,0.354,0.795,2.24,0.938,3.183C135.658,55.442,137.053,56.749,139.113,56.731z"/>
		<g>
			<g>
				<path fill="#324251" d="M132.869,48.266l0.28,0.288l3.138-0.912c0.084-0.021,0.188,0.046,0.237,0.154l3.496,7.758l0.521,0.523
					l-0.193,0.321l0,0v0.01l-0.002-0.002c-0.016,0.042-0.039,0.07-0.084,0.085l-3.453,1.005c-0.09,0.024-0.188-0.041-0.244-0.154
					l-3.873-8.614c-0.021-0.056-0.021-0.107-0.014-0.151L132.869,48.266z"/>
				<path fill="#324251" d="M140.463,56.16l-3.459,1.006c-0.084,0.024-0.193-0.044-0.244-0.152l-3.875-8.594
					c-0.021-0.056-0.023-0.108-0.016-0.152c0.012-0.046,0.041-0.08,0.086-0.091l3.453-1.007c0.09-0.022,0.19,0.044,0.241,0.154
					l3.871,8.594C140.574,56.027,140.545,56.135,140.463,56.16z"/>
				<polygon fill="#6586A6" points="136.701,56.402 133.215,48.67 136.602,47.688 140.084,55.419 				"/>
				<path fill="#6586A6" d="M139.08,56.361l-0.857,0.249c-0.031,0.013-0.078-0.019-0.098-0.063l-0.127-0.29
					c-0.023-0.047-0.017-0.092,0.021-0.099l0.854-0.251c0.035-0.009,0.084,0.017,0.1,0.063l0.133,0.286
					C139.125,56.306,139.113,56.352,139.08,56.361z"/>
				<path fill="#324251" d="M138.209,56.569c-0.021,0.009-0.041-0.009-0.051-0.03l-0.136-0.286c-0.01-0.022-0.006-0.046,0.021-0.05
					l0.848-0.25c0.021-0.004,0.041,0.012,0.055,0.029l0.132,0.289c0.012,0.021,0.006,0.048-0.015,0.053L138.209,56.569z"/>
				<g>
					<g>
						<path fill="#283340" d="M134.66,48.116c0.01,0.015,0.002,0.034-0.015,0.04l0,0c-0.018,0.006-0.03-0.009-0.045-0.028
							l-0.117-0.267c-0.012-0.021-0.006-0.037,0.017-0.043l0,0c0.012-0.003,0.031,0.012,0.037,0.028L134.66,48.116z"/>
						<path fill="#283340" d="M134.77,48.083c0.015,0.019,0.004,0.037-0.014,0.041l0,0c-0.012,0.003-0.029-0.009-0.041-0.025
							l-0.121-0.27c-0.004-0.019,0-0.036,0.014-0.041l0,0c0.017-0.004,0.031,0.009,0.045,0.023L134.77,48.083z"/>
						<path fill="#283340" d="M134.881,48.05c0.008,0.018,0.002,0.038-0.012,0.041l0,0c-0.017,0.008-0.031-0.006-0.043-0.024
							l-0.115-0.268c-0.017-0.021-0.006-0.04,0.008-0.043l0,0c0.014-0.004,0.033,0.01,0.037,0.026L134.881,48.05z"/>
						<path fill="#283340" d="M134.992,48.017c0.008,0.02,0.004,0.039-0.015,0.041l0,0c-0.016,0.004-0.033-0.009-0.041-0.023
							l-0.123-0.27c-0.006-0.021-0.002-0.034,0.017-0.043l0,0c0.014-0.005,0.028,0.011,0.041,0.025L134.992,48.017z"/>
						<path fill="#283340" d="M135.102,47.986c0.01,0.02,0.004,0.037-0.01,0.04l0,0c-0.018,0.009-0.033-0.003-0.045-0.023
							l-0.117-0.27c-0.01-0.019-0.006-0.037,0.014-0.042l0,0c0.015-0.003,0.031,0.011,0.037,0.026L135.102,47.986z"/>
					</g>
					<g>
						<path fill="#283340" d="M134.66,48.116c0.01,0.015,0.002,0.034-0.015,0.04l0,0c-0.018,0.006-0.03-0.009-0.045-0.028
							l-0.117-0.267c-0.012-0.021-0.006-0.037,0.017-0.043l0,0c0.012-0.003,0.031,0.012,0.037,0.028L134.66,48.116z"/>
						<path fill="#283340" d="M134.77,48.083c0.015,0.019,0.004,0.037-0.014,0.041l0,0c-0.012,0.003-0.029-0.009-0.041-0.025
							l-0.121-0.27c-0.004-0.019,0-0.036,0.014-0.041l0,0c0.017-0.004,0.031,0.009,0.045,0.023L134.77,48.083z"/>
						<path fill="#283340" d="M134.881,48.05c0.008,0.018,0.002,0.038-0.012,0.041l0,0c-0.017,0.008-0.031-0.006-0.043-0.024
							l-0.115-0.268c-0.017-0.021-0.006-0.04,0.008-0.043l0,0c0.014-0.004,0.033,0.01,0.037,0.026L134.881,48.05z"/>
						<path fill="#283340" d="M134.992,48.017c0.008,0.02,0.004,0.039-0.015,0.041l0,0c-0.016,0.004-0.033-0.009-0.041-0.023
							l-0.123-0.27c-0.006-0.021-0.002-0.034,0.017-0.043l0,0c0.014-0.005,0.028,0.011,0.041,0.025L134.992,48.017z"/>
						<path fill="#283340" d="M135.102,47.986c0.01,0.02,0.004,0.037-0.01,0.04l0,0c-0.018,0.009-0.033-0.003-0.045-0.023
							l-0.117-0.27c-0.01-0.019-0.006-0.037,0.014-0.042l0,0c0.015-0.003,0.031,0.011,0.037,0.026L135.102,47.986z"/>
					</g>
				</g>
				<path fill="#6586A6" d="M133.607,48.27c0.023,0.049,0.015,0.101-0.022,0.106l0,0c-0.039,0.012-0.09-0.021-0.111-0.066l0,0
					c-0.021-0.052-0.01-0.102,0.027-0.108l0,0C133.537,48.19,133.586,48.219,133.607,48.27L133.607,48.27z"/>
				<path fill="#283340" d="M134.109,48.125c0.021,0.05,0.011,0.097-0.024,0.104l0,0c-0.041,0.016-0.088-0.016-0.111-0.064l0,0
					c-0.018-0.048-0.008-0.1,0.029-0.112l0,0C134.039,48.044,134.084,48.074,134.109,48.125L134.109,48.125z"/>
			</g>
			<g>
				<g>
					<path fill="#324251" d="M135.941,49.368c0.023,0.02,0.043,0.056,0.037,0.085c-0.002,0.002-0.002,0.008-0.002,0.008v0.005
						c-0.012,0.028-0.035,0.033-0.063,0.017l-0.369-0.241l0.021-0.1L135.941,49.368z"/>
					<path fill="#23A9AD" d="M135.578,49.16l-0.021,0.08c-0.002,0.01-0.014,0.018-0.029,0.009l-0.051-0.032l0.029-0.131l0.057,0.036
						C135.576,49.129,135.58,49.143,135.578,49.16z"/>
					<path fill="#324251" d="M135.324,48.755c-0.138-0.085-0.273-0.042-0.312,0.09c-0.035,0.14,0.047,0.318,0.187,0.403
						c0.133,0.087,0.268,0.046,0.307-0.089C135.543,49.024,135.461,48.841,135.324,48.755z M135.309,48.82
						c0.103,0.063,0.158,0.197,0.135,0.304c-0.021,0.102-0.129,0.128-0.229,0.064c-0.104-0.063-0.164-0.197-0.141-0.303
						C135.105,48.785,135.207,48.755,135.309,48.82z"/>
				</g>
				<g>
					<g>
						<path fill="#D04439" d="M134.4,49.115l0.058-0.048l0.088,0.072l-0.015,0.084l0.06,0.082l0.082,0.02l0.041,0.106l-0.063,0.036
							l0.004,0.088l0.066,0.073l-0.021,0.092l-0.08-0.021l-0.048,0.055l0.023,0.094l-0.078,0.03l-0.063-0.078l-0.076-0.003
							l-0.031,0.068l-0.094-0.042l-0.021-0.093l-0.069-0.062l-0.068,0.015l-0.066-0.097l0.033-0.066l-0.031-0.09l-0.075-0.047
							l-0.011-0.104l0.074-0.009l0.023-0.074l-0.051-0.09l0.053-0.063l0.076,0.055l0.065-0.025l0.002-0.09l0.092,0.007l0.046,0.087
							L134.4,49.115z M134.279,49.188l-0.116,0.05l-0.037,0.143l0.063,0.167l0.125,0.113l0.146,0.01l0.084-0.104l-0.015-0.166
							l-0.102-0.146L134.279,49.188z"/>
						<path fill="#23A9AD" d="M134.408,49.286l-0.119-0.057l-0.101,0.042l-0.028,0.117l0.047,0.136l0.108,0.096l0.117,0.005
							l0.066-0.081l-0.008-0.135L134.408,49.286z M134.408,49.574l-0.084-0.005l-0.082-0.067l-0.037-0.104l0.021-0.084l0.072-0.031
							l0.088,0.041l0.064,0.092l0.006,0.101L134.408,49.574z"/>
					</g>
				</g>
				<g>
					<polygon fill="#C7C7B4" points="137.254,51.315 137.488,51.834 138.141,51.646 137.906,51.126 					"/>
					<path fill="#F5EFD1" d="M137.664,51.41l-0.185,0.313c-0.016,0.025-0.016,0.063,0.002,0.104l0.004,0.011l0.652-0.188
						l-0.004-0.011c-0.018-0.038-0.045-0.069-0.082-0.081L137.664,51.41z"/>
					<path fill="#FFFFFF" d="M137.707,51.496c-0.025,0.007-0.049,0.007-0.072-0.004l-0.277-0.076
						c-0.039-0.006-0.08-0.045-0.102-0.097l-0.021-0.041l0.654-0.188l0.019,0.044c0.021,0.048,0.018,0.095-0.002,0.127l-0.15,0.2
						C137.738,51.479,137.723,51.49,137.707,51.496z"/>
				</g>
				<g>
					<path fill="#23A9AD" d="M136.639,49.099l0.035,0.082c0.021-0.014,0.035-0.048,0.037-0.094
						C136.686,49.088,136.66,49.093,136.639,49.099z"/>
					<path fill="#23A9AD" d="M136.689,48.929c-0.037,0.004-0.078,0.015-0.112,0.024l0.049,0.115
						c0.026-0.007,0.059-0.014,0.086-0.014C136.709,49.019,136.701,48.974,136.689,48.929z"/>
					<path fill="#23A9AD" d="M136.564,48.638c-0.039,0.015-0.076,0.028-0.112,0.041l0.051,0.107l0.123-0.033
						C136.602,48.713,136.582,48.673,136.564,48.638z"/>
					<path fill="#23A9AD" d="M136.635,48.781l-0.125,0.033l0.047,0.107c0.041-0.011,0.082-0.017,0.121-0.025
						C136.668,48.859,136.652,48.82,136.635,48.781z"/>
					<path fill="#23A9AD" d="M136.459,48.501c-0.023,0.013-0.051,0.022-0.076,0.033l0.053,0.115
						c0.039-0.014,0.074-0.023,0.109-0.042C136.516,48.567,136.488,48.531,136.459,48.501z"/>
					<path fill="#23A9AD" d="M136.479,48.449c-0.024-0.016-0.051-0.022-0.069-0.027c0.016,0.015,0.028,0.025,0.051,0.042
						C136.463,48.458,136.473,48.456,136.479,48.449z"/>
					<path fill="#23A9AD" d="M136.334,48.421l0.037,0.083c0.021-0.003,0.047-0.02,0.063-0.027
						C136.393,48.441,136.359,48.421,136.334,48.421z"/>
					<path fill="#23A9AD" d="M136.711,48.924c0.014,0.048,0.021,0.094,0.021,0.133c0.019,0,0.031,0,0.045,0.002
						c0.011-0.041,0.015-0.089,0.007-0.142C136.76,48.917,136.734,48.921,136.711,48.924z"/>
					<path fill="#23A9AD" d="M136.504,49.164c0.024,0.011,0.053,0.021,0.076,0.024c-0.019-0.014-0.035-0.024-0.056-0.043
						C136.523,49.151,136.51,49.16,136.504,49.164z"/>
					<path fill="#23A9AD" d="M136.273,48.686c-0.014-0.048-0.02-0.092-0.021-0.132c-0.017,0-0.027,0-0.041-0.004
						c-0.017,0.041-0.017,0.092-0.015,0.146C136.223,48.69,136.248,48.689,136.273,48.686z"/>
					<path fill="#23A9AD" d="M136.297,48.682c0.037-0.003,0.076-0.016,0.117-0.023l-0.058-0.116
						c-0.022,0.006-0.059,0.011-0.086,0.015C136.275,48.592,136.283,48.638,136.297,48.682z"/>
					<path fill="#23A9AD" d="M136.254,48.467c-0.019,0.016-0.025,0.034-0.033,0.06c0.008,0,0.018,0,0.027,0
						C136.248,48.501,136.25,48.482,136.254,48.467z"/>
					<path fill="#23A9AD" d="M136.273,48.523c0.023,0,0.054-0.008,0.072-0.014l-0.033-0.08
						C136.289,48.443,136.273,48.476,136.273,48.523z"/>
					<path fill="#23A9AD" d="M136.652,49.188l-0.032-0.079c-0.025,0.007-0.052,0.016-0.07,0.024
						C136.59,49.168,136.623,49.19,136.652,49.188z"/>
					<path fill="#23A9AD" d="M136.424,48.974c0.035-0.019,0.076-0.03,0.115-0.043l-0.054-0.104l-0.127,0.032
						C136.383,48.898,136.398,48.939,136.424,48.974z"/>
					<path fill="#23A9AD" d="M136.346,48.832l0.129-0.037l-0.051-0.107c-0.037,0.013-0.078,0.021-0.121,0.026
						C136.314,48.754,136.334,48.792,136.346,48.832z"/>
					<path fill="#23A9AD" d="M136.525,49.11c0.021-0.011,0.054-0.021,0.076-0.032l-0.055-0.117
						c-0.037,0.014-0.072,0.023-0.107,0.042C136.465,49.045,136.5,49.083,136.525,49.11z"/>
					<path fill="#23A9AD" d="M136.668,48.543c-0.041-0.042-0.088-0.076-0.137-0.103l-0.007,0.004
						c0.041,0.029,0.084,0.066,0.121,0.111C136.652,48.551,136.66,48.546,136.668,48.543z"/>
					<path fill="#23A9AD" d="M136.648,48.592c-0.021,0.013-0.047,0.026-0.065,0.034c0.021,0.037,0.047,0.078,0.063,0.12l0.084-0.026
						C136.705,48.679,136.676,48.629,136.648,48.592z"/>
					<path fill="#23A9AD" d="M136.182,48.548c0,0-0.006,0-0.01,0c-0.021,0.04-0.027,0.091-0.023,0.146c0.011,0,0.019,0,0.023,0
						C136.17,48.642,136.172,48.592,136.182,48.548z"/>
					<path fill="#23A9AD" d="M136.564,48.603c0.021-0.012,0.041-0.021,0.063-0.034c-0.035-0.043-0.076-0.077-0.117-0.104
						c-0.01,0.011-0.021,0.016-0.031,0.021C136.506,48.519,136.539,48.558,136.564,48.603z"/>
					<path fill="#23A9AD" d="M136.236,48.898l-0.032,0.012c0.021,0.049,0.057,0.1,0.096,0.14c0.004-0.006,0.012-0.013,0.02-0.017
						C136.287,48.99,136.258,48.944,136.236,48.898z"/>
					<path fill="#23A9AD" d="M136.807,48.89c0.012,0,0.021,0,0.029,0c-0.004-0.054-0.021-0.104-0.041-0.153l-0.035,0.009
						C136.781,48.794,136.799,48.839,136.807,48.89z"/>
					<path fill="#23A9AD" d="M136.75,48.714l0.033-0.01c-0.025-0.054-0.056-0.101-0.097-0.144c-0.008,0.006-0.016,0.014-0.021,0.021
						C136.697,48.623,136.727,48.664,136.75,48.714z"/>
					<path fill="#23A9AD" d="M136.807,49.062l0.004,0.003c0.021-0.046,0.025-0.094,0.025-0.146c-0.008,0-0.021,0-0.025,0
						C136.818,48.969,136.814,49.019,136.807,49.062z"/>
					<path fill="#23A9AD" d="M136.18,48.723c-0.01,0-0.021,0-0.031,0c0.004,0.051,0.021,0.104,0.039,0.154l0.035-0.012
						C136.201,48.82,136.188,48.771,136.18,48.723z"/>
					<path fill="#23A9AD" d="M136.258,48.89c0.021,0.047,0.049,0.09,0.076,0.127c0.022-0.011,0.047-0.021,0.065-0.033
						c-0.021-0.04-0.043-0.074-0.063-0.115L136.258,48.89z"/>
					<path fill="#23A9AD" d="M136.314,49.073c0.045,0.036,0.092,0.069,0.14,0.095l0.006-0.003c-0.039-0.029-0.084-0.063-0.123-0.106
						C136.33,49.058,136.324,49.065,136.314,49.073z"/>
					<path fill="#23A9AD" d="M136.418,49.012c-0.021,0.007-0.043,0.021-0.062,0.032c0.033,0.04,0.076,0.076,0.115,0.103
						c0.01-0.009,0.023-0.019,0.031-0.022C136.475,49.09,136.447,49.052,136.418,49.012z"/>
					<path fill="#23A9AD" d="M136.205,48.719c0.006,0.046,0.02,0.096,0.041,0.14l0.08-0.021c-0.021-0.041-0.029-0.082-0.045-0.123
						C136.254,48.719,136.23,48.719,136.205,48.719z"/>
					<path fill="#23A9AD" d="M136.701,48.896c0.026-0.003,0.053-0.006,0.08-0.006c-0.011-0.05-0.023-0.095-0.041-0.142l-0.08,0.022
						C136.674,48.816,136.693,48.856,136.701,48.896z"/>
					<path fill="#23A9AD" d="M136.732,49.147c0.013-0.019,0.025-0.037,0.035-0.063c-0.014,0-0.021,0-0.033,0
						C136.734,49.109,136.734,49.129,136.732,49.147z"/>
				</g>
				<g>
					<path fill="#23A9AD" d="M135.387,51.14l-0.5,0.146c-0.039,0.009-0.08-0.021-0.102-0.063l-0.3-0.648
						c-0.018-0.05-0.008-0.097,0.031-0.104l0.502-0.146c0.035-0.009,0.078,0.021,0.101,0.065l0.295,0.648
						C135.434,51.083,135.424,51.128,135.387,51.14z"/>
					<g>
						<path fill="#FFFFFF" d="M134.881,50.935c0.002,0.01,0.008,0.018,0.016,0.014l0.229-0.063c0.004-0.004,0.008-0.008,0.008-0.008
							l-0.033-0.146l-0.274,0.08L134.881,50.935z"/>
						<path fill="#FFFFFF" d="M135.125,50.66l0.049,0.213c0.012,0.026,0,0.055-0.025,0.062L134.92,51
							c-0.027,0.009-0.064-0.017-0.08-0.056l-0.078-0.17l0,0l-0.084-0.188c-0.008-0.015-0.021-0.029-0.039-0.022
							c-0.014,0.008-0.02,0.021-0.01,0.037c0.002,0.014,0.002,0.021-0.008,0.022c-0.011,0.004-0.021-0.004-0.023-0.016
							c-0.018-0.036-0.008-0.074,0.023-0.084c0.028-0.013,0.065,0.012,0.09,0.055l0.041,0.103c0.002-0.007,0.012-0.011,0.018-0.015
							l0.271-0.078C135.072,50.582,135.115,50.615,135.125,50.66z M135.078,50.635c-0.009-0.003-0.013-0.009-0.021-0.005
							l-0.27,0.078c-0.011,0.002-0.019,0.02-0.011,0.033l0.093,0.198c0.002,0.014,0.021,0.023,0.028,0.021l0.23-0.066
							c0.008-0.001,0.016-0.016,0.008-0.021l-0.047-0.211C135.092,50.648,135.082,50.64,135.078,50.635z"/>
						<path fill="#FFFFFF" d="M135.014,51.066c0.01,0.03,0.002,0.063-0.021,0.067c-0.027,0.007-0.058-0.01-0.07-0.044
							c-0.014-0.03-0.006-0.063,0.021-0.068C134.965,51.01,134.996,51.033,135.014,51.066z M134.984,51.073
							c-0.008-0.016-0.02-0.021-0.026-0.021c-0.011,0.008-0.015,0.019-0.011,0.031c0.011,0.01,0.021,0.021,0.029,0.018
							C134.984,51.096,134.988,51.084,134.984,51.073z"/>
						<path fill="#FFFFFF" d="M135.205,51.007c0.014,0.03,0.006,0.063-0.021,0.068c-0.022,0.009-0.055-0.012-0.069-0.043
							c-0.013-0.032-0.007-0.063,0.021-0.071C135.16,50.958,135.189,50.977,135.205,51.007z M135.178,51.014
							c-0.004-0.013-0.018-0.021-0.027-0.02c-0.01,0.005-0.01,0.016-0.008,0.029c0.006,0.013,0.021,0.021,0.031,0.021
							C135.182,51.042,135.188,51.029,135.178,51.014z"/>
					</g>
				</g>
				<g>
					<path fill="#D04439" d="M137.344,49.984l0.119,0.266c0.082,0.187,0.033,0.367-0.105,0.409l-0.053,0.013
						c-0.145,0.045-0.326-0.069-0.408-0.26l-0.119-0.266L137.344,49.984z M137.195,50.237c-0.016-0.036-0.053-0.063-0.082-0.054
						c-0.024,0.008-0.034,0.045-0.021,0.086c0.01,0.024,0.033,0.045,0.059,0.049l0.07,0.17l0.047-0.014l-0.074-0.167
						C137.209,50.289,137.209,50.263,137.195,50.237z"/>
					<path fill="#D04439" d="M136.842,49.916c-0.039-0.082-0.018-0.169,0.049-0.188l0.029-0.009
						c0.063-0.018,0.146,0.035,0.188,0.118l0.068,0.148l0.076-0.022l-0.07-0.147c-0.061-0.142-0.201-0.229-0.305-0.192l-0.033,0.008
						c-0.104,0.031-0.145,0.172-0.08,0.31l0.066,0.148l0.074-0.022L136.842,49.916z"/>
				</g>
				<g>
					<path fill="#FFFFFF" d="M135.869,50.041c-0.086,0.027-0.146,0.056-0.199,0.102c0.039,0.072,0.035,0.146-0.008,0.185
						c0.151,0.271,0.348,0.513,0.604,0.596c0.133-0.198,0.084-0.483-0.012-0.772c-0.064,0-0.129-0.059-0.154-0.133
						C136.021,50.01,135.955,50.017,135.869,50.041z"/>
					<path fill="#C7C7B4" d="M136.209,50.214c0.024,0.101,0.049,0.188,0.061,0.271c0.004,0.039,0.006,0.074,0.006,0.108
						c0,0.01,0,0.02,0,0.02c0,0.02,0,0.029-0.002,0.037c-0.004,0.066-0.02,0.127-0.049,0.178c-0.166-0.063-0.32-0.219-0.479-0.477
						c0.008-0.014,0.012-0.023,0.014-0.036c0.004-0.008,0.008-0.021,0.008-0.028c0,0,0.002-0.018,0.002-0.025
						c-0.002-0.021-0.006-0.045-0.012-0.068c0.012-0.008,0.025-0.02,0.037-0.021c0.031-0.02,0.063-0.034,0.106-0.046
						c0.064-0.019,0.117-0.024,0.16-0.029C136.104,50.149,136.152,50.191,136.209,50.214z"/>
				</g>
				<g>
					<path fill="#FFFFFF" d="M135.846,51.998c0.098,0.224,0.041,0.446-0.133,0.498c-0.17,0.05-0.394-0.094-0.494-0.314
						c-0.103-0.224-0.045-0.441,0.131-0.497C135.52,51.633,135.744,51.776,135.846,51.998z"/>
					<path fill="#F5EFD1" d="M135.77,52.02c0.08,0.17,0.035,0.341-0.1,0.38c-0.129,0.037-0.301-0.063-0.379-0.238
						c-0.074-0.176-0.031-0.345,0.102-0.38C135.521,51.741,135.695,51.848,135.77,52.02z"/>
					<path fill="#C7C7B4" d="M135.738,52.028c0.064,0.151,0.029,0.298-0.088,0.33c-0.106,0.027-0.258-0.063-0.319-0.209
						c-0.068-0.146-0.029-0.294,0.082-0.323C135.525,51.79,135.67,51.881,135.738,52.028z"/>
					<path fill="#324251" d="M135.629,52.06c0.037,0.07,0.016,0.145-0.037,0.159c-0.057,0.014-0.125-0.029-0.162-0.103
						c-0.027-0.07-0.01-0.144,0.047-0.155C135.527,51.943,135.598,51.99,135.629,52.06z"/>
					<path fill="#FFFFFF" d="M135.74,52.167c-0.005,0.018-0.007,0.039-0.015,0.059c-0.004,0.021-0.02,0.046-0.037,0.063
						l-0.037-0.044c0.017-0.015,0.025-0.031,0.029-0.053c0.004-0.014,0.008-0.026,0.008-0.044L135.74,52.167z"/>
					<path fill="#FFFFFF" d="M135.332,52.035c-0.004-0.066,0.02-0.12,0.063-0.152l0.045,0.066c-0.03,0.02-0.049,0.058-0.045,0.104
						L135.332,52.035z"/>
				</g>
				<g>
					<path fill="#324251" d="M136.475,51.384l-0.158,0.048c-0.116,0.034-0.168,0.184-0.104,0.342l0.125,0.354
						c0.016,0.047,0.063,0.08,0.098,0.066l0.043-0.014c0.027-0.009,0.041-0.036,0.035-0.072l-0.041-0.183
						c-0.006-0.037,0.006-0.064,0.033-0.07l0.164-0.048l0.158-0.049c0.024-0.009,0.063,0.009,0.084,0.04l0.11,0.16
						c0.025,0.03,0.06,0.047,0.088,0.038l0.043-0.014c0.035-0.012,0.043-0.061,0.021-0.104l-0.189-0.335
						c-0.073-0.151-0.229-0.239-0.354-0.206L136.475,51.384z"/>
					<path fill="#FFFFFF" d="M136.428,51.591l-0.035,0.015l-0.018-0.046c-0.008-0.021-0.029-0.028-0.041-0.026
						c-0.021,0.006-0.021,0.024-0.015,0.047l0.021,0.04l-0.033,0.013c-0.018,0.003-0.02,0.023-0.01,0.042
						c0.006,0.02,0.027,0.034,0.043,0.027l0.031-0.011l0.02,0.046c0.008,0.021,0.031,0.03,0.045,0.026
						c0.019-0.005,0.021-0.022,0.015-0.046l-0.021-0.043l0.033-0.01c0.014-0.003,0.021-0.022,0.012-0.044
						C136.463,51.6,136.443,51.589,136.428,51.591z"/>
					<path fill="#F5EFD1" d="M136.746,51.456c0.008,0.021,0.006,0.043-0.015,0.047c-0.016,0.005-0.03-0.011-0.041-0.029
						c-0.016-0.021-0.008-0.041,0.011-0.046C136.719,51.422,136.74,51.438,136.746,51.456z"/>
					<path fill="#23A9AD" d="M136.818,51.608c0.009,0.021,0.004,0.042-0.012,0.052c-0.02,0.004-0.039-0.012-0.049-0.033
						c-0.008-0.021-0.004-0.041,0.012-0.043C136.787,51.574,136.809,51.587,136.818,51.608z"/>
					<path fill="#6586A6" d="M136.676,51.517c0.018-0.001,0.039,0.012,0.049,0.03c0.008,0.021,0.006,0.041-0.014,0.046
						c-0.017,0.007-0.037-0.007-0.045-0.027C136.656,51.546,136.66,51.525,136.676,51.517z"/>
					<path fill="#D04439" d="M136.795,51.484c0.016-0.004,0.037,0.01,0.047,0.032c0.008,0.021,0.004,0.041-0.014,0.048
						c-0.017,0.002-0.037-0.01-0.05-0.031C136.773,51.513,136.779,51.49,136.795,51.484z"/>
				</g>
				<g>
					<path fill="#DE4A37" d="M137.574,53.067c0.098,0.221,0.041,0.436-0.125,0.481c-0.164,0.049-0.384-0.09-0.479-0.308
						c-0.1-0.216-0.041-0.434,0.125-0.479C137.264,52.715,137.477,52.853,137.574,53.067z"/>
					<polygon fill="#FFFFFF" points="137.027,52.941 137.477,53.097 137.254,53.443 					"/>
				</g>
				<g>
					<path fill="#324251" d="M136.313,53.249c0.074,0.167,0.058,0.688,0.058,0.688s-0.439-0.396-0.513-0.558
						c-0.071-0.163-0.03-0.324,0.097-0.363C136.08,52.982,136.238,53.086,136.313,53.249z M136.223,53.277
						c-0.043-0.101-0.143-0.158-0.219-0.139c-0.076,0.021-0.103,0.118-0.06,0.219c0.041,0.1,0.146,0.16,0.22,0.141
						C136.242,53.473,136.266,53.375,136.223,53.277z"/>
					<path fill="#324251" d="M136.025,53.188c-0.055,0.015-0.071,0.084-0.041,0.154c0.035,0.074,0.104,0.116,0.158,0.101
						c0.055-0.016,0.078-0.084,0.041-0.155C136.152,53.216,136.08,53.168,136.025,53.188z"/>
				</g>
				<g>
					<path fill="#FFFFFF" d="M138.578,52.677c-0.017,0.003-0.023,0.01-0.031,0.014c-0.051-0.074-0.135-0.116-0.203-0.099
						c-0.008,0-0.012,0.003-0.016,0.006c-0.072-0.069-0.16-0.104-0.236-0.087c-0.098,0.027-0.141,0.141-0.104,0.263
						c-0.006,0-0.012,0.004-0.016,0.004c-0.068,0.021-0.092,0.104-0.051,0.188c0.01,0.024,0.021,0.045,0.037,0.063l0.166-0.052
						l0.057-0.016l0.162-0.048l0.088-0.027l0.121-0.032l0.045-0.015l0.137-0.041c-0.004-0.009-0.004-0.018-0.006-0.028
						C138.693,52.704,138.627,52.663,138.578,52.677z"/>
					<polygon fill="#23A9AD" points="138.469,52.934 138.193,52.698 138.168,53.021 138.238,53 138.396,53.352 138.557,53.309 
						138.398,52.955 					"/>
				</g>
			</g>
		</g>
		<path fill="#FCBA7D" d="M137.889,50.795l1.129,0.969c-0.172,1.38,1.188,3.445,1.439,3.375c0.771-0.439,0.971-2.016,0.569-2.564
			l-1.149-1.832l-2.185-1.424C137.16,49.188,137.086,50.02,137.889,50.795z"/>
		<path fill="#FCBA7D" d="M133.354,50.708c0,0.389,0.183,0.701,0.404,0.701c0.219,0,0.402-0.313,0.402-0.701
			c0-0.385-0.187-0.694-0.402-0.694C133.533,50.013,133.354,50.324,133.354,50.708z"/>
		<path fill="#FCBA7D" d="M133.557,51.578c0,0.389,0.185,0.698,0.402,0.698c0.227,0,0.399-0.313,0.399-0.698
			c0-0.387-0.176-0.698-0.399-0.698C133.738,50.879,133.557,51.192,133.557,51.578z"/>
		<path fill="#FCBA7D" d="M133.762,52.446c0,0.387,0.184,0.697,0.402,0.697c0.225,0,0.403-0.313,0.403-0.697
			c0-0.386-0.182-0.695-0.403-0.695C133.945,51.749,133.762,52.06,133.762,52.446z"/>
		<ellipse fill="#FCBA7D" cx="134.595" cy="53.143" rx="0.343" ry="0.594"/>
	</g>
	<g>
		<path fill="#FCBA7D" d="M135.342,60.181l1.408,1.569l1.313,2.729l0.724-0.535l2.268-1.056l-1.375-2.623
			c0.547-0.979,0.922-1.815,0.963-2.71l-0.397-1.313l-0.881-0.877l-0.236-0.039l-0.422-0.067c-0.017-0.021-0.187-0.458-0.578-1.045
			c-0.078-0.112-1.584-2.679-1.65-2.831c-0.391-0.922-1.264-0.703-0.998,0.146c0.049,0.166,1.197,2.847,1.052,2.947
			c-0.16,0.114-0.505,0.071-0.65,0.211c-0.146,0.131-0.199,0.591-0.332,0.729c-0.16,0.17-0.51,0.224-0.729,0.578
			c-0.198,0.34-0.069,0.696-0.186,0.949c-0.043,0.098-0.145,0.277-0.229,0.438c-0.063,0.113-0.112,0.223-0.145,0.295
			C134.029,58.286,135.014,59.728,135.342,60.181z"/>
		<polygon opacity="0.1" fill="#1D1D1B" enable-background="new    " points="138.703,55.26 140.004,57.022 139.125,55.328 		"/>
		<path opacity="0.1" fill="#1D1D1B" enable-background="new    " d="M134.402,57.381c-0.059,0.112-0.114,0.222-0.143,0.294
			c-0.23,0.61,0.754,2.054,1.082,2.507l1.41,1.569l1.313,2.729l0.724-0.535c-0.662-0.938-1.08-2.22-1.269-3.104
			C135.984,60.19,134.453,58.813,134.402,57.381z"/>
	</g>
	<path fill="#EF4136" d="M144.598,54.373c-3.088,2.559-2.781,5.283-3.543,8.52l-1.375-2.623c-1.18-0.772-2.787,0.072-2.834,1.685
		c0.607,4.605,2.863,13.771,5.99,13.771c2.34-0.052,3.375-8.055,3.674-10.141C147.383,59.07,148.17,54.954,144.598,54.373z"/>
	<path fill="#EF4747" d="M145.217,53.06c2.141,0.878,2.922,4.442,2.52,8.458l-1.514,7.892c-2.002,1.875-5.434-0.848-5.428-4.731
		c0.012-0.218,0.139-5.226,0.897-7.961C142.342,54.373,143.381,52.307,145.217,53.06z"/>
	<path fill="#E73D34" d="M144.701,74.654c0,0-0.425,0.347-0.931,2.706c-0.037,0.182-0.078,0.374-0.112,0.583
		c-0.562,2.891-2.937,2.517,0.028,4.146c2.965,1.635,5.854,2.432,10.631,1.421c4.777-1.009,6.813-3.179,7.332-4.102
		c0.521-0.923,0.586-1.932,0.377-5.078c-0.211-3.146-0.182-7.535,0.107-9.848"/>
</g>
<g>
	<circle fill="#414042" cx="46.546" cy="45.678" r="15.949"/>
	<g>
		<ellipse fill="#FFFFFF" cx="45.63" cy="44.817" rx="14.146" ry="14.356"/>
		<rect x="45.049" y="31.648" fill="#BCBEC0" width="1.161" height="2.656"/>
		<rect x="45.049" y="55.507" fill="#BCBEC0" width="1.161" height="2.656"/>
		<rect x="32.372" y="44.237" fill="#BCBEC0" width="2.653" height="1.161"/>
		<rect x="56.231" y="44.237" fill="#BCBEC0" width="2.656" height="1.161"/>
	</g>
	<circle fill="#BCBEC0" cx="45.63" cy="44.818" r="0.89"/>
	<g>
		<polygon fill="#BCBEC0" points="45.315,45.571 40.852,35.568 46.521,44.939 		"/>
		<polygon fill="#BCBEC0" points="45.216,44.238 52.323,41.458 45.985,45.708 		"/>
	</g>
</g>
<g enable-background="new    ">
	<path fill="#414042" d="M70.916,38.913v12.6H68v-10.26H65.48v-2.34H70.916z"/>
	<path fill="#414042" d="M81.536,45.276c0.588,0.644,0.882,1.438,0.882,2.387c0,0.73-0.192,1.405-0.576,2.023
		s-0.969,1.113-1.755,1.485s-1.749,0.558-2.889,0.558c-0.889,0-1.762-0.117-2.619-0.351c-0.858-0.234-1.587-0.567-2.188-0.999
		l1.134-2.232c0.479,0.36,1.035,0.641,1.665,0.837c0.63,0.198,1.275,0.298,1.936,0.298c0.731,0,1.308-0.142,1.728-0.424
		c0.42-0.28,0.63-0.681,0.63-1.195c0-1.032-0.785-1.55-2.357-1.55h-1.332v-1.926l2.592-2.934h-5.364v-2.34h8.82v1.89l-2.844,3.24
		C80.102,44.223,80.948,44.634,81.536,45.276z"/>
	<path fill="#414042" d="M93.155,42.765c0.738,0.72,1.107,1.788,1.107,3.204v5.544h-2.808v-5.112c0-0.768-0.169-1.341-0.505-1.719
		c-0.337-0.378-0.821-0.566-1.457-0.566c-0.709,0-1.272,0.22-1.692,0.656c-0.42,0.438-0.63,1.089-0.63,1.953v4.788h-2.809V38.156
		h2.809v4.681c0.371-0.372,0.822-0.657,1.35-0.855c0.528-0.196,1.104-0.297,1.729-0.297C91.448,41.685,92.417,42.045,93.155,42.765z
		"/>
	<path fill="#414042" d="M112.838,48.866h-2.053v2.646h-2.845v-2.646h-6.785v-1.963l5.939-7.99h3.061l-5.509,7.577h3.384v-2.357
		h2.755v2.357h2.053V48.866z"/>
	<path fill="#414042" d="M123.08,49.137v2.376h-9.522v-1.89l4.86-4.591c0.516-0.491,0.862-0.914,1.043-1.27
		c0.181-0.354,0.271-0.705,0.271-1.053c0-0.504-0.171-0.893-0.513-1.161c-0.342-0.271-0.844-0.405-1.504-0.405
		c-0.552,0-1.05,0.105-1.494,0.315c-0.443,0.21-0.815,0.523-1.115,0.943l-2.124-1.366c0.491-0.732,1.17-1.307,2.034-1.721
		c0.863-0.414,1.854-0.621,2.97-0.621c0.938,0,1.756,0.153,2.457,0.459c0.702,0.308,1.248,0.738,1.639,1.298
		c0.391,0.558,0.586,1.215,0.586,1.971c0,0.684-0.146,1.326-0.434,1.926c-0.288,0.602-0.847,1.284-1.674,2.052l-2.896,2.736
		L123.08,49.137L123.08,49.137z"/>
</g>
<g>
	<path fill="#B3B3B3" d="M15.982,12.892c0.836,0.913,1.254,2.044,1.254,3.393c0,1.042-0.273,2.001-0.819,2.88
		c-0.546,0.879-1.378,1.583-2.497,2.113c-1.118,0.529-2.488,0.793-4.109,0.793c-1.264,0-2.505-0.167-3.726-0.499
		c-1.221-0.333-2.258-0.807-3.111-1.421l1.613-3.175c0.683,0.512,1.473,0.909,2.369,1.19S8.77,18.59,9.709,18.59
		c1.041,0,1.86-0.201,2.458-0.602c0.598-0.401,0.896-0.968,0.896-1.703c0-1.468-1.118-2.202-3.354-2.202H7.814v-2.74l3.687-4.173
		h-7.63V3.841h12.546V6.53l-4.045,4.609C13.942,11.394,15.145,11.979,15.982,12.892z"/>
	<path fill="#B3B3B3" d="M19.746,21.252c-0.478-0.478-0.717-1.075-0.717-1.792c0-0.733,0.239-1.327,0.717-1.779
		c0.478-0.452,1.067-0.679,1.767-0.679c0.7,0,1.289,0.227,1.767,0.679c0.478,0.453,0.717,1.046,0.717,1.779
		c0,0.717-0.239,1.315-0.717,1.792c-0.478,0.478-1.067,0.717-1.767,0.717C20.813,21.969,20.224,21.73,19.746,21.252z"/>
</g>
</svg>
