<?xml version="1.0" encoding="utf-8"?>
<!-- Generator: Adobe Illustrator 16.0.3, SVG Export Plug-In . SVG Version: 6.00 Build 0)  -->
<!DOCTYPE svg PUBLIC "-//W3C//DTD SVG 1.1//EN" "http://www.w3.org/Graphics/SVG/1.1/DTD/svg11.dtd">
<svg version="1.1" id="Layer_1" xmlns="http://www.w3.org/2000/svg" xmlns:xlink="http://www.w3.org/1999/xlink" x="0px" y="0px"
	 width="174.059px" height="174.059px" viewBox="0 0 174.059 174.059" enable-background="new 0 0 174.059 174.059"
	 xml:space="preserve">
<rect x="0" y="0" fill="#FFFFFF" width="174.059" height="174.06"/>
<path fill="#E6E7E8" d="M173.088,31.49c-1.883-0.214-3.792-0.321-5.728-0.321c-30.983,0-56.104,27.977-56.104,62.483
	c0,34.51,25.119,62.484,56.104,62.484c1.936,0,3.845-0.106,5.728-0.321V31.49z"/>
<circle fill="#D1D3D4" cx="99.664" cy="125.664" r="48.395"/>
<g enable-background="new    ">
	<path fill="#414042" d="M80.429,140.448v12.6h-2.916v-10.26h-2.52v-2.34H80.429z"/>
	<path fill="#414042" d="M91.049,146.809c0.588,0.644,0.883,1.438,0.883,2.386c0,0.731-0.191,1.406-0.576,2.024
		s-0.969,1.113-1.756,1.485c-0.785,0.372-1.748,0.558-2.888,0.558c-0.888,0-1.761-0.117-2.619-0.351
		c-0.858-0.234-1.587-0.567-2.187-0.999l1.134-2.232c0.479,0.36,1.035,0.64,1.665,0.837c0.63,0.198,1.274,0.297,1.935,0.297
		c0.732,0,1.309-0.141,1.729-0.423c0.42-0.281,0.631-0.681,0.631-1.196c0-1.031-0.787-1.549-2.359-1.549h-1.332v-1.926l2.592-2.934
		h-5.363v-2.34h8.819v1.89l-2.844,3.24C89.615,145.756,90.461,146.167,91.049,146.809z"/>
	<path fill="#414042" d="M102.668,144.298c0.737,0.72,1.106,1.788,1.106,3.204v5.544h-2.809v-5.112c0-0.768-0.168-1.341-0.504-1.719
		s-0.822-0.567-1.458-0.567c-0.708,0-1.272,0.221-1.692,0.657c-0.42,0.438-0.629,1.089-0.629,1.953v4.788h-2.809V139.69h2.809v4.682
		c0.371-0.372,0.821-0.657,1.351-0.855c0.526-0.197,1.104-0.297,1.729-0.297C100.961,143.218,101.93,143.578,102.668,144.298z"/>
	<path fill="#414042" d="M122.352,150.4h-2.053v2.646h-2.844V150.4h-6.786v-1.962l5.939-7.99h3.061l-5.509,7.576h3.385v-2.356h2.754
		v2.356h2.053V150.4z"/>
	<path fill="#414042" d="M125.824,152.49c-0.816-0.518-1.455-1.265-1.916-2.241c-0.464-0.979-0.693-2.146-0.693-3.501
		c0-1.356,0.229-2.523,0.693-3.501c0.461-0.979,1.1-1.727,1.916-2.241c0.815-0.515,1.745-0.774,2.791-0.774
		c1.043,0,1.973,0.26,2.788,0.774c0.816,0.515,1.455,1.263,1.918,2.241c0.462,0.978,0.692,2.145,0.692,3.501
		c0,1.355-0.23,2.521-0.692,3.501c-0.463,0.978-1.102,1.725-1.918,2.241c-0.815,0.516-1.745,0.772-2.788,0.772
		C127.571,153.262,126.641,153.004,125.824,152.49z M130.424,149.806c0.438-0.659,0.656-1.68,0.656-3.06s-0.22-2.4-0.656-3.062
		c-0.438-0.659-1.041-0.989-1.809-0.989c-0.757,0-1.354,0.33-1.791,0.989c-0.438,0.66-0.658,1.682-0.658,3.062
		s0.22,2.399,0.658,3.06c0.438,0.66,1.034,0.99,1.791,0.99C129.383,150.796,129.986,150.466,130.424,149.806z"/>
</g>
<rect x="15.504" y="15.632" fill="none" width="67.363" height="74.41"/>
<path fill="#C49A6C" d="M106.958,46.9c1.787-2.215,15.432-19.13,18.969-23.515c3.531-4.382,6.086,0.044,3.271,4.041
	c-2.813,3.998-16.028,22.771-16.028,22.771s0.893-0.102,5.153-5.527c2.478-3.154,6.825,1.313,5.231,3.639
	c-3.968,5.784-3.8,6.734-3.8,6.734s2.713-3.646,5.145-6.663c2.434-3.015,5.856,1.617,4.574,2.919
	c-4.24,5.446-5.283,7.789-5.283,7.789s2.576-2.899,4.974-5.87c2.393-2.966,5.767,2.396,2.57,6.355
	c-3.188,3.959-9.729,12.062-14.821,18.378c-5.094,6.313-12.743,6.833-12.743,6.833l-2.45,8.168l-18.852-5.069l6.442-14.627
	c0,0-0.914-6.526,0.639-11.921c1.552-5.394,4.431-18.221,5.216-22.725c0.779-4.501,6.772-2.563,6.159,1.098
	c-0.617,3.661-1.234,7.052-1.411,8.369C99.733,49.397,105.173,49.115,106.958,46.9z"/>
<path fill="#808285" d="M137.147,25.207c0,0.767-0.84,1.388-1.879,1.388h-0.348c-1.038,0-1.878-0.621-1.878-1.388v-5.203
	c0-0.768,0.84-1.385,1.878-1.385h0.348c1.039,0,1.879,0.617,1.879,1.385V25.207z"/>
<path fill="#808285" d="M137.147,34.708c0,0.769-0.84,1.387-1.879,1.387h-0.348c-1.038,0-1.878-0.618-1.878-1.387v-5.201
	c0-0.764,0.84-1.389,1.878-1.389h0.348c1.039,0,1.879,0.625,1.879,1.389V34.708z"/>
<path fill="#A7A9AC" d="M135.858,76.277c0,1.037-0.79,1.875-1.764,1.875h-30.613c-0.972,0-1.763-0.838-1.763-1.875V13.164
	c0-1.038,0.791-1.879,1.763-1.879h30.613c0.974,0,1.764,0.841,1.764,1.879V76.277z"/>
<rect x="102.833" y="16.152" fill="#414042" width="31.912" height="54.903"/>
<rect x="113.686" y="11.285" fill="#939598" width="10.206" height="2.404"/>
<rect x="114.155" y="72.112" fill="#939598" width="7.858" height="4.342"/>
<path fill="#C49A6C" d="M136.081,111.14c3.455,4.422,9.275,7.514,9.275,7.514l0.849,7.012h16.827l5.092-1.38l-4.712-10.894
	c0,0,4.07-6.499,1.947-14.327c-2.123-7.829-4.848-17.88-6.178-22.788c-1.329-4.908-7.654-5.325-6.654-1.646
	c0.995,3.683,1.833,7.47,1.833,7.47s-1.279-2.223-3.202-8.854c-0.303-1.799-6.063-1.749-5.051,1.992
	c1.017,3.736,2.375,8.076,2.375,8.076s-0.868-0.426-3.222-7.03c-0.948-2.654-7.12-1.758-6.02,2.103
	c1.894,6.638,1.443,7.42,1.443,7.42s-7.438-21.723-9.021-26.349c-1.582-4.627-6.665-5.154-5.193,0.277
	c1.475,5.435,7.16,26.409,7.906,29.158c0.744,2.745-2.222,7.313-3.188,6.396c-0.959-0.919-3.345-3.411-5.94-6.059
	c-2.604-2.646-7.688,1.065-4.503,4.346C123.93,96.858,132.626,106.721,136.081,111.14z"/>
<polygon fill="#FFFFFF" points="171.194,125.664 169.318,116.459 143.927,124.207 143.883,125.664 "/>
<polygon fill="#FFFFFF" points="98.446,125.664 105.146,88.609 86.014,74.282 68.693,125.664 "/>
<g>
	<circle fill="#414042" cx="54.796" cy="146.309" r="15.949"/>
	<g>
		<ellipse fill="#FFFFFF" cx="53.88" cy="145.448" rx="14.146" ry="14.356"/>
		<rect x="53.3" y="132.279" fill="#BCBEC0" width="1.161" height="2.656"/>
		<rect x="53.3" y="156.138" fill="#BCBEC0" width="1.161" height="2.655"/>
		<rect x="40.622" y="144.868" fill="#BCBEC0" width="2.653" height="1.159"/>
		<rect x="64.481" y="144.868" fill="#BCBEC0" width="2.656" height="1.159"/>
	</g>
	<circle fill="#BCBEC0" cx="53.881" cy="145.449" r="0.89"/>
	<g>
		<polygon fill="#BCBEC0" points="53.565,146.202 49.103,136.199 54.771,145.57 		"/>
		<polygon fill="#BCBEC0" points="53.467,144.869 60.573,142.088 54.235,146.338 		"/>
	</g>
</g>
<g>
	<g>
		<path fill="#FFFFFF" d="M108.682,42.99c0.044,0,0.065,0.021,0.065,0.065v0.779h1.403v-0.779c0-0.047,0.021-0.065,0.065-0.065
			h0.324c0.047,0,0.066,0.021,0.066,0.065v1.969c0,0.046-0.021,0.065-0.066,0.065h-0.324c-0.044,0-0.065-0.021-0.065-0.065v-0.799
			h-1.403v0.799c0,0.046-0.021,0.065-0.065,0.065h-0.325c-0.046,0-0.066-0.021-0.066-0.065v-1.969c0-0.047,0.021-0.065,0.066-0.065
			H108.682z"/>
		<path fill="#FFFFFF" d="M113.148,42.99c0.045,0,0.068,0.021,0.068,0.065v0.283c0,0.045-0.023,0.066-0.068,0.066h-1.313
			c-0.078,0-0.146,0.007-0.193,0.02c-0.051,0.015-0.093,0.035-0.123,0.066c-0.031,0.029-0.054,0.072-0.063,0.126
			c-0.015,0.053-0.021,0.116-0.021,0.195v0.029h1.697c0.044,0,0.066,0.021,0.066,0.064v0.237c0,0.042-0.022,0.064-0.066,0.064
			h-1.697v0.052c0,0.077,0.006,0.144,0.021,0.194c0.012,0.056,0.031,0.097,0.063,0.127c0.03,0.03,0.072,0.054,0.123,0.064
			c0.051,0.014,0.115,0.021,0.193,0.021h1.313c0.045,0,0.068,0.021,0.068,0.064v0.284c0,0.046-0.023,0.065-0.068,0.065h-1.319
			c-0.152,0-0.281-0.016-0.391-0.041c-0.104-0.028-0.189-0.073-0.26-0.138c-0.068-0.063-0.116-0.146-0.147-0.245
			c-0.028-0.104-0.047-0.227-0.047-0.368v-0.52c0-0.146,0.019-0.266,0.047-0.365c0.031-0.101,0.08-0.182,0.147-0.243
			c0.067-0.063,0.153-0.108,0.26-0.14c0.107-0.028,0.235-0.045,0.391-0.045h1.319V42.99z"/>
		<path fill="#FFFFFF" d="M113.949,42.99c0.045,0,0.063,0.021,0.063,0.065v1.196c0,0.081,0.007,0.146,0.021,0.201
			c0.014,0.053,0.032,0.094,0.063,0.125c0.031,0.029,0.07,0.053,0.122,0.064c0.052,0.015,0.116,0.021,0.194,0.021h1.217
			c0.043,0,0.063,0.021,0.063,0.064v0.294c0,0.046-0.021,0.065-0.063,0.065h-1.235c-0.149,0-0.279-0.014-0.388-0.041
			c-0.105-0.028-0.192-0.073-0.26-0.137c-0.066-0.063-0.117-0.146-0.147-0.246c-0.03-0.104-0.046-0.227-0.046-0.368v-1.242
			c0-0.047,0.022-0.067,0.068-0.067L113.949,42.99L113.949,42.99z"/>
		<path fill="#FFFFFF" d="M116.314,42.99c0.043,0,0.066,0.021,0.066,0.065v1.196c0,0.081,0.006,0.146,0.019,0.201
			c0.016,0.053,0.035,0.094,0.064,0.125c0.03,0.029,0.071,0.053,0.122,0.064c0.051,0.015,0.115,0.021,0.19,0.021h1.22
			c0.044,0,0.063,0.021,0.063,0.064v0.294c0,0.046-0.021,0.065-0.063,0.065h-1.234c-0.152,0-0.281-0.014-0.388-0.041
			c-0.106-0.028-0.192-0.073-0.264-0.137c-0.063-0.063-0.112-0.146-0.146-0.246c-0.031-0.104-0.047-0.227-0.047-0.368v-1.242
			c0-0.047,0.021-0.067,0.067-0.067L116.314,42.99L116.314,42.99z"/>
		<path fill="#FFFFFF" d="M120.078,42.99c0.149,0,0.278,0.016,0.389,0.045c0.107,0.026,0.193,0.073,0.262,0.138
			c0.066,0.063,0.115,0.145,0.146,0.244c0.026,0.102,0.044,0.223,0.044,0.366V44.3c0,0.145-0.018,0.268-0.044,0.368
			c-0.03,0.102-0.079,0.185-0.146,0.246c-0.065,0.063-0.151,0.105-0.262,0.137c-0.107,0.027-0.236,0.041-0.389,0.041h-0.932
			c-0.149,0-0.278-0.014-0.388-0.041c-0.105-0.028-0.192-0.073-0.26-0.137c-0.066-0.063-0.115-0.146-0.146-0.246
			c-0.028-0.104-0.047-0.227-0.047-0.368v-0.518c0-0.146,0.019-0.268,0.047-0.366c0.031-0.102,0.08-0.183,0.146-0.244
			c0.064-0.063,0.151-0.108,0.26-0.138c0.107-0.03,0.235-0.045,0.388-0.045L120.078,42.99L120.078,42.99z M118.768,44.266
			c0,0.077,0.007,0.145,0.021,0.194c0.014,0.056,0.035,0.097,0.063,0.127c0.031,0.031,0.07,0.054,0.122,0.064
			c0.052,0.014,0.116,0.021,0.194,0.021h0.893c0.077,0,0.145-0.007,0.192-0.021c0.052-0.014,0.092-0.033,0.122-0.064
			c0.026-0.03,0.052-0.071,0.063-0.127c0.017-0.053,0.021-0.117,0.021-0.194v-0.45c0-0.079-0.006-0.146-0.021-0.195
			c-0.013-0.054-0.035-0.097-0.063-0.126c-0.03-0.031-0.07-0.055-0.122-0.066c-0.051-0.013-0.115-0.02-0.192-0.02h-0.893
			c-0.078,0-0.146,0.007-0.194,0.02c-0.052,0.015-0.091,0.035-0.122,0.066c-0.026,0.029-0.051,0.072-0.063,0.126
			c-0.016,0.053-0.021,0.116-0.021,0.195V44.266z"/>
	</g>
	<g>
		<path fill="#FFFFFF" d="M123.526,42.99c0.044,0,0.065,0.021,0.065,0.065v0.294c0,0.046-0.021,0.068-0.065,0.068h-1.337
			c-0.078,0-0.143,0.007-0.19,0.02c-0.054,0.016-0.095,0.035-0.121,0.065c-0.031,0.03-0.056,0.072-0.065,0.125
			c-0.012,0.054-0.021,0.117-0.021,0.197v0.427c0,0.081,0.008,0.146,0.021,0.201c0.016,0.053,0.034,0.094,0.065,0.125
			c0.026,0.029,0.067,0.053,0.121,0.064c0.051,0.015,0.112,0.021,0.19,0.021h1.337c0.044,0,0.065,0.021,0.065,0.064v0.294
			c0,0.046-0.021,0.065-0.065,0.065h-1.354c-0.152,0-0.281-0.014-0.388-0.041c-0.106-0.028-0.192-0.073-0.263-0.137
			c-0.065-0.063-0.113-0.146-0.146-0.246c-0.031-0.104-0.047-0.227-0.047-0.368v-0.517c0-0.146,0.016-0.267,0.047-0.365
			c0.031-0.102,0.08-0.183,0.146-0.244c0.067-0.063,0.153-0.108,0.263-0.138c0.104-0.029,0.232-0.047,0.388-0.047h1.354V42.99z"/>
		<path fill="#FFFFFF" d="M125.443,43.444c0.137,0,0.246,0.012,0.342,0.033c0.093,0.022,0.166,0.061,0.221,0.108
			c0.056,0.049,0.095,0.109,0.118,0.188c0.021,0.078,0.037,0.17,0.037,0.278v0.433c0,0.107-0.016,0.2-0.037,0.278
			c-0.023,0.076-0.063,0.14-0.118,0.188c-0.055,0.048-0.128,0.085-0.221,0.104c-0.096,0.021-0.205,0.031-0.342,0.031h-0.852
			c-0.135,0-0.249-0.011-0.34-0.031c-0.092-0.021-0.164-0.059-0.22-0.104c-0.059-0.052-0.098-0.112-0.118-0.188
			c-0.023-0.078-0.037-0.171-0.037-0.278v-0.433c0-0.108,0.014-0.2,0.037-0.278c0.021-0.074,0.063-0.14,0.118-0.188
			c0.056-0.051,0.128-0.086,0.22-0.108c0.091-0.021,0.205-0.033,0.34-0.033H125.443z M124.307,44.411
			c0,0.063,0.006,0.114,0.019,0.157c0.01,0.041,0.024,0.075,0.053,0.103c0.022,0.022,0.059,0.042,0.101,0.055
			c0.042,0.011,0.097,0.019,0.159,0.019h0.766c0.066,0,0.121-0.008,0.163-0.019c0.041-0.013,0.075-0.027,0.104-0.055
			c0.022-0.024,0.042-0.062,0.053-0.103c0.01-0.043,0.015-0.096,0.015-0.157v-0.286c0-0.063-0.005-0.114-0.015-0.157
			c-0.011-0.041-0.027-0.074-0.053-0.1c-0.025-0.027-0.063-0.045-0.104-0.058c-0.042-0.011-0.097-0.016-0.163-0.016h-0.766
			c-0.063,0-0.117,0.005-0.159,0.016c-0.042,0.013-0.075,0.027-0.101,0.058c-0.025,0.022-0.043,0.059-0.053,0.1
			c-0.013,0.043-0.019,0.097-0.019,0.157V44.411z"/>
		<path fill="#FFFFFF" d="M126.875,42.838c0.045,0,0.063,0.021,0.063,0.064v2.12c0,0.046-0.021,0.065-0.063,0.065h-0.294
			c-0.044,0-0.065-0.021-0.065-0.065v-2.12c0-0.043,0.021-0.064,0.065-0.064H126.875z"/>
		<path fill="#FFFFFF" d="M127.688,42.833c0.043,0,0.065,0.021,0.065,0.064v0.286c0,0.045-0.022,0.068-0.065,0.068h-0.295
			c-0.047,0-0.066-0.023-0.066-0.068v-0.286c0-0.044,0.021-0.064,0.066-0.064H127.688z M127.688,43.444
			c0.043,0,0.065,0.021,0.065,0.068v1.513c0,0.046-0.022,0.065-0.065,0.065h-0.295c-0.045,0-0.063-0.021-0.063-0.065v-1.513
			c0-0.047,0.021-0.068,0.063-0.068H127.688z"/>
		<path fill="#FFFFFF" d="M130.035,43.444c0.033,0,0.055,0.02,0.055,0.055v0.238c0,0.036-0.021,0.057-0.055,0.057h-1.354
			c-0.062,0-0.104,0.013-0.129,0.034c-0.025,0.021-0.036,0.057-0.036,0.101v0.046c0,0.04,0.012,0.071,0.036,0.094
			c0.024,0.023,0.067,0.035,0.129,0.035h1.013c0.168,0,0.288,0.034,0.36,0.104c0.072,0.068,0.108,0.168,0.108,0.298v0.168
			c0,0.066-0.012,0.126-0.024,0.178c-0.017,0.053-0.042,0.099-0.079,0.133c-0.037,0.037-0.086,0.063-0.146,0.083
			c-0.063,0.021-0.137,0.026-0.226,0.026h-1.537c-0.032,0-0.055-0.018-0.055-0.054V44.8c0-0.035,0.021-0.056,0.055-0.056h1.427
			c0.063,0,0.104-0.012,0.131-0.032c0.021-0.021,0.037-0.062,0.037-0.109V44.52c0-0.04-0.016-0.068-0.037-0.094
			c-0.025-0.021-0.068-0.033-0.131-0.033h-1.013c-0.168,0-0.288-0.033-0.357-0.104c-0.072-0.07-0.108-0.171-0.108-0.304v-0.132
			c0-0.063,0.009-0.119,0.024-0.171c0.015-0.052,0.042-0.095,0.079-0.132c0.034-0.035,0.086-0.063,0.146-0.081
			c0.063-0.021,0.134-0.027,0.223-0.027L130.035,43.444L130.035,43.444z"/>
	</g>
	<path fill="#FFFFFF" d="M116.533,36.412c-0.188-0.079-0.354-0.146-0.513-0.223c-0.024-0.014-0.045-0.072-0.045-0.111
		c-0.002-0.688,0-1.378-0.004-2.068c0-0.087,0.029-0.115,0.115-0.132c1.453-0.263,2.904-0.53,4.354-0.797
		c0.034-0.007,0.07-0.009,0.104-0.021c0.388-0.135,0.748-0.031,1.129,0.133c-0.337,0.074-0.65,0.146-0.965,0.211
		c-1.353,0.29-2.701,0.579-4.057,0.865c-0.099,0.021-0.128,0.063-0.128,0.157c0.006,0.597,0.003,1.19,0.003,1.786
		C116.533,36.271,116.533,36.329,116.533,36.412z"/>
	<path fill="#FFFFFF" d="M124.027,38.825l-0.82,0.24c0,0.002,0,0.002,0,0.004c-0.005,0-0.011,0-0.014,0l-0.815,0.239
		c-0.021,0.015-0.041,0.021-0.063,0.02l-0.021,0.007c-0.205,0.063-0.289,0.15-0.416,0.246c-0.019,0.011-0.029,0.021-0.056,0.041
		c0-0.166,0-0.32,0-0.478c-0.002-0.119,0.005-0.236-0.007-0.355c-0.003-0.044-0.021-0.096-0.053-0.124
		c-0.066-0.07-0.144-0.129-0.214-0.193c-0.049-0.045-0.095-0.093-0.146-0.139c-0.086-0.083-0.172-0.166-0.26-0.248
		c-0.057-0.051-0.115-0.101-0.172-0.147c-0.063-0.061-0.127-0.119-0.188-0.18c-0.063-0.055-0.125-0.107-0.188-0.164
		c-0.091-0.08-0.181-0.164-0.271-0.245c-0.021-0.019-0.05-0.032-0.07-0.032c-0.217-0.005-0.435-0.008-0.647-0.005
		c-0.13,0-0.261,0.012-0.391,0.015c-0.091,0.001-0.186-0.01-0.274-0.01c-0.045,0-0.096-0.003-0.132,0.02
		c-0.033,0.019-0.058,0.063-0.075,0.098c-0.107,0.227-0.213,0.454-0.332,0.673c-0.063,0.117-0.196,0.169-0.373,0.15
		c-0.146-0.015-0.223-0.104-0.282-0.229c-0.053-0.101-0.048-0.193-0.019-0.293c0.021-0.06,0.056-0.112,0.08-0.17
		c0.063-0.133,0.123-0.266,0.188-0.396c0.043-0.095,0.086-0.188,0.133-0.284c0.008-0.016,0.021-0.035,0.041-0.042
		c0.086-0.03,0.174-0.056,0.26-0.087c0.128-0.046,0.254-0.099,0.38-0.146c0.104-0.037,0.205-0.072,0.308-0.111
		c0.117-0.045,0.232-0.095,0.353-0.143c0.099-0.039,0.197-0.072,0.306-0.051c0.028,0.007,0.063,0.014,0.085,0.026
		c0.178,0.098,0.353,0.196,0.523,0.298c0.143,0.081,0.281,0.174,0.43,0.239c0.084,0.034,0.188,0.032,0.281,0.039
		c0.113,0.006,0.229,0.016,0.342,0.015c0.112-0.003,0.229,0.002,0.34,0.001c0.094,0,0.188-0.016,0.278-0.031l1.979-0.581
		c0-0.848,0-1.692,0.003-2.54c0-0.085,0.011-0.152-0.11-0.188c-1.3-0.354-2.6-0.714-3.897-1.068
		c-0.078-0.021-0.167-0.021-0.246-0.011c-1.148,0.183-2.302,0.367-3.447,0.553c-0.498,0.079-0.996,0.159-1.498,0.241
		c-0.004,0.044-0.012,0.078-0.012,0.111c0,0.789,0,1.577,0,2.366l0.946,0.729c0.104,0.041,0.22,0.161,0.304,0.204
		c0.188,0.099,0.223,0.114,0.38,0.146c0.117,0.021,0.213,0.031,0.32,0.03c0.096-0.001,0.189-0.013,0.283-0.03
		c0.104-0.021,0.205-0.038,0.309-0.076c0.115-0.046,0.238-0.072,0.357-0.111c0.103-0.033,0.202-0.071,0.303-0.105
		c0.104-0.034,0.205-0.064,0.311-0.104c0.123-0.043,0.244-0.088,0.367-0.134c0.066-0.023,0.14-0.052,0.209-0.076
		c0.017,0.03,0.027,0.062,0.043,0.085c-0.154,0.063-0.311,0.127-0.465,0.188c-0.078,0.028-0.162,0.049-0.241,0.075
		c-0.063,0.021-0.128,0.04-0.187,0.071c-0.036,0.021-0.066,0.061-0.089,0.099c-0.056,0.104-0.106,0.205-0.157,0.313
		c-0.086,0.187-0.173,0.371-0.253,0.561c-0.072,0.173-0.063,0.34,0.021,0.512c0.075,0.162,0.214,0.236,0.36,0.292
		c0.076,0.028,0.178,0.023,0.263,0.011c0.228-0.04,0.371-0.192,0.465-0.396c0.063-0.146,0.133-0.294,0.201-0.438
		c0.014-0.028,0.021-0.073,0.042-0.079c0.046-0.018,0.097-0.015,0.146-0.016c0.113-0.002,0.229-0.002,0.34-0.002
		c0.115,0,0.231,0.002,0.351,0.002c0.086,0,0.174,0,0.261-0.004c0.063-0.001,0.123-0.009,0.186-0.012
		c0.017,0,0.033,0.011,0.045,0.021c0.158,0.148,0.314,0.306,0.479,0.452c0.092,0.085,0.19,0.157,0.284,0.239
		c0.097,0.088,0.187,0.183,0.283,0.271c0.103,0.093,0.207,0.183,0.31,0.276c0.019,0.019,0.031,0.048,0.031,0.071
		c0.004,0.199,0.005,0.397,0.006,0.598c0,0.122-0.003,0.245-0.002,0.366c0.001,0.074,0.012,0.149,0.006,0.226
		c-0.006,0.048-0.022,0.104-0.055,0.142c-0.152,0.173-0.351,0.183-0.523,0.032c-0.021-0.02-0.035-0.05-0.041-0.077
		c-0.009-0.045-0.011-0.094-0.011-0.142c0.002-0.147,0.008-0.299,0.009-0.446c0.002-0.14,0.002-0.275-0.002-0.414
		c-0.004-0.072-0.025-0.143-0.102-0.176c-0.015-0.009-0.021-0.021-0.033-0.029c-0.121-0.104-0.242-0.211-0.361-0.316
		c-0.063-0.058-0.127-0.118-0.189-0.178c-0.111-0.1-0.229-0.197-0.339-0.299c-0.041-0.035-0.075-0.075-0.114-0.109
		c-0.057-0.048-0.116-0.042-0.159,0.009c-0.039,0.045-0.033,0.091,0.021,0.14c0.176,0.159,0.354,0.314,0.525,0.475
		c0.103,0.092,0.199,0.188,0.301,0.278c0.069,0.063,0.146,0.121,0.211,0.186c0.021,0.017,0.031,0.042,0.031,0.063
		c0,0.219-0.001,0.438,0,0.654c0,0.153,0.019,0.31,0.009,0.462c-0.005,0.097,0.019,0.198-0.053,0.291
		c-0.054,0.07-0.121,0.11-0.202,0.134c-0.094,0.024-0.182-0.008-0.266-0.048c-0.082-0.04-0.066-0.118-0.066-0.188
		c-0.003-0.143,0.004-0.285,0.005-0.429c0-0.136-0.003-0.271-0.005-0.408c0-0.012-0.002-0.021,0.002-0.031
		c0.039-0.135-0.03-0.217-0.127-0.295c-0.101-0.081-0.191-0.176-0.288-0.263c-0.089-0.082-0.179-0.163-0.269-0.246
		c-0.051-0.047-0.101-0.095-0.148-0.141c-0.045-0.043-0.089-0.043-0.135,0.001c-0.038,0.034-0.047,0.096-0.012,0.133
		c0.058,0.063,0.12,0.121,0.185,0.179c0.104,0.1,0.208,0.194,0.313,0.291c0.084,0.077,0.17,0.153,0.254,0.23
		c0.01,0.011,0.02,0.025,0.02,0.043c0.004,0.156,0.008,0.315,0.008,0.476c-0.001,0.163-0.008,0.324-0.008,0.487
		c0,0.084,0,0.17,0.007,0.255c0.011,0.137-0.073,0.288-0.232,0.325c-0.162,0.036-0.296-0.004-0.397-0.139
		c-0.011-0.016-0.011-0.051,0-0.063c0.106-0.144,0.225-0.274,0.322-0.421c0.097-0.145,0.132-0.304,0.062-0.471
		c-0.022-0.056-0.053-0.11-0.09-0.158c-0.101-0.133-0.247-0.163-0.408-0.188c0.064-0.122,0.093-0.249,0.055-0.383
		c-0.036-0.129-0.108-0.234-0.224-0.31c-0.109-0.073-0.238-0.075-0.366-0.063c-0.131,0.016-0.235,0.082-0.317,0.182
		c-0.021-0.158-0.089-0.285-0.215-0.385c-0.093-0.072-0.196-0.098-0.311-0.099c-0.14-0.003-0.25,0.059-0.345,0.148
		c-0.063,0.063-0.119,0.129-0.172,0.188c-0.068-0.067-0.133-0.151-0.215-0.207c-0.095-0.063-0.202-0.114-0.324-0.051
		c-0.024,0.013-0.063,0.005-0.086,0.021c-0.065,0.044-0.13,0.094-0.188,0.146c-0.025,0.022-0.047,0.061-0.066,0.092
		c-0.09,0.122-0.179,0.245-0.271,0.367c-0.034,0.049-0.071,0.094-0.108,0.138c-0.085-0.049-0.133-0.065-0.229-0.113
		c-0.037-0.017-0.063-0.041-0.085-0.065v0.004l-0.982-0.758c0.001,0.274,0.001,0.55,0.001,0.823c0,0.063,0.043,0.146,0.094,0.182
		c1.084,0.815,2.174,1.631,3.26,2.445c0.08,0.062,0.145,0.059,0.229,0.025c1.826-0.655,3.654-1.311,5.483-1.961
		c0.115-0.041,0.146-0.1,0.146-0.214C124.027,39.469,124.027,39.147,124.027,38.825z M116.678,39.899
		c-0.115,0.169-0.362,0.115-0.453-0.021c-0.063-0.097-0.043-0.21,0.021-0.303c0.094-0.142,0.198-0.271,0.302-0.403
		c0.052-0.069,0.101-0.145,0.152-0.211c0.058-0.079,0.136-0.146,0.23-0.131c0.157,0.003,0.264,0.107,0.271,0.27
		c0.002,0.07-0.025,0.146-0.075,0.206c-0.061,0.07-0.108,0.146-0.163,0.221c-0.072,0.095-0.146,0.186-0.217,0.276
		C116.723,39.833,116.699,39.865,116.678,39.899z M116.799,40.297c-0.018-0.04-0.021-0.084-0.031-0.127
		c-0.004-0.111,0.07-0.188,0.124-0.268c0.069-0.103,0.148-0.196,0.226-0.297c0.132-0.176,0.265-0.353,0.396-0.525
		c0.051-0.065,0.107-0.13,0.148-0.203c0.047-0.086,0.233-0.125,0.313-0.104c0.113,0.029,0.193,0.104,0.234,0.203
		c0.043,0.107,0.021,0.223-0.051,0.318c-0.072,0.099-0.146,0.195-0.222,0.291c-0.104,0.139-0.215,0.272-0.317,0.412
		c-0.041,0.052-0.074,0.106-0.113,0.162c-0.06,0.074-0.109,0.157-0.176,0.229C117.143,40.579,116.896,40.5,116.799,40.297z
		 M118.058,40.849c-0.146,0.188-0.388,0.124-0.5-0.003c-0.075-0.087-0.088-0.254-0.021-0.344c0.088-0.128,0.182-0.251,0.273-0.374
		c0.078-0.098,0.161-0.19,0.24-0.29c0.071-0.089,0.139-0.183,0.209-0.272c0.079-0.103,0.154-0.203,0.236-0.3
		c0.054-0.063,0.106-0.134,0.179-0.174c0.133-0.078,0.352-0.042,0.43,0.12c0.021,0.043,0.037,0.09,0.058,0.135
		c-0.012,0.137-0.072,0.233-0.159,0.324c-0.067,0.07-0.121,0.153-0.186,0.229c-0.069,0.092-0.146,0.181-0.221,0.271
		c-0.025,0.033-0.043,0.074-0.07,0.104c-0.088,0.109-0.178,0.219-0.268,0.325C118.19,40.685,118.123,40.767,118.058,40.849z
		 M119.017,41.024c-0.046,0.06-0.093,0.116-0.141,0.176c-0.04,0.048-0.075,0.102-0.121,0.144c-0.07,0.063-0.16,0.083-0.252,0.077
		c-0.091-0.005-0.226-0.121-0.245-0.21c-0.011-0.046-0.022-0.091-0.033-0.136c0-0.076,0.037-0.137,0.08-0.188
		c0.07-0.089,0.146-0.175,0.213-0.265c0.085-0.106,0.168-0.219,0.251-0.324c0.092-0.118,0.188-0.235,0.274-0.354
		c0.055-0.069,0.252-0.134,0.336-0.104c0.217,0.08,0.259,0.219,0.223,0.419c-0.01,0.054-0.055,0.102-0.09,0.146
		c-0.12,0.149-0.244,0.299-0.364,0.447C119.103,40.906,119.061,40.966,119.017,41.024z"/>
	<path fill="#414042" d="M116.814,36.412c-0.188-0.079-0.352-0.146-0.511-0.223c-0.026-0.014-0.044-0.072-0.044-0.111
		c-0.003-0.688-0.001-1.378-0.004-2.068c-0.001-0.087,0.029-0.115,0.115-0.132c1.453-0.263,2.901-0.53,4.354-0.797
		c0.033-0.007,0.068-0.009,0.104-0.021c0.388-0.135,0.748-0.031,1.129,0.133c-0.338,0.074-0.65,0.146-0.964,0.211
		c-1.354,0.29-2.703,0.579-4.059,0.865c-0.098,0.021-0.127,0.063-0.127,0.157c0.004,0.597,0.002,1.19,0.002,1.786
		C116.814,36.271,116.814,36.329,116.814,36.412z"/>
</g>
<g>
	<path fill="#B3B3B3" d="M17.39,18.385v3.38H3.845v-2.688l6.914-6.529c0.734-0.7,1.229-1.302,1.485-1.805
		c0.256-0.503,0.384-1.002,0.384-1.498c0-0.717-0.243-1.268-0.729-1.651c-0.487-0.384-1.2-0.576-2.138-0.576
		c-0.785,0-1.494,0.149-2.125,0.448C7.003,7.763,6.474,8.211,6.047,8.808L3.026,6.862c0.7-1.041,1.665-1.856,2.894-2.445
		s2.637-0.883,4.225-0.883c1.331,0,2.496,0.218,3.495,0.653c0.999,0.436,1.775,1.05,2.33,1.844c0.554,0.794,0.832,1.729,0.832,2.804
		c0,0.973-0.205,1.886-0.615,2.74c-0.41,0.854-1.203,1.827-2.381,2.919l-4.122,3.892H17.39z"/>
	<path fill="#B3B3B3" d="M19.95,21.252c-0.478-0.478-0.717-1.075-0.717-1.792c0-0.733,0.239-1.327,0.717-1.779
		c0.478-0.452,1.067-0.679,1.767-0.679c0.7,0,1.289,0.227,1.767,0.679c0.478,0.453,0.717,1.046,0.717,1.779
		c0,0.717-0.239,1.315-0.717,1.792c-0.478,0.478-1.067,0.717-1.767,0.717C21.017,21.969,20.428,21.73,19.95,21.252z"/>
</g>
</svg>
