<?xml version="1.0" encoding="utf-8"?>
<!-- Generator: Adobe Illustrator 16.0.3, SVG Export Plug-In . SVG Version: 6.00 Build 0)  -->
<!DOCTYPE svg PUBLIC "-//W3C//DTD SVG 1.1//EN" "http://www.w3.org/Graphics/SVG/1.1/DTD/svg11.dtd">
<svg version="1.1" id="Layer_1" xmlns="http://www.w3.org/2000/svg" xmlns:xlink="http://www.w3.org/1999/xlink" x="0px" y="0px"
	 width="174.059px" height="174.059px" viewBox="0 0 174.059 174.059" enable-background="new 0 0 174.059 174.059"
	 xml:space="preserve">
<rect x="-0.094" y="0" fill="#FFFFFF" width="174.062" height="174.06"/>
<path fill="#E6E7E8" d="M174.152,52.399c-1.883-0.207-3.791-0.313-5.725-0.313c-30.986,0-56.105,27.282-56.105,60.937
	c0,33.653,25.119,60.938,56.105,60.938c1.934,0,3.842-0.104,5.725-0.313V52.399z"/>
<path fill="#D1D3D4" d="M159.508,119.677c0,26.301-21.324,47.622-47.625,47.622c-26.3,0-47.624-21.321-47.624-47.622
	c0-26.305,21.323-47.625,47.624-47.625S159.508,93.374,159.508,119.677z"/>
<g enable-background="new    ">
	<path fill="#414042" d="M92.938,129.103v12.601h-2.916v-10.261h-2.521v-2.34H92.938z"/>
	<path fill="#414042" d="M103.557,135.465c0.588,0.643,0.883,1.438,0.883,2.386c0,0.731-0.191,1.406-0.576,2.024
		s-0.969,1.113-1.756,1.484c-0.784,0.372-1.748,0.559-2.889,0.559c-0.888,0-1.761-0.117-2.619-0.352
		c-0.856-0.233-1.586-0.566-2.187-0.999l1.134-2.231c0.479,0.36,1.035,0.64,1.665,0.837c0.63,0.198,1.273,0.297,1.935,0.297
		c0.732,0,1.31-0.141,1.729-0.423c0.42-0.281,0.631-0.681,0.631-1.196c0-1.032-0.787-1.549-2.359-1.549h-1.332v-1.926l2.594-2.935
		h-5.364v-2.34h8.82v1.891l-2.845,3.239C102.123,134.412,102.969,134.823,103.557,135.465z"/>
	<path fill="#414042" d="M115.176,132.954c0.738,0.72,1.107,1.788,1.107,3.204v5.544h-2.81v-5.112c0-0.768-0.168-1.341-0.504-1.719
		s-0.822-0.567-1.458-0.567c-0.708,0-1.271,0.22-1.692,0.657c-0.42,0.438-0.629,1.089-0.629,1.953v4.788h-2.809v-13.356h2.809v4.681
		c0.371-0.371,0.821-0.656,1.351-0.854c0.526-0.197,1.104-0.297,1.729-0.297C113.469,131.874,114.438,132.235,115.176,132.954z"/>
	<path fill="#414042" d="M131.574,134.899c0.846,0.708,1.269,1.655,1.269,2.845c0,0.768-0.192,1.467-0.576,2.097
		s-0.97,1.135-1.755,1.513c-0.786,0.378-1.755,0.566-2.907,0.566c-0.888,0-1.761-0.117-2.618-0.352
		c-0.858-0.233-1.588-0.566-2.188-0.999l1.152-2.231c0.479,0.36,1.03,0.64,1.654,0.837c0.624,0.198,1.268,0.297,1.928,0.297
		c0.73,0,1.307-0.144,1.728-0.432c0.42-0.288,0.63-0.689,0.63-1.206c0-0.54-0.219-0.947-0.656-1.225
		c-0.438-0.275-1.196-0.414-2.276-0.414h-3.224l0.648-7.092h7.686v2.34h-5.256l-0.196,2.395h1.024
		C129.416,133.836,130.728,134.191,131.574,134.899z"/>
	<path fill="#414042" d="M136.641,141.145c-0.815-0.517-1.455-1.264-1.918-2.241c-0.461-0.979-0.691-2.145-0.691-3.501
		c0-1.355,0.23-2.522,0.691-3.501c0.463-0.979,1.103-1.726,1.918-2.24c0.815-0.517,1.746-0.774,2.789-0.774
		c1.045,0,1.975,0.259,2.791,0.774c0.815,0.516,1.454,1.263,1.916,2.24c0.463,0.979,0.693,2.146,0.693,3.501
		c0,1.356-0.23,2.522-0.693,3.501c-0.462,0.979-1.101,1.726-1.916,2.241c-0.816,0.517-1.746,0.773-2.791,0.773
		C138.387,141.918,137.456,141.66,136.641,141.145z M141.24,138.462c0.438-0.659,0.656-1.68,0.656-3.061
		c0-1.38-0.219-2.399-0.656-3.061c-0.438-0.659-1.042-0.989-1.811-0.989c-0.756,0-1.353,0.33-1.791,0.989
		c-0.438,0.66-0.656,1.681-0.656,3.061c0,1.381,0.22,2.4,0.656,3.061c0.438,0.66,1.035,0.99,1.791,0.99
		C140.198,139.452,140.801,139.122,141.24,138.462z"/>
</g>
<rect x="87.875" y="11.035" fill="none" width="73.053" height="57.279"/>
<g>
	<g>
		<path opacity="0.2" fill="#4A768F" enable-background="new    " d="M86.049,101.103c4.278,2.473,4.278,6.479,0,8.956
			c-4.287,2.475-11.229,2.475-15.517,0c-4.282-2.473-4.282-6.483,0-8.956C74.818,98.628,81.76,98.628,86.049,101.103z"/>
		<g>
			<g>
				<g>
					<path fill="#3A7FB7" d="M62.475,49.711c0,0-0.895-1.124-0.973-3.028l0.437,0.225l0.563,1.413c0,0,0.607,0.326,0.586,0.407
						C63.059,48.811,62.475,49.711,62.475,49.711z"/>
					<path fill="#FDD5BE" d="M63.146,47.955c0.222,0.748-0.272,1.2-0.627,1.287c-0.092,0.024-0.193,0.047-0.287,0.069
						c-0.27,0.064-0.543,0.142-0.729,0.273c-0.262,0.178-0.333,0.595-1.169,1.121c-0.188,0.117-0.373,0.204-0.556,0.255
						c-0.331,0.104-0.631,0.121-0.831,0.118c-0.098-0.006-0.171-0.02-0.216-0.024c0.034,0.011,0.086,0.027,0.144,0.063
						c0.115,0.063,0.247,0.166,0.255,0.308c0.013,0.25-2.007,0.463-2.257,0.271c-0.252-0.194-0.438-0.183-0.688-0.725
						c-0.204-0.441-0.201-1.704-0.165-2.316c0.004-0.03,0.004-0.059,0.007-0.083c0.009-0.098,0.019-0.17,0.027-0.216
						c0.012-0.074,0.062-0.17,0.134-0.268c0.223-0.308,0.625-0.647,0.832-0.771c0.117-0.066,0.474-0.096,0.843-0.117
						c0.514-0.032,0.881,0.063,0.896-0.063c0.063-0.711-0.7-0.729-1.168-1.143c-0.475-0.41-0.563-0.962-0.225-1.006
						c0.341-0.044,1.006,0.521,1.84,0.918c0.834,0.396,1.641,1.103,1.641,1.103l0.536-0.096l1.941-0.343
						C63.325,46.579,62.929,47.205,63.146,47.955z"/>
					<path opacity="0.3" fill="#CC8C8D" enable-background="new    " d="M63.146,47.955c0.222,0.748-0.272,1.2-0.627,1.287
						c-0.092,0.024-0.193,0.047-0.287,0.069c0.03-0.328,0.05-0.559-0.033-1.113c-0.099-0.694-0.815-1.276-0.815-1.276l1.941-0.343
						C63.325,46.579,62.929,47.205,63.146,47.955z"/>
					<path fill="#B4DBE5" d="M67.545,34.858c0,0,0-4.799,0.582-6.733c0.646-2.147,2.479-1.924,2.479-1.924s-0.073,0.193,1.209,4.587
						c0.999,3.419,1.265,10.896,1.862,13.614c0.144,0.644-0.409,1.226-1.062,1.119c-1.076-0.169-2.474-0.596-2.821-1.646
						C69.198,42.11,68.235,36.91,67.545,34.858z"/>
					<path fill="#B4DBE5" d="M61.504,46.682c0,0,1.411,1.124,0.973,3.028c0,0,5.568-0.571,11.275-3.655
						c0.615-0.337-0.269-2.52-0.269-2.52s-1.158-0.365-3.689,0.34C67.151,44.611,61.696,46.415,61.504,46.682z"/>
					<path opacity="0.3" fill="#CC8C8D" enable-background="new    " d="M59.921,50.299c-0.021,0.206-0.053,0.415-0.142,0.664
						c-0.331,0.104-0.631,0.121-0.831,0.118c-0.022,0.013-0.048,0.022-0.072,0.037c0.115,0.063,0.247,0.166,0.255,0.308
						c0.013,0.25-2.007,0.463-2.257,0.271c-0.252-0.194-0.438-0.183-0.688-0.725c-0.204-0.441-0.201-1.704-0.165-2.316
						c0.004-0.03,0.004-0.059,0.007-0.083c0.009-0.098,0.019-0.171,0.027-0.216c0.012-0.074,0.062-0.17,0.134-0.268
						c0.08-0.01,0.611,0.276,0.657,0.299c0,0,2.491-0.185,2.491,0.354C59.337,49.479,60,49.652,59.921,50.299z"/>
					<path fill="#FEE1C8" d="M59.458,50.355c-0.03,0.25-0.146,0.528-0.51,0.729c-0.029,0.058,0.012,0.087,0.053,0.119
						c0.063,0.059,0.123,0.135,0.13,0.226c0.013,0.25-2.007,0.463-2.257,0.271c-0.229-0.176-0.403-0.183-0.622-0.592
						c-0.022-0.04-0.045-0.085-0.066-0.133c-0.069-0.16-0.111-0.379-0.136-0.629c-0.007-0.042-0.011-0.084-0.017-0.127
						c-0.024-0.309-0.031-0.65-0.029-0.963c0-0.039,0-0.086,0-0.125c0.001-0.18,0.012-0.341,0.017-0.476
						c0.004-0.03,0.004-0.059,0.007-0.083c0.009-0.098,0.019-0.171,0.027-0.216c0.012-0.074,0.062-0.17,0.134-0.268
						c0.688,0.136,2.574,0.583,2.636,1.093c0,0,0.127,0.138-0.091,0.388c-0.058,0.062-0.06,0.095-0.037,0.119
						c0.102,0.114,0.734,0.061,0.762,0.305c0.003,0.033,0.005,0.08,0.012,0.129C59.468,50.195,59.468,50.275,59.458,50.355z"/>
				</g>
				<g>
					<path fill="#FDD5BE" d="M58.719,49.587c-0.044,0.044-0.046,0.077-0.023,0.104c-0.925,0.079-1.843-0.068-2.689-0.436
						c0-0.039,0-0.086,0-0.125c0.854,0.374,1.791,0.526,2.729,0.438C58.731,49.575,58.724,49.582,58.719,49.587z"/>
					<path fill="#FDD5BE" d="M59.458,50.355c-0.107,0.125-0.271,0.19-0.438,0.224c-0.396,0.075-0.812,0.107-1.213,0.094
						c-0.604-0.023-1.193-0.131-1.759-0.324c-0.007-0.042-0.014-0.084-0.017-0.127c0.505,0.182,1.031,0.296,1.565,0.324
						c0.309,0.019,0.616,0.02,0.925-0.013c0.291-0.031,0.81-0.04,0.922-0.383C59.468,50.195,59.468,50.275,59.458,50.355z"/>
					<path fill="#FDD5BE" d="M59.001,51.201c-0.92,0.153-1.853,0.124-2.749-0.096c-0.022-0.04-0.045-0.085-0.066-0.133
						c0.967,0.225,1.916,0.274,2.716,0.133C58.919,51.138,58.96,51.168,59.001,51.201z"/>
				</g>
			</g>
			<g>
				<path fill="#FDD5BE" d="M76.167,76.149c-0.111,0.454-0.18,0.826-0.224,1.14c-0.062,0.438-0.071,0.758-0.096,0.986
					c-0.016,0.146-0.033,0.26-0.069,0.354c-0.06,0.146-0.162,0.239-0.378,0.327c-0.089,0.04-0.229,0.106-0.403,0.188
					c-1.13,0.527-3.694,1.638-4.131-0.898c-0.016-0.094-0.026-0.188-0.039-0.286v-0.235c0,0-0.074-0.626-0.186-1.66
					c-0.409-3.863-0.767-7.738-0.926-11.625c-0.063-1.432-0.104-2.869-0.026-4.304c0.04-0.684,0.011-1.74,0.464-2.325
					c1.439-1.841,3.377-3.365,5.572-2.719c2.197,0.643,2.372,1.111,2.547,3.049C78.451,60.074,76.695,73.988,76.167,76.149z"/>
				<g>
					<path fill="#BD3F46" d="M77.378,104.135c0,0-0.918,0.623-1.115,0.647c-0.195,0.019-0.743-0.669-0.743-0.669
						s0.179-0.338,0.415-0.775c0.46-0.863,1.144-2.133,1.17-2.078c0.037,0.079,0.376,0.079,0.376,0.079
						S77.26,103.844,77.378,104.135z"/>
					<path fill="#E75F5B" d="M76.499,102.787c0,0-0.063,1.623-0.236,1.997c-0.195,0.019-0.743-0.669-0.743-0.669
						s0.179-0.338,0.415-0.775L76.499,102.787z"/>
					<path fill="#CE4E4E" d="M76.184,99.033c0,0,1.172,1.349,1.249,1.738c0.079,0.394,0.177,0.979-0.623,1.937
						c-0.804,0.961-1.992,2.775-2.191,3.169c-0.192,0.394-2.091,1.504-2.893,1.544c-0.8,0.038-1.329-0.449-1.172-0.802
						c0.156-0.352,0.896-1.661,1.767-2.86c1.248-1.729,1.654-1.499,1.654-1.499L76.184,99.033z"/>
					<path fill="#FDD5BE" d="M77.284,88.289c0,0-1.194,9.63-1.115,10.101c0.074,0.47,0.662,1.711,0.504,2.258
						c-0.149,0.526-2.378,4.078-3.573,4.839c-0.048,0.032-0.094,0.061-0.139,0.078c-0.043,0.021-0.086,0.041-0.125,0.059
						c-1.069,0.456-1.327-0.251-1.052-0.761c0.293-0.527,1.835-2.914,1.878-3.465c0.104-1.188,0.396-2.632,0.313-3.377
						c0,0-1.386-12.314-2.147-15.132c-0.761-2.813-0.92-4.354-0.958-4.642c-0.026-0.209,1.184-1.152,2.374-1.245
						c0.432-0.03,0.856,0.049,1.228,0.314c0.095,0.069,0.195,0.145,0.283,0.223c0.412,0.338,0.753,0.709,1.027,1.091
						c0.053,0.063,0.104,0.135,0.146,0.204c0.296,0.438,0.512,0.877,0.662,1.265c0.026,0.079,0.055,0.15,0.076,0.217
						c0.031,0.102,0.062,0.197,0.087,0.285C76.986,81.479,77.873,85.062,77.284,88.289z"/>
				</g>
			</g>
			<path opacity="0.3" fill="#CC8C8D" enable-background="new    " d="M77.284,88.289c0,0-1.194,9.63-1.115,10.101
				c0.074,0.47,0.662,1.711,0.504,2.258c-0.149,0.526-2.378,4.078-3.573,4.839c0.75-0.567,2.612-3.757,2.914-4.524
				c0.32-0.82-0.229-3.205-0.229-3.205s0.568-13.762,0.306-15.441c-0.188-1.173-0.765-2.38-1.091-3.164
				c-0.147-0.341-0.246-0.604-0.246-0.747c0-0.35-0.182-0.669-0.475-0.848c-0.334-0.2-0.688-0.387-1.036-0.552
				c-1.319-0.609-2.599-0.938-2.599-0.938l-0.017-0.153c-0.019-0.176-0.034-0.338-0.055-0.505c-0.007-0.081-0.017-0.16-0.021-0.244
				c-0.021-0.144-0.024-0.226-0.031-0.307c-0.021-0.206-0.043-0.421-0.063-0.646c-0.015-0.129-0.025-0.264-0.041-0.397
				c-0.015-0.131-0.023-0.263-0.039-0.396c-0.015-0.146-0.025-0.293-0.043-0.444c0.631-0.247,2.448-0.512,2.618-0.512
				c0.195,0,2.385,2.422,2.385,2.422s0.336,1.29,0.607,2.406c-0.062,0.438-0.071,0.758-0.096,0.986
				c-0.016,0.146-0.033,0.26-0.069,0.354c0.053,0.063,0.104,0.135,0.146,0.204c0.296,0.44,0.51,0.877,0.662,1.265
				c0.026,0.079,0.055,0.15,0.076,0.217c0.031,0.102,0.062,0.196,0.087,0.285C76.986,81.479,77.873,85.062,77.284,88.289z"/>
			<g>
				<path fill="#FEE1C8" d="M82.77,75.547c-0.31,1.65-0.577,2.938-0.734,3.479c-0.026,0.118-0.06,0.229-0.091,0.342
					c-0.093,0.36-0.153,0.664-0.195,0.926c-0.072,0.431-0.094,0.725-0.132,0.938c-0.053,0.311-0.139,0.448-0.451,0.563
					c-0.664,0.247-3.79,1.877-4.431-0.49c-0.053-0.201-0.091-0.433-0.104-0.694l0.011-0.231c0,0-0.048-0.688-0.122-1.813
					c-0.014-0.208-0.028-0.435-0.042-0.669c-0.002-0.038-0.006-0.074-0.007-0.111c-0.313-5.081-0.821-15.973,0.335-17.328
					c1.513-1.779,3.515-3.227,5.682-2.485c2.167,0.735,2.323,1.211,2.421,3.154C84.975,62.569,83.682,70.662,82.77,75.547z"/>
				<g>
					<path fill="#BD3F46" d="M83.181,106.698c0,0-0.921,0.621-1.114,0.645c-0.191,0.02-0.744-0.665-0.744-0.665
						s0.18-0.335,0.413-0.777c0.461-0.861,1.146-2.129,1.172-2.073c0.037,0.08,0.377,0.08,0.377,0.08S83.063,106.402,83.181,106.698
						z"/>
					<path fill="#E75F5B" d="M82.302,105.344c0,0-0.063,1.624-0.234,1.996c-0.191,0.02-0.744-0.665-0.744-0.665
						s0.18-0.335,0.413-0.777L82.302,105.344z"/>
					<path fill="#CE4E4E" d="M81.99,101.589c0,0,1.176,1.354,1.248,1.742c0.081,0.396,0.18,0.979-0.623,1.937
						c-0.8,0.958-1.996,2.776-2.188,3.169c-0.194,0.392-2.091,1.505-2.896,1.544c-0.8,0.038-1.327-0.446-1.172-0.802
						c0.159-0.354,0.896-1.663,1.768-2.86c1.25-1.729,1.653-1.499,1.653-1.499L81.99,101.589z"/>
					<path fill="#FEE1C8" d="M83.089,90.699c0,0-1.195,9.778-1.12,10.249c0.08,0.469,0.682,1.653,0.521,2.198
						c-0.155,0.548-2.553,4.408-3.726,4.976c-0.111,0.054-0.207,0.094-0.304,0.125c-0.938,0.255-1.127-0.37-0.871-0.826
						c0.296-0.528,1.832-2.917,1.877-3.462c0.1-1.19,0.393-2.634,0.31-3.382c0,0-1.382-12.315-2.146-15.134
						c-0.563-2.063-0.795-3.439-0.896-4.144c-0.034-0.254-0.053-0.42-0.063-0.495c-0.04-0.286,2.22-1.932,3.597-0.934
						c0.241,0.177,0.462,0.362,0.659,0.561c0.266,0.255,0.495,0.524,0.688,0.796c0.505,0.695,0.801,1.404,0.938,1.934
						C82.794,84.039,83.675,87.472,83.089,90.699z"/>
				</g>
			</g>
			<path opacity="0.3" fill="#CC8C8D" enable-background="new    " d="M83.089,90.699c0,0-1.195,9.778-1.12,10.249
				c0.08,0.469,0.682,1.653,0.521,2.198c-0.155,0.548-2.553,4.408-3.726,4.976c-0.111,0.054-0.207,0.094-0.304,0.125
				c0.773-0.31,3.462-3.915,3.562-5.226c0.063-0.795-0.416-1.763-0.416-1.763s0.259-2.941,0.3-3.627
				c0.039-0.683,0.452-9.581,0.354-11.536c-0.041-0.796-0.75-3.635-1.093-4.306c-0.217-0.418-0.356-0.767-0.299-0.973
				c0.034-0.108,0.056-0.244,0.063-0.389c0.021-0.336-0.019-0.643-0.272-0.877c-1.254-0.638-3.21-0.816-4.137-0.997
				c-0.014-0.208-0.028-0.435-0.042-0.669c-0.002-0.038-0.006-0.075-0.007-0.113c0.445-0.797,1.146-2.011,1.407-2.189
				c0.323-0.229,3.315-0.106,4.894-0.038c-0.31,1.648-0.577,2.938-0.734,3.479c-0.026,0.118-0.06,0.229-0.091,0.342
				c-0.093,0.36-0.153,0.662-0.195,0.926c-0.072,0.431-0.094,0.725-0.132,0.938c0.507,0.695,0.801,1.404,0.938,1.934
				C82.794,84.039,83.675,87.472,83.089,90.699z"/>
			<g>
				<path fill="#4B6B6A" d="M84.961,77.248c0,0,0.269,0.41-3.313,1.349c-0.19,0.051-0.396,0.085-0.618,0.104
					c-0.33,0.026-0.682,0.023-1.055-0.01c-3.967-0.316-10.08-3.738-10.08-3.906c0.032-0.18-0.227-2.938-0.579-5.107
					c-0.014-0.076-0.021-0.247-0.032-0.488c-0.067-2.059-0.013-9.396,0.047-10.461c0.022-0.517,0.079-1.141,0.146-1.796
					c0.244-2.27,0.661-4.922,0.661-4.922s13.093,2.25,13.562,2.54c0.475,0.293,0.884,1.33,0.884,1.33
					C85.93,60.086,84.961,77.248,84.961,77.248z"/>
				<path fill="#628787" d="M81.738,75.046c-0.222,1.514-0.166,2.6-0.706,3.654c-0.33,0.026-0.682,0.023-1.055-0.01
					c-3.957-0.321-9.988-3.783-10.08-3.906c-0.646-0.856-0.646-2.52-0.579-5.107c0.005-0.071-0.009-0.239-0.032-0.488
					c-0.067-2.059-0.013-9.396,0.047-10.461c0.022-0.517,0.079-1.141,0.146-1.796c1.562,0.466,3.72,1.126,4.895,1.544
					c2.602,0.925,4.892,0.746,6.125,0.746c1.229,0,1.215,4.092,1.151,6.146C81.591,67.42,82.208,71.821,81.738,75.046z"/>
			</g>
			<path fill="#8CBFD3" d="M82.216,44.464c-0.313,1.877,0.313,6.176,0.784,7.625c0.47,1.445,1.364,2.461,0.896,3.396
				c-0.301,0.604-1.884,0.945-3.686,1.117c-1.01,0.096-2.083,0.137-3.037,0.137c-2.658,0-7.313-2.505-7.702-3.052
				c-0.39-0.546,0.039-3.36,0.546-4.811c0.509-1.444-0.114-5.354-0.273-6.489c-0.021-0.183-0.067-0.376-0.129-0.58
				c-0.312-1.063-1.021-2.356-1.448-3.212c-0.061-0.116-0.111-0.214-0.15-0.298c-0.341-0.646-0.295-0.439-0.711-1.617
				c-0.469-1.33,1.016-4.123,1.445-4.945c0.222-0.429,0.261-2.686,0.302-3.719c0.041-1.025,0.857-1.853,1.888-1.907
				c2.297-0.126,6.077-0.192,7.392,0.604c1.37,0.832,3.596,3.154,4.774,4.438c0.488,0.522,0.793,0.881,0.793,0.881
				c0.862,0.856,1.097,3.638,1.061,4.532C84.915,37.463,82.531,42.584,82.216,44.464z"/>
			<g>
				<path fill="#754C45" d="M79.749,19.948c-0.104-0.565-1.716-1.798-1.871-1.935c-0.058-0.05-0.282-0.102-0.568-0.146l-0.327-4.789
					l-0.091-1.352c0,0-0.022-0.018-0.059-0.043c-1.563,0.358-3.229,2-3.982,2.813c-0.383-0.101-0.807-0.188-1.267-0.274
					c-1.626-0.3-2.326,1.351-2.585,2.34c-0.029,0.191-0.053,0.396-0.074,0.604c-0.007,0.061-0.017,0.118-0.02,0.178
					c-0.3,2.91-0.245,7.013,0.805,8.116c0,0,0.521-0.012,1.144-0.193c2.403-0.292,5.833,0.331,7.39,0.658
					c0.447,0.093,0.877-0.21,0.938-0.661C79.394,23.677,79.825,20.376,79.749,19.948z"/>
				<path opacity="0.5" fill="#64A6C2" enable-background="new    " d="M72.963,27.015c0,0,0.344-1.227,0.592-0.869
					c0.252,0.354,0.386,1.379,0.386,1.438c0,0.061,0.048,0.501,0.048,0.582c0,0.082-0.135,0.246-0.135,0.246l-0.588-0.139
					L72.963,27.015z"/>
				<path opacity="0.5" fill="#64A6C2" enable-background="new    " d="M72.237,30.007c0,0,1.231-1.673,1.615-1.63
					c0,0-0.854-0.423-1.017-0.07C72.678,28.659,72.015,29.568,72.237,30.007z"/>
				<path fill="#FDD5BE" d="M73.775,28.317c-0.189-0.198-0.398-2.907-0.313-3.871c0.1-1.084-0.195-2.346-0.195-2.346l4.578-1.021
					l0.148-0.032c0,0-0.547,4.615,0.234,5.513C79.01,27.456,74.934,29.539,73.775,28.317z"/>
				<path opacity="0.3" fill="#CC8C8D" enable-background="new    " d="M77.843,21.077c0.113,5.479-2.022,5.523-3.069,5.558
					c-1.389,0.045-1.396-1.227-1.313-2.188c0.1-1.086-0.195-2.348-0.195-2.348L77.843,21.077z"/>
				<path fill="#FDD5BE" d="M79.56,19.154c-0.185,0.372-0.398,0.688-0.626,0.912c0,0-1.058,2.191-1.292,2.579
					c-0.161,0.271-1.899,1.73-3.419,2.649c-0.707,0.424-1.352,0.727-1.781,0.755c-1.367,0.076-2.501-2.896-2.579-3.992
					c-0.077-1.09,0.148-2.15-0.347-3.169c-0.063-0.136-0.114-0.354-0.142-0.635c-0.065-0.712,0.031-1.831,0.493-2.995
					c0.319-0.814,0.819-1.649,1.559-2.386c0,0,1.761-1.291,3.755-1.138c1.993,0.156,4.143,0.591,4.769,2.818
					C80.424,16.24,80.135,17.996,79.56,19.154z"/>
				<path opacity="0.3" fill="#CC8C8D" enable-background="new    " d="M79.56,19.154c-0.185,0.372-0.398,0.688-0.626,0.912
					c0,0-1.058,2.191-1.292,2.579c-0.161,0.271-1.899,1.73-3.419,2.649c1.463-0.925,2.29-1.888,2.261-4.584
					c-0.014-1.283-0.257-1.173-0.257-1.173l-0.968,0.09c-2.804,0.089-5.032-0.918-5.885-1.374c-0.065-0.712,0.031-1.831,0.493-2.995
					c0.728,0.01,7.067,0.099,7.206,0.264C77.221,15.698,79.42,18.392,79.56,19.154z"/>
				<g>
					<path opacity="0.5" fill="#64A6C2" enable-background="new    " d="M74.066,28.559c0,0,0.914,1.318,0.782,2.593
						c0,0,0.102,0.157,0.315,0c0.137-0.104,3.967-1.928,4.646-3.294l-0.204-0.208l-3.998,1.976L74.066,28.559z"/>
					<path fill="#B4DBE5" d="M73.889,28.421c0,0,1.057,0.695,1.057,1.969v0.763c0,0,4.745-2.446,4.805-3.579
						c0,0-1.206-1.36-1.307-1.537l-0.509-0.224c0,0,0.389,0.737-0.079,1.155C77.387,27.39,75.299,28.857,73.889,28.421z"/>
				</g>
				<path fill="#B4DBE5" d="M73.463,25.892c0,0-0.688,0.146-1.078,0.692c-0.25,0.349-0.991,2.894-0.146,3.422
					c0,0,0.654-1.813,1.652-1.586c0,0-0.894-0.229-0.411-2.26C73.494,26.098,73.444,25.962,73.463,25.892z"/>
				<path fill="#AC6557" d="M80.888,23.722c-0.509,0.899-1.285,2.014-1.826,2.386c0,0-0.659,0.26-1.104,0.448
					c-0.073,0.031,0.262-1.791,0.262-1.854c-0.414,1.242-0.53,1.998-0.726,2.074c-0.719,0.291-1.47,0.57-1.694,0.563
					c-0.356-0.016,0.891-3.303,0.961-6.202c0.018-0.793-0.052-1.556-0.269-2.217c-0.057-0.172-0.118-0.338-0.194-0.497
					c-0.693-1.409-1.604-2.262-2.365-2.769c-0.834-0.551-1.488-0.688-1.488-0.688s0.122-0.149,0.331-0.377
					c0.023-0.029,0.051-0.06,0.076-0.092c0.754-0.813,2.181-2.606,3.739-2.971c0.127-0.028,0.646-0.007,0.663-0.007
					c2.349,0.163,3.676,3.193,3.967,4.638C81.631,18.193,81.395,22.823,80.888,23.722z"/>
				<path fill="#AC6557" d="M76.833,11.685c-1.563,0.358-3.229,2-3.982,2.813c-0.383-0.101-0.807-0.188-1.267-0.274
					c-1.626-0.3-2.326,1.351-2.585,2.34c0.063-0.481,0.139-0.914,0.221-1.266c0.564-2.482,2.667-3.392,4.31-3.962
					C74.982,10.833,76.544,11.485,76.833,11.685z"/>
				<path fill="#C8785B" d="M76.868,19.001c0.002,0.04-0.033,0.066-0.1,0.092c-0.611,0.215-3.804-0.19-4.429-0.303
					c-0.692-0.128-2.729-0.838-2.748-0.946c-0.018-0.063-0.015-0.474,0.064-0.906c0.036-0.215,0.099-0.438,0.179-0.633
					c-0.032,0.067-0.179,0.36-0.313,0.668c-0.146,0.325-0.28,0.67-0.271,0.79c0,0-0.479-0.184-0.629-0.363
					c-0.027-0.032-0.041-0.063-0.041-0.099c0-0.013,0.004-0.035,0.009-0.074c0.014-0.126,0.054-0.371,0.134-0.668
					c0.275-1.061,1.029-2.83,2.773-2.511c0.491,0.091,0.947,0.192,1.358,0.3c0.836,0.221,1.506,0.479,2.021,0.787
					c0.466,0.279,0.807,0.601,1.022,0.969C76.493,17.091,76.847,18.603,76.868,19.001z"/>
			</g>
			<g>
				<path fill="#B4DBE5" d="M73.473,55.88c-0.184-0.311-0.012-2.042,0.295-4.958c0.193-1.863,0.398-3.795,0.368-4.577
					c-0.069-1.805-0.658-3.157-1.795-5.167c-1.172-2.074-1.816-4.575-0.238-6.519c1.479-1.825,1.616-6.253,1.616-6.29l0.288,0.129
					c0,0.15-0.188,4.42-1.725,6.309c-1.514,1.86-0.877,4.25,0.261,6.256c1.154,2.045,1.759,3.422,1.822,5.274
					c0.031,0.797-0.171,2.736-0.365,4.613c-0.217,2.052-0.431,4.721-0.272,4.984L73.473,55.88z"/>
			</g>
			<path opacity="0.5" fill="#64A6C2" enable-background="new    " d="M82.216,44.464c-0.313,1.877,0.313,6.176,0.784,7.625
				c0.47,1.445,1.364,2.461,0.896,3.396c-0.301,0.604-1.884,0.945-3.686,1.117c0.759-2.806-0.445-7.691-1.586-7.775
				c-1.269-0.096-8.005-0.082-9.013-7.02c-0.312-1.063-1.021-2.356-1.45-3.212c-0.059-0.116-0.109-0.214-0.148-0.298
				c2.021,1.145,7.309,3.954,9.237,3.085c2.403-1.08,3.374-6.597,3.374-6.597l2.479-3.64c0.488,0.522,0.793,0.879,0.793,0.879
				c0.862,0.858,1.097,3.64,1.059,4.534C84.915,37.463,82.531,42.584,82.216,44.464z"/>
			<g>
				<path fill="#64A6C2" d="M74.398,54.55c0,0-0.725-0.957-0.507-2.854l1.055,0.1l0.333,1.483c0,0-0.104,0.604-0.141,0.687
					C75.1,54.041,74.398,54.55,74.398,54.55z"/>
				<path fill="#B4DBE5" d="M87.213,48.8c0.041,0.656-0.597,1.146-1.222,0.941c-0.506-0.163-1.229-0.123-1.857-0.163
					c-0.677-0.044-1.251-0.177-1.352-0.737c-0.042-0.261,0.07-0.58-0.005-0.947c-0.464-2.209-1.432-6.025-1.97-7.57
					c0,0-0.897-6.337,0.62-7.983c1.521-1.649,2.308-0.821,2.308-0.821s0.056,0.035,0.146,0.135c0.36,0.38,1.311,1.687,1.773,5.311
					c0.414,3.183,1.18,7.988,1.479,10.945C87.171,48.227,87.198,48.526,87.213,48.8z"/>
				<path fill="#FDD5BE" d="M76.177,53.77c-0.029,0.027-0.081,0.057-0.151,0.078c-0.337,0.119-1.103,0.203-1.841,0.366
					c-0.516,0.118-1.015,0.271-1.349,0.51c-0.902,0.649-2.213,1.117-2.213,1.117s-1.329,0.119-1.896-0.059
					c-0.627-0.194-0.841-0.571-0.825-0.631c-0.011,0.015-0.084,0.046-0.533-0.113c-0.479-0.165-0.51-0.725-0.51-0.851
					c-0.297-0.364-0.095-0.972-0.095-0.972s-0.413-0.348-0.589-0.563c-0.177-0.213-0.413-0.673-0.17-1.027s0.776,0.382,1.249,0.559
					c0.464,0.174,1.429,0.206,2.563,0.146c1.13-0.063,1.157-0.223,1.123-0.607c-0.034-0.392-1.202-0.697-1.516-1.142
					c-0.313-0.445,0.115-0.916,0.24-0.867c0.118,0.051,0.637,0.555,1.771,0.924c1.131,0.37,1.62,1.289,1.62,1.289
					s0.285,0.035,0.701,0.023c0.476-0.008,1.13-0.077,1.716-0.325c0.442-0.184,0.006,0.381,0.382,0.647
					c0.197,0.136,0.377,0.426,0.449,0.729C76.376,53.289,76.354,53.582,76.177,53.77z"/>
				<path opacity="0.3" fill="#CC8C8D" enable-background="new    " d="M76.306,53.005c-0.089,0.271-0.188,0.567-0.281,0.844
					c-0.337,0.119-1.103,0.203-1.841,0.366c0.378-0.469-0.098-2.023-0.425-2.265c0.476-0.008,1.13-0.077,1.716-0.325
					c0.442-0.184,0.006,0.381,0.382,0.647C76.054,52.409,76.234,52.699,76.306,53.005z"/>
				<path fill="#B4DBE5" d="M86.635,50.445c-5.933,2.617-12.236,4.105-12.236,4.105c0.084-0.303,0.084-0.658,0.038-1.01
					c-0.122-0.922-0.547-1.846-0.547-1.846c0.211-0.214,5.72-2.908,8.713-3.804c0.319-0.091,0.606-0.163,0.854-0.213
					c0.646-0.127,1.198-0.178,1.667-0.178c1.259-0.006,1.894,0.33,2.014,0.398C87.159,47.917,87.279,50.16,86.635,50.445z"/>
			</g>
		</g>
	</g>
	<g>
		<g>
			<g>
				<polygon fill="#C0B096" points="53.942,51.293 61.426,46.974 61.426,36.9 53.942,41.226 				"/>
				<polygon fill="#D6C4A7" points="43.916,45.507 53.942,51.293 53.942,41.226 43.916,35.437 				"/>
				<polygon fill="#C0B096" points="43.916,35.437 48.515,38.093 48.944,38.339 53.942,41.226 61.426,36.9 56.427,34.018 
					56.002,33.769 51.401,31.116 				"/>
			</g>
			<polygon fill="#FFFFFF" points="51.105,42.235 53.12,43.399 53.12,41.805 51.105,40.642 			"/>
		</g>
		<polygon fill="#FCE7C6" points="49.168,37.816 53.942,41.226 61.426,36.9 56.651,33.495 		"/>
		<polygon fill="#FCE7C6" points="48.524,37.599 43.951,35.44 51.434,31.119 56.01,33.275 		"/>
	</g>
	<path opacity="0.2" fill="#4A768F" enable-background="new    " d="M47.998,116.916c4.78,2.764,4.78,7.242,0,10.005
		c-4.784,2.762-12.542,2.762-17.324,0c-4.784-2.763-4.784-7.241,0-10.005C35.456,114.156,43.214,114.154,47.998,116.916z"/>
	<path fill="#4B6B6A" d="M36.323,93.227c-0.008,0.021-0.021,0.045-0.031,0.065c-0.222,0.342-1.068,0.776-2.125,1.092
		c-2.059,0.618-4.9,0.791-5.447-0.994c-0.073-0.25-0.146-0.591-0.202-1.005C27.93,88.266,28.203,77,28.203,77
		c-2.299-4.819-0.136-12.068-0.136-12.068l10.603,3.806c0.115,0.555,0.178,1.345,0.188,2.305
		C38.924,77.665,36.677,92.353,36.323,93.227z"/>
	<g>
		<path fill="#FEC047" d="M40.559,117.455c-0.053,0.275-0.115,0.524-0.172,0.711c-0.053,0.189-0.174,0.354-0.344,0.453
			c-0.183,0.11-0.447,0.275-0.777,0.473c-1.908,1.147-5.884,3.508-7.001,3.851c-1.125,0.347-2.229-0.363-2.696-0.736
			c-0.149-0.117-0.236-0.304-0.231-0.493l0.002-0.423l0.005-0.185c-0.07-1.266,0.208-2.063,0.423-2.479
			c0.129-0.242,0.229-0.356,0.229-0.356l3.039-0.646l0.349-0.072l1.143-0.662l1.038-0.603l1.36-0.662
			c0.06-0.029,0.305-0.146,0.305-0.146l0.892-0.438c0.854-0.261,1.518-0.045,1.957,0.344c0.224,0.199,0.388,0.441,0.488,0.683
			C40.706,116.407,40.652,116.962,40.559,117.455z"/>
		<path fill="#F7F8EF" d="M38.093,116.582c-0.127,0.131-4.242,2.104-4.242,2.104l0.671-1.529l1.038-0.604l1.36-0.661
			C37.341,115.891,38.226,116.448,38.093,116.582z"/>
		<path fill="#E4E9E6" d="M40.559,117.455c-0.053,0.275-0.115,0.524-0.172,0.711c-0.053,0.189-0.174,0.354-0.344,0.453
			c-0.183,0.11-0.447,0.275-0.777,0.473c0.162-0.809,0.01-1.6-0.233-2.231c0.538-0.418,0.875-1.083,1.04-1.479
			c0.224,0.199,0.388,0.441,0.488,0.683C40.706,116.407,40.652,116.962,40.559,117.455z"/>
		<path fill="#D4DBDC" d="M33.533,118.551c0,0,1.194-0.392,1.458-0.749c0.162-0.228,0.452-0.674,0.551-1.083
			c0.06-0.273-0.154-0.696-0.358-0.894c-0.33-0.318-0.855-0.768-1.2-0.768c-0.536,0-1.038,0.128-1.038,0.128l-0.175,2.269
			L33.533,118.551z"/>
		<path fill="#A3B0B9" d="M33.771,118.313c0,0,1.456-1.313,1.22-1.878c-0.237-0.566-1.131-0.787-1.131-0.787l-0.565-0.109
			l-0.353,1.702L33.771,118.313z"/>
		<path fill="#F68B3B" d="M39.266,119.091c-1.908,1.147-5.884,3.508-7.001,3.851c-1.125,0.347-2.229-0.363-2.696-0.736
			c-0.149-0.117-0.236-0.304-0.231-0.493l0.002-0.423l0.005-0.185c-0.07-1.266,0.208-2.063,0.423-2.479
			c0.12,1.185,2.596,1.355,3.505,0.953c1.722-0.766,4.584-2.006,5.543-2.569c0.079-0.047,0.154-0.099,0.221-0.148
			C39.276,117.492,39.428,118.283,39.266,119.091z"/>
		<path fill="#F7F8EF" d="M40.073,115.38c-0.165,0.396-0.502,1.062-1.04,1.479c-0.104-0.269-0.226-0.508-0.35-0.711
			c-0.332-0.541-1.05-0.655-1.459-0.675l0.891-0.438C38.968,114.776,39.632,114.992,40.073,115.38z"/>
		<path fill="#A3B0B9" d="M40.559,117.455c-0.053,0.271-0.115,0.524-0.172,0.711c-0.053,0.189-0.178,0.354-0.344,0.456
			c-1.226,0.745-6.471,3.912-7.778,4.317c-1.125,0.347-2.229-0.363-2.696-0.736c-0.149-0.117-0.236-0.304-0.231-0.493l0.002-0.423
			c0.483,0.468,1.549,1.186,2.422,1.009c0.98-0.19,3.719-1.624,3.719-1.624S39.471,118.51,40.559,117.455z"/>
		<path fill="#F7F8EF" d="M30.761,119.578c0,0-0.493,1.312-0.368,2.453c0,0-0.779-0.219-0.802-0.523
			c-0.032-0.475-0.104-1.561,0.377-2.416C29.969,119.091,30.28,119.369,30.761,119.578z"/>
	</g>
	<path fill="#FDD5BE" d="M30.102,116.892c0,0,0.13,0.425,0,1.593c-0.053,0.503,1.247,0.896,1.968,0.786
		c0.723-0.104,1.701-0.784,1.701-0.958s-0.141-0.663-0.027-1.622C33.85,115.732,30.102,116.892,30.102,116.892z"/>
	<path fill="#4B6B6A" d="M36.52,92.271c-0.043,0.263-0.127,0.613-0.229,1.021c-0.392,1.507-1.063,3.784-1.063,5.091
		c0,1.657-0.831,17.639-0.831,17.639v0.878c0,0.209-0.087,0.408-0.243,0.552c-0.207,0.185-0.538,0.439-0.956,0.61
		c-0.289,0.118-0.623,0.201-0.979,0.188c-1.271-0.046-2.75-0.96-2.883-1.183c-0.135-0.217-0.438-9.124-0.523-9.69
		c-0.084-0.546-2.289-9.125-0.295-14.992c0.088-0.263,0.186-0.52,0.295-0.771c1.399-3.288,3.66-3.732,5.375-3.493
		c1.336,0.188,2.336,0.794,2.336,0.794S36.719,91.048,36.52,92.271z"/>
	<path fill="#D4DBDC" d="M34.991,117.802c0,0-0.895,1.025-2.224,1.289c-0.337,0.068,0.931-0.682,1.213-0.978
		C34.264,117.819,34.991,117.802,34.991,117.802z"/>
	<path opacity="0.3" fill="#6B89C1" enable-background="new    " d="M36.323,93.227c-0.008,0.021-0.021,0.045-0.031,0.065
		c-0.392,1.507-1.063,3.784-1.063,5.091c0,1.657-0.831,17.639-0.831,17.639v0.878c0,0.209-0.087,0.408-0.243,0.552
		c-0.207,0.185-0.538,0.439-0.956,0.61c1.261-4.05,0.574-21.451,0.574-21.451c0.177-0.688,0.305-1.438,0.396-2.227
		c0.223-1.972,0.851-3.994,0.851-6.086c0-2.458-0.514-4.421-0.827-7.261c-0.198-1.854-5.884-4.354-5.334-4.208
		c4.146,1.11,4.344-0.982,4.344-0.982c3.818,0.297,5.219-5.962,5.219-5.962l0.439,1.154C38.924,77.665,36.677,92.353,36.323,93.227z
		"/>
	<g>
		<path fill="#FEC047" d="M49.808,121.953c-0.053,0.273-0.116,0.524-0.169,0.708c-0.055,0.191-0.179,0.354-0.348,0.457
			c-0.18,0.106-0.445,0.271-0.779,0.47c-1.901,1.146-5.884,3.504-7.001,3.849c-1.124,0.351-2.228-0.363-2.694-0.734
			c-0.147-0.112-0.238-0.301-0.229-0.494l0.003-0.424v-0.18c-0.066-1.269,0.209-2.066,0.427-2.482
			c0.125-0.24,0.231-0.354,0.231-0.354l3.035-0.648l0.346-0.072l1.143-0.661l1.039-0.604l1.36-0.662
			c0.061-0.028,0.305-0.148,0.305-0.148l0.89-0.435c0.856-0.265,1.521-0.04,1.959,0.346c0.226,0.196,0.389,0.438,0.486,0.684
			C49.957,120.902,49.903,121.458,49.808,121.953z"/>
		<path fill="#F7F8EF" d="M47.344,121.079c-0.13,0.128-4.246,2.103-4.246,2.103l0.672-1.528l1.039-0.604l1.36-0.659
			C46.591,120.388,47.472,120.948,47.344,121.079z"/>
		<path fill="#E4E9E6" d="M49.808,121.953c-0.053,0.273-0.116,0.524-0.169,0.708c-0.055,0.191-0.179,0.354-0.348,0.457
			c-0.18,0.106-0.445,0.271-0.779,0.47c0.167-0.807,0.015-1.6-0.231-2.233c0.541-0.416,0.873-1.082,1.041-1.475
			c0.226,0.196,0.389,0.438,0.486,0.684C49.957,120.902,49.903,121.458,49.808,121.953z"/>
		<path fill="#D4DBDC" d="M42.779,123.047c0,0,1.195-0.387,1.463-0.752c0.163-0.226,0.448-0.669,0.545-1.08
			c0.063-0.272-0.151-0.695-0.354-0.891c-0.334-0.322-0.86-0.771-1.202-0.771c-0.538,0-1.038,0.131-1.038,0.131l-0.175,2.269
			L42.779,123.047z"/>
		<path fill="#A3B0B9" d="M43.02,122.809c0,0,1.454-1.313,1.222-1.88c-0.237-0.563-1.136-0.787-1.136-0.787l-0.563-0.105
			l-0.354,1.697L43.02,122.809z"/>
		<path fill="#F68B3B" d="M48.512,123.587c-1.901,1.146-5.884,3.504-7.001,3.849c-1.124,0.351-2.228-0.365-2.694-0.734
			c-0.147-0.112-0.238-0.301-0.229-0.494l0.003-0.424v-0.18c-0.066-1.269,0.209-2.066,0.427-2.482
			c0.121,1.183,2.595,1.356,3.506,0.958c1.722-0.769,4.584-2.015,5.547-2.571c0.073-0.047,0.146-0.099,0.214-0.151
			C48.527,121.988,48.679,122.781,48.512,123.587z"/>
		<path fill="#F7F8EF" d="M49.322,119.879c-0.168,0.393-0.5,1.059-1.041,1.475c-0.103-0.266-0.225-0.509-0.35-0.711
			c-0.329-0.538-1.048-0.652-1.458-0.675l0.89-0.435C48.219,119.271,48.882,119.494,49.322,119.879z"/>
		<path fill="#A3B0B9" d="M49.808,121.953c-0.053,0.273-0.116,0.524-0.169,0.708c-0.055,0.191-0.179,0.354-0.348,0.457
			c-1.227,0.742-6.471,3.915-7.78,4.315c-1.124,0.351-2.228-0.365-2.694-0.734c-0.147-0.112-0.238-0.301-0.229-0.494l0.003-0.424
			c0.48,0.468,1.547,1.189,2.424,1.013c0.979-0.195,3.714-1.626,3.714-1.626S48.721,123.003,49.808,121.953z"/>
		<path fill="#F7F8EF" d="M40.011,124.077c0,0-0.495,1.307-0.368,2.446c0,0-0.779-0.215-0.802-0.518
			c-0.034-0.479-0.104-1.565,0.375-2.421C39.217,123.587,39.526,123.868,40.011,124.077z"/>
	</g>
	<path fill="#FDD5BE" d="M39.353,121.389c0,0,0.127,0.425,0,1.593c-0.06,0.502,1.243,0.897,1.965,0.79
		c0.726-0.112,1.702-0.79,1.702-0.963c0-0.176-0.139-0.661-0.03-1.621C43.102,120.226,39.353,121.389,39.353,121.389z"/>
	<path fill="#4B6B6A" d="M45.886,93.125c-0.111,1.068-0.199,1.774-0.245,1.957c-0.086,0.334-0.745,0.84-1.651,1.297
		c-1.944,0.979-5.021,1.715-5.858-0.072c-0.024-0.055-0.053-0.116-0.077-0.182c-1.211-3.005-2.715-15.978-2.715-15.978
		c-3.581-3.229-2.229-10.264-2.229-10.264L44.299,70.7l1.849,0.137C47.425,74.335,46.42,87.956,45.886,93.125z"/>
	<path fill="#4B6B6A" d="M45.886,96.48c-0.202,1.225-1.294,4.453-1.294,6.112c0,1.658-0.83,17.64-0.83,17.64v0.896
		c0,0.198-0.084,0.385-0.229,0.519c-0.141,0.125-0.338,0.271-0.583,0.397c-0.365,0.2-0.837,0.368-1.365,0.414
		c-1.729,0.151-2.756-0.961-2.884-1.178c-0.134-0.219-0.438-9.124-0.524-9.692c-0.084-0.563-2.407-9.597-0.122-15.463
		c0.039-0.103,0.084-0.203,0.122-0.299c1.699-3.996,4.674-3.795,6.389-3.268c0.796,0.247,1.324,0.563,1.324,0.563
		C45.893,93.212,46.084,95.283,45.886,96.48z"/>
	<path fill="#D4DBDC" d="M44.242,122.295c0,0-0.893,1.022-2.227,1.292c-0.338,0.069,0.928-0.682,1.213-0.979
		C43.514,122.315,44.242,122.295,44.242,122.295z"/>
	<path opacity="0.3" fill="#6B89C1" enable-background="new    " d="M45.886,93.125c0.007,0.087,0.196,2.157,0,3.354
		c-0.202,1.225-1.294,4.453-1.294,6.112c0,1.658-0.83,17.64-0.83,17.64v0.896c0,0.198-0.084,0.384-0.229,0.519
		c-0.141,0.125-0.338,0.271-0.583,0.397c-0.271-0.565-0.673-9.979-0.474-15.805c0.175-5.242,0.723-6.832,1.514-9.86
		c0.094-0.342,0.185-0.695,0.274-1.079c0.146-0.586,0.241-1.54,0.298-2.738c0.313-6.557-0.516-20.349-0.516-20.349
		s0.1-0.653,0.248-1.51l1.849,0.137C47.425,74.335,46.42,87.956,45.886,93.125L45.886,93.125z"/>
	<path fill="#E79F7A" d="M39.898,40.148c0,0,0.627-1.195,4.287-2.352c0,0,4.846,0.428,5.262,1.247
		c0.415,0.823-1.923,1.702-2.27,1.625c-0.351-0.084-3.149,0.046-3.949,0.574c-0.799,0.525-0.184,0.857-0.184,0.857
		s-2.069,0.758-2.688,1.039c-0.614,0.274-1.822,1.311-1.822,1.311s-3.304,0.055-2.104-1.043
		C37.623,42.307,39.898,40.148,39.898,40.148z"/>
	<path fill="#E79F7A" d="M61.644,42.618l-1.901,1.467c0,0-0.632,2.531-0.589,2.705c0.041,0.175,0.414,0.679,0.854,0.522
		c0.438-0.152,2.706-1.05,2.752-1.481c0.043-0.438-0.282-2.294-0.354-2.381C62.344,43.362,61.644,42.618,61.644,42.618z"/>
	<path fill="#FCC39F" d="M39.901,40.089c0,0,1.649-1.499,4.968-1.731c1.115-0.08,2.168,0.043,2.387,0.189
		c0.216,0.146-0.03,1.212-0.974,1.253c-0.938,0.04-1.311-0.271-1.509-0.021c-0.201,0.246-0.331,0.434-0.55,0.729
		c-0.222,0.293-0.369,0.926-0.404,0.968c-0.038,0.043-0.563,0.646-0.771,0.627c-0.213-0.016-3.146-1.955-3.146-1.955V40.089z"/>
	<path fill="#FCC39F" d="M64.122,47.542c-0.046,0.459-1.519,1.604-1.995,1.999c-0.481,0.394-0.983,0.063-1.626,0.35
		c-0.383,0.167-1.08,1.073-1.592,1.79c-0.348,0.493-0.605,0.896-0.605,0.896l-1.593-2.687c0,0,0.354-0.403,0.733-0.919
		c0.397-0.548,0.813-1.209,0.836-1.637c0.041-0.828,0.646-3.666,0.784-4.018c0.138-0.35,1.531-1.441,1.985-1.569
		c0.461-0.131,0.374,0.72,0,1.329c-0.37,0.61-0.807,0.592-0.807,1.008c0,0.411,0.163,1.108,0.255,1.332
		c0.086,0.216,1.229-0.224,1.427-0.831c0.199-0.611-0.237-1.727-0.237-1.727l-0.045-0.241c0,0,1.245,0.154,1.792,1.354
		c0.232,0.525,0.232,0.525,0.325,1.198c0.039,0.314,0.352,0.264,0.352,1.158C64.113,46.676,64.162,47.086,64.122,47.542z"/>
	<g>
		<path fill="#EF4747" d="M26.283,42.562c0.053-1.804,0.568-3.563,1.565-5.063c0.396-0.592,0.859-1.14,1.384-1.501
			c1.84-1.279,4.416,0.15,4.577,0.443c0.16,0.289,0.191-0.817-0.138,3.242c-0.329,4.063-1.771,12.713-1.838,12.875
			c-0.067,0.162-1.211,4.028-3.018,4.289c-1.802,0.258-3.753-0.16-3.12-5.65C26.093,47.738,26.235,44.492,26.283,42.562z"/>
		<path fill="#EF4747" d="M26.918,51.976c0,0,4.224-2.966,6.813-3.973c4.396-1.705,6.12-2.888,6.502-3.017
			c0.383-0.126,2.462,2.183,0.689,4.568c0,0-2.895,2.125-3.82,2.786c-0.925,0.66-7.841,6.082-9.864,4.441
			c-2.02-1.639-0.389-4.646-0.389-4.646L26.918,51.976z"/>
	</g>
	<path fill="#E73D34" d="M45.226,64.941c0.063,0.561,0.917,5.897,0.917,5.897s-1.018,0.914-2.097,1.373
		c-0.396,0.169-1.507,0.236-2.942,0.142c-2.479-0.158-5.911-0.791-8.255-2.204c-2.072-1.246-3.499-2.306-4.351-3.002
		c-0.62-0.499-0.931-1.282-0.816-2.077c0.301-2.215,0.918-2.938,1.149-3.783c0.505-1.848-1.881-11.76-1.554-20.186
		c0.038-0.972,1.376-4.977,3.11-5.564c1.735-0.591,2.815-0.261,2.815-0.261l3.309,0.688c0,0,3.018,1.454,4.813,2.521
		c2.426,1.438,4.842,3.479,4.842,3.479s0.229,1.13,0.374,2.805c0.18,2.101,0.228,5.042-0.461,7.665
		C44.832,57.15,45.162,64.385,45.226,64.941z"/>
	<path fill="#EF4747" d="M39.885,39.355c-0.854,0.459-1.833,0.754-3.714,0.492c-1.887-0.264-3.182-1.755-2.938-2.688
		c0.134-0.529,0.399-0.634,0.802-0.904c-0.018,0.3-0.033,0.573-0.067,0.79c-0.015,0.104-0.029,0.197-0.05,0.271
		c-0.193,0.785,1.813,1.858,2.599,1.915c1.479,0.104,2.292-0.174,2.895-0.445c0.303-0.139,0.491-0.435,0.498-0.765
		c0-0.118,0.012-0.255,0.014-0.401l0.295,0.182c0.45,0.269,0.339,0.152,0.383,0.38C40.665,38.506,40.393,39.078,39.885,39.355z"/>
	<path opacity="0.3" fill="#E79F7A" enable-background="new    " d="M39.908,38.019c-0.007,0.33-0.195,0.626-0.498,0.765
		c-0.603,0.271-1.415,0.552-2.895,0.445c-0.786-0.057-2.792-1.13-2.599-1.915c0.014-0.046,0.021-0.1,0.028-0.155
		c0.003,0,0.948,1.64,2.74,1.795C38.481,39.105,39.655,38.468,39.908,38.019z"/>
	<path opacity="0.3" fill="#E79F7A" enable-background="new    " d="M45.226,64.941c0.063,0.561,0.917,5.897,0.917,5.897
		s-1.018,0.914-2.097,1.373c-0.396,0.169-1.507,0.236-2.942,0.142c2.529-1.991,1.702-8.063,1.729-10.72
		c0.029-3.078-1.035-11.264-1.035-11.264l4.743-5.604c0.18,2.101,0.228,5.042-0.461,7.665C44.832,57.15,45.162,64.385,45.226,64.941
		z"/>
	<path opacity="0.3" fill="#E79F7A" enable-background="new    " d="M58.911,51.679c-0.348,0.493-0.605,0.896-0.605,0.896
		l-1.593-2.687c0,0,0.132-0.104,0.509-0.619c0.002-0.002,0.103-0.14,0.103-0.14s0.611-0.019,1.052,0.747
		C58.804,50.639,59.058,51.046,58.911,51.679z"/>
	<path fill="#EF4747" d="M58.654,53.032c0,0-1.878,3.059-2.488,4.019c-0.611,0.962-4.979,8.59-7.469,7.832
		c-2.484-0.771-2.11-4.165-2.11-4.165v-0.173c0,0,1.354-2.098,2.854-4.014c0.345-0.438,0.692-0.863,1.035-1.254
		c0.301-0.346,0.601-0.661,0.882-0.929c3.479-3.283,4.634-5.026,4.94-5.289C56.601,48.798,59.395,50.15,58.654,53.032z"/>
	<path opacity="0.3" fill="#E79F7A" enable-background="new    " d="M51.36,61.5c-0.037,0.016-0.055,0.063-0.087,0.091
		c-1.826,1.827-0.838-6.485-0.8-6.313c0.301-0.346,0.146-0.212,0.428-0.479C51.293,55.704,52.499,61.046,51.36,61.5z"/>
	<path fill="#EF4747" d="M51.36,61.5c-0.096,1.146-0.392,2.382-1.182,2.843c-0.471,0.273-0.978,0.499-1.495,0.533
		c-1.215,0.082-2.483-0.869-3.525-4.594c-1.483-5.328-3.359-9.913-3.359-9.913s-0.308-3.625,0.918-5.502
		c1.223-1.875,3.121-3.178,3.38-2.967c0.259,0.208,0.896,0.826,2.122,4.716c0.643,2.052,1.48,5.407,2.134,8.143
		c0.041,0.178,0.084,0.348,0.122,0.521c0.518,2.191,0.887,3.877,0.887,3.952C51.36,59.323,51.461,60.363,51.36,61.5z"/>
	<path fill="#FCBA7D" d="M35.676,27.835c0.061,1.084,0.118,2.175,0.365,3.23c0.242,1.059,0.686,2.093,1.42,2.893
		c0.831,0.896,2.02,1.436,3.232,1.503c0.389,0.021,0.769,0,1.146-0.075s0.749-0.196,1.057-0.422
		c0.483-0.354,0.756-0.905,0.953-1.479V33.48c0.042-0.129,0.08-0.257,0.119-0.383c0.854-2.946,0.99-6.063,0.797-9.121
		c-0.029-0.454-0.067-0.915-0.209-1.346c-0.422-1.28-1.731-2.126-3.066-2.294c-1.341-0.165-2.688,0.242-3.903,0.814
		c-0.334,0.158-0.668,0.332-0.938,0.593c-0.254,0.24-0.436,0.552-0.67,0.816C35.689,22.888,35.59,26.207,35.676,27.835z"/>
	<path fill="#FDCFA2" d="M42.88,35.656c0-0.018,0-0.032,0-0.049V35.656z"/>
	<path fill="#FCBA7D" d="M40.882,29.443h-6.647c0,0.031-0.013,8.086,0.021,8.086c0.087,0.389,0.391,0.764,0.935,1.059
		c1.309,0.707,3.416,0.707,4.716,0c0.546-0.295,0.853-0.67,0.938-1.059C40.905,37.529,40.882,29.502,40.882,29.443z"/>
	<path fill="#1D1D1B" d="M45.959,25.997c1.193-2.396-0.075-6.961-7.822-6.955c-4.916,0.004-11.414,5.972-5.529,15.549
		c1.999,3.247,6.937,2.801,11.674,0.663c-2.265-1.739-2.361-7.041-1.402-9.362C43.228,25.027,44.865,23.312,45.959,25.997z"/>
	<path fill="#FCBA7D" d="M42.216,31.857c0.286-0.071,0.397-0.375,0.454-0.629c0.168-0.785,0.18-1.597,0.041-2.388
		c-0.041-0.235-0.103-0.479-0.266-0.676c-0.16-0.196-0.445-0.33-0.716-0.266c-0.301,0.078-0.457,0.363-0.546,0.628
		c-0.304,0.913-0.227,1.915,0.207,2.784c0.074,0.152,0.163,0.3,0.302,0.41C41.837,31.834,42.031,31.902,42.216,31.857z"/>
	<path fill="#1D1D1B" d="M44.423,22.316c0.641,0.921,0.938,2.069,0.833,3.188c-0.432-1.008-1.222-1.854-2.193-2.353
		C43.514,22.874,43.968,22.596,44.423,22.316z"/>
</g>
<g>
	<circle fill="#414042" cx="65.7" cy="138.581" r="15.949"/>
	<g>
		<ellipse fill="#FFFFFF" cx="64.784" cy="137.719" rx="14.146" ry="14.356"/>
		<rect x="64.204" y="124.55" fill="#BCBEC0" width="1.161" height="2.656"/>
		<rect x="64.204" y="148.41" fill="#BCBEC0" width="1.161" height="2.654"/>
		<rect x="51.526" y="137.139" fill="#BCBEC0" width="2.656" height="1.16"/>
		<rect x="75.385" y="137.139" fill="#BCBEC0" width="2.656" height="1.16"/>
	</g>
	<circle fill="#BCBEC0" cx="64.785" cy="137.72" r="0.89"/>
	<g>
		<polygon fill="#BCBEC0" points="64.469,138.473 60.006,128.469 65.675,137.841 		"/>
		<polygon fill="#BCBEC0" points="64.371,137.14 71.477,134.36 65.139,138.61 		"/>
	</g>
</g>
<g>
	<path fill="#B3B3B3" d="M15.739,12.086c1.203,1.007,1.805,2.355,1.805,4.045c0,1.093-0.273,2.087-0.82,2.983
		c-0.546,0.896-1.378,1.613-2.496,2.15c-1.118,0.538-2.497,0.807-4.135,0.807c-1.264,0-2.505-0.167-3.726-0.499
		c-1.221-0.333-2.258-0.807-3.111-1.421l1.639-3.175c0.682,0.512,1.468,0.909,2.355,1.19c0.887,0.282,1.801,0.423,2.74,0.423
		c1.041,0,1.86-0.205,2.458-0.615c0.597-0.41,0.896-0.981,0.896-1.715c0-0.769-0.312-1.349-0.935-1.741s-1.703-0.589-3.239-0.589
		H4.588L5.51,3.841h10.934V7.17H8.966l-0.281,3.405h1.459C12.67,10.575,14.535,11.079,15.739,12.086z"/>
	<path fill="#B3B3B3" d="M19.823,21.252c-0.478-0.478-0.717-1.075-0.717-1.792c0-0.733,0.239-1.327,0.717-1.779
		c0.478-0.452,1.067-0.679,1.767-0.679c0.7,0,1.289,0.227,1.767,0.679c0.478,0.453,0.717,1.046,0.717,1.779
		c0,0.717-0.239,1.315-0.717,1.792c-0.478,0.478-1.067,0.717-1.767,0.717C20.889,21.969,20.301,21.73,19.823,21.252z"/>
</g>
</svg>
