<?xml version="1.0" encoding="utf-8"?>
<!-- Generator: Adobe Illustrator 16.0.3, SVG Export Plug-In . SVG Version: 6.00 Build 0)  -->
<!DOCTYPE svg PUBLIC "-//W3C//DTD SVG 1.1//EN" "http://www.w3.org/Graphics/SVG/1.1/DTD/svg11.dtd">
<svg version="1.1" id="Layer_1" xmlns="http://www.w3.org/2000/svg" xmlns:xlink="http://www.w3.org/1999/xlink" x="0px" y="0px"
	 width="174.059px" height="174.059px" viewBox="0 0 174.059 174.059" enable-background="new 0 0 174.059 174.059"
	 xml:space="preserve">
<rect x="0.055" y="0" fill="#FFFFFF" width="174.058" height="174.06"/>
<path fill="#E6E7E8" d="M0.546,103.023c1.884,0.164,3.792,0.243,5.726,0.23c30.986-0.183,55.973-23.43,55.805-51.925
	C61.909,22.833,36.654-0.12,5.667,0.061c-1.935,0.013-3.84,0.11-5.724,0.301L0.546,103.023z"/>
<path fill="#D1D3D4" d="M118.234,59.795c0,24.914-20.195,45.111-45.113,45.111c-24.912,0-45.111-20.197-45.111-45.111
	c0-24.916,20.199-45.112,45.111-45.112C98.037,14.682,118.234,34.879,118.234,59.795z"/>
<g>
	<circle fill="#414042" cx="25.319" cy="55.112" r="15.949"/>
	<g>
		<ellipse fill="#FFFFFF" cx="24.403" cy="54.25" rx="14.149" ry="14.356"/>
		<rect x="23.823" y="41.082" fill="#BCBEC0" width="1.159" height="2.655"/>
		<rect x="23.823" y="64.941" fill="#BCBEC0" width="1.159" height="2.656"/>
		<rect x="11.145" y="53.67" fill="#BCBEC0" width="2.656" height="1.161"/>
		<rect x="35.004" y="53.67" fill="#BCBEC0" width="2.656" height="1.161"/>
	</g>
	<circle fill="#BCBEC0" cx="24.404" cy="54.251" r="0.89"/>
	<g>
		<polygon fill="#BCBEC0" points="24.088,55.004 19.625,45.001 25.294,54.373 		"/>
		<polygon fill="#BCBEC0" points="23.99,53.671 31.096,50.891 24.758,55.141 		"/>
	</g>
</g>
<g enable-background="new    ">
	<path fill="#414042" d="M51.175,46.012v12.6h-2.916v-10.26h-2.521v-2.34H51.175z"/>
	<path fill="#414042" d="M64.909,55.966h-2.053v2.646h-2.844v-2.646h-6.786v-1.962l5.94-7.991h3.06l-5.508,7.577h3.384v-2.357h2.754
		v2.357h2.053V55.966z"/>
	<path fill="#414042" d="M75.16,49.865c0.737,0.72,1.106,1.787,1.106,3.203v5.544h-2.808V53.5c0-0.769-0.168-1.341-0.504-1.719
		c-0.336-0.379-0.822-0.567-1.458-0.567c-0.708,0-1.272,0.22-1.692,0.657s-0.63,1.089-0.63,1.953v4.787h-2.808V45.256h2.808v4.681
		c0.372-0.372,0.822-0.656,1.35-0.854c0.528-0.197,1.104-0.297,1.729-0.297C73.453,48.784,74.422,49.144,75.16,49.865z"/>
	<path fill="#414042" d="M88.164,46.012v12.6h-2.916v-10.26h-2.521v-2.34H88.164z"/>
	<path fill="#414042" d="M92.971,58.054c-0.816-0.517-1.455-1.264-1.918-2.241c-0.461-0.979-0.692-2.145-0.692-3.501
		c0-1.355,0.231-2.522,0.692-3.501c0.463-0.979,1.102-1.726,1.918-2.241c0.815-0.516,1.746-0.773,2.789-0.773
		c1.045,0,1.975,0.259,2.791,0.773c0.815,0.517,1.454,1.264,1.916,2.241c0.463,0.979,0.693,2.146,0.693,3.501
		c0,1.356-0.23,2.522-0.693,3.501c-0.462,0.979-1.101,1.726-1.916,2.241c-0.816,0.516-1.746,0.773-2.791,0.773
		C94.717,58.828,93.786,58.57,92.971,58.054z M97.57,55.372c0.438-0.659,0.657-1.681,0.657-3.061s-0.219-2.399-0.657-3.061
		c-0.438-0.659-1.042-0.989-1.81-0.989c-0.756,0-1.353,0.33-1.791,0.989c-0.438,0.66-0.656,1.681-0.656,3.061s0.22,2.4,0.656,3.061
		c0.438,0.66,1.035,0.989,1.791,0.989C96.528,56.362,97.131,56.032,97.57,55.372z"/>
</g>
<g>
	<path fill="#FCBA7D" d="M136.201,45.399c-1.592-1.972-13.727-17.017-16.871-20.914c-3.143-3.896-5.412,0.038-2.908,3.597
		c2.502,3.555,14.256,20.252,14.256,20.252s-0.795-0.088-4.584-4.915c-2.203-2.808-6.072,1.167-4.654,3.234
		c3.527,5.146,3.379,5.989,3.379,5.989s-2.41-3.243-4.574-5.927c-2.162-2.682-5.207,1.438-4.068,2.598
		c3.771,4.845,4.699,6.928,4.699,6.928s-2.291-2.579-4.422-5.222c-2.127-2.639-5.129,2.132-2.287,5.652
		c2.838,3.521,8.65,10.729,13.186,16.347c4.527,5.615,11.332,6.075,11.332,6.075l2.18,7.266l16.77-4.509l-5.732-13.01
		c0,0,0.813-5.806-0.564-10.604c-1.379-4.795-3.941-16.204-4.641-20.209c-0.695-4.003-6.025-2.278-5.479,0.975
		c0.549,3.258,1.098,6.272,1.256,7.442C142.627,47.62,137.789,47.369,136.201,45.399z"/>
	<path fill="#001A33" d="M109.352,26.105c0,0.682,0.746,1.232,1.67,1.232h0.313c0.922,0,1.67-0.553,1.67-1.232v-4.628
		c0-0.683-0.748-1.231-1.67-1.231h-0.313c-0.924,0-1.67,0.551-1.67,1.231V26.105z"/>
	<path fill="#001A33" d="M109.352,34.556c0,0.684,0.746,1.231,1.67,1.231h0.313c0.922,0,1.67-0.551,1.67-1.231V29.93
		c0-0.681-0.748-1.235-1.67-1.235h-0.313c-0.924,0-1.67,0.557-1.67,1.235V34.556z"/>
	<path fill="#013B5A" d="M110.498,71.527c0,0.924,0.701,1.669,1.566,1.669h27.229c0.865,0,1.566-0.745,1.566-1.669V15.393
		c0-0.924-0.701-1.671-1.566-1.671h-27.229c-0.865,0-1.566,0.747-1.566,1.671V71.527z"/>
	<rect x="111.488" y="18.052" fill="#00AEEF" width="28.383" height="48.831"/>
	<rect x="121.141" y="13.722" fill="#001A33" width="9.076" height="2.141"/>
	<rect x="122.811" y="67.823" fill="#001A33" width="6.99" height="3.859"/>
	<path fill="#FCBA7D" d="M110.299,102.536c-3.072,3.934-8.252,6.682-8.252,6.682l-0.752,6.235H86.328l-4.528-1.229l4.188-9.688
		c0,0-3.619-5.78-1.732-12.742c1.889-6.964,4.313-15.903,5.495-20.27c1.182-4.366,6.809-4.737,5.92-1.464
		c-0.885,3.274-1.631,6.646-1.631,6.646s1.141-1.979,2.85-7.874c0.27-1.601,5.391-1.557,4.49,1.771
		c-0.902,3.323-2.113,7.186-2.113,7.186s0.773-0.379,2.867-6.255c0.844-2.36,6.332-1.563,5.354,1.868
		c-1.684,5.903-1.285,6.601-1.285,6.601s6.613-19.318,8.023-23.435c1.408-4.115,5.928-4.586,4.619,0.248
		c-1.313,4.832-6.367,23.489-7.031,25.935c-0.662,2.441,1.977,6.503,2.834,5.688c0.854-0.815,2.977-3.032,5.285-5.386
		c2.313-2.354,6.836,0.947,4.004,3.861C121.107,89.833,113.373,98.605,110.299,102.536z"/>
	<polygon fill="#BE1E2D" points="79.069,115.453 80.738,107.266 103.32,114.157 103.361,115.453 	"/>
	<polygon fill="#BE1E2D" points="143.771,115.453 137.814,82.496 154.828,69.752 170.234,115.453 	"/>
	<path fill="#FFFFFF" d="M138.086,41.096c0,1.305-1.061,2.361-2.363,2.361h-20.088c-1.305,0-2.361-1.059-2.361-2.361v-5.113
		c0-1.306,1.059-2.361,2.361-2.361h20.088c1.305,0,2.363,1.059,2.363,2.361V41.096z"/>
	<g enable-background="new    ">
		<path d="M117.115,35.135l-1.037,2.342h-0.244l-1.037-2.342h0.268l0.896,2.034l0.904-2.034H117.115z"/>
		<path d="M117.531,37.379c-0.137-0.077-0.243-0.185-0.321-0.319c-0.078-0.137-0.117-0.29-0.117-0.462s0.039-0.326,0.117-0.462
			s0.186-0.242,0.321-0.317s0.288-0.113,0.458-0.113s0.322,0.038,0.458,0.113c0.138,0.075,0.242,0.183,0.32,0.317
			c0.076,0.136,0.115,0.29,0.115,0.462s-0.039,0.325-0.115,0.462c-0.078,0.136-0.184,0.242-0.32,0.319
			c-0.136,0.077-0.288,0.115-0.458,0.115C117.82,37.494,117.666,37.456,117.531,37.379z M118.325,37.198
			c0.1-0.058,0.177-0.139,0.232-0.242c0.055-0.105,0.083-0.226,0.083-0.358s-0.028-0.253-0.083-0.357
			c-0.057-0.104-0.134-0.187-0.232-0.242c-0.1-0.058-0.213-0.085-0.337-0.085c-0.125,0-0.236,0.027-0.337,0.085
			c-0.099,0.057-0.177,0.138-0.233,0.242c-0.058,0.104-0.084,0.225-0.084,0.357s0.026,0.253,0.084,0.358
			c0.058,0.104,0.136,0.186,0.233,0.242c0.101,0.057,0.212,0.085,0.337,0.085S118.227,37.255,118.325,37.198z"/>
		<path d="M120.953,35.718v1.76h-0.228v-0.32c-0.063,0.106-0.147,0.189-0.258,0.249c-0.109,0.06-0.234,0.089-0.375,0.089
			c-0.229,0-0.41-0.064-0.543-0.192s-0.199-0.316-0.199-0.563v-1.021h0.237v0.997c0,0.185,0.046,0.325,0.138,0.422
			c0.091,0.096,0.221,0.145,0.392,0.145c0.186,0,0.332-0.058,0.438-0.17c0.106-0.111,0.161-0.27,0.161-0.471v-0.923L120.953,35.718
			L120.953,35.718z"/>
		<path d="M121.682,37.432c-0.131-0.041-0.231-0.094-0.307-0.156l0.106-0.187c0.073,0.058,0.166,0.104,0.277,0.142
			s0.228,0.057,0.348,0.057c0.161,0,0.279-0.025,0.357-0.075c0.076-0.051,0.115-0.121,0.115-0.213c0-0.064-0.021-0.115-0.064-0.152
			c-0.042-0.037-0.096-0.063-0.16-0.083c-0.063-0.02-0.149-0.038-0.258-0.056c-0.143-0.026-0.258-0.055-0.345-0.082
			c-0.087-0.028-0.161-0.075-0.223-0.144c-0.063-0.065-0.093-0.158-0.093-0.276c0-0.147,0.063-0.269,0.186-0.361
			c0.122-0.094,0.293-0.141,0.512-0.141c0.113,0,0.228,0.016,0.342,0.045c0.113,0.029,0.207,0.069,0.28,0.119l-0.104,0.189
			c-0.146-0.1-0.316-0.149-0.519-0.149c-0.152,0-0.266,0.026-0.344,0.079c-0.076,0.055-0.115,0.124-0.115,0.212
			c0,0.066,0.021,0.12,0.066,0.16c0.043,0.04,0.097,0.069,0.161,0.089s0.153,0.038,0.269,0.059c0.141,0.027,0.252,0.054,0.338,0.081
			c0.084,0.026,0.156,0.072,0.217,0.137c0.062,0.065,0.091,0.154,0.091,0.269c0,0.153-0.063,0.275-0.191,0.365
			c-0.129,0.092-0.308,0.137-0.533,0.137C121.948,37.494,121.812,37.473,121.682,37.432z"/>
		<path d="M125.277,35.877c0.122,0.114,0.186,0.284,0.186,0.51v1.091h-0.229v-0.273c-0.053,0.092-0.132,0.163-0.234,0.214
			c-0.104,0.052-0.229,0.077-0.37,0.077c-0.195,0-0.353-0.047-0.469-0.142c-0.115-0.094-0.175-0.217-0.175-0.371
			c0-0.148,0.056-0.27,0.162-0.36c0.109-0.092,0.281-0.139,0.519-0.139h0.559v-0.105c0-0.152-0.043-0.269-0.127-0.347
			c-0.085-0.079-0.209-0.118-0.371-0.118c-0.11,0-0.219,0.018-0.322,0.055c-0.102,0.037-0.188,0.088-0.264,0.152l-0.106-0.179
			c0.09-0.074,0.196-0.134,0.321-0.176c0.124-0.041,0.256-0.062,0.396-0.062C124.978,35.704,125.155,35.761,125.277,35.877z
			 M125.009,37.215c0.096-0.063,0.167-0.15,0.214-0.266v-0.288h-0.552c-0.302,0-0.452,0.104-0.452,0.313
			c0,0.104,0.039,0.185,0.117,0.242c0.078,0.06,0.188,0.089,0.328,0.089C124.798,37.306,124.912,37.276,125.009,37.215z"/>
		<path d="M127.552,35.718l-0.782,1.76h-0.245l-0.778-1.76h0.247l0.659,1.499l0.665-1.499H127.552z"/>
		<path d="M129.369,36.671h-1.474c0.015,0.184,0.084,0.331,0.211,0.443s0.287,0.169,0.481,0.169c0.108,0,0.21-0.021,0.302-0.06
			c0.091-0.039,0.17-0.096,0.236-0.172l0.135,0.153c-0.078,0.094-0.176,0.166-0.293,0.215s-0.246,0.073-0.387,0.073
			c-0.182,0-0.34-0.038-0.48-0.115c-0.139-0.077-0.248-0.185-0.326-0.319c-0.077-0.137-0.116-0.29-0.116-0.462
			s0.037-0.326,0.112-0.462c0.074-0.136,0.178-0.242,0.308-0.317c0.131-0.075,0.276-0.113,0.439-0.113s0.311,0.038,0.438,0.113
			c0.129,0.075,0.229,0.182,0.305,0.315c0.073,0.136,0.11,0.29,0.11,0.464L129.369,36.671z M128.092,36.07
			c-0.115,0.108-0.18,0.25-0.195,0.425h1.248c-0.016-0.175-0.081-0.315-0.194-0.425c-0.115-0.106-0.26-0.161-0.432-0.161
			C128.35,35.908,128.207,35.963,128.092,36.07z"/>
		<path d="M131.082,37.281v0.196h-1.434V37.32l1.107-1.401h-1.087v-0.2h1.392v0.157l-1.107,1.405H131.082z"/>
	</g>
	<g enable-background="new    ">
		<path d="M116.704,39.885v1.76h-0.229v-0.32c-0.063,0.106-0.147,0.189-0.258,0.249c-0.109,0.06-0.234,0.089-0.375,0.089
			c-0.229,0-0.41-0.064-0.543-0.192s-0.199-0.316-0.199-0.563v-1.021h0.238v0.997c0,0.185,0.045,0.325,0.137,0.422
			c0.092,0.096,0.223,0.145,0.392,0.145c0.186,0,0.332-0.058,0.438-0.169c0.106-0.112,0.16-0.271,0.16-0.472v-0.923L116.704,39.885
			L116.704,39.885z"/>
		<path d="M118.794,40.064c0.13,0.128,0.196,0.315,0.196,0.562v1.021h-0.238v-0.997c0-0.183-0.045-0.321-0.137-0.418
			c-0.093-0.096-0.224-0.145-0.393-0.145c-0.189,0-0.34,0.057-0.45,0.169c-0.109,0.113-0.166,0.269-0.166,0.467v0.924h-0.236v-1.76
			h0.228v0.324c0.064-0.106,0.154-0.19,0.271-0.249c0.114-0.061,0.248-0.089,0.399-0.089
			C118.489,39.872,118.664,39.936,118.794,40.064z"/>
		<path d="M123.227,40.062c0.127,0.128,0.189,0.314,0.189,0.563v1.021h-0.237v-0.997c0-0.183-0.044-0.321-0.132-0.418
			c-0.088-0.096-0.213-0.145-0.373-0.145c-0.184,0-0.327,0.057-0.432,0.169c-0.105,0.113-0.158,0.269-0.158,0.467v0.924h-0.237
			v-0.997c0-0.183-0.044-0.321-0.132-0.418c-0.088-0.096-0.214-0.145-0.377-0.145c-0.18,0-0.324,0.057-0.43,0.169
			c-0.105,0.113-0.158,0.269-0.158,0.467v0.924h-0.238v-1.76h0.229v0.321c0.063-0.107,0.148-0.189,0.261-0.248
			c0.11-0.059,0.24-0.087,0.385-0.087c0.147,0,0.275,0.03,0.383,0.094c0.109,0.063,0.189,0.155,0.243,0.277
			c0.065-0.115,0.157-0.206,0.279-0.272c0.122-0.064,0.261-0.099,0.417-0.099C122.928,39.872,123.102,39.935,123.227,40.062z"/>
		<path d="M125.602,40.839h-1.473c0.014,0.184,0.084,0.331,0.211,0.443s0.287,0.169,0.48,0.169c0.109,0,0.211-0.021,0.303-0.06
			c0.091-0.039,0.17-0.096,0.235-0.172l0.136,0.153c-0.078,0.094-0.177,0.166-0.293,0.215c-0.117,0.049-0.246,0.073-0.388,0.073
			c-0.181,0-0.34-0.038-0.479-0.115s-0.248-0.185-0.326-0.319c-0.078-0.137-0.117-0.29-0.117-0.462s0.038-0.326,0.113-0.462
			c0.074-0.136,0.177-0.242,0.307-0.317c0.131-0.075,0.277-0.113,0.44-0.113s0.31,0.038,0.438,0.113
			c0.129,0.075,0.23,0.182,0.306,0.315c0.072,0.136,0.109,0.29,0.109,0.464L125.602,40.839z M124.324,40.238
			c-0.115,0.108-0.181,0.25-0.195,0.425h1.248c-0.017-0.175-0.081-0.315-0.195-0.425c-0.115-0.106-0.259-0.161-0.431-0.161
			C124.582,40.076,124.44,40.131,124.324,40.238z"/>
		<path d="M126.152,41.6c-0.13-0.041-0.231-0.094-0.306-0.156l0.106-0.187c0.072,0.058,0.167,0.104,0.277,0.142
			c0.111,0.038,0.228,0.057,0.349,0.057c0.159,0,0.278-0.025,0.355-0.075c0.077-0.051,0.115-0.121,0.115-0.213
			c0-0.064-0.021-0.115-0.063-0.152s-0.096-0.063-0.159-0.083c-0.065-0.02-0.15-0.038-0.259-0.056
			c-0.143-0.026-0.258-0.054-0.346-0.082c-0.086-0.028-0.16-0.075-0.222-0.144c-0.063-0.065-0.093-0.158-0.093-0.276
			c0-0.147,0.063-0.269,0.185-0.361s0.294-0.141,0.513-0.141c0.113,0,0.228,0.016,0.341,0.045c0.114,0.03,0.207,0.069,0.28,0.119
			l-0.104,0.189c-0.146-0.1-0.317-0.149-0.519-0.149c-0.151,0-0.267,0.026-0.344,0.08c-0.076,0.054-0.115,0.123-0.115,0.211
			c0,0.066,0.021,0.12,0.065,0.16s0.097,0.069,0.162,0.089c0.063,0.02,0.152,0.038,0.268,0.059c0.142,0.027,0.253,0.054,0.338,0.081
			c0.085,0.026,0.157,0.072,0.218,0.137c0.062,0.065,0.091,0.154,0.091,0.269c0,0.153-0.064,0.275-0.191,0.365
			c-0.129,0.092-0.307,0.137-0.534,0.137C126.418,41.662,126.281,41.641,126.152,41.6z"/>
		<path d="M127.787,41.6c-0.131-0.041-0.232-0.094-0.308-0.156l0.107-0.187c0.074,0.058,0.166,0.104,0.277,0.142
			c0.111,0.037,0.229,0.057,0.349,0.057c0.161,0,0.279-0.025,0.355-0.075c0.076-0.051,0.115-0.121,0.115-0.213
			c0-0.064-0.021-0.115-0.063-0.152s-0.098-0.063-0.161-0.083c-0.064-0.02-0.15-0.038-0.258-0.056
			c-0.144-0.026-0.258-0.054-0.345-0.082c-0.088-0.028-0.162-0.075-0.223-0.144c-0.062-0.065-0.092-0.158-0.092-0.276
			c0-0.147,0.061-0.269,0.184-0.361s0.293-0.141,0.513-0.141c0.113,0,0.229,0.016,0.342,0.045c0.112,0.03,0.207,0.069,0.28,0.119
			l-0.104,0.189c-0.146-0.1-0.318-0.149-0.521-0.149c-0.15,0-0.266,0.026-0.343,0.08s-0.115,0.123-0.115,0.211
			c0,0.066,0.021,0.12,0.065,0.16c0.043,0.04,0.098,0.069,0.162,0.089c0.063,0.02,0.154,0.038,0.268,0.059
			c0.142,0.027,0.253,0.054,0.338,0.081c0.086,0.026,0.157,0.072,0.219,0.137c0.06,0.064,0.091,0.154,0.091,0.269
			c0,0.153-0.064,0.275-0.193,0.365c-0.128,0.092-0.306,0.137-0.533,0.137C128.055,41.662,127.918,41.641,127.787,41.6z"/>
		<path d="M130.506,40.045c0.123,0.114,0.184,0.284,0.184,0.51v1.091h-0.227v-0.273c-0.055,0.092-0.133,0.163-0.236,0.214
			c-0.104,0.052-0.227,0.077-0.369,0.077c-0.196,0-0.354-0.047-0.469-0.142c-0.116-0.094-0.174-0.217-0.174-0.371
			c0-0.148,0.054-0.27,0.162-0.36c0.106-0.092,0.28-0.139,0.517-0.139h0.56v-0.105c0-0.152-0.042-0.269-0.127-0.347
			c-0.085-0.079-0.208-0.118-0.372-0.118c-0.111,0-0.219,0.018-0.32,0.055c-0.104,0.037-0.191,0.088-0.265,0.152l-0.106-0.179
			c0.088-0.074,0.195-0.134,0.32-0.176c0.125-0.041,0.257-0.062,0.395-0.062C130.207,39.872,130.383,39.929,130.506,40.045z
			 M130.239,41.383c0.097-0.063,0.168-0.15,0.215-0.266v-0.288h-0.553c-0.301,0-0.45,0.104-0.45,0.313
			c0,0.104,0.037,0.185,0.115,0.242c0.078,0.06,0.188,0.089,0.328,0.089C130.028,41.474,130.143,41.444,130.239,41.383z"/>
		<path d="M132.973,39.885v1.546c0,0.299-0.074,0.521-0.22,0.664c-0.146,0.145-0.366,0.216-0.661,0.216
			c-0.162,0-0.317-0.023-0.463-0.071c-0.146-0.049-0.267-0.114-0.357-0.199l0.121-0.182c0.085,0.076,0.188,0.136,0.311,0.179
			c0.122,0.042,0.249,0.063,0.384,0.063c0.223,0,0.387-0.052,0.491-0.155c0.104-0.104,0.156-0.266,0.156-0.482v-0.226
			c-0.073,0.111-0.17,0.196-0.289,0.255c-0.118,0.059-0.252,0.087-0.396,0.087c-0.166,0-0.315-0.036-0.45-0.108
			c-0.136-0.072-0.241-0.174-0.316-0.305c-0.078-0.13-0.116-0.278-0.116-0.443s0.038-0.312,0.116-0.44
			c0.075-0.13,0.182-0.229,0.314-0.302c0.133-0.071,0.284-0.106,0.452-0.106c0.148,0,0.284,0.029,0.404,0.091
			c0.121,0.06,0.218,0.146,0.291,0.261v-0.338h0.228V39.885z M132.416,41.286c0.104-0.056,0.183-0.131,0.24-0.229
			c0.057-0.098,0.085-0.21,0.085-0.335s-0.028-0.235-0.085-0.333c-0.059-0.097-0.138-0.173-0.238-0.228
			c-0.103-0.055-0.217-0.081-0.347-0.081c-0.127,0-0.241,0.025-0.344,0.08c-0.102,0.054-0.18,0.129-0.236,0.228
			c-0.058,0.098-0.085,0.209-0.085,0.334s0.027,0.237,0.085,0.335c0.058,0.1,0.136,0.175,0.236,0.229
			c0.102,0.054,0.217,0.082,0.344,0.082C132.199,41.368,132.315,41.341,132.416,41.286z"/>
		<path d="M135.17,40.839h-1.474c0.015,0.184,0.084,0.331,0.212,0.443c0.127,0.112,0.287,0.169,0.481,0.169
			c0.109,0,0.209-0.021,0.301-0.06c0.093-0.039,0.17-0.096,0.237-0.172l0.134,0.153c-0.078,0.094-0.176,0.166-0.293,0.215
			s-0.246,0.073-0.387,0.073c-0.18,0-0.34-0.038-0.479-0.115c-0.139-0.077-0.248-0.185-0.325-0.319
			c-0.078-0.137-0.117-0.29-0.117-0.462s0.038-0.326,0.111-0.462c0.074-0.136,0.179-0.242,0.309-0.317s0.276-0.113,0.439-0.113
			c0.162,0,0.31,0.038,0.438,0.113c0.13,0.075,0.23,0.182,0.305,0.315c0.074,0.136,0.111,0.29,0.111,0.464L135.17,40.839z
			 M133.894,40.238c-0.115,0.108-0.181,0.25-0.195,0.425h1.247c-0.016-0.175-0.079-0.315-0.194-0.425
			c-0.115-0.106-0.258-0.161-0.431-0.161C134.151,40.076,134.008,40.131,133.894,40.238z"/>
	</g>
</g>
<g>
	<path fill="#B3B3B3" d="M18.031,3.841V6.53l-6.657,15.235H6.866L13.294,7.22h-5.94v2.919H3.666V3.841H18.031z"/>
	<path fill="#B3B3B3" d="M19.208,21.252c-0.478-0.478-0.717-1.075-0.717-1.792c0-0.733,0.239-1.327,0.717-1.779
		c0.478-0.452,1.067-0.679,1.767-0.679c0.7,0,1.289,0.227,1.767,0.679c0.478,0.453,0.717,1.046,0.717,1.779
		c0,0.717-0.239,1.315-0.717,1.792c-0.478,0.478-1.067,0.717-1.767,0.717C20.275,21.969,19.686,21.73,19.208,21.252z"/>
</g>
</svg>
