<?xml version="1.0" encoding="utf-8"?>
<!-- Generator: Adobe Illustrator 16.0.3, SVG Export Plug-In . SVG Version: 6.00 Build 0)  -->
<!DOCTYPE svg PUBLIC "-//W3C//DTD SVG 1.1//EN" "http://www.w3.org/Graphics/SVG/1.1/DTD/svg11.dtd">
<svg version="1.1" id="Layer_1" xmlns="http://www.w3.org/2000/svg" xmlns:xlink="http://www.w3.org/1999/xlink" x="0px" y="0px"
	 width="174.059px" height="174.059px" viewBox="0 0 174.059 174.059" enable-background="new 0 0 174.059 174.059"
	 xml:space="preserve">
<rect x="0" y="0" fill="#FFFFFF" width="174.059" height="174.059"/>
<path fill="#E6E7E8" d="M40.063,0.031c-0.229,1.883-0.346,3.792-0.346,5.725c0,30.986,30.074,56.104,67.171,56.104
	s67.171-25.117,67.171-56.104c0-1.933-0.117-3.842-0.346-5.725H40.063z"/>
<circle fill="#D1D3D4" cx="86.069" cy="52.128" r="47.525"/>
<g enable-background="new    ">
	<path fill="#414042" d="M67.044,27.468v12.6h-2.916v-10.26h-2.521v-2.34H67.044z"/>
	<path fill="#414042" d="M77.664,33.83c0.588,0.643,0.882,1.438,0.882,2.386c0,0.731-0.192,1.406-0.576,2.024
		c-0.384,0.617-0.969,1.112-1.755,1.484s-1.749,0.559-2.889,0.559c-0.889,0-1.762-0.117-2.619-0.352
		c-0.858-0.233-1.587-0.566-2.188-0.999l1.134-2.231c0.479,0.359,1.035,0.64,1.665,0.837c0.631,0.197,1.275,0.297,1.936,0.297
		c0.731,0,1.308-0.142,1.728-0.423s0.63-0.682,0.63-1.196c0-1.032-0.785-1.549-2.357-1.549h-1.332v-1.926l2.592-2.935H69.15v-2.34
		h8.82v1.89l-2.844,3.24C76.23,32.778,77.076,33.189,77.664,33.83z"/>
	<path fill="#414042" d="M89.283,31.32c0.737,0.721,1.105,1.788,1.105,3.204v5.544h-2.808v-5.111c0-0.769-0.168-1.341-0.504-1.72
		c-0.336-0.378-0.822-0.566-1.458-0.566c-0.708,0-1.272,0.22-1.692,0.657s-0.63,1.089-0.63,1.952v4.788H80.49V26.711h2.808v4.681
		c0.372-0.372,0.822-0.657,1.35-0.854c0.528-0.197,1.104-0.297,1.729-0.297C87.576,30.24,88.545,30.6,89.283,31.32z"/>
	<path fill="#414042" d="M105.852,33.83c0.588,0.643,0.882,1.438,0.882,2.386c0,0.731-0.191,1.406-0.574,2.024
		c-0.386,0.617-0.971,1.112-1.757,1.484c-0.784,0.372-1.749,0.559-2.889,0.559c-0.889,0-1.762-0.117-2.619-0.352
		c-0.856-0.233-1.587-0.566-2.188-0.999l1.135-2.231c0.479,0.359,1.035,0.64,1.664,0.837c0.631,0.197,1.275,0.297,1.936,0.297
		c0.732,0,1.31-0.142,1.729-0.423s0.63-0.682,0.63-1.196c0-1.032-0.786-1.549-2.358-1.549h-1.332v-1.926l2.593-2.935H97.34v-2.34
		h8.82v1.89l-2.846,3.24C104.418,32.778,105.264,33.189,105.852,33.83z"/>
	<path fill="#414042" d="M110.694,39.51c-0.815-0.517-1.455-1.264-1.917-2.241c-0.462-0.979-0.691-2.145-0.691-3.501
		c0-1.355,0.229-2.522,0.691-3.501s1.102-1.726,1.917-2.241c0.816-0.515,1.746-0.773,2.79-0.773s1.975,0.259,2.79,0.773
		c0.816,0.516,1.455,1.264,1.917,2.241c0.462,0.979,0.692,2.146,0.692,3.501c0,1.356-0.23,2.522-0.692,3.501
		s-1.101,1.726-1.917,2.241c-0.815,0.516-1.746,0.773-2.79,0.773S111.51,40.026,110.694,39.51z M115.293,36.827
		c0.438-0.659,0.656-1.681,0.656-3.061s-0.22-2.399-0.656-3.061c-0.439-0.659-1.042-0.989-1.811-0.989
		c-0.756,0-1.353,0.33-1.791,0.989c-0.438,0.66-0.656,1.681-0.656,3.061s0.219,2.4,0.656,3.061c0.438,0.659,1.035,0.989,1.791,0.989
		C114.251,37.818,114.854,37.488,115.293,36.827z"/>
</g>
<rect x="15.568" y="117.208" fill="none" width="87.577" height="46.336"/>
<g>
	<g>
		<g>
			<path fill="#C49A6C" d="M98.931,60.859c0,0,0.006,0.009,0.021,0.021c0.06,0.076,0.283,0.36,0.597,0.777
				c0.194,0.26,0.421,0.573,0.657,0.921c0.002,0.002,0,0.004,0.002,0.005c0.494,0.726,1.041,1.596,1.453,2.451
				c0.188,0.396,0.354,0.791,0.473,1.16c0.06,0.188,0.104,0.365,0.137,0.537c0.359,0.012,0.687,0,0.982-0.03
				c1.303-0.139,2.129-0.677,3.311-1.622l1.662-0.389c1.246-1.122,0.518-4.23-0.843-4.623l-2.942,0.274l-4.546,0.427l-0.79,0.072
				L98.931,60.859z"/>
			<path fill="#C49A6C" d="M95.909,68.486c0.03,0.106,0.1,0.198,0.2,0.271c0.683,0.484,1.941-0.83,2.868-2.018
				c0.87-0.222,1.727-0.701,2.503-1.295c0.232-0.175,0.457-0.359,0.679-0.553l-1.24-1.397l-2.979,1.896
				C96.8,66.483,95.687,67.801,95.909,68.486z"/>
			<path fill="#C49A6C" d="M98.486,69.935c0.763,0.404,1.216-1.136,1.953-2.25c0.644-0.219,1.257-0.531,1.827-0.952
				c0.189-0.141,0.373-0.289,0.551-0.448c0.104-0.099,0.205-0.194,0.308-0.299l-1.192-1.155l-0.271,0.205l-2.234,1.686
				C98.42,67.807,97.688,69.509,98.486,69.935z"/>
			<path fill="#C49A6C" d="M94.602,66.582c0.46,0.688,2.061-0.477,3.185-1.479c1.063-0.076,2.17-0.517,3.184-1.096
				c0.092-0.051,0.182-0.104,0.271-0.157l-0.973-1.599l-3.266,1.339C95.595,64.493,94.073,65.789,94.602,66.582z"/>
			<path fill="#C49A6C" d="M93.543,63.85c0.003,0.091,0.021,0.182,0.063,0.271c0.347,0.732,2.105-0.184,3.357-1.019
				c1.079,0.073,2.158-0.096,3.238-0.521c0.065-0.025,0.139-0.057,0.209-0.084c0.016-0.006,0.026-0.014,0.045-0.02l-0.275-0.833
				l-0.292-0.878l-0.036-0.106L99.1,60.843l-0.149,0.036l-1.108,0.269l-1.438,0.35C95.034,62.119,93.521,63.019,93.543,63.85z"/>
			<path opacity="0.1" fill="#1D1D1B" enable-background="new    " d="M97.84,61.146c0.767,0.408,1.14,0.501,1.705,0.512
				c0.185,0.003,0.391-0.004,0.638-0.011c0.161-0.003,0.34-0.007,0.543-0.007c1.824,1.545,4.572,2.151,4.926-0.881
				c-0.403-0.112-0.81-0.252-1.215-0.417l-4.582,0.317L97.84,61.146z"/>
			<path fill="#C49A6C" d="M105.603,60.233c-0.975-0.271-1.953-0.689-2.896-1.264c-0.354-0.212-0.781-0.295-1.17-0.165
				c-1.812,0.6-3.063,0.42-4.437-0.13c-0.77,0.479-0.297,1.404,0.543,1.864c1.313,0.72,1.521,0.582,3.033,0.569
				C102.502,62.657,106.126,64.881,105.603,60.233z"/>
			<path opacity="0.1" fill="#1D1D1B" enable-background="new    " d="M96.921,62.539c1.086,0.246,2.207-0.13,3.326-0.695l0,0
				c0.031-0.032,0.078-0.054,0.135-0.054c0.302,1.615,1.622,3.82,2.639,4.094c1.047,0.299,2.191-0.222,3.396-1.258l1.809,0.063
				l-1.662,0.389c-1.208,0.967-2.043,1.506-3.396,1.629c-0.063,0.005-0.12,0.011-0.185,0.016c-0.03,0.002-0.063,0.003-0.1,0.005
				c-0.07,0.004-0.143,0.007-0.216,0.007c-0.027,0.001-0.058,0.002-0.081,0.002c-0.104,0-0.21,0-0.319-0.003
				c-0.57,0.423-1.187,0.733-1.827,0.952c-0.737,1.114-1.19,2.654-1.953,2.25c0.374-0.08,0.951-0.972,1.729-2.55
				c0.618-0.181,1.174-0.504,1.672-0.956c-0.166-0.211-0.357-0.518-0.549-0.877c-0.738,0.544-1.539,0.98-2.356,1.188
				c-0.927,1.188-2.188,2.502-2.868,2.018c-0.104-0.072-0.17-0.164-0.2-0.271c1.075,0.017,2.045-0.896,2.971-2.157
				c0.966-0.155,1.785-0.446,2.354-0.968c-0.188-0.375-0.379-0.789-0.545-1.201c-0.937,0.504-1.938,0.876-2.906,0.943
				c-1.124,1.004-2.725,2.169-3.185,1.479c0.96-0.01,1.982-1.015,3.286-2.018l2.693-0.699c-0.179-0.474-0.313-0.927-0.379-1.284
				c-1.072,0.413-2.177,0.593-3.236,0.521c-1.252,0.835-3.014,1.751-3.357,1.019c-0.041-0.089-0.063-0.18-0.063-0.271
				C94.489,64.395,95.821,63.563,96.921,62.539z"/>
		</g>
		<path fill="#E6E7E8" d="M136.698,41.464l-7.571,16.957c-9.107,4.659-21.411,9.521-23.104,7.493
			c-1.378-1.642-1.873-4.088-1.008-6.174c0,0,12.738-6.313,16.062-8.951l5.948-14.741C130.113,29.154,140.624,32.677,136.698,41.464
			z"/>
	</g>
	<path fill="#010101" d="M123.47,154.443c1.767,0.026,7.053-2.164,10.091-4.06h0.006v-0.006c0.143-0.084,0.276-0.174,0.405-0.266
		c0,0,0.006,0.008,0.006,0c0.257-0.174,0.494-0.346,0.706-0.514c0.218-0.16,0.411-0.32,0.565-0.476
		c0.229-0.229,0.392-0.438,0.476-0.623c-0.023-0.934-0.084-1.832-0.212-2.646c-0.146-1.039-0.399-1.959-0.791-2.65l-0.372-3.443
		l-0.121-1.116h-7.859l0.173,2.27l0.22,2.723c0,0-0.085,0.136-0.271,0.394c-0.601,0.82-2.317,2.885-6.007,5.453
		C119.058,150.468,118.935,154.443,123.47,154.443z"/>
	<g>
		<g>
			<path fill="#1D3339" d="M125.923,82.432l-1.992,25.483c0.441,13.629,1.877,19.566,2.438,35.299
				c0.11,3.185,9.919,4.509,9.689,2.072c0.662-10.524,1.145-23.602-0.353-33.006c2.071-7.426,3.494-18.871,3.534-25.869
				L125.923,82.432z"/>
		</g>
		<g>
			<path d="M125.923,82.432l-1.992,25.483c0.441,13.629,1.877,19.566,2.438,35.299c0.11,3.185,9.919,4.509,9.689,2.072
				c0.662-10.524,1.145-23.602-0.353-33.006c2.071-7.426,3.494-18.871,3.534-25.869L125.923,82.432z"/>
		</g>
	</g>
	<path fill="#010101" d="M139.996,166.787c1.766,0.021,7.052-2.164,10.089-4.059v-0.008c0.146-0.084,0.281-0.175,0.408-0.267
		c0,0,0,0,0.008,0c0.252-0.17,0.492-0.348,0.703-0.516c0.133-0.099,0.26-0.195,0.373-0.295c0.067-0.063,0.139-0.127,0.192-0.185
		c0.232-0.227,0.396-0.438,0.476-0.617c-0.021-0.936-0.078-1.829-0.211-2.645c-0.011-0.035-0.011-0.07-0.018-0.105
		c-0.146-0.997-0.394-1.877-0.771-2.553l-0.373-3.438l-0.121-1.119h-7.859l0.168,2.266l0.221,2.724c0,0-0.087,0.141-0.27,0.395
		c-0.043,0.063-0.1,0.127-0.154,0.203c-0.71,0.93-2.438,2.869-5.85,5.254C135.581,162.808,135.462,166.787,139.996,166.787z"/>
	<path d="M133.669,94.613l3.459,23.611c2.72,13.778,3.688,19.981,5.421,37.36c0.013,0.105,0.021,0.213,0.034,0.314
		c0.021,0.229,0.12,0.451,0.272,0.67c0.983,1.356,4.349,2.463,6.861,2.301c0.943-0.059,1.766-0.295,2.3-0.772
		c0.169-0.142,0.302-0.31,0.407-0.507c0.147-0.27,0.232-0.592,0.232-0.965c-0.144-3.578-0.147-19.438-0.678-24.551
		c-0.036-0.33-0.063-0.668-0.099-1.016c-0.049-0.465-0.105-0.939-0.162-1.412c-0.008-0.111-0.02-0.232-0.034-0.347
		c-0.021-0.155-0.042-0.309-0.063-0.463c-0.127-1.008-0.271-2.021-0.443-3.03c-0.049-0.281-0.099-0.556-0.146-0.83
		c-0.052-0.271-0.1-0.549-0.153-0.814c-0.05-0.272-0.106-0.539-0.163-0.803c-0.055-0.26-0.111-0.521-0.174-0.777
		c-0.078-0.324-0.156-0.633-0.232-0.942c-0.247-0.931-0.514-1.813-0.809-2.644c1.301-7.596,1.446-16.074,0.758-23.027
		c1.326-4.061,1.345-8.451,0.247-13.538c0,0-22.647-5.604-24.089-5.968l-0.38-0.101C125.564,86.387,125.882,90.302,133.669,94.613z"
		/>
	<path fill="#010101" d="M150.474,81.513c0.008,0.044,0.064,2.326,0.011,3.192c-7.55,5.317-23.156-1.153-24.556-6.196
		c0.038-1.049-0.135-2.069,0.015-3.442C130.577,81.388,144.823,84.706,150.474,81.513z"/>
	<path fill="#585857" d="M130.62,82.464c0.768,0.654,1.843,1.057,3.114,1.544v-1.963c-1.185-0.471-2.227-0.884-3.114-1.544V82.464z"
		/>
	<path fill="#FFFFFF" d="M125.899,75.999c3.981,5.49,17.871,10.688,24.588,5.753c1.396-1.026,0.979-2.313,1.39-5.364
		c0.352-3.258,0.659-6.253,0.903-8.984c0.968-10.68,1.187-17.502,1.037-21.036v-0.016c-0.015-0.674-0.057-1.213-0.102-1.65
		c-2.732-3.229-7.479-6.604-11.426-9.115c-5.35-2.411-5.771-2.26-8.451-3.232C123.152,28.466,124.604,74.199,125.899,75.999z"/>
	<path fill="#E6E7E8" d="M145.634,37.566c1.044,2.502-4.883,6.42-7.733,6.42c-0.751-1.106-0.755-2.786-1.433-4.077
		c-0.941,0.646-1.921,0.979-3.084,1.799c-1.049-8.192,8.285-10.183,10.396-6.795C144.197,35.579,145.333,36.847,145.634,37.566z"/>
	<path fill="#BCBEC0" d="M133.841,46.107c-0.094,0.41,0.066,0.896,0.359,1.086c0.29,0.189,0.602,0.015,0.694-0.396
		c0.096-0.409-0.063-0.896-0.354-1.086C134.249,45.521,133.936,45.699,133.841,46.107z"/>
	<path fill="#BCBEC0" d="M132.451,56.31c-0.068,0.383,0.124,0.838,0.427,1.018c0.303,0.179,0.602,0.014,0.671-0.368
		c0.065-0.383-0.126-0.838-0.429-1.019C132.817,55.763,132.517,55.927,132.451,56.31z"/>
	<path fill="#BCBEC0" d="M131.747,66.158c-0.039,0.383,0.183,0.837,0.498,1.016c0.313,0.18,0.603,0.014,0.643-0.369
		c0.039-0.383-0.184-0.838-0.499-1.016C132.074,65.611,131.786,65.776,131.747,66.158z"/>
	<path fill="#BCBEC0" d="M131.565,76.962c0.019,0.382,0.306,0.837,0.644,1.015c0.338,0.181,0.602,0.016,0.586-0.368
		c-0.019-0.383-0.301-0.837-0.642-1.016C131.813,76.414,131.552,76.579,131.565,76.962z"/>
	<path fill="#C49A6C" d="M134.556,38.508c-0.018-0.047-0.032-0.094-0.044-0.143l-0.233-2.982l-0.067-0.897l7.701-4.97l1.862,4.994
		C144.859,40.311,135.563,41.439,134.556,38.508z"/>
	<path opacity="0.1" fill="#1D1D1B" enable-background="new    " d="M134.556,40.076c-0.018-0.049-0.032-0.097-0.044-0.145
		l-0.233-2.98l6.525-3.447C141.271,37.181,138.267,41.012,134.556,40.076z"/>
	<g>
		<g>
			<path fill="#1D1D1B" d="M132.278,28.121c-2.06-0.771-5.015-2.178-5.713-4.723c-0.819-3,1.697-5.291,5.47-6.771
				c5.397-2.123,9.635,1.345,10.633,7.33c0.349,2.094,1.248,4.914,0.457,5.348c-1.224,0.666-0.75-0.146-1.668,0.438L132.278,28.121z
				"/>
			<path fill="#C49A6C" d="M126.636,25.185c-0.746-3.538,2.148-6.107,5.765-7.461c4.958-1.851,7.69,1.22,9.36,4.997
				c0.641,1.831,0.967,4.09,1.131,6.088l-1.613,2.699c0,0,0.135,2.257-0.688,3.799c-0.812,1.52-2.041,2.929-3.681,3.229
				c-1.733,0.418-3.271-0.147-4.771-2.63c-1.417-2.353-1.813-2.396-2.398-3.494c-0.332-0.621-0.505-1.408-0.691-1.739
				c-0.23-0.404-0.75-0.874-1.008-1.321C127.518,28.441,126.854,26.21,126.636,25.185z"/>
		</g>
		<path fill="#1D1D1B" d="M135.894,20.41c0.788-0.813,2.392,5.69,2.392,5.69s1.407-0.713,1.876-0.556
			c0.95,0.324,0.822,3.072,1.798,3.911c0.289,0.251,0.762,0.146,1.166-0.153c-0.243-1.809-0.296-3.915-0.822-5.662
			c-0.525-1.746-1.353-3.432-2.625-4.738c-1.271-1.308-3.026-2.2-4.848-2.201c-1.648-0.002-3.236,0.669-4.64,1.535
			c-3.371,2.1-3.854,3.637-3.625,5.162C127.577,24.925,131.8,24.635,135.894,20.41z"/>
		<path fill="#C49A6C" d="M139.522,23.844c0.979-0.901,1.646,0.731,1.847,1.475c0.129,0.483,0.15,0.983,0.28,1.477
			c0.123,0.461,0.455,0.994,0.285,1.471c-0.42,1.165-1.77,0.011-2.156-0.517C139.226,26.994,138.676,24.627,139.522,23.844z"/>
	</g>
	<g>
		<g>
			<path fill="#C49A6C" d="M130.692,63.189l-1.339-0.598l-0.104-0.046l-1.688-0.818l-1.051-0.814
				c-0.586-0.37-1.057-0.152-1.182,0.157c-0.063,0.149-0.039,0.325,0.094,0.466l1.168,1.112l1.346,0.881
				c0,0,1.066,0.726,1.247,0.695l0.453-0.313l0.901-0.617L130.692,63.189z"/>
			<path opacity="0.1" fill="#1D1D1B" enable-background="new    " d="M130.401,64.422l0.448-0.94l-0.312-0.186l-1.188-0.703
				l-2.843-1.681v-0.001c-0.586-0.37-1.057-0.152-1.182,0.157c0.454,0.223,1.004,0.646,1.289,1.104
				c0.422,0.083,0.709,0.287,1.182,0.82c0.43,0.004,1.082,0.419,1.837,0.921C129.882,64.077,130.138,64.25,130.401,64.422z"/>
			<path fill="#C49A6C" d="M129.401,63.607l0.546-0.656l0.771-0.934l0.205-0.249l-1.111-0.288l-1.534-0.396l-1.695-1.021
				l-1.027-0.956c-0.611-0.465-1.146-0.236-1.279,0.104c-0.056,0.146-0.038,0.31,0.075,0.45l1.331,1.529l1.805,1.285
				C127.483,62.476,129.211,63.623,129.401,63.607z"/>
			<path opacity="0.1" fill="#1D1D1B" enable-background="new    " d="M130.255,63.149l0.521-1.095l-0.061-0.037l-0.906-0.537
				l-1.534-0.396l-1.695-1.021l-1.027-0.956c-0.611-0.465-1.148-0.236-1.279,0.104c0.392,0.136,1.188,0.7,1.568,1.316
				c0.489,0.098,0.826,0.332,1.375,0.956c0.613,0.008,1.607,0.724,2.729,1.468C130.05,63.015,130.151,63.083,130.255,63.149z"/>
			<path fill="#C49A6C" d="M128.614,61.861l0.769-0.927l0.67-0.81l0.146-0.181l-0.138-0.034l-2.615-0.682l-1.767-1.062l-1.071-0.995
				c-0.326-0.251-0.634-0.309-0.872-0.255c-0.421,0.088-0.633,0.514-0.379,0.829l1.389,1.594l1.877,1.336
				C126.618,60.68,128.414,61.874,128.614,61.861z"/>
			<path opacity="0.1" fill="#1D1D1B" enable-background="new    " d="M129.987,61.334l0.063-1.208l0.01-0.215l-2.615-0.682
				l-1.767-1.062l-1.071-0.995c-0.327-0.251-0.634-0.308-0.872-0.255c0.521,0.275,0.936,0.729,1.282,1.295
				c0.674,0.285,1.271,0.787,1.824,1.411c0.557,0.005,1.511,0.629,2.539,1.309C129.58,61.068,129.783,61.2,129.987,61.334z"/>
			<path fill="#C49A6C" d="M138.087,66.903c-0.699-0.786-0.588-2.239,0.074-3.354c0.324-0.549,0.78-1.015,1.347-1.279l-4.104-1.917
				c-0.717-1.312-1.733-2.287-3.104-2.867l-0.471,0.197l-1.791,0.74l-0.222,0.237l-1.094,1.176c-0.26,1.344-0.384,2.993,0.46,4.392
				c1.952,0.464,3.743,0.898,5.071,0.729L138.087,66.903z"/>
			<path fill="#C49A6C" d="M128.925,60.387l1.219-1.476l0.199-0.242l0.045-0.052l0.12-0.146l-0.722-0.186l-0.677-0.18l-1.354-0.354
				l-1.771-1.062l-1.067-0.997c-0.515-0.39-0.977-0.312-1.204-0.083c-0.179,0.179-0.22,0.444-0.046,0.657l1.383,1.595l1.877,1.338
				C126.927,59.206,128.725,60.402,128.925,60.387z"/>
			<path fill="#C49A6C" d="M132.219,57.974c0.032-0.153,0.06-0.313,0.079-0.491c-1.478-0.757-3.043-1.306-3.113-1.316l-1.543-1.307
				c-0.104-0.084-0.201-0.146-0.293-0.181c-0.35-0.139-0.598,0.064-0.643,0.423c-0.031,0.244,0.027,0.561,0.215,0.882
				c0.263,0.461,1.118,1.263,1.586,1.657l0.604,0.47l0.423,0.327l0.282,0.223l0.326,0.254l0.672,0.521
				C131.704,59.219,132.055,58.73,132.219,57.974z"/>
			<path opacity="0.1" fill="#1D1D1B" enable-background="new    " d="M130.746,58.8c-0.122-0.059-0.241-0.119-0.358-0.182
				c-0.209-0.108-0.408-0.221-0.602-0.33c-0.765-0.45-1.396-0.944-1.787-1.521c-0.548-0.392-0.957-0.978-1.293-1.666
				c-0.031,0.243,0.027,0.561,0.215,0.882c0.263,0.461,1.118,1.263,1.586,1.657l0.604,0.47l-1.354-0.354l-1.771-1.062l-1.067-0.995
				c-0.515-0.392-0.977-0.313-1.204-0.083c0.833-0.052,1.426,0.491,1.948,1.244c0.646,0.089,1.197,0.611,1.797,1.349
				c0.563-0.086,1.285,0.021,2.074,0.228c0.263,0.068,0.532,0.146,0.811,0.231C130.478,58.711,130.611,58.755,130.746,58.8z"/>
			<path opacity="0.1" fill="#1D1D1B" enable-background="new    " d="M139.508,62.267l-4.104-1.917
				c-0.717-1.312-1.733-2.287-3.104-2.867c-1.475-0.757-3.043-1.306-3.113-1.316l-1.543-1.307c-0.104-0.084-0.201-0.146-0.293-0.181
				c0.833,0.736,1.531,1.426,1.82,1.97c0.922,0.022,1.805,0.422,2.658,1.031c0.131,0.092,0.262,0.189,0.392,0.294
				c1.33,0.417,2.452,2.109,2.571,3.222c1.444-0.203,2.771,1.033,3.371,2.354C138.488,62.998,138.944,62.532,139.508,62.267z"/>
		</g>
		<path fill="#E6E7E8" d="M136.001,60.254c-2.507,0.763-4.009,4.323-1.109,6.903c4.742,4.028,12.97,6.59,17.751,6.066
			c2.335-4.954,4.893-12.354,4.726-20.479c0.408-9.255-10.331-15.396-10.074-4.027l-0.669,12.59
			C143.938,61.098,140.421,60.52,136.001,60.254z"/>
	</g>
	<g>
		<g>
			<path fill="#754C29" d="M129.564,53.161c0.446-0.515,0.869-1.047,1.323-1.556c0.28-0.313,0.767-0.95,1.23-0.981
				c-0.183-0.313-0.359-0.627-0.54-0.939c-0.354,0.771-0.794,1.438-1.572,1.815c-0.728,0.354-0.091,1.432,0.631,1.079
				c0.954-0.465,1.587-1.319,2.021-2.266c0.181-0.395-0.023-0.977-0.54-0.938c-1.515,0.104-2.547,1.877-3.438,2.902
				C128.153,52.882,129.033,53.77,129.564,53.161L129.564,53.161z"/>
		</g>
	</g>
</g>
<g>
	<circle fill="#414042" cx="40.278" cy="33.504" r="15.949"/>
	<g>
		<ellipse fill="#FFFFFF" cx="39.362" cy="32.643" rx="14.149" ry="14.356"/>
		<rect x="38.781" y="19.474" fill="#BCBEC0" width="1.161" height="2.655"/>
		<rect x="38.781" y="43.333" fill="#BCBEC0" width="1.161" height="2.656"/>
		<rect x="26.104" y="32.063" fill="#BCBEC0" width="2.656" height="1.161"/>
		<rect x="49.963" y="32.063" fill="#BCBEC0" width="2.656" height="1.161"/>
	</g>
	<circle fill="#BCBEC0" cx="39.362" cy="32.644" r="0.89"/>
	<g>
		<polygon fill="#BCBEC0" points="39.047,33.396 34.584,23.394 40.253,32.765 		"/>
		<polygon fill="#BCBEC0" points="38.948,32.063 46.055,29.283 39.717,33.533 		"/>
	</g>
</g>
<g>
	<path fill="#B3B3B3" d="M10.912,3.841v17.924H6.764V7.17H3.179V3.841H10.912z"/>
	<path fill="#B3B3B3" d="M14.625,21.252c-0.478-0.478-0.717-1.075-0.717-1.792c0-0.733,0.239-1.327,0.717-1.779
		c0.478-0.452,1.067-0.679,1.767-0.679c0.7,0,1.289,0.227,1.767,0.679c0.478,0.453,0.717,1.046,0.717,1.779
		c0,0.717-0.239,1.315-0.717,1.792c-0.478,0.478-1.067,0.717-1.767,0.717C15.692,21.969,15.103,21.73,14.625,21.252z"/>
</g>
</svg>
