<?xml version="1.0" encoding="utf-8"?>
<!-- Generator: Adobe Illustrator 16.0.3, SVG Export Plug-In . SVG Version: 6.00 Build 0)  -->
<!DOCTYPE svg PUBLIC "-//W3C//DTD SVG 1.1//EN" "http://www.w3.org/Graphics/SVG/1.1/DTD/svg11.dtd">
<svg version="1.1" id="Layer_1" xmlns="http://www.w3.org/2000/svg" xmlns:xlink="http://www.w3.org/1999/xlink" x="0px" y="0px"
	 width="174.059px" height="174.059px" viewBox="0 0 174.059 174.059" enable-background="new 0 0 174.059 174.059"
	 xml:space="preserve">
<rect x="-0.365" y="0" fill="#FFFFFF" width="174.058" height="174.06"/>
<path fill="#E6E7E8" d="M174.082,173.642c0.227-1.884,0.342-3.792,0.342-5.726c0-30.985-29.721-56.104-66.381-56.104
	s-66.379,25.119-66.379,56.104c0,1.935,0.112,3.842,0.343,5.726H174.082z"/>
<path fill="#D1D3D4" d="M121.809,93.809c0,28.741-23.303,52.046-52.047,52.046c-28.743,0-52.047-23.305-52.047-52.046
	c0-28.748,23.304-52.05,52.047-52.05C98.506,41.76,121.809,65.061,121.809,93.809z"/>
<rect x="25.337" y="10.962" fill="none" width="124.477" height="26.798"/>
<g>
	<path opacity="0.2" fill="#4A768F" enable-background="new    " d="M91.553,164.963l-13.949-8.054
		c-1.068-0.623-1.068-1.627,0-2.247l67.281-40.655c1.072-0.619,2.814-0.619,3.887,0l13.953,8.054c1.07,0.62,1.07,1.626,0,2.245
		l-67.283,40.657C94.371,165.581,92.627,165.581,91.553,164.963z"/>
	<polygon fill="#85929C" points="114.32,125.967 85.833,142.485 103.971,151.011 132.031,135.151 	"/>
	<g>
		<g>
			<path fill="#515256" d="M113.398,129.426c-0.026,0.044-0.065,0.092-0.135,0.125l-19.094,10.801c-0.201,0.114-0.527,0.114-0.729,0
				c-0.063-0.036-0.104-0.081-0.129-0.128c-0.053-0.099-0.01-0.214,0.129-0.296l19.101-10.798c0.194-0.115,0.522-0.115,0.725,0
				C113.406,129.208,113.449,129.326,113.398,129.426z"/>
			<path fill="#606870" d="M113.398,129.426c-0.021,0.044-0.065,0.092-0.135,0.125l-19.094,10.801c-0.201,0.114-0.527,0.114-0.729,0
				c-0.063-0.036-0.104-0.081-0.129-0.128c0.021-0.045,0.066-0.091,0.129-0.126l19.101-10.795c0.194-0.119,0.522-0.119,0.725,0
				C113.33,129.335,113.375,129.375,113.398,129.426z"/>
		</g>
		<g>
			<path fill="#515256" d="M116.344,131.168c-0.025,0.045-0.064,0.088-0.127,0.127l-19.102,10.799c-0.199,0.112-0.521,0.112-0.728,0
				c-0.063-0.036-0.104-0.079-0.131-0.128c-0.053-0.104-0.006-0.215,0.131-0.296l19.094-10.798c0.203-0.116,0.527-0.116,0.732,0
				C116.354,130.953,116.395,131.066,116.344,131.168z"/>
			<path fill="#606870" d="M116.344,131.168c-0.025,0.045-0.064,0.088-0.127,0.127l-19.102,10.799c-0.199,0.112-0.521,0.112-0.728,0
				c-0.063-0.036-0.104-0.079-0.131-0.128c0.022-0.047,0.066-0.09,0.131-0.126l19.094-10.801c0.203-0.114,0.527-0.114,0.732,0
				C116.279,131.077,116.318,131.122,116.344,131.168z"/>
		</g>
		<g>
			<g>
				<path fill="#515256" d="M119.293,132.911c-0.023,0.046-0.066,0.088-0.127,0.125l-19.103,10.798
					c-0.203,0.117-0.526,0.117-0.729,0c-0.064-0.035-0.107-0.081-0.129-0.123c-0.052-0.103-0.012-0.216,0.129-0.296l19.098-10.801
					c0.199-0.117,0.523-0.117,0.73,0C119.301,132.696,119.346,132.809,119.293,132.911z"/>
			</g>
			<g>
				<path fill="#606870" d="M119.293,132.911c-0.023,0.046-0.066,0.088-0.127,0.125l-19.103,10.798
					c-0.203,0.117-0.526,0.117-0.729,0c-0.064-0.035-0.107-0.081-0.129-0.123c0.021-0.047,0.063-0.092,0.129-0.129l19.098-10.798
					c0.199-0.117,0.523-0.117,0.73,0C119.227,132.821,119.27,132.865,119.293,132.911z"/>
			</g>
		</g>
		<g>
			<path fill="#515256" d="M122.293,134.651c-0.023,0.051-0.063,0.092-0.127,0.125l-19.101,10.804c-0.205,0.113-0.524,0.113-0.729,0
				c-0.062-0.038-0.104-0.083-0.123-0.13c-0.053-0.104-0.019-0.216,0.123-0.29l19.102-10.802c0.199-0.115,0.527-0.115,0.729,0
				C122.305,134.436,122.346,134.551,122.293,134.651z"/>
			<path fill="#606870" d="M122.293,134.651c-0.023,0.051-0.063,0.092-0.127,0.125l-19.101,10.804c-0.205,0.113-0.524,0.113-0.729,0
				c-0.062-0.038-0.105-0.083-0.123-0.13c0.018-0.043,0.063-0.09,0.123-0.126l19.102-10.8c0.199-0.114,0.527-0.114,0.729,0
				C122.23,134.562,122.27,134.604,122.293,134.651z"/>
		</g>
		<g>
			<g>
				<path fill="#515256" d="M125.242,136.393c-0.025,0.047-0.064,0.09-0.134,0.126l-19.096,10.798c-0.199,0.117-0.522,0.117-0.727,0
					c-0.063-0.032-0.105-0.074-0.136-0.125c-0.049-0.104-0.006-0.214,0.136-0.295l19.098-10.799c0.197-0.117,0.525-0.117,0.725,0
					C125.25,136.177,125.293,136.294,125.242,136.393z"/>
			</g>
			<g>
				<path fill="#606870" d="M125.242,136.393c-0.025,0.047-0.064,0.09-0.134,0.126l-19.096,10.798c-0.199,0.117-0.522,0.117-0.727,0
					c-0.063-0.032-0.105-0.074-0.136-0.125c0.027-0.045,0.07-0.092,0.136-0.128l19.098-10.797c0.197-0.117,0.525-0.117,0.725,0
					C125.178,136.301,125.217,136.344,125.242,136.393z"/>
			</g>
		</g>
	</g>
	<path fill="#FCB325" d="M138.381,133.301l-33.598,19.45c-0.08,0.046-0.162,0.076-0.25,0.099c-0.183,0.042-0.365,0.042-0.543,0
		c-0.109-0.021-0.218-0.063-0.32-0.125L85.521,141.7c-0.246-0.144-0.428-0.369-0.521-0.646c-0.162-0.525-0.467-1.514-0.854-2.821
		c-1.458-4.993-4.021-14.621-4.053-20.617c-0.006-1.028,0.063-1.944,0.223-2.715c1.189-5.738,5.282-13.343,6.821-16.059
		c0.314-0.563,1.031-0.749,1.586-0.421l17.26,10.211l0.263,0.158c0.481,0.288,0.69,0.886,0.481,1.415
		c-1.047,2.648-4.151,10.521-6.244,16.123c-0.112,0.312-0.223,0.609-0.334,0.897c-1.45,3.925,2.521,16.496,4.025,21.558
		c0.363,1.227,1.762,1.146,2.879,0.527l24.43-14.445L138.381,133.301z"/>
	<path opacity="0.3" fill="#CC8C8D" enable-background="new    " d="M104.533,152.849c-0.183,0.042-0.365,0.042-0.543,0
		c-0.109-0.021-0.218-0.063-0.32-0.125L85.521,141.7c-0.246-0.144-0.428-0.369-0.521-0.646c-0.162-0.525-0.467-1.514-0.854-2.821
		l10.333-1.75c0,0,5.912,4.611,6.271,6.133C100.973,143.557,103.02,148.865,104.533,152.849z"/>
	<g>
		<path fill="#FEC047" d="M118.402,138.086c-0.059,0.296-0.129,0.57-0.186,0.769c-0.059,0.207-0.193,0.386-0.377,0.493
			c-0.193,0.115-0.482,0.296-0.846,0.512c-2.064,1.243-6.375,3.799-7.586,4.173c-1.224,0.378-2.412-0.397-2.925-0.801
			c-0.164-0.128-0.256-0.323-0.256-0.53l0.015-0.461v-0.197c-0.074-1.372,0.225-2.24,0.459-2.688
			c0.137-0.266,0.243-0.383,0.243-0.383l3.3-0.703l0.375-0.081l1.231-0.719l1.131-0.652l1.478-0.717
			c0.059-0.031,0.326-0.162,0.326-0.162l0.965-0.469c0.928-0.285,1.645-0.048,2.123,0.371c0.237,0.214,0.422,0.478,0.526,0.738
			C118.561,136.946,118.502,137.551,118.402,138.086z"/>
		<path fill="#F7F8EF" d="M110.055,138.932c0.139-0.146,4.533-2.404,4.533-2.404l-0.68,1.677l-1.107,0.685l-1.453,0.757
			C110.893,139.656,109.92,139.076,110.055,138.932z"/>
		<path fill="#D4DBDC" d="M115.355,137.556c0,0-0.76,0.204-1.147,0.044c-0.238-0.097-0.703-0.309-1.066-0.567
			c-0.24-0.179-0.492-0.577-0.567-0.804c-0.134-0.378-0.285-0.927-0.156-1.063c0.205-0.225,0.5-0.331,0.5-0.331l1.865,1.604
			L115.355,137.556z"/>
		<path fill="#F68B3B" d="M116.994,139.859c-2.064,1.243-6.375,3.799-7.586,4.173c-1.224,0.378-2.412-0.397-2.925-0.801
			c-0.164-0.128-0.256-0.323-0.256-0.53l0.015-0.461v-0.197c-0.074-1.372,0.225-2.24,0.459-2.688
			c0.131,1.28,2.813,1.474,3.799,1.033c1.865-0.826,4.967-2.179,6.014-2.784c0.08-0.05,1.814-0.97,1.889-1.022
			C118.666,137.26,118.402,139.056,116.994,139.859z"/>
		<path fill="#F7F8EF" d="M106.711,139.885c-0.625-0.907,1.055-1.258,1.762-1.476c0.004,0.31,0.035,0.6,0.082,0.851
			c0.133,0.675,1.787,0.837,2.195,1.014l-2.019,0.635C107.766,140.846,107.008,140.446,106.711,139.885z"/>
		<path fill="#E4E9E6" d="M106.105,141.753c0.058,0.299,0.125,0.571,0.187,0.77c0.059,0.209,0.188,0.386,0.377,0.494
			c0.19,0.119,1.646,1.624,4.271-0.074c-0.18-0.869-0.451-1.98-0.188-2.668c-3.084,1.244-3.938-0.339-4.117-0.768
			c-0.242,0.215-0.42,0.474-0.529,0.738C105.945,140.615,106.002,141.221,106.105,141.753z"/>
		<path fill="#A3B0B9" d="M118.402,138.086c-0.059,0.296-0.129,0.57-0.186,0.769c-0.059,0.207-0.193,0.386-0.377,0.493
			c-1.324,0.81-7.012,4.24-8.432,4.685c-1.224,0.378-2.412-0.397-2.925-0.801c-0.164-0.128-0.256-0.323-0.256-0.53l0.015-0.461
			c0.521,0.507,1.672,1.284,2.618,1.094c1.063-0.214,4.027-1.764,4.027-1.764S117.217,139.227,118.402,138.086z"/>
	</g>
	<g>
		<path fill="#FEC047" d="M111.697,134.044c-0.057,0.297-0.127,0.571-0.184,0.77c-0.057,0.206-0.191,0.385-0.375,0.496
			c-0.193,0.115-0.484,0.291-0.844,0.51c-2.066,1.243-6.379,3.798-7.59,4.166c-1.22,0.382-2.412-0.396-2.92-0.795
			c-0.166-0.127-0.265-0.323-0.259-0.53l0.011-0.46v-0.195c-0.074-1.375,0.227-2.242,0.461-2.691c0.135-0.264,0.25-0.386,0.25-0.386
			l3.293-0.7l0.375-0.078l1.231-0.721l1.131-0.654l1.476-0.717c0.063-0.031,0.328-0.16,0.328-0.16l0.967-0.473
			c0.928-0.282,1.643-0.044,2.119,0.375c0.242,0.214,0.42,0.474,0.533,0.738C111.857,132.904,111.801,133.509,111.697,134.044z"/>
		<path fill="#F7F8EF" d="M103.352,134.892c0.137-0.146,4.537-2.405,4.537-2.405l-0.68,1.677l-1.113,0.687l-1.449,0.757
			C104.189,135.615,103.217,135.037,103.352,134.892z"/>
		<path fill="#D4DBDC" d="M108.656,133.518c0,0-0.764,0.201-1.153,0.043c-0.238-0.097-0.699-0.31-1.063-0.57
			c-0.242-0.18-0.492-0.576-0.573-0.806c-0.125-0.375-0.281-0.921-0.152-1.061c0.205-0.222,0.502-0.328,0.502-0.328l1.867,1.6
			L108.656,133.518z"/>
		<path fill="#F68B3B" d="M110.295,135.819c-2.066,1.243-6.379,3.798-7.59,4.166c-1.22,0.382-2.412-0.396-2.92-0.795
			c-0.166-0.127-0.265-0.323-0.259-0.53l0.011-0.46v-0.195c-0.074-1.375,0.227-2.242,0.461-2.691
			c0.131,1.28,2.813,1.472,3.797,1.033c1.865-0.826,4.969-2.177,6.012-2.784c0.084-0.051,1.82-0.968,1.896-1.021
			C111.963,133.221,111.697,135.015,110.295,135.819z"/>
		<path fill="#F7F8EF" d="M100.01,135.847c-0.627-0.911,1.053-1.261,1.76-1.479c0.006,0.313,0.037,0.603,0.084,0.853
			c0.131,0.672,1.789,0.837,2.197,1.013l-2.023,0.634C101.063,136.806,100.309,136.406,100.01,135.847z"/>
		<path fill="#E4E9E6" d="M99.402,137.714c0.06,0.299,0.127,0.57,0.188,0.769c0.055,0.209,0.188,0.385,0.375,0.494
			c0.188,0.12,1.646,1.625,4.271-0.073c-0.18-0.875-0.448-1.984-0.186-2.669c-3.088,1.244-3.943-0.341-4.119-0.769
			c-0.24,0.212-0.42,0.477-0.531,0.737C99.242,136.573,99.299,137.177,99.402,137.714z"/>
		<path fill="#A3B0B9" d="M111.697,134.044c-0.057,0.297-0.127,0.571-0.184,0.77c-0.057,0.206-0.191,0.385-0.375,0.496
			c-1.324,0.809-7.014,4.238-8.434,4.676c-1.22,0.382-2.412-0.396-2.92-0.795c-0.166-0.127-0.265-0.323-0.259-0.53l0.011-0.46
			c0.521,0.506,1.672,1.286,2.623,1.094c1.063-0.212,4.021-1.761,4.021-1.761S110.516,135.186,111.697,134.044z"/>
	</g>
	<path fill="#FDCEA1" d="M90.744,91.579c0,0-0.593,1.092-1.746,1.299c-1.158,0.209-0.777-0.657-0.211-0.992
		c0.563-0.338,0.797-2.104,0.797-2.104l0.162-0.529l1.506-0.842l1.264,0.359L90.744,91.579z"/>
	<g>
		<path fill="#4D474A" d="M91.521,93.713c-0.229,0-0.461-0.063-0.68-0.186l-7.833-4.521c-0.65-0.376-0.874-1.212-0.5-1.866
			c0.375-0.65,1.215-0.875,1.868-0.498l7.826,4.521c0.653,0.375,0.879,1.213,0.504,1.868C92.449,93.469,91.992,93.713,91.521,93.713
			z"/>
	</g>
	<g>
		<path fill="#EF4747" d="M121.682,59.049c-0.045,0.461-0.129,0.931-0.244,1.396c-0.348,1.438-0.666,2.104-1.102,3.078
			c-0.021,0.032-0.035,0.064-0.053,0.104c-0.023,0.063-0.06,0.129-0.101,0.199c-1.186,2.302-6.604,10.723-8.932,14.269
			c-0.072,0.108-0.144,0.215-0.207,0.313c-0.342,0.52-0.594,0.899-0.734,1.107c-0.026,0.047-0.063,0.095-0.098,0.146
			c-0.396,0.38-1.955,0.431-3.354-0.035c-1.459-0.479-2.752-1.511-2.342-3.333c0.029-0.123,0.072-0.251,0.107-0.379
			c1.338-3.983,8.551-17.137,10.94-19.251c0,0,0.056-0.048,0.142-0.121c0.26-0.232,0.789-0.672,1.43-1.018
			c0.295-0.1,0.623-0.149,0.988-0.161c0.162-0.008,0.34-0.008,0.521,0.012c0,0,0.877,0.094,2.129,0.232
			c0.063,0.063,0.127,0.126,0.189,0.197C121.674,56.629,121.826,57.802,121.682,59.049z"/>
		<path fill="#EF4747" d="M110.313,79.516c-0.035,0.047-0.063,0.095-0.102,0.143c-2.938,3.977-15.41,9.139-16.611,9.612
			c-0.555,0.217-1.731-0.542-2.344-1.618c-0.512-0.885-0.631-1.98,0.299-2.926c0,0,11.158-7.729,12.965-8.433
			c0.092-0.039,0.16-0.06,0.203-0.053c0.545,0.031,3.664,0.197,5.139,1.155C110.609,77.875,110.936,78.558,110.313,79.516z"/>
		<path opacity="0.3" fill="#D56F88" enable-background="new    " d="M121.682,59.049c-0.332,0.782-0.516,1.352-0.244,1.396
			c-0.348,1.438-0.666,2.104-1.102,3.078c-0.021,0.032-0.035,0.064-0.053,0.104c-0.023,0.063-0.06,0.129-0.101,0.199
			c-1.186,2.302-6.604,10.723-8.932,14.269c-0.074,0.108-0.144,0.215-0.207,0.313c-0.342,0.52-0.594,0.899-0.734,1.107
			c-0.026,0.047-0.063,0.095-0.098,0.146c-2.947,3.974-15.414,9.133-16.617,9.613c-0.553,0.215-1.729-0.548-2.344-1.616
			c0.563-0.436,1.367-0.788,2.471-1.028c5.764-1.267,9.529-4.438,13.137-7.004c0.623-0.45,1.238-0.878,1.869-1.275
			c0.381-0.247,0.763-0.563,1.131-0.943c3.691-3.843,6.521-13.888,6.521-13.888s0.92-6.001,1.744-8.153
			c0.162-0.008,0.34-0.008,0.521,0.012c0,0,0.877,0.094,2.129,0.232c0.063,0.063,0.127,0.126,0.189,0.197
			C121.674,56.629,121.826,57.802,121.682,59.049z"/>
		<g>
			<path fill="#FDCEA1" d="M84.71,87.66c0,0,2.463-1.133,4.491-1.228c0.86-0.041,2.09-0.593,2.448-0.746
				c1.068-0.451,2.396,2.354,1.853,2.696c-1.313,0.843-1.728,0.91-2.258,1.14c-0.615,0.269-2.211,0.755-2.479,1.295
				C88.502,91.36,83.07,89.932,84.71,87.66z"/>
			<path fill="#FDCEA1" d="M88.768,90.819c0,0-0.289,1.375,0.111,1.949c1.479,2.124-3.288,0.396-4.147-1.422
				c0,0-1.244-3.077-0.021-3.688c1.222-0.611,4.217,2.95,4.217,2.95L88.768,90.819z"/>
		</g>
	</g>
	<g>
		<path fill="#252525" d="M158.33,110.831l-1.566-0.932c-0.014-0.732-0.111-1.402-0.266-2.017l0.848-1.404l-4.227-2.543
			c-1.601-1.007-3.851-0.911-6.343,0.508c-4.877,2.783-8.854,9.579-8.885,15.19c-0.02,2.736,0.91,4.686,2.435,5.646l4.223,2.544
			l0.84-1.392c0.094,0.108,0.152,0.185,0.152,0.185l-0.063-0.204c0.771-0.188,1.574-0.506,2.42-0.986
			c0.629-0.356,1.242-0.785,1.834-1.271l-0.18,0.47c0,0,1.078,0.496,1.348,0.428c0.271-0.076,2.205-1.376,2.509-1.529
			c0.299-0.15,2.407-2.927,2.627-3.338c0.223-0.413,1.248-2.565,1.516-2.997c0.266-0.426,1.248-3.523,1.25-3.641
			C158.799,113.44,158.33,110.831,158.33,110.831z M150.92,122.75c-2.185,1.242-4.023,0.641-4.619-1.281
			c-0.83,0.134-1.557-0.046-2.107-0.493c-0.188-1.366-0.364-2.748-0.295-2.802c0.142-0.108,1.976-5.296,1.976-5.296l4.022-3.845
			l1.188,0.158c0.711,0.282,1.244,0.887,1.521,1.786c1.89-0.262,3.229,1.129,3.205,3.403
			C155.773,117.476,153.6,121.215,150.92,122.75z"/>
		<g>
			<path fill="#191A1B" d="M157.346,106.48c-1.596-1.004-3.842-0.912-6.342,0.517c-4.873,2.775-8.854,9.578-8.883,15.188
				c-0.015,2.739,0.914,4.689,2.432,5.646c1.594,1,3.844,0.908,6.338-0.516c4.877-2.775,8.855-9.576,8.885-15.191
				C159.791,109.385,158.867,107.434,157.346,106.48z M150.918,122.746c-2.687,1.527-4.851,0.27-4.828-2.824
				c0.016-3.089,2.203-6.839,4.889-8.371c2.687-1.528,4.851-0.258,4.83,2.829C155.793,117.474,153.604,121.219,150.918,122.746z"/>
			<g>
				<path fill="#85929C" d="M155.809,114.383c-0.006,0.408-0.047,0.824-0.125,1.25l-3.014-1.766c0.088-0.474,0.139-0.93,0.143-1.371
					c0.002-0.504-0.063-1.063-0.209-1.52C154.49,110.718,155.832,112.108,155.809,114.383z"/>
				<path fill="#A3B0B9" d="M155.684,115.633c-0.201,1.156-0.654,2.351-1.291,3.446l-3.043-1.778
					c0.633-1.085,1.107-2.275,1.32-3.434L155.684,115.633z"/>
				<path fill="#BBC5CB" d="M152.486,121.548c-0.487,0.482-1.021,0.889-1.563,1.201c-0.17,0.095-0.344,0.183-0.504,0.254
					l-3.133-1.83c0.209-0.08,0.42-0.188,0.643-0.313c0.512-0.296,1.01-0.672,1.479-1.107L152.486,121.548z"/>
				<path fill="#A3B0B9" d="M150.408,123.003c-1.957,0.886-3.556,0.239-4.107-1.535c0.32-0.053,0.643-0.146,0.982-0.295
					L150.408,123.003z"/>
				<path fill="#D4DBDC" d="M153.254,120.725c-0.248,0.296-0.496,0.569-0.771,0.822l-3.082-1.797
					c0.273-0.256,0.537-0.529,0.785-0.826L153.254,120.725z"/>
				<path fill="#BBC5CB" d="M154.393,119.08c-0.328,0.586-0.717,1.139-1.139,1.646l-3.064-1.801c0.449-0.537,0.855-1.104,1.16-1.624
					L154.393,119.08z"/>
			</g>
			<g>
				<g>
					<path fill="#A3B0B9" d="M149.578,111.465l-0.058,10.241l-0.549,0.313l0.055-10.063c0.119-0.114,0.25-0.238,0.375-0.35
						C149.461,111.556,149.514,111.51,149.578,111.465z"/>
				</g>
				<g>
					<path fill="#A3B0B9" d="M153.068,117.74l-0.387,0.668l-2.256-1.323l-0.877-0.51l-0.271-0.159l-0.114-0.066l-0.156-0.09
						l-0.113-0.066l-0.27-0.157l-0.867-0.511l-0.33-0.188l-0.367-0.222l-0.299-0.175c0.127-0.227,0.26-0.443,0.398-0.658
						l0.293,0.179l0.373,0.213l0.313,0.188l0.869,0.509l0.272,0.155l0.109,0.064l0.156,0.093l0.115,0.066l0.266,0.16l0.877,0.508
						L153.068,117.74z"/>
				</g>
				<g>
					<path fill="#A3B0B9" d="M154.398,112.737l-0.004,0.632l-3.219,1.837l-1.242,0.707l-0.381,0.221l-0.156,0.083
						c-0.01,0.005-0.229,0.135-0.229,0.135l-0.158,0.091l-0.383,0.222l-1.242,0.711l-1.021,0.578l-0.481,0.276l-0.5,0.285
						c0.01-0.074,0.024-0.143,0.047-0.221c0.039-0.174,0.086-0.344,0.137-0.51l0.494-0.285l0.539-0.309l0.801-0.453l1.232-0.702
						l0.387-0.222l0.162-0.092l0.223-0.131l0.156-0.088l0.385-0.219c0.015-0.01,1.252-0.711,1.252-0.711L154.398,112.737z"/>
				</g>
				<g>
					<path fill="#A3B0B9" d="M153.119,109.852L152.443,111l-1.616,2.775l-0.884,1.509c-0.006,0-0.272,0.466-0.272,0.466
						l-0.115,0.197l-0.156,0.267c-0.01,0.005-0.112,0.201-0.112,0.201l-0.277,0.472l-0.885,1.508l-1.812,3.101l-0.479,0.82
						l-0.388-0.225l0.716-1.224l1.58-2.703l0.883-1.506l0.271-0.469l0.113-0.194l0.166-0.273l0.111-0.195l0.271-0.467l0.883-1.514
						l1.396-2.377l0.801-1.377c0.102-0.021,0.197-0.039,0.293-0.048L153.119,109.852z"/>
				</g>
				<path fill="#A3B0B9" d="M151.201,114.876c-0.009,1.218-0.871,2.701-1.933,3.305c-1.063,0.604-1.914,0.104-1.903-1.116
					c0.006-1.221,0.866-2.694,1.93-3.3C150.354,113.157,151.209,113.656,151.201,114.876z"/>
			</g>
			<polygon fill="#A3B0B9" points="154.4,112.737 154.77,112.956 153.334,113.944 			"/>
			<polygon fill="#A3B0B9" points="149.346,122.235 148.979,122.021 149.256,121.017 149.623,121.021 			"/>
			<g>
				<g>
					<path fill="#D4DBDC" d="M149.949,111.16l-0.062,10.764l-0.545,0.313l0.059-10.621
						C149.584,111.45,149.762,111.304,149.949,111.16z"/>
				</g>
				<g>
					<path fill="#D4DBDC" d="M153.441,117.957l-0.389,0.668l-3.133-1.835l-0.275-0.156l-0.113-0.065l-0.149-0.09l-0.115-0.066
						L149,116.248l-1.57-0.907l-0.666-0.396c0.127-0.227,0.26-0.443,0.398-0.658l0.666,0.392l1.555,0.912l0.271,0.156l0.115,0.064
						l0.154,0.089l0.111,0.066l0.268,0.164L153.441,117.957z"/>
				</g>
				<g>
					<path fill="#D4DBDC" d="M154.77,112.956l-0.006,0.625l-4.461,2.549l-0.383,0.22l-0.158,0.088l-0.229,0.131l-0.158,0.091
						l-0.381,0.222l-2.746,1.563l-0.976,0.555c0.037-0.238,0.086-0.466,0.148-0.703l1.002-0.571l2.574-1.476l0.381-0.22l0.162-0.088
						l0.229-0.13l0.154-0.092l0.387-0.215L154.77,112.956z"/>
				</g>
				<g>
					
						<rect x="149.432" y="108.971" transform="matrix(-0.8594 -0.5113 0.5113 -0.8594 218.8694 292.5498)" fill="#D4DBDC" width="0.443" height="14.429"/>
				</g>
				<path fill="#D4DBDC" d="M151.57,115.094c-0.008,1.221-0.866,2.699-1.934,3.304c-1.059,0.604-1.914,0.104-1.904-1.111
					c0.011-1.226,0.869-2.7,1.933-3.307C150.725,113.375,151.576,113.876,151.57,115.094z"/>
			</g>
			<path fill="#BBC5CB" d="M152.928,109.745c-0.096,0.009-0.191,0.023-0.293,0.048c-0.521,0.123-1.072,0.346-1.648,0.667
				c-0.35,0.203-0.698,0.438-1.034,0.7c-0.127,0.095-0.252,0.194-0.371,0.306c-0.064,0.045-0.117,0.092-0.177,0.146
				c-0.125,0.109-0.256,0.232-0.375,0.35c-0.69,0.681-1.325,1.471-1.866,2.323c-0.142,0.215-0.271,0.435-0.398,0.658
				c-0.512,0.911-0.93,1.872-1.203,2.841c-0.051,0.166-0.098,0.336-0.137,0.502c-0.021,0.086-0.037,0.151-0.047,0.228
				c-0.045,0.161-0.076,0.319-0.104,0.483c-0.09,0.501-0.135,0.996-0.139,1.475c-0.02,3.692,2.564,5.203,5.777,3.374
				c3.207-1.828,5.823-6.311,5.85-10.003C156.777,110.929,155.176,109.373,152.928,109.745z M150.92,122.75
				c-1.971,1.124-3.664,0.735-4.408-0.76c-0.082-0.149-0.148-0.319-0.201-0.497c-0.065-0.211-0.115-0.408-0.147-0.625
				c-0.058-0.291-0.07-0.608-0.07-0.943c0.002-0.481,0.057-0.98,0.156-1.481c0.026-0.164,0.071-0.322,0.11-0.492
				c0.021-0.078,0.039-0.154,0.064-0.229c0.051-0.173,0.104-0.354,0.168-0.528c0.213-0.631,0.498-1.258,0.836-1.854
				c0.123-0.229,0.26-0.447,0.398-0.663c0.354-0.554,0.76-1.069,1.2-1.54c0.117-0.134,0.242-0.257,0.367-0.38
				c0.058-0.054,0.117-0.108,0.172-0.163c0.123-0.111,0.25-0.219,0.373-0.32c0.338-0.275,0.688-0.517,1.041-0.717
				c0.293-0.161,0.574-0.298,0.854-0.385c0.201-0.073,0.391-0.127,0.586-0.165c0.078-0.011,0.133-0.021,0.184-0.024
				c0.127-0.021,0.246-0.026,0.367-0.026c1.688-0.046,2.857,1.306,2.838,3.433C155.773,117.476,153.6,121.215,150.92,122.75z"/>
		</g>
	</g>
	<g>
		<g>
			<path fill="#606870" d="M146.475,103.983l4.562,12.038c0.123,0.327,0.08,0.68-0.095,0.958c-0.125,0.201-0.313,0.358-0.547,0.444
				c-0.615,0.192-1.205-0.094-1.408-0.633l-4.551-12.033c-0.213-0.565,0.068-1.192,0.633-1.407c0.24-0.09,0.492-0.095,0.724-0.017
				C146.094,103.433,146.35,103.659,146.475,103.983z"/>
		</g>
		<g>
			<path fill="#515256" d="M146.475,103.983l4.562,12.038c0.123,0.327,0.08,0.68-0.095,0.958c-0.125,0.201-0.313,0.358-0.547,0.444
				c-0.379-0.071-0.639-0.305-0.76-0.63l-4.557-12.031c-0.218-0.562,0.067-1.195,0.633-1.406c0.022-0.011,0.055-0.021,0.078-0.021
				C146.094,103.433,146.35,103.659,146.475,103.983z"/>
		</g>
	</g>
	<g>
		<path fill="#A3B0B9" d="M150.998,119.049l-0.314,0.188c-0.434-0.214-0.922-0.22-1.436,0.007
			C149.896,118.875,150.477,118.856,150.998,119.049z"/>
		<path fill="#85929C" d="M150.684,119.238l-16.699,10.032c-0.252,0.149-0.475,0.335-0.653,0.549
			c0.063-0.652,0.434-1.271,1.043-1.637l14.877-8.938C149.762,119.018,150.25,119.024,150.684,119.238z"/>
	</g>
	<g>
		<path fill="#BBC5CB" d="M151.666,119.563l-0.33,0.201c-0.193-0.24-0.416-0.411-0.652-0.526l0.314-0.188
			C151.246,119.156,151.465,119.331,151.666,119.563z"/>
		<path fill="#A3B0B9" d="M151.336,119.764l-16.92,10.169c-0.402,0.236-0.715,0.563-0.938,0.938
			c-0.145-0.34-0.188-0.699-0.147-1.053c0.182-0.214,0.401-0.396,0.653-0.549l16.699-10.03
			C150.92,119.353,151.143,119.524,151.336,119.764z"/>
	</g>
	<g>
		<path fill="#A3B0B9" d="M151.561,122.959l-14.938,8.969c-0.08,0.052-0.168,0.095-0.256,0.132l14.848-8.921
			c1.041-0.622,1.018-1.963,0.395-2.997c-0.08-0.142-0.174-0.266-0.271-0.377l0.33-0.201c0.104,0.119,0.199,0.248,0.285,0.396
			C152.574,120.993,152.596,122.333,151.561,122.959z"/>
		<path fill="#85929C" d="M151.215,123.138l-14.848,8.921c-0.285,0.118-0.576,0.182-0.859,0.182c-0.748,0-1.469-0.375-1.885-1.063
			c-0.063-0.095-0.107-0.197-0.146-0.309c0.226-0.372,0.535-0.699,0.938-0.938l16.92-10.169c0.1,0.111,0.19,0.235,0.271,0.377
			C152.232,121.176,152.256,122.516,151.215,123.138z"/>
	</g>
	<path fill="#F6872E" d="M162.889,94.567c-0.414,4.597-3.873,7.251-8.479,10.049c-13.121,7.954-14.228,24.358-15.474,28.035
		c-0.094,0.276-0.293,0.517-0.559,0.649l-7.371,1.985c0.338-0.188,0.557-0.539,0.588-0.926c0.121-1.521-0.469-8.966,2.131-18.481
		c0.959-3.524,2.354-7.344,4.396-11.243c7.34-14.067,19.787-15.094,24.039-17.678c0,0,0.146,0.188,0.352,0.521
		C162.861,88.596,163.18,91.36,162.889,94.567z"/>
	<path fill="#FCB325" d="M162.916,94.258c-0.019,0.103-0.019,0.205-0.029,0.31c-3.512,5.059-14.77,8.37-24.266,15.436
		c-2.478,1.841-3.347,4.482-4.896,5.879c0.668-2.471-18.633-7.633-17.457-10.321c0.492-1.146,21.24,0.246,21.854-0.921
		c7.34-14.067,19.787-15.095,24.039-17.679c0,0,0.145,0.188,0.352,0.521c0.137,0.438,0.271,1.137,0.365,2.016
		C163.008,90.768,163.061,92.432,162.916,94.258z"/>
	<path fill="#4D474A" d="M129.307,112.007c0,0-0.771-0.443,11.313-3.479c6.758-1.691-1.771,21.889-9.14,26.338
		C131.482,134.865,131.436,125.028,129.307,112.007z"/>
	<path fill="#515256" d="M139.604,114.283c-0.522,4.622-4.778,17.968-8.121,20.581c-0.004,0.005-2.166-0.096-2.166-0.096
		c-0.106-0.021-0.229-0.042-0.346-0.063c-2.271-1.864-4.049-7.521-4.049-7.521l4.752-14.81
		C129.674,112.377,140.141,109.662,139.604,114.283z"/>
	<path fill="#606870" d="M131.482,134.865c-0.004,0.005-2.166-0.096-2.166-0.096c-0.106-0.021-0.229-0.042-0.346-0.063
		c-5.717-1.128-10.871-4.188-14.586-8.668l-0.061-0.07c2.182-6.75,0.489-23.782,0.489-23.782l6.293-0.677l10.922,3.646l-2.354,7.223
		C129.674,112.377,133.668,128.108,131.482,134.865z"/>
	<path fill="#56585E" d="M162.164,86.958c0,0-4.738-7.347-14.188-9.759c-3.504-0.896-21.467,12.292-23.649,15.433
		c-2.185,3.145-3.677,12.45-3.677,12.45l4.224,4.337c0,0,17.36-9.644,23.477-14.131C155.23,90.233,162.164,86.958,162.164,86.958z"
		/>
	<g>
		<path opacity="0.3" fill="#CC8C8D" enable-background="new    " d="M146.25,95.58c0,0,1.469,1.498,0.061,4.168
			c-1.408,2.666-11.658,13.434-19.848,13.194c-8.191-0.234-3.236-8.901-3.236-8.901L146.25,95.58z"/>
		<path fill="#BBC5CB" d="M127.859,112.591c-2.162,0.717-4.36,0.27-6.438-0.689c-0.135-0.064-0.277-0.137-0.424-0.211
			c-5.677-3.056-6.533-10.884-1.894-15.354c3.142-3.025,6.519-6.279,8.183-7.902c2.561-2.49,6.323-1.214,9.725-0.552
			c0.826,0.154,6.098,1.232,6.709,1.842c1.814,1.816,2.197,3.105,2.57,6.124C146.756,99.653,139.23,108.831,127.859,112.591z"/>
		<path fill="#E4E9E6" d="M126.43,111.123c-1.338,0.543-3.869,1.083-5.01,0.776c-1.482-0.683-3.17-2.111-4.697-3.625
			c-2.668-2.65-2.654-6.972,0.041-9.599c3.625-3.532,8.428-8.204,10.521-10.245c2.561-2.49,6.139-3.513,9.534-2.851
			c2.273,1.088,4.777,2.418,6.896,4.141C150.035,94.86,137.508,106.628,126.43,111.123z"/>
	</g>
	<path fill="#4A768F" d="M132.561,93.295c-0.838,3.364-11.135,12.058-18.475,15.503c-0.568,0.271-1.123,0.512-1.652,0.712
		c-1.223,0.465-2.254,0.604-3.123,0.512c-4.342-0.432-4.619-6.544-4.619-6.544c3.582-5.741,15.877-13.67,15.877-13.67l0.203,0.028
		l1.058,0.149c0,0,0.746-0.021,1.848,0.012c2.451,0.063,6.664,0.369,8.281,1.688C132.473,92.104,132.727,92.632,132.561,93.295z"/>
	<path fill="#4A768F" d="M113.129,119.022c-0.336,1.711-0.666,10.73-0.793,13.105c-0.029,0.674-0.482,1.234-1.117,1.447
		c-0.568,0.188-1.107,0.306-1.6,0.369c-2.181,0.291-3.574-0.47-4.261-0.984c-0.313-0.243-0.506-0.596-0.52-0.982
		c-0.084-2.15-0.4-13.616-0.4-18.929c0-4.973,0.191-8.593,0.242-9.401c0.004-0.105,0.008-0.17,0.008-0.17s5.021-0.293,7.563,1.128
		c0.342,0.189,0.643,0.409,0.875,0.666c0.6,0.648,0.875,1.96,0.957,3.526C114.273,112.45,113.422,117.503,113.129,119.022z"/>
	<path opacity="0.3" fill="#7D4641" enable-background="new    " d="M132.561,93.295c-0.838,3.364-11.135,12.058-18.475,15.503
		c0.188,3.651-0.664,8.705-0.957,10.225c-0.336,1.711-0.666,10.73-0.793,13.105c-0.029,0.674-0.482,1.236-1.117,1.447
		c-0.568,0.187-1.107,0.306-1.6,0.369c-2.181,0.291-3.574-0.47-4.261-0.984c-0.313-0.243-0.506-0.596-0.52-0.982
		c-0.084-2.15-0.4-13.616-0.4-18.929c0-4.973,0.191-8.593,0.242-9.401c0.844,1.328,3.002,3.631,7.57,0.958
		c5.521-3.235,16.26-10.774,14.758-10.541c-1.566,0.253-4.938-2.932-6.24-4.229c-0.326-0.328-0.522-0.534-0.522-0.534l3.428,0.695
		l8.281,1.688C132.473,92.104,132.727,92.632,132.561,93.295z"/>
	<path fill="#4A768F" d="M142.096,97.831c-0.76,4.385-15.934,11.766-20.785,14.021c-0.926,0.431-1.479,0.673-1.479,0.673
		s-1.006,0.183-2.313,0.22c-2.387,0.076-5.768-0.309-5.768-3.081c0-0.065,0-0.095,0-0.095c0-0.216,0.049-0.446,0.123-0.688
		c1.438-4.578,15.026-12.676,17.672-14.512c2.776-1.929,5.313-3.686,5.313-3.686h2.351l2.84-1.385
		C140.047,89.302,143,92.6,142.096,97.831z"/>
	<path fill="#4A768F" d="M120.438,123.086c-0.348,1.797-0.701,10.795-0.809,12.909c0,0.028-0.006,0.056-0.012,0.071
		c-0.039,0.41-0.322,0.762-0.707,0.899c-0.705,0.257-1.351,0.417-1.933,0.497c-2.36,0.327-3.817-0.566-4.444-1.094
		c-0.229-0.186-0.367-0.455-0.377-0.749c-0.078-1.945-0.404-13.095-0.404-18.518v-7.444c0-0.066,0-0.095,0-0.095
		s0.217-0.078,0.594-0.194c1.621-0.509,6.115-1.728,7.9-0.223c0.065,0.055,0.133,0.113,0.188,0.181
		c0.465,0.508,0.738,1.406,0.873,2.521C121.754,115.503,120.756,121.422,120.438,123.086z"/>
	<path opacity="0.3" fill="#D56F88" enable-background="new    " d="M142.096,97.831c-0.76,4.385-15.934,11.766-20.785,14.021
		c0.443,3.65-0.555,9.569-0.873,11.233c-0.348,1.797-0.701,10.795-0.809,12.909c0,0.028-0.006,0.056-0.012,0.071
		c-0.074,0.382-0.572,0.516-0.707,0.899c-0.705,0.257-1.351,0.417-1.933,0.497c-2.36,0.327-3.817-0.566-4.444-1.094
		c-0.229-0.186-0.367-0.455-0.38-0.749c-0.075-1.945-0.401-13.095-0.401-18.518v-7.444c0-0.066,0-0.095,0-0.095
		c0-0.216,0.049-0.446,0.123-0.688c0.147,0.061,0.311,0.225,0.471,0.491c0.031,0.045,0.063,0.087,0.088,0.138
		c1.361,2.343,4.945,0.743,4.945,0.743c0.541-0.097,1.559-0.491,2.867-1.104c5.776-2.672,17.139-9.396,18.135-10.941
		c1.289-1.991,1.131-4.292-0.275-3.937c-4.01,1.003-8.559,0.098-8.559,0.098c2.777-1.929,5.313-3.686,5.313-3.686h2.351l2.84-1.385
		C140.047,89.302,143,92.6,142.096,97.831z"/>
	<path fill="#E73D34" d="M141.189,90.995c0,0.115-0.301,1.628-2.229,2.301c-1.967,0.677-4.076,2.217-11.094,0.158
		c0,0-3.691-1.267-5.938-2.98c-0.793-0.606-1.408-1.269-1.613-1.953c-0.692-2.267-1.182-6.446-1.442-9.211
		c-0.146-1.603-0.226-2.73-0.226-2.73s-0.168-0.346-0.434-0.96c-0.477-1.078-1.254-2.979-1.98-5.259
		c-0.83-2.646-1.573-5.813-1.67-8.806c-0.051-1.525,0.103-3.683,1.146-5.014c0.369-0.466,0.834-0.816,1.43-1.018
		c0.43-0.143,0.926-0.192,1.512-0.149c0,0,0.877,0.094,2.129,0.232c2.752,0.316,7.334,0.887,8.326,1.294
		c1.422,0.589,7.687,3.794,9.726,6.378c0.063,0.076,0.112,0.146,0.149,0.217c0,0,0.162,0.104,0.295,0.581
		c0.029,0.073,0.054,0.17,0.072,0.271c0.244,1.11,0.338,3.61-0.813,9.096C136.668,82.368,141.189,90.748,141.189,90.995z"/>
	<g>
		<path fill="#FCB325" d="M127.402,93.209l-0.541-0.052c0.188-2.021-2.508-12.517-3.803-17.563l-0.123-0.479
			c-1.328-5.151,0.353-13.524,0.42-13.866l0.537,0.107c-0.014,0.082-1.723,8.596-0.43,13.623l0.121,0.479
			C124.988,80.923,127.605,91.094,127.402,93.209z"/>
	</g>
	<g>
		<path opacity="0.5" fill="#418884" enable-background="new    " d="M119.15,59.63c-0.037-0.01-0.065-0.033-0.108-0.048
			C119.07,59.596,119.113,59.615,119.15,59.63z"/>
		<path fill="#FCC39F" d="M130.369,53.18c-0.095,0.156-0.035,3.883,0.604,5.01c0.607,1.076-3.348,3.306-6.113,3.366
			c-0.856,0.021-3.709-0.936-3.743-2.053c-0.021-0.604,1.305-1.029,1.354-1.802c0.119-1.933,2.289-4.345,2.529-4.521
			c0.242-0.185,2.174-1.267,2.596-1.509s2.695-0.788,2.797-0.547c0.096,0.244,0.582,1.025,0.582,1.025L130.369,53.18z"/>
		<path fill="#FCC39F" d="M121.205,57.209c0,0-0.06,2.273,0.41,3.105c0.352,0.618,3.473-0.233,3.704-0.002l1.578-3.104H121.205z"/>
		<path fill="#F6872E" d="M123.148,60.91c-0.037,0.301-0.141,0.421-0.604,0.271c-1.041-0.331-2.166-1.617-2.166-2.063
			c0-0.602,2.008-0.244,2.008-0.244l0.709,1.332C123.207,60.424,123.227,60.677,123.148,60.91z"/>
		<path fill="#FDCEA1" d="M127.098,56.375c-0.063,0.437-0.193,0.9-0.404,1.396c-1.358,2.102-4.737,2.086-6.313,2.037
			c-0.012-0.007-2.295-1.035-3.219-6.314c-0.078-0.455,0.282-1.364-0.074-2.898c1.559,1.125,3.748,2.188,6.272,1.923
			C125.535,52.288,127.406,54.208,127.098,56.375z"/>
		<g>
			<path opacity="0.3" fill="#1B5E7E" enable-background="new    " d="M127.098,56.375c-0.063,0.437-0.193,0.9-0.404,1.396
				c-0.221,0.502-0.528,1.021-0.942,1.563c-1.646,0.838-3.588,1.328-5.59,0.695c-0.361-0.115-0.695-0.244-1.002-0.396
				c-0.041-0.01-0.074-0.03-0.117-0.05c-3.972-1.981-3.771-6.574-3.771-10.294c0-0.083,0-0.171,0.008-0.258
				c0.433,0.438,1.043,1.011,1.813,1.563c1.559,1.125,3.748,2.188,6.274,1.923C125.535,52.288,127.406,54.208,127.098,56.375z"/>
			
				<linearGradient id="SVGID_1_" gradientUnits="userSpaceOnUse" x1="105.0627" y1="-582.9382" x2="93.0411" y2="-568.1843" gradientTransform="matrix(1 0 0 -1 25.0195 -516.7622)">
				<stop  offset="0" style="stop-color:#010101"/>
				<stop  offset="1" style="stop-color:#4A768F"/>
			</linearGradient>
			<path fill="url(#SVGID_1_)" d="M127.098,56.375c-0.063,0.437-0.193,0.9-0.404,1.396c-0.221,0.502-0.528,1.021-0.942,1.563
				c-1.646,0.838-3.588,1.328-5.59,0.695c-0.361-0.115-0.695-0.244-1.002-0.396c-0.041-0.01-0.074-0.03-0.117-0.05
				c-3.972-1.981-3.771-6.574-3.771-10.294c0-0.083,0-0.171,0.008-0.258c0.433,0.438,1.043,1.011,1.813,1.563
				c1.559,1.125,3.748,2.188,6.274,1.923C125.535,52.288,127.406,54.208,127.098,56.375z"/>
			<path fill="#FFCF2E" d="M130.109,55.866c0,0-1.793,2.155-4.354,3.465c0.41-0.536,0.717-1.063,0.934-1.563
				c0.22-0.497,0.349-0.952,0.412-1.396c0.313-2.162-1.563-4.087-3.732-3.854c-2.528,0.263-4.721-0.801-6.28-1.926
				c-0.767-0.557-1.373-1.124-1.813-1.563c0.104-4.026,2.953-9.112,8.799-9.054c0,0,5.558,0.149,7.855,3.618
				c0.625,0.922,1.014,2.086,0.996,3.545C132.908,47.172,133.621,51.235,130.109,55.866z"/>
			<path fill="#FEED61" d="M131.926,43.594c-6.014,2.42-7.834,5.703-8.123,8.911c-0.148-0.012-0.293-0.007-0.439,0.012
				c-2.526,0.261-4.719-0.801-6.278-1.926c-0.205-0.147-0.396-0.3-0.58-0.443c-0.562-5.546,3.012-8.939,7.565-10.171
				C124.07,39.977,129.625,40.127,131.926,43.594z"/>
		</g>
	</g>
	<path fill="#F6872E" d="M130.498,56.313c0,0-3.043,4.235-6.074,4.002c-1.375-0.105-0.117,1.54-0.117,1.54
		c2.828,0.563,6.363-2.055,7.623-3.364c0.057-0.062,0-0.334,0-0.334S130.955,55.944,130.498,56.313z"/>
	<path opacity="0.3" fill="#D56F88" enable-background="new    " d="M141.189,90.995c0,0.115-0.301,1.628-2.229,2.301
		c-1.967,0.677-4.076,2.217-11.094,0.158c0,0-3.691-1.267-5.938-2.98c5.904,2.759,10.762,2.912,11.771,2.47
		c3.366-1.492,2.778-4.906,2.274-10.396c-0.471-5.229,3.068-16.896,3.369-18.198c0.244,1.11,0.338,3.61-0.813,9.096
		C136.668,82.368,141.189,90.748,141.189,90.995z"/>
	<path opacity="0.3" fill="#D56F88" enable-background="new    " d="M118.873,79.308c-0.146-1.603-0.226-2.73-0.226-2.73
		s-0.168-0.346-0.434-0.96c0,0,3.465,3.609,9.27,4.62C132.668,81.139,122.582,81.609,118.873,79.308z"/>
	<path fill="#4D474A" d="M108.33,99.624c-0.021-0.546-0.154-1.094-0.354-1.605c-0.555-1.411-9.678-7.553-13.266-7.938
		c-0.949-0.103-3.191,1.062-3.191,1.062l5.951,6.196c0,0,2.758,1.863,5.465,3.159l-3.084,1.561l-0.889,5.063
		c0,0,1.367,6.065,6.25,1.313C108.469,105.264,108.604,101.67,108.33,99.624z"/>
	<path fill="#FFCF2E" d="M106.73,110.205c-1.047,2.646-4.151,10.521-6.244,16.122c-5.225,3.021-9.444,2.23-13.174,0.859
		c-3.313-1.215-5.828-6.164-7.218-9.576c-0.003-1.026,0.065-1.945,0.222-2.714c1.193-5.737,5.286-13.342,6.819-16.061
		c0.32-0.563,1.037-0.746,1.592-0.418l7.353,4.349c0.018,0.01,0.848,0.495,0.848,0.495l6.898,4.086l0.405,0.241l2.015,1.194
		C106.73,109.071,106.939,109.675,106.73,110.205z"/>
	<g>
		<g>
			<path fill="#F6872E" d="M104.23,107.591l-0.807,0.692c0,0-10.682,13.835-15.461,11.096c-0.285-0.153-0.533-0.369-0.736-0.623
				c-3.324-4,1.771-18.652,1.892-19.002c0.008-0.012,6.961,3.015,6.961,3.015c0.018,0.01,0.848,0.495,0.848,0.495l6.896,4.086
				L104.23,107.591z"/>
			<path fill="#FFCF2E" d="M103.822,107.349l-0.717,0.615c0,0-10.658,13.8-15.442,11.104c-3.347-4.063,1.901-19.002,1.901-19.002
				l7.359,3.193L103.822,107.349z"/>
		</g>
		<path fill="#FEED61" d="M89.564,100.069c0,0-5.249,14.939-1.901,19.002c-0.17-0.099-0.304-0.194-0.437-0.313
			c-3.324-4,1.771-18.652,1.892-19.002c0.008-0.007,6.961,3.015,6.961,3.015c0.018,0.012,0.848,0.495,0.848,0.495L89.564,100.069z"
			/>
	</g>
	<path fill="#E95B3B" d="M163,91.835c0.008,0.754-0.021,1.567-0.084,2.423c-0.058-0.316-2.256-0.897-3.168-0.193
		c-0.713,0.555-1.924-0.188-1.613-0.991c0.086-0.227,0.297-0.454,0.664-0.663c1.695-0.949,4.082-2.916,4.082-2.916
		C162.953,90.175,163,90.964,163,91.835z"/>
	<g>
		<path fill="#FCB325" d="M106.977,101.898c-1.537,4.959-5.229,7.101-7.088,6.409c-2.549-0.951-6.174-2.521-8.518-4.446
			c-0.83-0.688-1.474-1.378-1.869-2.099c-0.131-0.234-0.238-0.479-0.332-0.729c-0.101-0.252-0.172-0.518-0.229-0.783
			c-0.389-1.767-0.055-3.797,0.476-5.602c0.17-0.572,0.358-1.124,0.557-1.639c0.035-0.08,0.068-0.164,0.105-0.245
			c0.791-1.668,2.764-2.46,4.512-1.778c1.914,0.749,8.934,4.812,10.934,6.35C106.943,98.427,107.494,100.24,106.977,101.898z"/>
		<path fill="#FEED61" d="M97.691,106.033c-0.246,0.015-0.496,0.015-0.756,0.01c-2.291-0.859-4.119-1.191-5.563-2.184
			c-0.742-0.519-1.354-1.162-1.869-2.099c-0.131-0.234-0.238-0.479-0.332-0.729c-0.096-0.252-0.172-0.518-0.229-0.783
			c-0.381-1.767-0.055-3.797,0.476-5.602c0.17-0.572,0.358-1.124,0.557-1.639c0.035-0.08,0.068-0.164,0.105-0.245
			c0.653-1.378,2.116-2.159,3.598-1.999c-1.199,0.129-2.285,0.86-2.826,1.999c-0.039,0.081-0.072,0.165-0.104,0.245
			c-0.197,0.515-0.39,1.063-0.56,1.639c-0.529,1.805-0.856,3.835-0.475,5.602c0.061,0.269,0.139,0.531,0.229,0.783
			c0.095,0.25,0.203,0.494,0.336,0.729c0.519,0.937,1.123,1.58,1.818,2.058C93.584,104.85,95.408,105.182,97.691,106.033z"/>
		<path fill="#FFCF2E" d="M97.691,106.033c-2.28-0.853-4.104-1.185-5.551-2.174c-0.742-0.519-1.35-1.162-1.865-2.099
			c-0.133-0.234-0.244-0.479-0.336-0.729c-0.09-0.252-0.168-0.518-0.229-0.783c-0.385-1.767-0.06-3.797,0.475-5.602
			c0.17-0.572,0.359-1.124,0.56-1.639c0.03-0.08,0.063-0.164,0.104-0.245c0.541-1.139,1.627-1.87,2.826-1.999
			c0.305,0.03,0.617,0.107,0.914,0.221c1.914,0.749,8.934,4.812,10.934,6.35C105.521,97.334,106.455,105.778,97.691,106.033z"/>
		<path fill="#FFCF2E" d="M97.691,106.223c-3.403-0.201-4.396-0.461-5.842-1.453c-0.016-0.009,0.26-0.936,0.244-0.95
			c-0.695-0.478-1.303-1.121-1.818-2.058c-0.133-0.234-0.244-0.479-0.336-0.729c-0.09-0.252-0.168-0.518-0.229-0.783
			c-0.385-1.767-0.06-3.797,0.475-5.602c0.17-0.572,0.359-1.124,0.56-1.639c0.03-0.08,0.063-0.164,0.104-0.245
			c0.541-1.139,1.627-1.87,2.826-1.999c0.305,0.03,0.617,0.107,0.914,0.221c1.914,0.749,8.934,4.812,10.934,6.35
			C105.521,97.334,106.455,105.965,97.691,106.223z"/>
	</g>
	<path fill="#F26532" d="M163,91.835c-0.008,0.604-0.035,1.24-0.084,1.897c-0.058-0.313-2.256-0.897-3.168-0.192
		c-0.556,0.427-1.4,0.081-1.613-0.472c0.086-0.226,0.297-0.452,0.664-0.661c1.695-0.949,4.082-2.916,4.082-2.916
		C162.953,90.175,163,90.964,163,91.835z"/>
	<path opacity="0.3" fill="#CC8C8D" enable-background="new    " d="M92.977,110.292c0,0,2.469,0.339,3.262-0.26
		c0.779-0.601,2.404-1.85,2.166-2.305c-0.854-1.662-1.682-3.879-1.682-3.879l-4.369,3.557L92.977,110.292z"/>
	<g>
		<path fill="#FFCF2E" d="M96.813,107.045c-0.057,0.337-1.098,2.054-3.098,3.072c-0.365,0.185-0.74,0.056-1.127-0.271
			c-0.414-0.364-0.83-0.979-1.223-1.712c-0.121-0.225-0.242-0.458-0.355-0.702c-0.777-1.632-1.438-3.563-1.768-4.62
			c-0.15-0.475-0.238-0.764-0.238-0.764s1.863-1.739,3.768-1.67c0.273,0.004,0.554,0.055,0.818,0.154
			c0.83,0.293,1.988,1.063,2.701,2.406c0.147,0.291,0.289,0.602,0.395,0.938C96.949,104.762,97.037,105.802,96.813,107.045z"/>
		<path fill="#FEED61" d="M92.771,100.381c-0.727,0.485-2.356,1.601-2.805,2.04c-0.141,0.146-0.402,0.28-0.725,0.394
			c-0.15-0.475-0.238-0.764-0.238-0.764S90.867,100.311,92.771,100.381z"/>
		<path fill="#FCB325" d="M96.813,107.045c-0.057,0.337-1.098,2.054-3.098,3.072c-0.365,0.185-0.74,0.056-1.127-0.271
			c-0.414-0.364-0.83-0.979-1.223-1.712c-0.121-0.225-0.242-0.458-0.355-0.702c0.299-0.264,0.668-0.489,1.119-0.657
			c2.557-0.975,3.723-2.895,4.162-3.833c0.147,0.291,0.289,0.602,0.395,0.938C96.949,104.762,97.037,105.802,96.813,107.045z"/>
		<path fill="#E7F3E5" d="M92.836,110.327c-0.479,0-1.004-0.157-1.523-0.456c-1.824-1.058-3.252-3.529-3.252-5.64
			c0-1.726,0.922-2.404,1.814-2.471c0.067-0.015,0.131-0.015,0.164-0.015c0.479,0,1.012,0.16,1.522,0.461
			c1.826,1.055,3.258,3.525,3.258,5.633c0,0.746-0.188,1.373-0.543,1.812C93.918,110.091,93.422,110.327,92.836,110.327z"/>
		<path fill="#A3B0B9" d="M88.727,104.233c0,1.858,1.313,4.128,2.92,5.057c0.422,0.246,0.832,0.371,1.189,0.371
			c0.389,0,0.692-0.151,0.926-0.432c0.248-0.309,0.393-0.787,0.393-1.388c0-1.856-1.315-4.128-2.926-5.056
			c-0.416-0.242-0.828-0.371-1.188-0.371c-0.021,0-0.045,0-0.072,0.011C89.189,102.46,88.727,103.129,88.727,104.233z"/>
		
			<image overflow="visible" enable-background="new    " width="25" height="33" xlink:href="2C8B46FE.png"  transform="matrix(0.192 0 0 0.2109 89.5461 102.3987)">
		</image>
	</g>
	<g>
		<g>
			<path fill="#252525" d="M96.023,146.687l-1.563-0.93c-0.017-0.733-0.113-1.403-0.271-2.017l0.851-1.404l-4.229-2.543
				c-1.598-1.005-3.846-0.91-6.336,0.51c-4.884,2.781-8.861,9.576-8.892,15.19c-0.013,2.734,0.915,4.688,2.433,5.645l4.229,2.543
				l0.837-1.389c0.097,0.106,0.154,0.183,0.154,0.183l-0.063-0.205c0.762-0.187,1.571-0.506,2.419-0.982
				c0.63-0.361,1.241-0.789,1.834-1.276l-0.18,0.475c0,0,1.073,0.492,1.35,0.43c0.266-0.078,2.203-1.376,2.504-1.532
				c0.301-0.149,2.408-2.927,2.627-3.335c0.225-0.414,1.248-2.571,1.516-3.002c0.267-0.421,1.253-3.523,1.253-3.638
				C96.49,149.295,96.023,146.687,96.023,146.687z M88.609,158.606c-2.18,1.242-4.02,0.646-4.621-1.278
				c-0.827,0.134-1.559-0.043-2.103-0.496c-0.192-1.363-0.366-2.744-0.297-2.796c0.139-0.113,1.974-5.3,1.974-5.3l4.025-3.847
				c0.002,0,1.18,0.16,1.18,0.16c0.715,0.283,1.25,0.887,1.527,1.787c1.883-0.261,3.225,1.128,3.201,3.404
				C93.461,153.333,91.291,157.071,88.609,158.606z"/>
			<g>
				<path fill="#191A1B" d="M95.037,142.337c-1.599-1.001-3.849-0.909-6.345,0.514c-4.875,2.776-8.852,9.581-8.885,15.192
					c-0.013,2.733,0.914,4.686,2.438,5.641c1.592,1.002,3.844,0.908,6.339-0.514c4.875-2.78,8.85-9.58,8.881-15.192
					C97.48,145.242,96.553,143.291,95.037,142.337z M88.609,158.604c-2.685,1.53-4.849,0.269-4.832-2.818
					c0.021-3.094,2.208-6.843,4.895-8.373c2.682-1.532,4.848-0.264,4.83,2.829C93.48,153.333,91.295,157.075,88.609,158.604z"/>
				<g>
					<path fill="#85929C" d="M93.496,150.242c0,0.405-0.047,0.825-0.119,1.249l-3.017-1.769c0.084-0.468,0.14-0.929,0.14-1.371
						c0.004-0.501-0.064-1.06-0.205-1.517C92.178,146.577,93.52,147.965,93.496,150.242z"/>
					<path fill="#A3B0B9" d="M93.377,151.491c-0.201,1.156-0.656,2.35-1.291,3.449l-3.047-1.784
						c0.637-1.083,1.104-2.274,1.321-3.434L93.377,151.491z"/>
					<path fill="#BBC5CB" d="M90.178,157.409c-0.492,0.479-1.023,0.885-1.568,1.195c-0.168,0.096-0.34,0.183-0.502,0.255
						c-0.006,0-3.133-1.829-3.133-1.829c0.209-0.08,0.425-0.188,0.643-0.311c0.513-0.299,1.017-0.676,1.481-1.113L90.178,157.409z"
						/>
					<path fill="#A3B0B9" d="M88.102,158.861c-1.958,0.888-3.561,0.238-4.113-1.533c0.321-0.051,0.646-0.149,0.985-0.297
						L88.102,158.861z"/>
					<path fill="#D4DBDC" d="M90.947,156.58c-0.243,0.3-0.5,0.571-0.77,0.829l-3.08-1.803c0.271-0.254,0.535-0.523,0.781-0.823
						L90.947,156.58z"/>
					<path fill="#BBC5CB" d="M92.086,154.942c-0.332,0.578-0.717,1.136-1.142,1.64l-3.065-1.797c0.451-0.533,0.854-1.104,1.16-1.627
						L92.086,154.942z"/>
				</g>
				<g>
					<g>
						<path fill="#A3B0B9" d="M87.266,147.321l-0.057,10.242l-0.543,0.313l0.055-10.061c0.121-0.115,0.248-0.235,0.377-0.349
							C87.154,147.416,87.207,147.368,87.266,147.321z"/>
					</g>
					<g>
						<path fill="#A3B0B9" d="M90.756,153.599l-0.383,0.667l-2.256-1.322l-0.882-0.513l-0.268-0.158
							c-0.008,0-0.119-0.063-0.119-0.063l-0.156-0.094l-0.11-0.064l-0.271-0.161l-0.867-0.507l-0.325-0.187l-0.371-0.223
							l-0.297-0.175c0.126-0.226,0.259-0.444,0.396-0.661l0.298,0.178l0.37,0.218l0.313,0.188l0.874,0.507l0.271,0.155l0.117,0.069
							l0.152,0.089l0.112,0.065l0.271,0.164l0.873,0.504L90.756,153.599z"/>
					</g>
					<g>
						<path fill="#A3B0B9" d="M92.09,148.596l-0.004,0.628l-3.221,1.836l-1.238,0.712l-0.387,0.219l-0.154,0.084
							c-0.006,0.005-0.234,0.136-0.234,0.136l-0.156,0.089l-0.381,0.219l-1.239,0.711l-1.021,0.579l-0.485,0.279l-0.504,0.282
							c0.019-0.067,0.034-0.143,0.051-0.224c0.047-0.173,0.081-0.338,0.134-0.505l0.499-0.284l0.541-0.311l0.795-0.454l1.233-0.704
							l0.388-0.219l0.166-0.092l0.227-0.127l0.152-0.094l0.385-0.219c0.012-0.008,1.246-0.709,1.246-0.709L92.09,148.596z"/>
					</g>
					<g>
						<path fill="#A3B0B9" d="M90.809,145.707l-0.674,1.151l-1.619,2.773l-0.883,1.508l-0.273,0.467l-0.112,0.194l-0.158,0.271
							c-0.006,0.006-0.115,0.199-0.115,0.199c-0.008,0-0.274,0.472-0.274,0.472l-0.88,1.509l-1.813,3.099l-0.484,0.82l-0.379-0.222
							l0.713-1.226l1.579-2.703l0.882-1.507l0.271-0.466l0.117-0.195l0.166-0.273l0.106-0.196l0.273-0.465l0.883-1.512l1.391-2.382
							l0.808-1.371c0.102-0.025,0.194-0.043,0.291-0.055L90.809,145.707z"/>
					</g>
					<path fill="#A3B0B9" d="M88.891,150.734c-0.004,1.224-0.865,2.702-1.932,3.306c-1.062,0.604-1.91,0.104-1.905-1.115
						c0.009-1.22,0.872-2.695,1.934-3.301C88.045,149.015,88.9,149.514,88.891,150.734z"/>
				</g>
				<polygon fill="#A3B0B9" points="92.09,148.596 92.459,148.815 91.025,149.799 				"/>
				<polygon fill="#A3B0B9" points="87.033,158.096 86.666,157.877 86.941,156.873 87.314,156.877 				"/>
				<g>
					<g>
						<path fill="#D4DBDC" d="M87.641,147.02l-0.059,10.762l-0.549,0.314l0.063-10.625C87.273,147.311,87.455,147.163,87.641,147.02
							z"/>
					</g>
					<g>
						<path fill="#D4DBDC" d="M91.129,153.815l-0.387,0.669l-3.138-1.835l-0.272-0.156l-0.111-0.067l-0.154-0.091l-0.11-0.063
							l-0.271-0.163l-1.563-0.908l-0.668-0.396c0.126-0.226,0.259-0.444,0.396-0.661l0.668,0.396l1.553,0.906l0.273,0.158
							l0.111,0.067l0.155,0.09l0.111,0.066l0.271,0.164L91.129,153.815z"/>
					</g>
					<g>
						<path fill="#D4DBDC" d="M92.459,148.815l-0.002,0.627l-4.461,2.549l-0.388,0.218l-0.157,0.087l-0.23,0.13l-0.154,0.09
							l-0.383,0.221l-2.747,1.567l-0.975,0.554c0.04-0.238,0.089-0.47,0.146-0.708c0-0.005,1-0.573,1-0.573l2.574-1.467l0.385-0.218
							l0.16-0.092l0.229-0.13l0.158-0.089l0.383-0.222L92.459,148.815z"/>
					</g>
					<g>
						
							<rect x="87.111" y="144.831" transform="matrix(-0.864 -0.5035 0.5035 -0.864 86.2412 327.3865)" fill="#D4DBDC" width="0.444" height="14.432"/>
					</g>
					<path fill="#D4DBDC" d="M89.26,150.952c-0.004,1.221-0.871,2.696-1.93,3.3c-1.063,0.605-1.916,0.106-1.905-1.111
						c0.007-1.221,0.87-2.697,1.926-3.304C88.414,149.234,89.268,149.732,89.26,150.952z"/>
				</g>
				<path fill="#BBC5CB" d="M90.617,145.6c-0.097,0.012-0.189,0.026-0.291,0.057c-0.521,0.118-1.07,0.338-1.648,0.662
					c-0.354,0.201-0.699,0.438-1.037,0.701c-0.127,0.092-0.254,0.195-0.375,0.301c-0.059,0.049-0.111,0.097-0.168,0.15
					c-0.129,0.109-0.256,0.229-0.377,0.348c-0.699,0.68-1.331,1.473-1.87,2.32c-0.141,0.217-0.271,0.438-0.396,0.661
					c-0.516,0.913-0.936,1.871-1.208,2.841c-0.053,0.167-0.087,0.332-0.135,0.5c-0.016,0.086-0.031,0.158-0.05,0.229
					c-0.042,0.162-0.067,0.321-0.1,0.484c-0.091,0.5-0.135,0.995-0.135,1.476c-0.026,3.69,2.563,5.198,5.773,3.373
					c3.207-1.83,5.826-6.313,5.849-10.006C94.467,146.788,92.867,145.23,90.617,145.6z M88.609,158.606
					c-1.975,1.124-3.658,0.737-4.403-0.76c-0.084-0.151-0.146-0.319-0.2-0.497c-0.071-0.21-0.12-0.407-0.15-0.624
					c-0.055-0.291-0.078-0.607-0.075-0.938c0-0.488,0.062-0.983,0.159-1.483c0.026-0.168,0.072-0.327,0.114-0.495
					c0.021-0.075,0.038-0.155,0.061-0.232c0.053-0.173,0.106-0.352,0.175-0.523c0.216-0.63,0.498-1.258,0.836-1.852
					c0.123-0.229,0.257-0.448,0.396-0.663c0.354-0.558,0.758-1.072,1.194-1.542c0.121-0.133,0.246-0.255,0.373-0.376
					c0.055-0.063,0.115-0.114,0.178-0.165c0.119-0.114,0.242-0.221,0.369-0.32c0.336-0.278,0.688-0.516,1.041-0.716
					c0.293-0.166,0.574-0.297,0.848-0.39c0.207-0.072,0.396-0.126,0.586-0.158c0.078-0.014,0.136-0.022,0.188-0.028
					c0.125-0.019,0.246-0.029,0.363-0.029c1.69-0.042,2.858,1.31,2.838,3.437C93.461,153.333,91.291,157.071,88.609,158.606z"/>
			</g>
		</g>
		<g>
			<g>
				<path fill="#606870" d="M93.934,141.385l-5.287,11.735c-0.145,0.319-0.422,0.539-0.744,0.61
					c-0.229,0.058-0.475,0.033-0.696-0.068c-0.568-0.297-0.787-0.92-0.552-1.443l5.287-11.727c0.246-0.555,0.896-0.799,1.447-0.553
					c0.232,0.105,0.414,0.285,0.521,0.5C94.055,140.729,94.074,141.073,93.934,141.385z"/>
			</g>
			<g>
				<path fill="#515256" d="M93.934,141.385l-5.287,11.735c-0.145,0.319-0.422,0.539-0.744,0.61
					c-0.229,0.058-0.475,0.033-0.696-0.068c-0.218-0.321-0.236-0.668-0.097-0.979l5.283-11.73c0.252-0.552,0.896-0.795,1.447-0.549
					c0.025,0.013,0.049,0.021,0.07,0.039C94.055,140.729,94.074,141.073,93.934,141.385z"/>
			</g>
		</g>
		<g>
			<path fill="#F6872E" d="M94.482,136.087c0,0,3.156,4.972,2.191,6.348c-2.637,3.772-10.488,0.182-16.366,8.45l-1.146-7.4
				l4.53-6.146l5.776-1.249L94.482,136.087L94.482,136.087z"/>
			<path fill="#FEED61" d="M94.482,136.082c0,0-14.072,5.536-14.172,14.804c0,0-4.543-0.434-6.875-2.591
				c-0.02-0.021-0.038-0.038-0.06-0.063c-2.252-2.338,3.818-12.229,12.415-15.773h0.396c0,0,0.365,0.039,0.957,0.156
				C88.707,132.926,91.904,133.804,94.482,136.082z"/>
			<path fill="#FFCF2E" d="M94.482,136.082c0,0-14.072,5.536-14.172,14.804c0,0-4.543-0.434-6.875-2.591
				c-0.02-0.021-0.038-0.038-0.06-0.063c-0.044-3.875,5.839-12.174,13.769-15.617C88.707,132.926,91.904,133.804,94.482,136.082z"/>
		</g>
	</g>
	<path fill="#FDCEA1" d="M111.881,105.985c1.104-0.568,2.529-2.625,1.854-3.217c-0.278-0.249-1.34,0.95-1.34,0.95L112,104.144
		l-0.806-2.11c0,0-1.375,1.381-1.463,1.669c-0.086,0.289-0.063,1.571,0,1.8C109.797,105.73,111.406,106.229,111.881,105.985z"/>
	<g>
		<path fill="#4D474A" d="M115.268,106.982c-0.217,0-0.44-0.052-0.647-0.163l-7.146-3.867c-0.666-0.358-0.91-1.188-0.557-1.852
			c0.356-0.67,1.188-0.912,1.854-0.556l7.15,3.87c0.662,0.358,0.906,1.188,0.549,1.85
			C116.223,106.723,115.754,106.982,115.268,106.982z"/>
	</g>
	<g>
		<path fill="#EF4747" d="M138.98,71.994c-0.727,2.231-7.723,15.321-8.207,16.165c-0.225,0.388-1.703,0.831-3.16,0.785
			c-0.127,0-0.245-0.004-0.364-0.016c-1.59-0.12-3.021-0.87-2.564-2.938c0.906-4.104,7.063-20.16,8.99-21.414
			c0,0,2.305-2.059,4.223-1.652c0.166,0.032,0.328,0.086,0.486,0.164c0.211,0.093,0.414,0.229,0.6,0.406
			C140.971,65.359,139.703,69.765,138.98,71.994z"/>
		<path fill="#EF4747" d="M130.773,88.159c-1.946,4.464-13.108,12.21-14.188,12.928c-0.228,0.146-0.611,0.129-1.049-0.018
			c-0.449-0.146-0.943-0.438-1.359-0.824c-0.828-0.768-1.346-1.917-0.559-3.155c0,0,10.237-10.974,11.063-11.099
			c0.486-0.07,3.064-0.489,4.771-0.109c0.082,0.021,0.159,0.045,0.241,0.063C130.723,86.238,131.336,86.878,130.773,88.159z"/>
		<path opacity="0.3" fill="#D56F88" enable-background="new    " d="M138.98,71.994c-0.727,2.231-7.723,15.321-8.207,16.165
			c-1.946,4.464-13.108,12.21-14.188,12.928c-0.228,0.146-0.611,0.129-1.049-0.018c-0.449-0.146-0.943-0.438-1.359-0.824
			c0.119-0.056,0.242-0.113,0.371-0.178c7.313-3.393,11.236-8.223,13.063-11.123c0.943-1.504,1.326-2.485,1.326-2.485
			c0.181-0.189,0.349-0.386,0.517-0.577c8.271-9.633,8.928-22.793,8.928-22.793c0.211,0.093,0.414,0.229,0.6,0.406
			C140.971,65.359,139.703,69.765,138.98,71.994z"/>
		<g>
			<path fill="#FDCEA1" d="M107.248,101.031c0,0,1.711-1.282,3.735-1.572c1.722-0.246,2.412-1.245,2.757-1.438
				c1.008-0.559,2.854,1.913,2.116,2.479c-1.229,0.938-1.606,1.081-2.114,1.367c-0.58,0.325-2.115,1.798-2.318,2.359
				C111.219,104.789,105.863,103.454,107.248,101.031z"/>
			<path fill="#FDCEA1" d="M111.428,103.411c0,0-0.139,1.39,0.324,1.921c1.387,1.6-3.5,0.274-4.262-0.978
				c0,0-0.748-2.507-0.324-3.164c0.649-1.021,4.401,1.992,4.401,1.992L111.428,103.411z"/>
		</g>
	</g>
	<g>
		<path opacity="0.5" fill="#9B6B4F" enable-background="new    " d="M156.652,95.277c0,0-3.813,2.638-7.17,4.145l2.504-1.803
			l3.566-2.175L156.652,95.277z"/>
		<path opacity="0.5" fill="#9B6B4F" enable-background="new    " d="M156.652,96.396c0.101,0.167-7.067,4.309-7.17,4.142
			l2.504-1.803l3.566-2.172L156.652,96.396z"/>
		<path opacity="0.5" fill="#9B6B4F" enable-background="new    " d="M156.652,97.596c0,0-3.813,2.633-7.17,4.139l2.504-1.797
			l3.566-2.175L156.652,97.596z"/>
		<g>
			<g>
				<path fill="#FFCF2E" d="M149.482,99.422c0-0.17,0.045-0.347,0.121-0.52c0.121-0.288,0.334-0.561,0.576-0.695l5.775-3.332
					c0.387-0.225,0.694-0.043,0.694,0.399c0,0.011-0.194,0.123-0.194,0.123L149.482,99.422z"/>
			</g>
			<g>
				<path fill="#FFCF2E" d="M149.482,101.735c0-0.175,0.045-0.353,0.121-0.521c0.121-0.293,0.334-0.562,0.576-0.698l5.775-3.332
					c0.387-0.224,0.694-0.043,0.694,0.403c0,0.009-0.194,0.121-0.194,0.121L149.482,101.735z"/>
			</g>
			<g>
				<path fill="#FFCF2E" d="M149.482,100.536c0-0.178,0.045-0.354,0.121-0.522c0.121-0.286,0.334-0.559,0.576-0.697l5.775-3.332
					c0.387-0.221,0.694-0.043,0.694,0.401c0,0.01-0.194,0.124-0.194,0.124L149.482,100.536z"/>
			</g>
		</g>
	</g>
	<path fill="#F6872E" d="M138.381,133.301l-33.598,19.45c-0.242,0.124-0.527,0.166-0.793,0.099
		c-1.037-2.881-2.371-6.869-3.802-11.771c-3.094-10.657-1.227-13.968-1.227-13.968l7.021-18.479l0.263,0.154
		c0.481,0.292,0.69,0.89,0.481,1.419c-1.047,2.646-4.151,10.521-6.244,16.122c-0.116,0.313-0.227,0.61-0.334,0.898
		c-1.452,3.92,2.521,16.496,4.021,21.558c0.367,1.227,1.766,1.146,2.883,0.527l24.43-14.445L138.381,133.301z"/>
</g>
<g>
	<circle fill="#414042" cx="22.315" cy="72.334" r="15.949"/>
	<g>
		<ellipse fill="#FFFFFF" cx="21.399" cy="71.473" rx="14.149" ry="14.356"/>
		<rect x="20.819" y="58.304" fill="#BCBEC0" width="1.161" height="2.655"/>
		<rect x="20.819" y="82.164" fill="#BCBEC0" width="1.161" height="2.654"/>
		<rect x="8.141" y="70.893" fill="#BCBEC0" width="2.656" height="1.161"/>
		<rect x="32" y="70.893" fill="#BCBEC0" width="2.653" height="1.161"/>
	</g>
	<circle fill="#BCBEC0" cx="21.4" cy="71.474" r="0.89"/>
	<g>
		<polygon fill="#BCBEC0" points="21.084,72.227 16.622,62.224 22.291,71.594 		"/>
		<polygon fill="#BCBEC0" points="20.986,70.894 28.092,68.115 21.754,72.365 		"/>
	</g>
</g>
<g enable-background="new    ">
	<path fill="#414042" d="M46.686,63.736v12.601H43.77v-10.26h-2.52v-2.341H46.686z"/>
	<path fill="#414042" d="M57.306,70.098c0.588,0.644,0.882,1.438,0.882,2.386c0,0.731-0.191,1.406-0.576,2.024
		c-0.384,0.618-0.969,1.113-1.755,1.485s-1.749,0.558-2.889,0.558c-0.888,0-1.761-0.117-2.619-0.351
		c-0.857-0.234-1.587-0.567-2.187-0.999l1.134-2.232c0.479,0.36,1.035,0.64,1.665,0.837c0.63,0.198,1.274,0.297,1.935,0.297
		c0.732,0,1.309-0.141,1.729-0.423c0.42-0.281,0.63-0.681,0.63-1.196c0-1.031-0.786-1.549-2.358-1.549h-1.332v-1.926l2.592-2.934
		h-5.363v-2.341h8.819v1.891l-2.844,3.24C55.872,69.045,56.719,69.456,57.306,70.098z"/>
	<path fill="#414042" d="M68.925,67.587c0.738,0.72,1.107,1.788,1.107,3.204v5.544h-2.809v-5.112c0-0.768-0.168-1.341-0.504-1.719
		s-0.822-0.567-1.458-0.567c-0.708,0-1.271,0.221-1.692,0.657c-0.42,0.438-0.63,1.089-0.63,1.953v4.788h-2.808V62.979h2.808v4.682
		c0.372-0.372,0.822-0.657,1.351-0.855c0.527-0.197,1.104-0.297,1.728-0.297C67.218,66.507,68.187,66.867,68.925,67.587z"/>
	<path fill="#414042" d="M88.608,73.689h-2.052v2.646h-2.844v-2.646h-6.786v-1.962l5.94-7.991h3.06l-5.508,7.577h3.384v-2.356h2.754
		v2.356h2.052V73.689z"/>
	<path fill="#414042" d="M97.689,69.531c0.847,0.708,1.27,1.654,1.27,2.844c0,0.768-0.191,1.467-0.576,2.097
		c-0.384,0.63-0.969,1.135-1.754,1.513c-0.787,0.378-1.756,0.566-2.908,0.566c-0.888,0-1.761-0.117-2.618-0.351
		c-0.857-0.234-1.587-0.567-2.187-0.999l1.15-2.232c0.479,0.36,1.032,0.64,1.655,0.837c0.625,0.198,1.267,0.297,1.927,0.297
		c0.731,0,1.309-0.144,1.729-0.432s0.631-0.689,0.631-1.206c0-0.54-0.22-0.947-0.657-1.224s-1.197-0.414-2.276-0.414H89.85
		l0.648-7.093h7.686v2.341h-5.256l-0.198,2.394h1.026C95.531,68.469,96.842,68.823,97.689,69.531z"/>
</g>
<g>
	<path fill="#B3B3B3" d="M20.412,18h-2.919v3.764h-4.046V18H3.794V15.21l8.45-11.369h4.353L8.761,14.62h4.813v-3.354h3.918v3.354
		h2.919V18z"/>
	<path fill="#B3B3B3" d="M22.741,21.252c-0.478-0.478-0.717-1.075-0.717-1.792c0-0.733,0.239-1.327,0.717-1.779
		c0.478-0.452,1.067-0.679,1.767-0.679c0.7,0,1.289,0.227,1.767,0.679c0.478,0.453,0.717,1.046,0.717,1.779
		c0,0.717-0.239,1.315-0.717,1.792c-0.478,0.478-1.067,0.717-1.767,0.717C23.808,21.969,23.219,21.73,22.741,21.252z"/>
</g>
</svg>
