<?xml version="1.0" encoding="utf-8"?>
<!-- Generator: Adobe Illustrator 16.0.3, SVG Export Plug-In . SVG Version: 6.00 Build 0)  -->
<!DOCTYPE svg PUBLIC "-//W3C//DTD SVG 1.1//EN" "http://www.w3.org/Graphics/SVG/1.1/DTD/svg11.dtd">
<svg version="1.1" id="Layer_1" xmlns="http://www.w3.org/2000/svg" xmlns:xlink="http://www.w3.org/1999/xlink" x="0px" y="0px"
	 width="173.54px" height="99.967px" viewBox="0 0 173.54 99.967" enable-background="new 0 0 173.54 99.967" xml:space="preserve">
<g>
	<g>
		<path fill="#FBB040" d="M3.12,83.283c0.352,0,0.527,0.176,0.527,0.526v6.196h11.152V83.81c0-0.351,0.175-0.526,0.524-0.526h2.574
			c0.365,0,0.546,0.176,0.546,0.526v15.634c0,0.349-0.181,0.523-0.546,0.523h-2.574c-0.349,0-0.524-0.175-0.524-0.523v-6.341H3.647
			v6.341c0,0.349-0.175,0.523-0.527,0.523H0.549C0.183,99.967,0,99.792,0,99.443V83.81c0-0.351,0.183-0.526,0.549-0.526H3.12z"/>
		<path fill="#FBB040" d="M38.559,83.283c0.365,0,0.547,0.176,0.547,0.526v2.264c0,0.349-0.182,0.523-0.547,0.523H28.145
			c-0.622,0-1.131,0.053-1.538,0.153c-0.405,0.105-0.731,0.278-0.977,0.526c-0.246,0.247-0.417,0.58-0.513,1.001
			c-0.094,0.421-0.141,0.94-0.141,1.563v0.236h13.462c0.351,0,0.526,0.176,0.526,0.524v1.884c0,0.347-0.175,0.523-0.526,0.523
			H24.976v0.405c0,0.621,0.047,1.14,0.141,1.561c0.096,0.421,0.267,0.755,0.513,1.001c0.246,0.246,0.572,0.421,0.977,0.524
			c0.407,0.104,0.916,0.155,1.538,0.155h10.415c0.365,0,0.547,0.175,0.547,0.523v2.266c0,0.349-0.182,0.523-0.547,0.523H28.07
			c-1.205,0-2.229-0.111-3.071-0.334c-0.842-0.222-1.53-0.583-2.061-1.084c-0.533-0.5-0.921-1.152-1.169-1.954
			c-0.246-0.803-0.369-1.776-0.369-2.918v-4.101c0-1.144,0.123-2.114,0.369-2.909c0.248-0.793,0.636-1.441,1.169-1.94
			c0.531-0.502,1.219-0.866,2.061-1.096s1.866-0.348,3.071-0.348H38.559z"/>
		<path fill="#FBB040" d="M44.922,83.283c0.349,0,0.524,0.176,0.524,0.526v9.51c0,0.632,0.051,1.163,0.154,1.582
			c0.104,0.423,0.274,0.755,0.513,1.001c0.24,0.248,0.561,0.423,0.965,0.524c0.406,0.104,0.918,0.155,1.537,0.155h9.652
			c0.349,0,0.524,0.175,0.524,0.523v2.338c0,0.349-0.176,0.523-0.524,0.523h-9.795c-1.207,0-2.231-0.111-3.073-0.334
			c-0.844-0.222-1.53-0.583-2.062-1.084c-0.535-0.5-0.923-1.152-1.168-1.954c-0.248-0.803-0.371-1.776-0.371-2.918V83.81
			c0-0.351,0.184-0.526,0.549-0.526H44.922z"/>
		<path fill="#FBB040" d="M63.676,83.283c0.351,0,0.525,0.176,0.525,0.526v9.51c0,0.632,0.051,1.163,0.154,1.582
			c0.104,0.423,0.274,0.755,0.513,1.001c0.238,0.248,0.561,0.423,0.965,0.524c0.404,0.104,0.918,0.155,1.537,0.155h9.652
			c0.349,0,0.524,0.175,0.524,0.523v2.338c0,0.349-0.176,0.523-0.524,0.523h-9.795c-1.207,0-2.232-0.111-3.073-0.334
			c-0.844-0.222-1.53-0.583-2.061-1.084c-0.535-0.5-0.924-1.152-1.171-1.954c-0.246-0.803-0.369-1.776-0.369-2.918V83.81
			c0-0.351,0.183-0.526,0.55-0.526H63.676z"/>
		<path fill="#FBB040" d="M93.538,83.283c1.205,0,2.235,0.118,3.086,0.348c0.849,0.229,1.541,0.594,2.072,1.096
			c0.532,0.499,0.918,1.147,1.156,1.94c0.238,0.795,0.357,1.766,0.357,2.909v4.101c0,1.142-0.119,2.115-0.357,2.918
			c-0.238,0.802-0.624,1.454-1.156,1.954c-0.531,0.501-1.224,0.862-2.072,1.084c-0.851,0.223-1.881,0.334-3.086,0.334h-7.365
			c-1.208,0-2.232-0.111-3.073-0.334c-0.843-0.222-1.528-0.583-2.063-1.084c-0.531-0.5-0.922-1.152-1.165-1.954
			c-0.248-0.803-0.371-1.776-0.371-2.918v-4.101c0-1.144,0.123-2.114,0.371-2.909c0.243-0.793,0.634-1.441,1.165-1.94
			c0.534-0.502,1.22-0.866,2.063-1.096c0.841-0.229,1.865-0.348,3.073-0.348H93.538z M83.146,93.413c0,0.621,0.052,1.14,0.157,1.561
			c0.103,0.421,0.274,0.755,0.513,1.001c0.236,0.246,0.56,0.421,0.963,0.524c0.406,0.104,0.92,0.155,1.539,0.155h7.076
			c0.62,0,1.135-0.051,1.536-0.155c0.406-0.104,0.728-0.278,0.966-0.524c0.237-0.246,0.408-0.58,0.512-1.001
			c0.106-0.421,0.157-0.939,0.157-1.561V89.84c0-0.622-0.051-1.142-0.157-1.563c-0.104-0.421-0.274-0.754-0.512-1.001
			c-0.238-0.248-0.56-0.421-0.966-0.526c-0.401-0.101-0.916-0.153-1.536-0.153h-7.076c-0.619,0-1.133,0.053-1.539,0.153
			c-0.403,0.105-0.727,0.278-0.963,0.526c-0.238,0.247-0.41,0.58-0.513,1.001c-0.105,0.421-0.157,0.94-0.157,1.563V93.413z"/>
	</g>
	<g>
		<path fill="#447B75" d="M120.896,83.283c0.351,0,0.524,0.176,0.524,0.526v2.334c0,0.366-0.174,0.549-0.524,0.549h-10.604
			c-0.619,0-1.133,0.051-1.535,0.153c-0.406,0.105-0.727,0.28-0.969,0.526c-0.236,0.245-0.406,0.574-0.509,0.988
			c-0.105,0.413-0.155,0.938-0.155,1.573v3.386c0,0.632,0.05,1.163,0.155,1.582c0.103,0.423,0.272,0.755,0.509,1.001
			c0.242,0.248,0.563,0.423,0.969,0.524c0.402,0.104,0.916,0.155,1.535,0.155h10.604c0.351,0,0.524,0.175,0.524,0.523v2.338
			c0,0.349-0.174,0.523-0.524,0.523h-10.747c-1.208,0-2.232-0.111-3.074-0.334c-0.844-0.222-1.528-0.583-2.062-1.084
			c-0.531-0.5-0.923-1.152-1.167-1.954c-0.246-0.803-0.369-1.776-0.369-2.918v-4.101c0-1.144,0.123-2.114,0.369-2.909
			c0.244-0.793,0.636-1.441,1.167-1.94c0.533-0.502,1.218-0.866,2.062-1.096c0.842-0.229,1.866-0.348,3.074-0.348H120.896z"/>
		<path fill="#447B75" d="M136.101,86.884c1.066,0,1.962,0.091,2.692,0.273c0.729,0.182,1.316,0.468,1.752,0.857
			c0.438,0.391,0.752,0.89,0.941,1.5c0.193,0.614,0.287,1.348,0.287,2.207v3.431c0,0.858-0.094,1.592-0.287,2.204
			c-0.189,0.612-0.504,1.111-0.941,1.502c-0.436,0.39-1.022,0.672-1.752,0.845c-0.73,0.178-1.626,0.264-2.692,0.264h-6.743
			c-1.081,0-1.982-0.086-2.705-0.264c-0.723-0.173-1.303-0.455-1.737-0.845c-0.441-0.391-0.752-0.89-0.943-1.502
			s-0.285-1.346-0.285-2.204v-3.431c0-0.859,0.094-1.593,0.285-2.207c0.191-0.61,0.502-1.109,0.943-1.5
			c0.435-0.39,1.015-0.676,1.737-0.857c0.723-0.183,1.624-0.273,2.705-0.273H136.101z M127.094,94.559
			c0,0.506,0.037,0.927,0.119,1.261c0.079,0.334,0.217,0.6,0.415,0.799c0.201,0.198,0.466,0.343,0.799,0.43
			c0.334,0.087,0.755,0.13,1.263,0.13h6.077c0.524,0,0.954-0.043,1.288-0.13c0.332-0.087,0.6-0.231,0.797-0.43
			c0.2-0.199,0.338-0.465,0.417-0.799c0.081-0.334,0.119-0.755,0.119-1.261v-2.266c0-0.491-0.038-0.907-0.119-1.239
			c-0.079-0.333-0.217-0.604-0.417-0.812c-0.197-0.204-0.465-0.349-0.797-0.428c-0.334-0.08-0.764-0.119-1.288-0.119h-6.077
			c-0.508,0-0.929,0.039-1.263,0.119c-0.333,0.079-0.598,0.224-0.799,0.428c-0.198,0.208-0.336,0.479-0.415,0.812
			c-0.082,0.332-0.119,0.748-0.119,1.239V94.559z"/>
		<path fill="#447B75" d="M147.468,82.093c0.351,0,0.523,0.176,0.523,0.524v16.826c0,0.349-0.173,0.523-0.523,0.523h-2.334
			c-0.351,0-0.525-0.175-0.525-0.523V82.617c0-0.349,0.175-0.524,0.525-0.524H147.468z"/>
		<path fill="#447B75" d="M153.902,82.044c0.349,0,0.524,0.176,0.524,0.526v2.264c0,0.364-0.176,0.547-0.524,0.547h-2.334
			c-0.366,0-0.549-0.183-0.549-0.547V82.57c0-0.351,0.183-0.526,0.549-0.526H153.902z M153.902,86.884
			c0.349,0,0.524,0.181,0.524,0.548v12.012c0,0.349-0.176,0.523-0.524,0.523h-2.334c-0.351,0-0.527-0.175-0.527-0.523V87.432
			c0-0.367,0.177-0.548,0.527-0.548H153.902z"/>
		<path fill="#447B75" d="M172.541,86.884c0.283,0,0.427,0.142,0.427,0.429v1.905c0,0.286-0.144,0.431-0.427,0.431H161.79
			c-0.491,0-0.833,0.09-1.022,0.274c-0.191,0.181-0.289,0.448-0.289,0.798v0.358c0,0.317,0.098,0.567,0.289,0.748
			c0.189,0.184,0.531,0.274,1.022,0.274h8.032c1.333,0,2.287,0.278,2.859,0.834c0.573,0.557,0.858,1.343,0.858,2.359v1.334
			c0,0.527-0.063,0.993-0.191,1.409c-0.127,0.411-0.34,0.761-0.633,1.048c-0.292,0.285-0.679,0.504-1.156,0.653
			c-0.475,0.152-1.063,0.228-1.763,0.228h-12.2c-0.287,0-0.43-0.145-0.43-0.43V97.63c0-0.286,0.143-0.427,0.43-0.427h11.295
			c0.493,0,0.839-0.089,1.039-0.264c0.195-0.174,0.298-0.468,0.298-0.882v-0.643c0-0.318-0.103-0.564-0.298-0.741
			c-0.2-0.173-0.546-0.26-1.039-0.26h-8.007c-1.333,0-2.288-0.274-2.861-0.822c-0.569-0.547-0.856-1.346-0.856-2.396v-1.05
			c0-0.491,0.062-0.939,0.191-1.346c0.125-0.404,0.338-0.75,0.631-1.035c0.294-0.287,0.681-0.506,1.156-0.657
			c0.475-0.15,1.063-0.225,1.763-0.225H172.541z"/>
	</g>
	<path fill-rule="evenodd" clip-rule="evenodd" fill="#FBB040" d="M65.417,31.098c-1.484-0.631-2.785-1.146-4.046-1.752
		c-0.219-0.101-0.353-0.578-0.353-0.885c-0.021-5.473-0.008-10.944-0.034-16.415c0-0.694,0.236-0.923,0.917-1.047
		c11.522-2.089,23.041-4.213,34.562-6.326c0.273-0.047,0.553-0.073,0.808-0.164c3.08-1.06,5.937-0.251,8.957,1.063
		c-2.674,0.579-5.159,1.131-7.646,1.662c-10.722,2.298-21.441,4.598-32.169,6.867c-0.777,0.165-1.014,0.492-1.009,1.256
		c0.027,4.723,0.013,9.446,0.013,14.169C65.417,29.989,65.417,30.445,65.417,31.098z"/>
	<path fill-rule="evenodd" clip-rule="evenodd" fill="#447B75" d="M124.868,50.251l-6.529,1.914c0,0.009,0,0.018,0,0.027
		c-0.032,0-0.06,0-0.091,0l-6.485,1.902c-0.166,0.101-0.328,0.159-0.493,0.144l-0.17,0.051c-1.631,0.513-2.3,1.21-3.306,1.951
		c-0.117,0.085-0.231,0.175-0.425,0.325c0-1.315,0.004-2.54,0-3.767c-0.007-0.949,0.021-1.901-0.043-2.846
		c-0.023-0.341-0.189-0.74-0.423-0.986c-0.524-0.554-1.139-1.023-1.698-1.537c-0.391-0.352-0.75-0.731-1.127-1.096
		c-0.684-0.656-1.366-1.316-2.065-1.96c-0.44-0.411-0.914-0.782-1.356-1.184c-0.521-0.468-1.016-0.948-1.524-1.417
		c-0.484-0.44-0.988-0.858-1.475-1.297c-0.723-0.65-1.435-1.319-2.168-1.96c-0.153-0.136-0.385-0.253-0.58-0.256
		c-1.707-0.033-3.41-0.055-5.123-0.039c-1.031,0.005-2.064,0.092-3.099,0.104c-0.729,0.011-1.456-0.06-2.184-0.06
		c-0.354,0-0.752-0.013-1.044,0.141c-0.263,0.138-0.45,0.479-0.595,0.767c-0.882,1.779-1.686,3.602-2.632,5.347
		c-0.495,0.913-1.588,1.327-2.958,1.195c-1.176-0.112-1.775-0.841-2.269-1.831c-0.393-0.783-0.351-1.545-0.121-2.313
		c0.139-0.475,0.428-0.911,0.64-1.363c0.487-1.043,0.97-2.092,1.458-3.137c0.349-0.746,0.693-1.503,1.059-2.244
		c0.066-0.136,0.188-0.298,0.321-0.343c0.683-0.247,1.388-0.44,2.068-0.693c1.014-0.37,2.011-0.782,3.017-1.166
		c0.808-0.306,1.625-0.584,2.432-0.896c0.935-0.361,1.855-0.741,2.786-1.117c0.775-0.312,1.558-0.588,2.415-0.396
		c0.228,0.05,0.474,0.095,0.674,0.208c1.39,0.776,2.773,1.574,4.155,2.362c1.131,0.642,2.228,1.373,3.413,1.893
		c0.664,0.289,1.478,0.282,2.23,0.314c0.893,0.042,1.805,0.125,2.705,0.112c0.894-0.013,1.805,0.026,2.697,0.018
		c0.728-0.003,1.47-0.129,2.213-0.264l15.706-4.606c0.002-6.72,0.004-13.439,0.007-20.158c0-0.671,0.076-1.221-0.88-1.478
		c-10.312-2.795-20.608-5.66-30.919-8.476c-0.621-0.167-1.33-0.183-1.962-0.081c-9.127,1.44-18.248,2.91-27.362,4.379
		c-3.952,0.636-7.903,1.279-11.889,1.922c-0.031,0.347-0.072,0.615-0.072,0.885c0,6.261,0,12.523,0.002,18.784l7.508,5.778
		c0.813,0.334,1.745,1.288,2.401,1.629c1.482,0.774,1.754,0.908,3.015,1.151c0.941,0.153,1.673,0.259,2.551,0.254
		c0.741-0.009,1.5-0.099,2.255-0.254c0.806-0.167,1.622-0.3,2.43-0.606c0.927-0.35,1.902-0.587,2.853-0.897
		c0.801-0.262,1.597-0.563,2.401-0.837c0.807-0.279,1.627-0.539,2.435-0.821c0.978-0.34,1.946-0.696,2.918-1.049
		c0.549-0.203,1.099-0.406,1.66-0.618c0.132,0.265,0.236,0.486,0.338,0.683c-1.229,0.494-2.444,1.004-3.679,1.473
		c-0.628,0.244-1.288,0.4-1.926,0.618c-0.493,0.168-1.004,0.313-1.454,0.567c-0.291,0.162-0.54,0.47-0.704,0.771
		c-0.444,0.806-0.854,1.638-1.247,2.476c-0.683,1.473-1.371,2.947-2.011,4.441c-0.581,1.369-0.502,2.693,0.159,4.067
		c0.614,1.276,1.704,1.873,2.884,2.313c0.61,0.229,1.389,0.189,2.058,0.067c1.813-0.322,2.942-1.528,3.692-3.143
		c0.533-1.164,1.061-2.329,1.599-3.493c0.104-0.221,0.168-0.577,0.334-0.628c0.359-0.121,0.765-0.099,1.156-0.106
		c0.895-0.015,1.787-0.015,2.685-0.015c0.918,0,1.841,0.011,2.761,0.011c0.69,0,1.386,0,2.075-0.023
		c0.486-0.013,0.973-0.068,1.46-0.08c0.123-0.005,0.273,0.059,0.361,0.142c1.263,1.197,2.502,2.421,3.779,3.601
		c0.729,0.667,1.521,1.248,2.255,1.904c0.766,0.686,1.485,1.429,2.247,2.127c0.81,0.745,1.649,1.454,2.455,2.205
		c0.143,0.133,0.246,0.385,0.25,0.582c0.034,1.576,0.041,3.157,0.045,4.732c0.003,0.97-0.021,1.944-0.011,2.912
		c0.003,0.589,0.094,1.187,0.038,1.769c-0.038,0.387-0.178,0.836-0.427,1.118c-1.212,1.378-2.766,1.447-4.16,0.257
		c-0.167-0.137-0.278-0.387-0.322-0.605c-0.072-0.359-0.087-0.739-0.083-1.111c0.013-1.185,0.062-2.372,0.07-3.555
		c0.011-1.097,0.013-2.193-0.026-3.292c-0.017-0.578-0.203-1.109-0.79-1.39c-0.104-0.052-0.183-0.15-0.269-0.23
		c-0.962-0.84-1.921-1.672-2.871-2.519c-0.513-0.457-1.003-0.945-1.514-1.404c-0.893-0.796-1.798-1.575-2.69-2.37
		c-0.315-0.285-0.594-0.604-0.916-0.88c-0.432-0.369-0.917-0.326-1.268,0.077c-0.3,0.347-0.257,0.698,0.186,1.095
		c1.388,1.26,2.79,2.501,4.175,3.759c0.805,0.726,1.581,1.479,2.383,2.205c0.555,0.498,1.137,0.962,1.681,1.464
		c0.132,0.123,0.244,0.338,0.244,0.513c0.009,1.734-0.011,3.469,0.001,5.199c0.008,1.223,0.134,2.446,0.069,3.66
		c-0.044,0.768,0.123,1.579-0.419,2.307c-0.425,0.573-0.962,0.883-1.603,1.057c-0.754,0.206-1.437-0.056-2.104-0.383
		c-0.651-0.318-0.536-0.927-0.54-1.456c-0.016-1.135,0.04-2.271,0.046-3.406c0.001-1.077-0.029-2.159-0.046-3.239
		c0-0.087-0.009-0.173,0.017-0.253c0.313-1.059-0.238-1.713-1.005-2.334c-0.798-0.647-1.526-1.384-2.283-2.082
		c-0.708-0.654-1.418-1.301-2.124-1.957c-0.396-0.37-0.786-0.747-1.179-1.117c-0.355-0.336-0.706-0.33-1.078,0.015
		c-0.293,0.277-0.366,0.761-0.092,1.059c0.462,0.494,0.968,0.947,1.465,1.412c0.825,0.773,1.656,1.539,2.491,2.305
		c0.668,0.614,1.348,1.22,2.013,1.835c0.083,0.078,0.16,0.217,0.162,0.333c0.029,1.261,0.051,2.515,0.049,3.776
		c-0.007,1.286-0.049,2.576-0.056,3.866c-0.008,0.676,0.007,1.352,0.049,2.021c0.07,1.086-0.597,2.296-1.861,2.578
		c-1.288,0.291-2.348-0.029-3.154-1.077c-0.088-0.11-0.083-0.401,0-0.513c0.844-1.124,1.77-2.191,2.559-3.349
		c0.771-1.127,1.041-2.396,0.477-3.718c-0.191-0.44-0.413-0.885-0.699-1.263c-0.802-1.039-1.978-1.293-3.25-1.479
		c0.519-0.966,0.722-1.976,0.42-3.028c-0.286-1.022-0.86-1.872-1.757-2.457c-0.887-0.581-1.913-0.602-2.917-0.486
		c-1.03,0.122-1.872,0.652-2.523,1.443c-0.152-1.28-0.705-2.281-1.7-3.058c-0.731-0.571-1.566-0.763-2.459-0.778
		c-1.091-0.02-1.973,0.463-2.728,1.196c-0.495,0.484-0.943,1.021-1.36,1.48c-0.552-0.548-1.046-1.219-1.702-1.641
		c-0.748-0.485-1.606-0.916-2.572-0.407c-0.202,0.103-0.504,0.04-0.684,0.165c-0.523,0.357-1.027,0.753-1.503,1.17
		c-0.22,0.198-0.366,0.481-0.543,0.726c-0.707,0.972-1.409,1.949-2.125,2.916c-0.278,0.383-0.585,0.747-0.871,1.099
		c-0.677-0.385-1.053-0.531-1.81-0.903c-0.286-0.141-0.493-0.334-0.663-0.545v0.031l-7.813-6.01
		c0.002,2.182,0.002,4.364,0.007,6.544c0.002,0.484,0.346,1.133,0.739,1.427c8.606,6.487,17.247,12.931,25.862,19.412
		c0.635,0.479,1.13,0.453,1.805,0.211c14.504-5.205,29.007-10.4,43.521-15.554c0.925-0.329,1.15-0.792,1.142-1.702
		C124.875,55.363,124.869,52.807,124.868,50.251z M66.413,14.102c-0.777,0.165-1.014,0.492-1.009,1.256
		c0.027,4.723,0.013,9.446,0.013,14.169c0,0.462,0,0.918,0,1.57c-1.484-0.631-2.785-1.146-4.046-1.752
		c-0.219-0.101-0.353-0.578-0.353-0.885c-0.021-5.473-0.008-10.944-0.034-16.415c0-0.694,0.236-0.923,0.917-1.047
		c11.522-2.089,23.041-4.213,34.562-6.326c0.273-0.047,0.553-0.073,0.808-0.164c3.08-1.06,5.937-0.251,8.957,1.063
		c-2.674,0.579-5.159,1.131-7.646,1.662C87.86,9.533,77.141,11.833,66.413,14.102z M66.563,58.763
		c-0.906,1.346-2.876,0.921-3.597-0.181c-0.491-0.762-0.334-1.662,0.17-2.394c0.752-1.101,1.595-2.137,2.396-3.208
		c0.41-0.555,0.804-1.118,1.212-1.675c0.454-0.623,1.073-1.134,1.855-1.022c1.241,0.015,2.085,0.858,2.132,2.125
		c0.021,0.567-0.195,1.147-0.595,1.633c-0.462,0.562-0.861,1.17-1.297,1.749c-0.569,0.737-1.152,1.463-1.72,2.2
		C66.924,58.239,66.74,58.496,66.563,58.763z M67.529,61.925c-0.145-0.307-0.168-0.667-0.253-1.001
		c-0.036-0.896,0.559-1.476,0.979-2.104c0.551-0.815,1.181-1.577,1.773-2.365c1.046-1.391,2.094-2.78,3.131-4.173
		c0.403-0.535,0.86-1.037,1.176-1.617c0.376-0.687,1.885-0.998,2.501-0.833c0.899,0.235,1.539,0.809,1.86,1.604
		c0.344,0.864,0.165,1.762-0.406,2.535c-0.573,0.773-1.146,1.55-1.734,2.314c-0.84,1.093-1.702,2.168-2.544,3.263
		c-0.317,0.412-0.581,0.867-0.889,1.286c-0.455,0.614-0.869,1.272-1.398,1.814C70.252,64.161,68.293,63.545,67.529,61.925z
		 M77.509,66.314c-1.16,1.481-3.073,0.976-3.966-0.036c-0.591-0.676-0.697-2-0.196-2.717c0.704-1.008,1.443-1.989,2.2-2.956
		c0.612-0.788,1.279-1.528,1.9-2.307c0.571-0.713,1.104-1.451,1.66-2.171c0.618-0.8,1.222-1.617,1.872-2.383
		c0.426-0.506,0.868-1.046,1.418-1.37c1.057-0.627,2.795-0.343,3.418,0.961c0.164,0.339,0.285,0.701,0.428,1.051
		c-0.07,1.079-0.576,1.855-1.267,2.583c-0.534,0.56-0.959,1.216-1.443,1.821c-0.579,0.719-1.174,1.422-1.747,2.146
		c-0.209,0.264-0.352,0.582-0.562,0.845c-0.699,0.867-1.418,1.72-2.128,2.58C78.565,65.01,78.027,65.653,77.509,66.314z
		 M85.118,67.689c-0.367,0.464-0.741,0.923-1.115,1.38c-0.315,0.385-0.594,0.812-0.961,1.137c-0.56,0.491-1.268,0.657-2,0.618
		c-0.719-0.036-1.771-0.965-1.941-1.666c-0.087-0.361-0.181-0.719-0.268-1.077c0.004-0.607,0.293-1.066,0.64-1.496
		c0.558-0.705,1.138-1.395,1.688-2.096c0.674-0.856,1.333-1.72,1.994-2.58c0.727-0.936,1.461-1.868,2.177-2.813
		c0.427-0.56,2.004-1.057,2.668-0.814c1.713,0.632,2.049,1.73,1.76,3.322c-0.077,0.416-0.437,0.795-0.717,1.149
		c-0.948,1.194-1.928,2.367-2.884,3.557C85.801,66.755,85.47,67.232,85.118,67.689z"/>
</g>
</svg>
