<?xml version="1.0" encoding="utf-8"?>
<!-- Generator: Adobe Illustrator 16.0.3, SVG Export Plug-In . SVG Version: 6.00 Build 0)  -->
<!DOCTYPE svg PUBLIC "-//W3C//DTD SVG 1.1//EN" "http://www.w3.org/Graphics/SVG/1.1/DTD/svg11.dtd">
<svg version="1.1" id="Layer_1" xmlns="http://www.w3.org/2000/svg" xmlns:xlink="http://www.w3.org/1999/xlink" x="0px" y="0px"
	 width="171.915px" height="99.031px" viewBox="0 0 171.915 99.031" enable-background="new 0 0 171.915 99.031"
	 xml:space="preserve">
<g>
	<g>
		<path fill="#414042" d="M3.092,82.505c0.347,0,0.521,0.173,0.521,0.521v6.137h11.049v-6.137c0-0.348,0.174-0.521,0.519-0.521h2.55
			c0.361,0,0.542,0.173,0.542,0.521v15.485c0,0.349-0.181,0.521-0.542,0.521h-2.55c-0.345,0-0.519-0.172-0.519-0.521v-6.277H3.613
			v6.277c0,0.349-0.174,0.521-0.521,0.521h-2.55C0.18,99.031,0,98.859,0,98.511V83.025c0-0.348,0.18-0.521,0.542-0.521H3.092z"/>
		<path fill="#414042" d="M38.198,82.505c0.363,0,0.542,0.173,0.542,0.521v2.242c0,0.347-0.179,0.519-0.542,0.519H27.88
			c-0.612,0-1.12,0.052-1.521,0.154c-0.402,0.103-0.727,0.276-0.969,0.521c-0.244,0.244-0.415,0.574-0.508,0.991
			c-0.093,0.416-0.142,0.931-0.142,1.547v0.235H38.08c0.346,0,0.519,0.174,0.519,0.519v1.864c0,0.347-0.172,0.519-0.519,0.519
			H24.741v0.402c0,0.614,0.048,1.131,0.142,1.547c0.093,0.417,0.264,0.747,0.508,0.991c0.243,0.244,0.567,0.418,0.969,0.521
			c0.4,0.103,0.908,0.152,1.521,0.152h10.318c0.363,0,0.542,0.174,0.542,0.519v2.243c0,0.349-0.179,0.521-0.542,0.521H27.81
			c-1.195,0-2.213-0.111-3.045-0.33c-0.833-0.221-1.515-0.579-2.042-1.075c-0.528-0.495-0.912-1.142-1.158-1.937
			c-0.242-0.793-0.364-1.759-0.364-2.891v-4.063c0-1.132,0.122-2.092,0.364-2.878c0.246-0.786,0.63-1.429,1.158-1.925
			c0.527-0.497,1.209-0.857,2.042-1.087c0.833-0.227,1.85-0.342,3.045-0.342H38.198z"/>
		<path fill="#414042" d="M44.501,82.505c0.346,0,0.518,0.173,0.518,0.521v9.419c0,0.629,0.053,1.152,0.156,1.569
			c0.101,0.418,0.271,0.748,0.506,0.992c0.237,0.244,0.557,0.418,0.957,0.519c0.403,0.104,0.908,0.154,1.521,0.154h9.561
			c0.349,0,0.521,0.173,0.521,0.519v2.313c0,0.349-0.172,0.521-0.521,0.521h-9.702c-1.195,0-2.211-0.111-3.044-0.33
			c-0.834-0.221-1.515-0.579-2.042-1.075c-0.528-0.495-0.912-1.142-1.158-1.937c-0.242-0.793-0.366-1.759-0.366-2.891v-9.773
			c0-0.348,0.182-0.521,0.546-0.521H44.501z"/>
		<path fill="#414042" d="M63.081,82.505c0.347,0,0.519,0.173,0.519,0.521v9.419c0,0.629,0.053,1.152,0.153,1.569
			c0.102,0.418,0.272,0.748,0.508,0.992c0.236,0.244,0.555,0.418,0.956,0.519c0.402,0.104,0.91,0.154,1.522,0.154h9.563
			c0.347,0,0.519,0.173,0.519,0.519v2.313c0,0.349-0.172,0.521-0.519,0.521h-9.703c-1.197,0-2.213-0.111-3.045-0.33
			c-0.835-0.221-1.517-0.579-2.043-1.075c-0.527-0.495-0.913-1.142-1.157-1.937c-0.244-0.793-0.364-1.759-0.364-2.891v-9.773
			c0-0.348,0.179-0.521,0.542-0.521H63.081z"/>
		<path fill="#414042" d="M92.661,82.505c1.195,0,2.215,0.115,3.057,0.342c0.844,0.229,1.527,0.59,2.055,1.087
			c0.527,0.496,0.91,1.139,1.146,1.925c0.236,0.786,0.352,1.746,0.352,2.878v4.063c0,1.132-0.115,2.098-0.352,2.891
			c-0.235,0.795-0.618,1.441-1.146,1.937c-0.527,0.496-1.211,0.854-2.055,1.075c-0.842,0.219-1.861,0.33-3.057,0.33h-7.294
			c-1.197,0-2.211-0.111-3.046-0.33c-0.835-0.221-1.515-0.579-2.041-1.075c-0.529-0.495-0.915-1.142-1.159-1.937
			c-0.242-0.793-0.366-1.759-0.366-2.891v-4.063c0-1.132,0.124-2.092,0.366-2.878c0.244-0.786,0.63-1.429,1.159-1.925
			c0.526-0.497,1.206-0.857,2.041-1.087c0.835-0.227,1.849-0.342,3.046-0.342H92.661z M82.368,92.538
			c0,0.614,0.052,1.131,0.154,1.547c0.103,0.417,0.271,0.747,0.508,0.991c0.235,0.244,0.555,0.418,0.955,0.521
			c0.401,0.103,0.909,0.152,1.523,0.152h7.011c0.613,0,1.121-0.05,1.523-0.152c0.4-0.103,0.72-0.276,0.955-0.521
			c0.236-0.244,0.405-0.574,0.508-0.991c0.103-0.416,0.152-0.933,0.152-1.547v-3.539c0-0.616-0.05-1.131-0.152-1.547
			c-0.103-0.417-0.271-0.747-0.508-0.991c-0.235-0.244-0.555-0.418-0.955-0.521c-0.402-0.103-0.91-0.154-1.523-0.154h-7.011
			c-0.614,0-1.122,0.052-1.523,0.154c-0.4,0.103-0.72,0.276-0.955,0.521c-0.237,0.244-0.405,0.574-0.508,0.991
			c-0.103,0.416-0.154,0.931-0.154,1.547V92.538z"/>
	</g>
	<g>
		<path fill="#414042" d="M119.766,82.505c0.347,0,0.518,0.173,0.518,0.521v2.313c0,0.362-0.171,0.543-0.518,0.543h-10.505
			c-0.615,0-1.123,0.053-1.523,0.153c-0.402,0.102-0.72,0.276-0.957,0.521c-0.234,0.244-0.403,0.57-0.508,0.979
			c-0.103,0.409-0.152,0.928-0.152,1.558v3.353c0,0.629,0.05,1.152,0.152,1.569c0.104,0.418,0.273,0.748,0.508,0.992
			c0.237,0.244,0.555,0.418,0.957,0.519c0.4,0.104,0.908,0.154,1.523,0.154h10.505c0.347,0,0.518,0.173,0.518,0.519v2.313
			c0,0.349-0.171,0.521-0.518,0.521h-10.648c-1.197,0-2.209-0.111-3.046-0.33c-0.834-0.221-1.513-0.579-2.042-1.075
			c-0.526-0.495-0.912-1.142-1.154-1.937c-0.246-0.793-0.366-1.759-0.366-2.891v-4.063c0-1.132,0.12-2.092,0.366-2.878
			c0.242-0.786,0.628-1.429,1.154-1.925c0.529-0.497,1.208-0.857,2.042-1.087c0.837-0.227,1.849-0.342,3.046-0.342H119.766z"/>
		<path fill="#414042" d="M134.827,86.069c1.056,0,1.942,0.092,2.668,0.273c0.725,0.18,1.303,0.463,1.735,0.849
			s0.743,0.881,0.932,1.488c0.189,0.606,0.285,1.333,0.285,2.182v3.399c0,0.852-0.096,1.58-0.285,2.187
			c-0.188,0.604-0.499,1.1-0.932,1.486c-0.433,0.386-1.011,0.664-1.735,0.838c-0.726,0.174-1.612,0.26-2.668,0.26h-6.682
			c-1.069,0-1.963-0.086-2.678-0.26c-0.718-0.174-1.29-0.452-1.725-0.838c-0.435-0.387-0.743-0.882-0.932-1.486
			c-0.19-0.606-0.283-1.335-0.283-2.187v-3.399c0-0.849,0.093-1.575,0.283-2.182c0.188-0.607,0.497-1.103,0.932-1.488
			s1.007-0.669,1.725-0.849c0.715-0.182,1.608-0.273,2.678-0.273H134.827z M125.902,93.673c0,0.502,0.039,0.919,0.12,1.252
			c0.077,0.329,0.216,0.593,0.411,0.79c0.197,0.195,0.461,0.338,0.793,0.424c0.329,0.086,0.747,0.129,1.251,0.129h6.02
			c0.518,0,0.944-0.043,1.274-0.129s0.593-0.229,0.792-0.424c0.197-0.197,0.332-0.461,0.412-0.79
			c0.079-0.333,0.117-0.75,0.117-1.252v-2.244c0-0.488-0.038-0.897-0.117-1.228c-0.08-0.33-0.215-0.598-0.412-0.802
			c-0.199-0.205-0.462-0.347-0.792-0.426s-0.757-0.118-1.274-0.118h-6.02c-0.504,0-0.922,0.039-1.251,0.118
			c-0.332,0.079-0.596,0.221-0.793,0.426c-0.195,0.204-0.334,0.472-0.411,0.802c-0.081,0.33-0.12,0.739-0.12,1.228V93.673z"/>
		<path fill="#414042" d="M146.088,81.324c0.345,0,0.519,0.174,0.519,0.521v16.666c0,0.349-0.174,0.521-0.519,0.521h-2.313
			c-0.346,0-0.519-0.172-0.519-0.521V81.845c0-0.347,0.173-0.521,0.519-0.521H146.088z"/>
		<path fill="#414042" d="M152.463,81.277c0.345,0,0.518,0.173,0.518,0.519v2.244c0,0.362-0.173,0.544-0.518,0.544h-2.313
			c-0.364,0-0.545-0.182-0.545-0.544v-2.244c0-0.346,0.181-0.519,0.545-0.519H152.463z M152.463,86.069
			c0.345,0,0.518,0.182,0.518,0.544v11.897c0,0.349-0.173,0.521-0.518,0.521h-2.313c-0.346,0-0.521-0.172-0.521-0.521V86.613
			c0-0.362,0.175-0.544,0.521-0.544H152.463z"/>
		<path fill="#414042" d="M170.923,86.069c0.283,0,0.425,0.143,0.425,0.426v1.888c0,0.286-0.142,0.426-0.425,0.426h-10.646
			c-0.488,0-0.826,0.09-1.015,0.272c-0.19,0.18-0.285,0.445-0.285,0.79v0.355c0,0.313,0.095,0.562,0.285,0.743
			c0.188,0.18,0.526,0.272,1.015,0.272h7.956c1.32,0,2.267,0.272,2.832,0.824c0.567,0.551,0.851,1.33,0.851,2.338v1.321
			c0,0.521-0.064,0.983-0.19,1.393c-0.125,0.409-0.334,0.756-0.624,1.039c-0.291,0.282-0.674,0.499-1.146,0.648
			c-0.474,0.15-1.054,0.226-1.748,0.226h-12.086c-0.284,0-0.426-0.144-0.426-0.425v-1.89c0-0.284,0.142-0.424,0.426-0.424h11.188
			c0.49,0,0.831-0.086,1.028-0.261c0.195-0.172,0.296-0.465,0.296-0.874v-0.635c0-0.316-0.101-0.561-0.296-0.732
			c-0.197-0.174-0.538-0.261-1.028-0.261h-7.931c-1.323,0-2.268-0.271-2.833-0.816c-0.566-0.542-0.851-1.332-0.851-2.371v-1.039
			c0-0.488,0.063-0.933,0.19-1.333c0.124-0.4,0.334-0.743,0.625-1.027c0.292-0.283,0.673-0.498,1.145-0.649
			c0.473-0.148,1.054-0.225,1.746-0.225H170.923z"/>
	</g>
	<path fill-rule="evenodd" clip-rule="evenodd" fill="#414042" d="M123.698,49.781l-6.467,1.897c0,0.009,0,0.018,0,0.027
		c-0.032,0-0.059,0-0.09,0l-6.423,1.883c-0.165,0.102-0.329,0.16-0.49,0.144l-0.167,0.05c-1.619,0.508-2.281,1.199-3.277,1.933
		c-0.115,0.084-0.228,0.174-0.42,0.325c0-1.305,0.004-2.518,0-3.733c-0.007-0.938,0.02-1.884-0.043-2.819
		c-0.025-0.339-0.188-0.734-0.418-0.977c-0.521-0.549-1.128-1.013-1.686-1.522c-0.384-0.349-0.738-0.726-1.114-1.087
		c-0.677-0.649-1.354-1.304-2.045-1.941c-0.438-0.407-0.906-0.774-1.346-1.173c-0.514-0.463-1.005-0.939-1.512-1.404
		c-0.479-0.435-0.976-0.849-1.457-1.285c-0.718-0.644-1.423-1.306-2.148-1.942c-0.152-0.134-0.381-0.249-0.574-0.254
		c-1.69-0.031-3.38-0.053-5.074-0.039c-1.022,0.006-2.046,0.091-3.072,0.104c-0.722,0.011-1.443-0.059-2.161-0.059
		c-0.352,0-0.746-0.014-1.035,0.14c-0.259,0.137-0.447,0.474-0.587,0.76c-0.876,1.763-1.675,3.569-2.61,5.297
		c-0.489,0.904-1.571,1.314-2.929,1.185c-1.165-0.113-1.759-0.833-2.249-1.814c-0.386-0.776-0.346-1.529-0.12-2.292
		c0.139-0.471,0.424-0.901,0.634-1.35c0.484-1.034,0.964-2.072,1.444-3.108c0.345-0.74,0.688-1.489,1.051-2.223
		c0.064-0.134,0.185-0.295,0.317-0.34c0.677-0.246,1.375-0.436,2.05-0.687c1.003-0.366,1.992-0.774,2.988-1.155
		c0.8-0.303,1.609-0.579,2.41-0.888c0.923-0.357,1.838-0.734,2.759-1.106c0.766-0.309,1.541-0.582,2.393-0.392
		c0.226,0.05,0.47,0.094,0.669,0.206c1.375,0.77,2.746,1.559,4.114,2.339c1.119,0.638,2.205,1.361,3.381,1.876
		c0.657,0.287,1.463,0.278,2.209,0.313c0.885,0.04,1.79,0.123,2.68,0.11c0.885-0.014,1.788,0.026,2.673,0.018
		c0.722-0.005,1.455-0.127,2.189-0.262l15.561-4.563c0.002-6.656,0.004-13.313,0.008-19.969c0-0.665,0.075-1.208-0.871-1.463
		c-10.216-2.77-20.417-5.608-30.63-8.398c-0.615-0.165-1.315-0.18-1.945-0.08c-9.04,1.427-18.077,2.882-27.104,4.339
		c-3.916,0.629-7.829,1.267-11.779,1.904c-0.027,0.344-0.07,0.609-0.07,0.875c0,6.204,0,12.408,0.002,18.609l7.438,5.725
		c0.806,0.33,1.729,1.275,2.38,1.613c1.469,0.768,1.737,0.899,2.985,1.14c0.933,0.153,1.658,0.258,2.526,0.251
		c0.734-0.009,1.486-0.097,2.236-0.251c0.797-0.166,1.606-0.297,2.405-0.599c0.919-0.348,1.885-0.583,2.823-0.89
		c0.797-0.259,1.585-0.558,2.382-0.83c0.8-0.276,1.611-0.533,2.412-0.813c0.967-0.336,1.928-0.689,2.89-1.04
		c0.546-0.2,1.089-0.401,1.646-0.611c0.131,0.262,0.235,0.481,0.332,0.676c-1.215,0.488-2.419,0.995-3.642,1.459
		c-0.623,0.241-1.276,0.396-1.908,0.613c-0.487,0.164-0.996,0.31-1.438,0.561c-0.288,0.161-0.537,0.465-0.702,0.764
		c-0.438,0.798-0.846,1.623-1.231,2.454c-0.68,1.458-1.36,2.919-1.992,4.399c-0.576,1.356-0.499,2.667,0.158,4.028
		c0.606,1.266,1.688,1.856,2.855,2.293c0.604,0.227,1.377,0.186,2.037,0.066c1.797-0.319,2.916-1.514,3.657-3.116
		c0.53-1.152,1.054-2.305,1.585-3.459c0.101-0.218,0.167-0.572,0.33-0.622c0.357-0.12,0.76-0.098,1.147-0.105
		c0.887-0.015,1.77-0.015,2.66-0.015c0.907,0,1.823,0.011,2.734,0.011c0.683,0,1.372,0,2.056-0.022
		c0.482-0.013,0.964-0.068,1.446-0.081c0.118-0.004,0.271,0.059,0.357,0.142c1.251,1.185,2.479,2.398,3.744,3.566
		c0.72,0.661,1.506,1.236,2.232,1.886c0.759,0.679,1.472,1.415,2.226,2.106c0.802,0.74,1.635,1.442,2.434,2.186
		c0.142,0.131,0.242,0.38,0.248,0.578c0.032,1.56,0.039,3.125,0.044,4.687c0.004,0.962-0.02,1.926-0.012,2.884
		c0.003,0.585,0.093,1.178,0.037,1.754c-0.037,0.382-0.174,0.827-0.42,1.107c-1.204,1.366-2.74,1.432-4.122,0.254
		c-0.164-0.136-0.276-0.384-0.319-0.599c-0.07-0.359-0.087-0.732-0.083-1.102c0.013-1.172,0.061-2.348,0.07-3.521
		c0.011-1.087,0.013-2.171-0.025-3.259c-0.017-0.574-0.201-1.102-0.784-1.378c-0.103-0.05-0.18-0.149-0.268-0.226
		c-0.947-0.833-1.9-1.658-2.841-2.497c-0.51-0.451-0.995-0.936-1.501-1.39c-0.885-0.789-1.78-1.56-2.665-2.349
		c-0.313-0.282-0.593-0.598-0.906-0.871c-0.429-0.365-0.91-0.323-1.255,0.076c-0.302,0.344-0.255,0.692,0.182,1.086
		c1.375,1.248,2.764,2.477,4.137,3.722c0.797,0.72,1.566,1.467,2.36,2.185c0.549,0.495,1.127,0.953,1.665,1.452
		c0.131,0.119,0.241,0.334,0.241,0.506c0.009,1.719-0.013,3.437,0.001,5.153c0.008,1.211,0.133,2.423,0.068,3.624
		c-0.043,0.761,0.12,1.567-0.414,2.287c-0.424,0.567-0.953,0.876-1.589,1.048c-0.744,0.205-1.423-0.058-2.084-0.381
		c-0.646-0.316-0.529-0.919-0.534-1.443c-0.017-1.124,0.041-2.249,0.047-3.373c0.001-1.068-0.031-2.139-0.047-3.207
		c0-0.086-0.009-0.174,0.016-0.253c0.311-1.05-0.236-1.698-0.994-2.312c-0.791-0.643-1.511-1.371-2.263-2.062
		c-0.7-0.646-1.405-1.289-2.105-1.938c-0.392-0.366-0.775-0.739-1.165-1.105c-0.352-0.334-0.7-0.327-1.067,0.013
		c-0.291,0.274-0.365,0.755-0.094,1.049c0.459,0.49,0.958,0.937,1.452,1.4c0.818,0.763,1.641,1.524,2.468,2.283
		c0.662,0.606,1.333,1.206,1.994,1.818c0.08,0.077,0.157,0.215,0.161,0.329c0.027,1.247,0.049,2.493,0.047,3.74
		c-0.004,1.274-0.047,2.552-0.056,3.83c-0.004,0.667,0.009,1.339,0.05,2.003c0.07,1.073-0.59,2.274-1.843,2.556
		c-1.276,0.286-2.326-0.032-3.127-1.07c-0.086-0.107-0.08-0.396,0-0.509c0.837-1.113,1.752-2.168,2.536-3.315
		c0.763-1.116,1.03-2.371,0.473-3.683c-0.188-0.438-0.409-0.878-0.695-1.251c-0.793-1.03-1.958-1.281-3.216-1.468
		c0.512-0.957,0.713-1.956,0.414-2.997c-0.283-1.014-0.853-1.856-1.74-2.434c-0.878-0.578-1.894-0.598-2.89-0.481
		c-1.021,0.119-1.854,0.643-2.5,1.429c-0.151-1.267-0.696-2.259-1.686-3.029c-0.726-0.565-1.551-0.757-2.436-0.771
		c-1.08-0.02-1.955,0.459-2.701,1.184c-0.49,0.481-0.934,1.012-1.348,1.466c-0.548-0.542-1.038-1.206-1.688-1.624
		c-0.741-0.482-1.59-0.908-2.547-0.402c-0.201,0.102-0.499,0.038-0.678,0.162c-0.518,0.354-1.017,0.747-1.488,1.161
		c-0.219,0.194-0.362,0.476-0.538,0.72c-0.7,0.96-1.396,1.93-2.105,2.886c-0.276,0.38-0.578,0.739-0.863,1.087
		c-0.67-0.38-1.043-0.526-1.791-0.894c-0.284-0.14-0.49-0.334-0.659-0.542v0.032l-7.739-5.954c0.004,2.162,0.004,4.323,0.009,6.483
		c0,0.479,0.342,1.122,0.73,1.413c8.527,6.429,17.087,12.811,25.621,19.231c0.628,0.473,1.118,0.449,1.787,0.208
		c14.367-5.154,28.734-10.302,43.113-15.408c0.915-0.327,1.14-0.783,1.13-1.688C123.707,54.844,123.7,52.313,123.698,49.781z
		 M65.79,13.97c-0.769,0.164-1.004,0.488-0.997,1.245c0.027,4.679,0.011,9.358,0.011,14.038c0,0.457,0,0.908,0,1.554
		c-1.47-0.624-2.758-1.133-4.007-1.735c-0.216-0.1-0.353-0.573-0.353-0.877c-0.02-5.421-0.003-10.842-0.032-16.261
		c0-0.688,0.235-0.915,0.908-1.037C72.737,8.827,84.15,6.722,95.56,4.63c0.271-0.048,0.548-0.072,0.801-0.162
		c3.053-1.052,5.881-0.25,8.873,1.053c-2.647,0.575-5.109,1.122-7.572,1.647C87.038,9.443,76.42,11.722,65.79,13.97z M65.938,58.211
		c-0.897,1.335-2.85,0.916-3.561-0.176c-0.49-0.757-0.332-1.647,0.167-2.373c0.744-1.088,1.581-2.116,2.372-3.177
		c0.406-0.549,0.797-1.109,1.199-1.659c0.452-0.617,1.066-1.124,1.842-1.014c1.229,0.012,2.063,0.849,2.11,2.104
		c0.021,0.563-0.194,1.138-0.589,1.619c-0.458,0.557-0.853,1.158-1.287,1.732c-0.563,0.732-1.138,1.45-1.701,2.183
		C66.298,57.694,66.114,57.951,65.938,58.211z M66.896,61.345c-0.144-0.303-0.166-0.66-0.251-0.991
		c-0.036-0.887,0.553-1.464,0.973-2.085c0.544-0.808,1.169-1.562,1.756-2.344c1.037-1.375,2.072-2.751,3.103-4.132
		c0.398-0.528,0.851-1.026,1.165-1.603c0.372-0.681,1.865-0.987,2.477-0.824c0.889,0.233,1.524,0.801,1.842,1.59
		c0.341,0.854,0.163,1.743-0.402,2.509c-0.566,0.765-1.134,1.536-1.717,2.293c-0.833,1.081-1.688,2.147-2.521,3.231
		c-0.315,0.409-0.576,0.858-0.881,1.274c-0.451,0.607-0.86,1.26-1.384,1.797C69.593,63.563,67.654,62.949,66.896,61.345z
		 M76.784,65.695c-1.148,1.468-3.046,0.966-3.929-0.036c-0.587-0.669-0.69-1.981-0.195-2.692c0.696-0.998,1.432-1.971,2.177-2.929
		c0.61-0.779,1.27-1.513,1.887-2.283c0.563-0.708,1.093-1.436,1.644-2.154c0.612-0.79,1.21-1.599,1.856-2.36
		c0.421-0.497,0.857-1.036,1.401-1.355c1.05-0.621,2.77-0.341,3.387,0.951c0.161,0.336,0.283,0.693,0.424,1.041
		c-0.07,1.068-0.573,1.838-1.253,2.56c-0.529,0.556-0.953,1.204-1.435,1.805c-0.57,0.711-1.161,1.407-1.728,2.125
		c-0.207,0.26-0.347,0.578-0.557,0.836c-0.691,0.86-1.403,1.705-2.109,2.556C77.829,64.399,77.296,65.039,76.784,65.695z
		 M84.32,67.056c-0.36,0.459-0.733,0.916-1.104,1.368c-0.313,0.38-0.589,0.804-0.953,1.127c-0.555,0.484-1.253,0.649-1.979,0.61
		c-0.711-0.036-1.752-0.955-1.924-1.651c-0.086-0.355-0.18-0.711-0.266-1.064c0.004-0.601,0.291-1.055,0.632-1.482
		c0.556-0.698,1.127-1.38,1.675-2.077c0.667-0.847,1.32-1.705,1.976-2.554c0.72-0.928,1.446-1.85,2.155-2.787
		c0.422-0.556,1.985-1.048,2.643-0.808c1.697,0.628,2.031,1.716,1.744,3.292c-0.077,0.413-0.433,0.786-0.709,1.138
		c-0.94,1.185-1.909,2.344-2.857,3.521C84.995,66.131,84.671,66.604,84.32,67.056z"/>
</g>
</svg>
